<?xml version="1.0" encoding="UTF-8"?>
<!DOCTYPE svg PUBLIC "-//W3C//DTD SVG 1.1//EN" "http://www.w3.org/Graphics/SVG/1.1/DTD/svg11.dtd">
<!-- Creator: CorelDRAW -->
<svg xmlns="http://www.w3.org/2000/svg" xml:space="preserve" width="474px" height="798px" version="1.1" style="shape-rendering:geometricPrecision; text-rendering:geometricPrecision; image-rendering:optimizeQuality; fill-rule:evenodd; clip-rule:evenodd"
viewBox="0 0 138.697 233.516"
 xmlns:xlink="http://www.w3.org/1999/xlink"
 xmlns:xodm="http://www.corel.com/coreldraw/odm/2003">
 <defs>
  <style type="text/css">
   <![CDATA[
    .fil27 {fill:none}
    .fil1 {fill:black}
    .fil24 {fill:black}
    .fil5 {fill:#0077C0}
    .fil3 {fill:#0D5395}
    .fil6 {fill:#212025}
    .fil4 {fill:#242F5C}
    .fil26 {fill:#2EB8B1}
    .fil9 {fill:#32333B}
    .fil11 {fill:#3F251B}
    .fil30 {fill:#3F251B}
    .fil16 {fill:#46A5DD}
    .fil29 {fill:#55321E}
    .fil7 {fill:#6E6D6E}
    .fil33 {fill:#7A5F54}
    .fil18 {fill:#7E7E84}
    .fil31 {fill:#895E47}
    .fil14 {fill:#8ACDCD}
    .fil32 {fill:#A96045}
    .fil37 {fill:#BEC1C4}
    .fil15 {fill:#C57958}
    .fil19 {fill:#C77350}
    .fil35 {fill:#CB4D30}
    .fil36 {fill:#D88451}
    .fil23 {fill:#E09867}
    .fil13 {fill:#E19968}
    .fil2 {fill:#E6E6E6}
    .fil34 {fill:#EBF1F3}
    .fil12 {fill:#F8CA87}
    .fil22 {fill:#FEEAB6}
    .fil8 {fill:white}
    .fil25 {fill:white}
    .fil10 {fill:#212025;fill-rule:nonzero}
    .fil21 {fill:#CCB7A3;fill-rule:nonzero}
    .fil17 {fill:white;fill-rule:nonzero}
    .fil20 {fill:black;fill-opacity:0.149020}
    .fil0 {fill:black;fill-opacity:0.200000}
    .fil28 {fill:black;fill-opacity:0.200000}
   ]]>
  </style>
    <mask id="id0">
  <linearGradient id="id1" gradientUnits="userSpaceOnUse" x1="4.628" y1="63.464" x2="10.772" y2="59.544">
   <stop offset="0" style="stop-opacity:1; stop-color:white"/>
   <stop offset="1" style="stop-opacity:0; stop-color:white"/>
  </linearGradient>
     <rect style="fill:url(#id1)" x="3.411" y="55.63" width="13.675" height="12.11"/>
    </mask>
    <mask id="id2">
  <linearGradient id="id3" gradientUnits="userSpaceOnUse" x1="20.667" y1="85.205" x2="20.932" y2="78.023">
   <stop offset="0" style="stop-opacity:1; stop-color:white"/>
   <stop offset="0.6" style="stop-opacity:0.501961; stop-color:white"/>
   <stop offset="1" style="stop-opacity:0; stop-color:white"/>
  </linearGradient>
     <rect style="fill:url(#id3)" x="12.753" y="75.646" width="13.881" height="9.915"/>
    </mask>
    <mask id="id4">
  <linearGradient id="id5" gradientUnits="userSpaceOnUse" x1="23.954" y1="95.34" x2="23.274" y2="84.766">
   <stop offset="0" style="stop-opacity:1; stop-color:white"/>
   <stop offset="0.588235" style="stop-opacity:0.501961; stop-color:white"/>
   <stop offset="1" style="stop-opacity:0; stop-color:white"/>
  </linearGradient>
     <rect style="fill:url(#id5)" x="11.354" y="85.395" width="18.076" height="15.412"/>
    </mask>
    <mask id="id6">
  <linearGradient id="id7" gradientUnits="userSpaceOnUse" x1="23.965" y1="76.034" x2="24.964" y2="67.219">
   <stop offset="0" style="stop-opacity:1; stop-color:white"/>
   <stop offset="0.470588" style="stop-opacity:0.501961; stop-color:white"/>
   <stop offset="1" style="stop-opacity:0; stop-color:white"/>
  </linearGradient>
     <rect style="fill:url(#id7)" x="12.753" y="68.21" width="17.322" height="10.739"/>
    </mask>
    <mask id="id8">
  <linearGradient id="id9" gradientUnits="userSpaceOnUse" x1="79.804" y1="116.285" x2="79.065" y2="113.222">
   <stop offset="0" style="stop-opacity:1; stop-color:white"/>
   <stop offset="1" style="stop-opacity:0; stop-color:white"/>
  </linearGradient>
     <rect style="fill:url(#id9)" x="71.857" y="112.935" width="9.538" height="3.898"/>
    </mask>
     <mask id="id10">
  <linearGradient id="id11" gradientUnits="userSpaceOnUse" x1="103.13" y1="40.527" x2="101.08" y2="51.74">
   <stop offset="0" style="stop-opacity:1; stop-color:white"/>
   <stop offset="1" style="stop-opacity:0; stop-color:white"/>
  </linearGradient>
      <rect style="fill:url(#id11)" x="95.139" y="38.712" width="12.879" height="14.208"/>
     </mask>
     <mask id="id12">
  <linearGradient id="id13" gradientUnits="userSpaceOnUse" x1="82.336" y1="34.77" x2="80.561" y2="47.888">
   <stop offset="0" style="stop-opacity:1; stop-color:white"/>
   <stop offset="0.760784" style="stop-opacity:0.501961; stop-color:white"/>
   <stop offset="1" style="stop-opacity:0; stop-color:white"/>
  </linearGradient>
      <rect style="fill:url(#id13)" x="63.422" y="33.745" width="34.701" height="19.24"/>
     </mask>
     <clipPath id="id14">
      <path d="M82.121 49.927c0.01,-0.987 -0.24,-6.65 -1.189,-7.092 -2.557,-1.193 -5.206,-0.808 -7.721,-0.006 -0.689,0.22 -2.247,0.777 -2.723,1.339 -0.492,0.58 -0.806,2.945 -1.005,4.083 1.127,0.306 2.312,0.552 3.429,0.763 3.02,0.57 6.128,0.898 9.209,0.913z"/>
     </clipPath>
     <clipPath id="id15">
      <path d="M96.196 44.559c0,0 5.764,-0.486 6.609,0.574 0.845,1.061 1.148,3.681 0.731,4.842 -0.416,1.161 -0.858,2.503 -0.858,2.503l-6.959 -0.795 -0.366 -6.658 0.843 -0.466z"/>
     </clipPath>
     <mask id="id16">
  <linearGradient id="id17" gradientUnits="userSpaceOnUse" x1="54.01" y1="27.638" x2="56.859" y2="41.581">
   <stop offset="0" style="stop-opacity:1; stop-color:white"/>
   <stop offset="1" style="stop-opacity:0; stop-color:white"/>
  </linearGradient>
      <rect style="fill:url(#id17)" x="47.599" y="28.849" width="15.798" height="22.63"/>
     </mask>
 </defs>
 <g id="Layer_x0020_1">
  <metadata id="CorelCorpID_0Corel-Layer"/>
  <g id="_1952340888800">
   <path class="fil0" d="M81.547 201.781c23.937,0 43.342,4.609 43.342,10.294 0,3.283 -6.47,6.207 -16.547,8.092 -3.16,7.319 -21.14,12.928 -42.848,12.928 -23.937,0 -43.342,-6.819 -43.342,-15.232 0,-8.263 18.719,-14.988 42.066,-15.225 5.308,-0.551 11.167,-0.857 17.329,-0.857z"/>
   <path class="fil1" d="M113.179 204.213c0.348,1.231 0.515,2.837 0.386,4.097 -0.105,1.018 -0.233,2.579 -1.127,3.244 -0.35,0.261 -0.763,0.288 -1.178,0.322 -0.45,0.037 -0.903,0.058 -1.354,0.076 -1.546,0.063 -3.101,0.078 -4.648,0.071 -4.851,-0.022 -9.739,-0.275 -14.561,-0.789 -3.936,-0.419 -7.962,-0.984 -11.818,-1.895 -1.175,-0.277 -2.572,-0.617 -3.697,-1.072l-1.108 -0.448 2.772 -8.843 1.164 0.262c4.877,1.098 9.854,2.054 14.782,2.874 3.739,0.623 7.548,1.186 11.328,1.482 1.848,0.144 5.624,0.395 7.366,-0.245l1.313 -0.482 0.38 1.346z"/>
   <path class="fil2" d="M111.933 204.565c0,0 0.523,1.86 0.343,3.613 -0.18,1.753 -0.394,2.175 -0.612,2.337 -0.217,0.162 -9.908,0.594 -20.83,-0.569 -10.922,-1.164 -15.166,-2.88 -15.166,-2.88l2.057 -6.564c0,0 28.073,6.317 34.208,4.063z"/>
   <path class="fil1" d="M95.94 199.869c0.993,-0.849 2.202,-1.652 3.279,-2.243 2.678,-1.472 5.801,-2.317 8.835,-1.551 2.93,0.739 4.83,2.758 5.5,5.675 0.225,0.979 0.3,2.013 0.24,3.016 -0.033,0.555 -0.125,1.434 -0.376,1.935 -0.534,1.068 -1.507,1.359 -2.613,1.536 -1.006,0.161 -2.075,0.208 -3.093,0.238 -1.817,0.053 -3.645,0.028 -5.462,-0.013 -2.7,-0.061 -5.433,-0.307 -8.119,-0.59 -2.91,-0.307 -5.815,-0.681 -8.712,-1.087 -3.303,-0.464 -6.614,-0.965 -9.902,-1.528l-1.244 -0.214 1.596 -11.033 20.071 5.859z"/>
   <path class="fil2" d="M75.736 203.98c0,0 17.347,2.978 26.543,3.187 9.197,0.209 9.667,-0.418 9.98,-1.045 0.314,-0.627 1.278,-7.328 -4.522,-8.791 -5.799,-1.463 -11.431,2.888 -11.431,2.888l-19.368 -4.547 -1.202 8.308z"/>
   <path class="fil3" d="M76.904 204.175c2.578,0.425 9.034,1.453 15.387,2.188 0.802,-2.174 0.998,-3.788 3.183,-5.664 0.18,-0.155 0.372,-0.342 0.567,-0.543l-17.35 -4.073c-0.31,0.309 -0.605,0.63 -0.885,0.961 -1.522,1.808 -1.691,4.972 -0.902,7.131z"/>
   <path class="fil1" d="M94.729 201.662l-0.092 0.908 -0.454 -0.046c-0.357,-0.037 -0.713,-0.1 -1.066,-0.167 -0.884,-0.17 -1.758,-0.398 -2.615,-0.676 -2.631,-0.851 -5.137,-2.182 -7.206,-4.028l-0.34 -0.304 0.608 -0.68 0.34 0.303c1.974,1.762 4.369,3.03 6.879,3.842 0.821,0.265 1.658,0.485 2.506,0.647 0.326,0.063 0.655,0.122 0.986,0.155l0.454 0.046z"/>
   <path class="fil4" d="M112.948 109.361c0.473,0.207 1.395,0.433 1.82,0.533l1.417 0.332 -0.18 1.078 14.81 4.472 -13.436 10.14 -14.665 0.047 -0.026 -1.533c-0.015,-0.877 -0.084,-1.778 -0.16,-2.65 -0.186,-2.125 -0.488,-4.252 -0.915,-6.342 -0.969,-4.742 -2.846,-10.463 -6.443,-13.872l-3.294 -3.121 4.516 0.446c1.581,0.156 3.188,0.38 4.752,0.645 1.811,0.306 5.31,0.926 6.63,2.157 1.143,1.065 2.339,3.038 3.17,4.381 0.465,0.751 0.919,1.509 1.376,2.264 0.185,0.306 0.409,0.708 0.628,1.023z"/>
   <path class="fil5" d="M96.24 100.438c0,0 8.852,0.88 10.474,2.392 1.622,1.512 4.784,7.368 5.196,7.725 0.413,0.358 2.502,0.852 2.502,0.852l-0.165 0.99 13.188 3.982 -10.579 7.984 -12.614 0.04c0,0 -0.279,-16.646 -8.002,-23.965z"/>
   <path class="fil3" d="M96.24 100.438c0,0 1.541,0.153 3.455,0.442 2.712,3.058 7.535,8.583 8.778,10.589 1.757,2.835 1.823,3.474 1.823,3.474l2.281 -1.413c0,0 -1.636,1.785 -1.116,4.164 0.521,2.38 6.098,2.801 8.081,1.463 1.288,-0.87 3.746,-2.512 5.311,-3.557l2.582 0.779 -10.579 7.984 -12.614 0.04c0,0 -0.279,-16.646 -8.002,-23.965z"/>
   <path class="fil1" d="M98.429 149.015l2.075 -0.761 0 7.913 -0.953 0.4c-0.718,0.301 -1.615,0.52 -2.371,0.683 -2.116,0.456 -4.333,0.641 -6.494,0.661 -4.751,0.045 -10.522,-0.892 -14.909,-2.779 -1.097,-0.471 -2.209,-0.956 -3.275,-1.495 -0.295,-0.148 -0.649,-0.324 -0.918,-0.519l-0.656 -0.476 0.118 -6.417 1.998 0.651c1.569,0.512 3.263,0.924 4.872,1.278 3.526,0.778 7.205,1.312 10.818,1.375 2.53,0.045 5.169,0.045 7.691,-0.203 0.56,-0.055 1.459,-0.136 2.004,-0.311z"/>
   <path class="fil1" d="M72.562 148.355c0,0 7.94,2.585 16.145,2.729 8.204,0.144 10.242,-0.603 10.242,-0.603l0 4.652c0,0 -2.8,1.172 -8.278,1.223 -5.478,0.052 -10.956,-1.223 -14.28,-2.652 -3.325,-1.43 -3.893,-1.844 -3.893,-1.844l0.064 -3.505z"/>
   <path class="fil6" d="M76.978 149.535c0.729,0.167 1.527,0.338 2.38,0.503l0 3.86c2.261,0.675 4.825,1.225 7.451,1.369 8.019,0.442 10.436,-0.94 10.436,-0.94l0 -3.531c0.423,-0.052 0.753,-0.104 1.005,-0.151l0 3.557 0.406 0.385 -0.517 0.818c-1.193,0.349 -3.696,0.916 -7.468,0.951 -5.478,0.052 -10.956,-1.223 -14.28,-2.652 -3.325,-1.43 -3.893,-1.844 -3.893,-1.844l0.012 -0.654c0.996,0.492 2.575,1.217 4.519,1.922l-0.051 -3.593z"/>
   <path class="fil7" d="M87.191 151.148c0.503,0.026 1.009,0.044 1.516,0.053l0.05 0.001 -0.058 3.182c0,0 1.801,0.141 3.367,0.094 1.566,-0.047 2.772,-0.183 2.772,-0.183l0 -0.486 -0.439 -0.02 -0.02 -0.832 0.736 -0.029 0 -0.379 -3.351 0 0 -1.335c1.632,-0.018 2.92,-0.076 3.926,-0.15l0 4.33c0,0 -1.704,0.324 -4.217,0.324 -2.513,0 -4.282,-0.151 -4.282,-0.151l0 -4.419z"/>
   <path class="fil1" d="M72.359 218.583c-0.08,0.133 -0.161,0.266 -0.245,0.397 -0.793,1.245 -1.751,2.366 -2.98,3.202 -3.945,2.683 -11.032,2.93 -15.619,2.757 -3.04,-0.114 -6.11,-0.635 -8.992,-1.619 -1.101,-0.376 -2.409,-0.886 -3.418,-1.485l-0.456 -0.271 -0.196 -0.493c-0.323,-0.816 -0.527,-1.881 -0.507,-2.75 0.021,-0.917 0.362,-1.985 0.873,-2.764l1.739 -2.992 1.107 0.243c2.79,0.611 5.648,1.131 8.468,1.573 2.221,0.348 4.476,0.653 6.72,0.811 1.344,0.095 3.422,0.212 4.729,-0.124 2.16,-0.555 4.51,-2.528 6.274,-3.901 1.874,-1.459 4.492,-3.565 7.031,-3.047l0.967 0.198 0.233 0.959c0.134,0.551 0.224,1.238 0.181,1.804 -0.057,0.738 -0.118,1.476 -0.198,2.213 -0.092,0.846 -0.19,2.243 -0.794,2.877 -0.536,0.562 -2.303,1.329 -3.082,1.678l-1.821 0.816 -0.014 -0.082z"/>
   <path class="fil2" d="M43.332 214.327l-1.192 2.051c0,0 -0.615,0.909 -0.64,1.979 -0.025,1.071 0.398,2.141 0.398,2.141 0,0 4.406,2.614 11.675,2.888 7.269,0.273 12.198,-0.797 14.687,-2.49 2.489,-1.692 3.435,-4.705 3.958,-5.053 0.523,-0.348 0.801,-0.22 1.042,0.035 0.241,0.255 0.298,0.552 0.298,0.552 0,0 2.309,-1.034 2.593,-1.331 0.283,-0.298 0.524,-3.585 0.566,-4.138 0.043,-0.552 -0.141,-1.317 -0.141,-1.317 -3.335,-0.681 -7.835,5.704 -12.607,6.93 -4.771,1.226 -20.637,-2.247 -20.637,-2.247z"/>
   <path class="fil8" d="M43.332 214.327l-1.192 2.051c0,0 -0.401,0.593 -0.569,1.385l0.454 0.181c5.985,2.392 12.433,3.15 18.847,2.242 1.974,-0.28 3.949,-0.716 5.853,-1.325 0.66,-0.211 1.462,-0.299 2.05,-0.673l0 0 0 0c0.074,-0.047 0.145,-0.099 0.211,-0.155l0.535 -0.395c1.128,-1.233 2.494,-2.456 3.767,-3.529 0.82,-0.692 2.227,-1.72 3.354,-2.206 0.037,-0.439 0.064,-0.792 0.075,-0.942 0.043,-0.552 -0.141,-1.317 -0.141,-1.317 -3.335,-0.681 -7.835,5.704 -12.607,6.93 -4.771,1.226 -20.637,-2.247 -20.637,-2.247z"/>
   <path class="fil1" d="M65.463 216.367l-21.13 -6.067 1.177 -1.769c0.909,-1.368 1.809,-2.745 2.702,-4.124 0.722,-1.114 1.439,-2.231 2.143,-3.356 0.538,-0.861 1.088,-1.737 1.578,-2.625 2.082,-3.77 8.782,-4.429 12.639,-3.824 2.092,0.328 3.932,1.075 5.707,2.217 1.334,0.858 2.497,1.875 3.776,2.793 0.674,0.484 1.374,0.967 2.092,1.383 0.182,0.104 0.417,0.244 0.616,0.322l1.159 0.358 -0.101 1.244c-0.088,1.072 -0.105,2.194 -0.105,3.269 0,0.915 0.093,2.126 0.351,3.015l0.155 0.793 -1.182 1.131c-1.174,0.368 -2.831,1.546 -3.752,2.311 -1.273,1.058 -2.639,2.264 -3.767,3.483l-0.746 0.541 -3.312 -1.095z"/>
   <path class="fil5" d="M65.969 214.894l2.411 0.971c0,0 1.479,-1.599 3.914,-3.622 2.435,-2.024 4.282,-2.599 4.282,-2.599 0,0 -0.415,-1.402 -0.415,-3.456 0,-2.054 0.11,-3.396 0.11,-3.396 0,0 -0.794,-0.246 -3.122,-1.917 -2.328,-1.67 -4.628,-4.08 -8.818,-4.737 -4.19,-0.658 -9.585,0.411 -11.036,3.04 -1.452,2.629 -6.491,10.214 -6.491,10.214l19.165 5.502z"/>
   <path class="fil3" d="M70.969 213.381c0.09,-0.075 0.062,-0.089 1.325,-1.138 1.264,-1.05 4.282,-2.599 4.282,-2.599 0,0 -0.415,-1.402 -0.415,-3.456 0,-2.054 0.11,-3.396 0.11,-3.396 0,0 -0.794,-0.246 -3.122,-1.917 -1.868,-1.34 -3.718,-3.156 -6.541,-4.161 -0.834,-0.142 -1.51,-0.148 -1.957,0.005 0,0 -1.01,2.598 -2.078,4.849 -1.067,2.251 -5.679,3.947 -5.679,3.947 0,0 7.946,-0.765 10.463,1.226 2.516,1.992 2.657,3.261 3.612,6.64z"/>
   <path class="fil1" d="M92.257 207.011l-0.852 -0.324 0.161 -0.426c0.128,-0.336 0.281,-0.663 0.438,-0.986 0.393,-0.811 0.84,-1.595 1.33,-2.351 1.503,-2.321 3.438,-4.396 5.757,-5.916l0.382 -0.25 0.499 0.763 -0.381 0.249c-2.213,1.451 -4.058,3.436 -5.492,5.65 -0.469,0.724 -0.898,1.476 -1.275,2.252 -0.145,0.3 -0.287,0.602 -0.405,0.913l-0.162 0.426z"/>
   <path class="fil1" d="M64.472 210.263l0.52 0.749 0.375 -0.26c0.295,-0.205 0.575,-0.433 0.851,-0.663 0.691,-0.577 1.344,-1.201 1.959,-1.859 1.888,-2.021 3.434,-4.4 4.347,-7.018l0.15 -0.431 -0.861 -0.3 -0.15 0.43c-0.872,2.498 -2.351,4.769 -4.152,6.696 -0.589,0.631 -1.215,1.229 -1.878,1.782 -0.255,0.213 -0.514,0.424 -0.787,0.614l-0.374 0.26z"/>
   <path class="fil1" d="M64.097 201.87l-0.303 0 -0.259 -0.171c-2.28,-1.502 -5.195,-0.944 -7.742,-0.749 -0.829,0.063 -2.173,0.163 -2.905,-0.298 -0.474,-0.297 -0.718,-0.802 -0.656,-1.357 0.037,-0.339 0.183,-0.649 0.354,-0.94 0.542,-0.92 1.931,-1.815 2.859,-2.281 1.879,-0.941 3.995,-1.355 6.089,-1.311 1.904,0.04 4.059,0.426 5.641,1.554 1.085,0.774 2.013,2.076 1.662,3.473 -0.478,1.906 -3.132,2.113 -4.74,2.08z"/>
   <path class="fil8" d="M64.105 200.833c0.119,0 3.362,0.158 3.727,-1.295 0.365,-1.454 -1.616,-3.639 -6.32,-3.739 -4.704,-0.099 -7.559,2.277 -8.032,3.082 -0.474,0.804 -0.378,1.235 2.234,1.035 2.611,-0.199 5.781,-0.802 8.391,0.917z"/>
   <path class="fil2" d="M64.105 200.833l0.004 0 0.004 0 0.003 0 0.008 0.001 0.001 0 0.009 0 0.008 0 0.004 0 0.013 0.001 0.003 0 0.012 0 0.013 0 0.004 0 0.018 0.001 0.007 0 0.013 0 0.019 0.001 0.002 0 0.023 0 0.011 0 0.013 0 0.026 0.001 0.001 0 0.026 0 0.017 0 0.011 0 0.03 0 0.005 0 0.026 0 0.023 0 0.009 0 0.034 0 0.009 0 0.025 0 0.03 -0.001 0.006 0 0.037 0 0.014 -0.001 0.024 0 0.036 -0.001 0.002 0 0.04 -0.001 0.021 -0.001 0.001 0 0.053 -0.001 0.008 -0.001 0.002 0 0.04 -0.001 0.027 -0.001 0.016 -0.001 0.045 -0.002 0.008 -0.001 0.036 -0.001 0.034 -0.002 0.012 -0.001 0.046 -0.003 0.015 -0.001 0.032 -0.002 0.041 -0.003 0.007 0 0.048 -0.004 0.021 -0.002 0.028 -0.002 0.048 -0.004 0.001 0 0.05 -0.005 0.008 -0.001 0.037 -0.003 0.005 -0.001 0.05 -0.005 0.005 0 0.046 -0.006 0.008 0 0.04 -0.005 0.003 0 0.052 -0.007 0.011 -0.001 0.04 -0.006 0.013 -0.001 0.039 -0.006 0.052 -0.007 0.003 -0.001 0.033 -0.005 0.042 -0.006 0.022 -0.004 0.005 -0.001 0.052 -0.008 0.011 -0.002 0.026 -0.005 0.049 -0.009 0.019 -0.003 0.001 0 0.052 -0.011 0.007 -0.001 0.04 -0.008 0.005 -0.001 0.052 -0.011 0.027 -0.006 0.041 -0.01 0.032 -0.007 0.004 -0.001 0.052 -0.013 0.004 -0.001 0.028 -0.007 0.042 -0.011 0.025 -0.007 0.004 -0.001 0.05 -0.014 0.006 -0.002 0.029 -0.009 0.049 -0.015 0.013 -0.004 0.004 -0.001c0.594,-0.188 1.096,-0.502 1.226,-1.023 0.231,-0.922 -0.482,-2.139 -2.235,-2.931 -0.377,-0.008 -0.697,0.027 -0.946,0.112 0,0 -0.248,0.64 -0.629,1.559 -1.107,-0.47 -2.36,-0.671 -3.523,-0.721 -2.074,-0.088 -4.205,0.165 -6.165,0.938 -0.284,0.112 -0.567,0.237 -0.847,0.374l-0.007 0.012c-0.474,0.805 -0.378,1.235 2.234,1.035 2.299,-0.175 5.032,-0.664 7.435,0.397l0.015 0.007 0.016 0.006 0.015 0.007 0.061 0.028 0.015 0.007 0.015 0.007 0.015 0.007 0.015 0.007 0.015 0.008 0.046 0.022 0.015 0.007 0 0 0.06 0.03 0.015 0.008 0.039 0.019c0.028,0.015 0.056,0.029 0.084,0.044l0.034 0.019c0.034,0.018 0.068,0.037 0.102,0.056l0.019 0.011c0.036,0.02 0.071,0.041 0.107,0.062l0.014 0.008c0.038,0.023 0.076,0.046 0.114,0.07l0.002 0.001 0.006 0.004c0.039,0.025 0.078,0.05 0.117,0.075z"/>
   <path class="fil1" d="M62.071 204.402c-0.823,-0.157 -1.704,-0.303 -2.543,-0.318 -0.47,-0.008 -0.908,0.045 -1.374,0.076 -1.412,0.094 -2.9,0.124 -4.313,0.05 -0.769,-0.04 -1.727,-0.115 -2.451,-0.38 -0.443,-0.162 -0.848,-0.422 -1.06,-0.86 -0.277,-0.574 -0.103,-1.175 0.306,-1.632 0.978,-1.092 2.333,-1.885 3.698,-2.388 1.96,-0.722 4.091,-0.92 6.165,-0.778 1.841,0.126 3.909,0.639 5.262,1.976 0.874,0.864 1.514,2.258 0.907,3.451 -0.485,0.954 -1.44,1.26 -2.45,1.21 -0.73,-0.037 -1.441,-0.233 -2.147,-0.407z"/>
   <path class="fil8" d="M62.293 203.389c1.216,0.299 2.906,0.814 3.451,-0.259 0.546,-1.073 -0.672,-3.605 -5.316,-3.924 -4.644,-0.319 -7.644,1.288 -9.02,2.823 -1.375,1.535 5.781,1.156 6.677,1.096 0.897,-0.059 1.597,-0.235 4.208,0.264z"/>
   <path class="fil2" d="M62.293 203.389l0.042 0.01 0.015 0.004 0.029 0.007 0.029 0.007 0.014 0.004 0.044 0.011 0.001 0 0.043 0.011 0.016 0.004 0.029 0.007 0.03 0.008 0.015 0.003 0.045 0.012 0.001 0 0.044 0.011 0.017 0.004 0.029 0.007 0.032 0.008 0.014 0.004 0.046 0.011 0.001 0.001 0.045 0.011 0.017 0.004 0.029 0.007 0.033 0.008 0.014 0.003 0.047 0.011 0.002 0.001 0.045 0.01 0.018 0.004 0.029 0.007 0.034 0.008 0.013 0.003 0.047 0.011 0.003 0 0.045 0.01 0.018 0.004 0.029 0.006 0.006 0.002 0.042 0.008 0.047 0.01 0.003 0.001 0.044 0.009 0.02 0.004 0.028 0.005 0.035 0.007 0.012 0.002 0.048 0.009 0.004 0.001 0.043 0.008 0.02 0.003 0.028 0.005 0.035 0.006 0.012 0.002 0.047 0.007 0.004 0.001 0.043 0.006 0.02 0.003 0.013 0.002 0.038 0.005 0.012 0.002 0.011 0.001 0.047 0.006 0.004 0.001 0.017 0.002 0.036 0.004 0.009 0.001 0.026 0.003 0.011 0.001 0.032 0.003 0.004 0 0.045 0.004 0.005 0.001 0.041 0.003 0.002 0 0.039 0.002 0.014 0.001 0.033 0.002 0.003 0 0.045 0.002 0.005 0 0.039 0.001 0.006 0 0.03 0.001 0.02 0 0.032 0 0.044 -0.001 0.026 -0.001 0.023 0 0.029 -0.002 0.021 -0.001 0.029 -0.002 0.043 -0.003 0.032 -0.003 0.012 -0.001 0.034 -0.004 0.013 -0.002 0.032 -0.004 0 0 0.041 -0.007 0 0 0.03 -0.005 0.012 -0.002 0.031 -0.006 0.017 -0.004 0.028 -0.006 0.038 -0.01 0 0 0.024 -0.007 0.02 -0.005 0.024 -0.007 0.022 -0.008 0.02 -0.006 0.001 -0.001 0.037 -0.013c0.257,-0.098 0.467,-0.267 0.604,-0.537 0.405,-0.797 -0.162,-2.398 -2.382,-3.3 -0.249,0.569 -0.517,1.165 -0.789,1.738l-0.019 0.04c-1.151,-0.531 -2.472,-0.867 -3.692,-0.965 -2.445,-0.196 -4.786,0.262 -7.125,1.048 -0.118,0.113 -0.228,0.226 -0.329,0.338 -1.375,1.535 5.781,1.156 6.677,1.096 0.751,-0.05 1.364,-0.18 3.074,0.07l0.016 0.003 0.016 0.002 0.016 0.002 0.015 0.003 0.016 0.002 0.016 0.002 0.016 0.003 0.032 0.005 0.017 0.002 0.016 0.003 0.016 0.002 0.017 0.003 0.016 0.002 0.015 0.003 0.002 0 0.016 0.003 0.017 0.002 0.017 0.003 0.016 0.003 0.017 0.002 0.017 0.003 0.001 0 0.016 0.003 0.017 0.003 0.017 0.002 0.017 0.003 0.018 0.003 0.017 0.003 0.003 0.001 0.014 0.002 0.018 0.003 0.017 0.003 0.018 0.003 0.017 0.003 0.018 0.003 0.006 0.001 0.012 0.002 0.018 0.003 0.036 0.006 0.018 0.003 0.018 0.003 0.008 0.002 0.01 0.002 0.018 0.003 0.019 0.003 0.018 0.003 0.018 0.004 0.019 0.003 0.011 0.002 0.007 0.001 0.019 0.004 0.019 0.003 0.038 0.007 0.019 0.003 0.013 0.003 0.082 0.015 0.02 0.004 0.017 0.003 0.002 0 0.079 0.015 0.02 0.004 0.02 0.004z"/>
   <path class="fil1" d="M65.123 207.991c-0.781,1.155 -2.916,1.158 -4.098,0.707 -0.324,-0.123 -0.648,-0.29 -0.96,-0.443 -0.408,-0.199 -0.816,-0.395 -1.233,-0.576 -0.901,-0.39 -1.906,-0.743 -2.891,-0.83 -1.124,-0.1 -2.394,0.025 -3.518,0.143 -0.538,0.057 -1.076,0.122 -1.615,0.17 -0.388,0.035 -0.88,0.08 -1.262,0.005 -0.621,-0.122 -1.034,-0.615 -1.151,-1.223 -0.085,-0.437 -0.019,-0.904 0.126,-1.321 0.348,-1 1.154,-1.787 2.171,-2.092 2.69,-0.807 5.361,-1.245 8.17,-0.808 1.686,0.261 3.566,0.991 4.922,2.024 1.322,1.007 2.423,2.641 1.339,4.244z"/>
   <path class="fil8" d="M64.264 207.411c-0.426,0.631 -2.033,0.638 -2.87,0.319 -0.837,-0.319 -3.109,-1.714 -5.362,-1.914 -2.252,-0.199 -5.566,0.476 -6.286,0.334 -0.72,-0.141 -0.351,-2.148 1.244,-2.626 1.594,-0.478 4.504,-1.276 7.713,-0.777 3.209,0.498 6.812,2.814 5.561,4.664z"/>
   <path class="fil2" d="M60.944 203.362c0.767,0.302 1.484,0.681 2.071,1.105 -0.134,0.017 -0.268,0.034 -0.401,0.051 0.391,0.175 0.772,0.367 1.139,0.577 0.73,0.748 1.016,1.57 0.511,2.316 -0.426,0.631 -2.033,0.638 -2.87,0.319 -0.837,-0.319 -3.109,-1.714 -5.362,-1.914 -2.252,-0.199 -5.566,0.476 -6.286,0.334 -0.603,-0.118 -0.442,-1.543 0.562,-2.285 2.157,-0.645 4.426,-0.872 6.639,-0.714 1.137,0.082 2.316,0.273 3.463,0.587 0.182,-0.121 0.361,-0.246 0.534,-0.376z"/>
   <path class="fil1" d="M41.07 215.609c-0.123,-1.186 0.127,-2.686 0.491,-3.802 0.912,-2.799 2.875,-4.884 5.483,-6.211 3.033,-1.543 6.534,-2.063 9.903,-1.694 2.849,0.313 5.96,1.324 8.184,3.186 1.737,1.455 3.012,3.389 3.867,5.475 0.38,0.926 0.753,2.055 0.916,3.05l0.125 0.765 -1.024 0.906c-0.594,0.525 -1.535,0.593 -2.29,0.825 -1.904,0.586 -3.879,0.998 -5.853,1.253 -6.414,0.828 -12.862,-0.01 -18.847,-2.476l-0.859 -0.354 -0.096 -0.923z"/>
   <path class="fil8" d="M42.617 215.449c0,0 -0.581,-5.561 5.132,-8.467 5.712,-2.906 12.902,-1.618 16.384,1.298 3.481,2.915 4.247,7.585 4.247,7.585 0,0 -11.867,5.309 -25.763,-0.416z"/>
   <path class="fil2" d="M57.769 205.586c2.548,0.429 4.82,1.402 6.364,2.694 3.481,2.915 4.247,7.585 4.247,7.585 0,0 -11.867,5.309 -25.763,-0.416 8.679,2.807 25.228,-1.537 14.277,-9.934 0,0 0.321,0.025 0.875,0.071z"/>
   <path class="fil1" d="M78.121 204.874l-1.462 3.365 -1.616 -1.916c-2.011,-2.385 -6.422,-7.145 -9.17,-8.466 -2.357,-1.132 -4.755,-1.43 -7.313,-0.997 -1.094,0.186 -2.636,0.777 -3.68,1.191l-3.818 1.512 4.464 -8.795 2.573 -0.776 -0.326 -0.54 0.251 -0.697c1.955,-5.436 3.906,-10.873 5.853,-16.311 1.367,-3.817 2.733,-7.635 4.089,-11.456 0.471,-1.329 0.942,-2.657 1.408,-3.988 0.187,-0.535 0.409,-1.113 0.573,-1.661 0.04,-0.641 0.041,-1.318 0.059,-1.957 0.018,-0.623 0.033,-1.245 0.05,-1.867l0.908 -0.8 0.646 0.842c-0.002,-0.02 1.278,0.634 6.187,2.743 0.503,0.115 1.005,0.235 1.509,0.343 0.286,0.062 0.573,0.12 0.859,0.181l1.231 0.262 0 0c1.955,0.52 3.968,0.883 5.981,0.994 2.444,0.134 5.136,0.265 7.563,-0.125 2.01,-0.322 4.009,-0.968 5.434,-2.579l0 0.971 0.846 0.805 -1.951 3.087c0.042,1.508 0.05,3.025 0.048,4.531 -0.004,3.472 -0.091,6.968 -0.353,10.43 -0.284,3.747 -0.9,7.568 -1.585,11.262 -0.305,1.648 -0.629,3.304 -0.987,4.945l2.776 2.665 -0.635 3.015 -1.072 0.157c-0.935,0.138 -1.965,0.417 -2.868,0.681 -2.407,0.704 -4.764,1.67 -6.987,2.827 -2.188,1.139 -4.342,2.39 -6.385,3.774 -0.711,0.481 -1.473,1.005 -2.137,1.553l-0.963 0.795z"/>
   <path class="fil9" d="M71.61 151.557l0.304 -0.145c0,0 2.284,1.296 5.684,2.528l-0.062 -4.38c0,0 0.974,0.229 1.529,0.348 0.556,0.119 0.862,0.182 0.862,0.182l0 4.62c2.261,0.675 4.825,1.225 7.45,1.37 8.019,0.441 10.437,-0.94 10.437,-0.94l0 -4.523 1.005 -0.166 0 4.563 0.405 0.385 -1.523 2.411c0,0 0.258,8.07 -0.288,15.272 -0.545,7.202 -2.728,16.841 -2.728,16.841l2.784 2.673 -0.234 1.11c0,0 -4.604,0.677 -10.347,3.667 -5.744,2.991 -8.297,5.12 -8.297,5.12 0,0 -0.77,-2.724 -0.74,-3.257 0.03,-0.533 10.068,-34.949 10.068,-34.949l4.013 -2.416 -4.858 1.516 -11.045 36.647 0.846 3.807 -0.643 1.48c0,0 -5.969,-7.079 -9.686,-8.865 -3.716,-1.786 -6.9,-1.357 -8.246,-1.129 -1.346,0.229 -3.993,1.278 -3.993,1.278l2.305 -4.54 3.856 -1.164 -0.981 -1.62c0,0 11.969,-33.277 12,-33.678 0.031,-0.401 0.123,-4.046 0.123,-4.046z"/>
   <path class="fil6" d="M96.727 155.527c0.531,-0.143 0.844,-0.272 0.989,-0.339l1.148 0.184 -1.442 2.534 -0.762 0.206c0,0 -0.406,8.802 -1.495,18.141 -1.089,9.34 -1.843,13.528 -1.843,13.528 0,0 -3.016,-0.109 -5.638,1.001 -2.622,1.109 -2.683,2.259 -2.683,2.259l2.098 3.026c0,0 4.875,-2.891 9.955,-3.869l0.415 0.398 -0.234 1.11c0,0 -4.604,0.677 -10.347,3.667 -5.744,2.991 -8.297,5.12 -8.297,5.12 0,0 -0.77,-2.724 -0.74,-3.257 0.03,-0.533 10.068,-34.949 10.068,-34.949l4.013 -2.416 -2.803 0.875c1.924,-0.785 3.601,-1.559 4.255,-2.1 1.516,-1.255 2.851,-4.02 3.343,-5.119zm-9.71 8.05l-10.988 36.457 0.846 3.807 -0.643 1.48c0,0 -5.969,-7.079 -9.686,-8.865 -0.797,-0.383 -1.57,-0.664 -2.306,-0.867 1.547,0.214 3.391,0.697 4.999,1.744 3.595,2.339 5.116,4.278 5.116,4.278 0,0 -0.513,-3.118 -0.722,-3.727 -0.21,-0.608 -2.092,-3.404 -4.812,-5.439 -2.719,-2.035 -4.051,-2.263 -4.051,-2.263l3.614 -1.065c0,0 2.035,0.685 3.214,1.54 1.179,0.856 1.445,1.122 1.445,1.122l7.734 -25.965c0,0 3.087,-1.034 6.24,-2.237z"/>
   <path class="fil9" d="M81.715 200.345c-0.159,0.101 -0.313,0.199 -0.461,0.296 -0.405,-1.167 -1.157,-3.375 -1.058,-3.723l0.457 0.153 -0.457 -0.154c1.035,-3.252 2.12,-7.313 3.069,-10.627 0.117,-0.408 1.43,-4.66 1.335,-4.832l-0.71 -1.281 1.835 -0.897 1.68 -13.227 0.514 -1.766 -1.864 15.223 -1.671 0.821c0.112,0.2 0.659,1.049 0.614,1.21 -0.237,0.846 -4.386,15.258 -4.311,15.593 0.241,1.086 0.642,2.156 1.028,3.211z"/>
   <path class="fil6" d="M73.439 152.194c0.152,0.073 0.314,0.15 0.486,0.23l-0.668 0.439c-0.011,0.499 0.003,3.07 -0.087,3.339l-10.51 31.747 3.532 1.203 -3.748 1.232 -1.671 3.234 -0.655 -0.346c0.226,-0.419 1.71,-3.33 1.855,-3.45l2.209 -0.694 -2.277 -0.807c1.1,-3.239 10.808,-31.754 10.823,-32.408l0.076 -3.301 0.635 -0.418z"/>
   <path class="fil10" d="M77.942 156.444l0.178 -0.721 0.298 0.058 -0.133 0.906c-2.197,1.416 -4.398,2.709 -6.65,4.029l-0.306 -0.521c2.178,-1.276 4.384,-2.571 6.613,-3.751z"/>
   <polygon class="fil6" points="81.296,162.749 81.025,164.036 90.577,161.597 "/>
   <path class="fil10" d="M89.418 161.912c-0.038,0.159 -0.426,0.057 -0.39,-0.095l0.341 0.083 -0.34 -0.087c0.399,-1.543 0.764,-3.985 0.89,-5.563l0.19 0.003c0.061,1.757 -0.263,3.938 -0.691,5.659zm-0.389 -0.099l0.194 0.05 -0.194 -0.05z"/>
   <path class="fil10" d="M92.084 159.302c0.759,-0.831 1.173,-2.059 1.309,-3.161l0.113 0c0.265,2.367 -1.576,4.696 -3.994,4.719l-0.015 -0.111c0.965,-0.263 1.912,-0.686 2.587,-1.447z"/>
   <path class="fil4" d="M69.975 139.912c-0.416,-0.293 -0.917,-0.554 -1.292,-0.859l-1.242 -1.008 0.76 -0.883c-3.294,-2.783 -8.637,-7.526 -11.26,-10.769 -3.33,-4.115 -8.527,-12.38 -10.675,-17.157 -0.595,-1.324 -1.449,-3.379 -1.293,-4.848 0.267,-2.504 3.407,-5.442 5.247,-7.067 1.438,-1.269 2.997,-2.525 4.562,-3.643 1.313,-1.121 3.905,-2.075 5.474,-2.559 6.095,-1.88 13.36,-2.316 19.69,-2.316 6.778,0 12.852,2.172 17.889,6.696 0.779,0.34 1.556,0.74 2.305,1.131 1.514,0.789 6.685,3.869 7.218,5.504 0.495,1.52 -0.601,5.393 -1.297,7.315 0.618,1.581 1.556,4 2.058,5.634 0.872,2.834 0.275,7.723 -0.357,10.601 -0.954,4.342 -2.48,9.609 -4.19,13.711 -0.899,2.155 -1.88,4.874 -2.466,7.164 -0.223,0.868 -0.302,0.781 0.219,1.567l0.989 1.489c-1.903,0.913 -2.036,1.094 -4.306,1.412 -3.034,0.425 -6.33,0.445 -9.386,0.401 -4.2,-0.06 -8.453,-0.761 -12.501,-1.87 -2.576,-0.705 -4.019,-1.213 -6.414,-2.225 0.107,-2.298 0.26,-5.154 0.268,-7.421z"/>
   <path class="fil4" d="M32.537 100.693c0,0 -0.338,5.74 1.274,13.958 1.613,8.217 6.269,12.525 6.269,12.525 0,0 3.355,-7.434 0.106,-16.058 -3.249,-8.624 -5.568,-9.562 -7.649,-10.425z"/>
   <path class="fil11" d="M30.31 102.613c1.707,-0.922 3.777,-1.918 5.217,-2.216 1.627,-0.337 2.856,1.239 3.592,2.453 1.001,1.653 1.733,3.655 2.256,5.509 1.516,5.379 1.761,11.386 0.558,16.846l-0.174 0.79 -0.746 0.311c-2.855,1.189 -5.986,2.245 -8.967,3.037 -2.684,0.713 -6.023,0.751 -8.804,0.561 -1.894,-0.129 -5.44,-0.506 -7.06,-1.526 -1.191,-0.75 -2.542,-4.122 -3.083,-5.406 -1.328,-3.15 -2.521,-6.39 -3.653,-9.615 -1.196,-3.404 -2.336,-6.845 -3.353,-10.306 -0.405,-1.379 -0.794,-2.768 -1.128,-4.166 -0.225,-0.943 -0.466,-1.997 -0.535,-2.964 -0.087,-1.21 0.498,-2.218 1.518,-2.845 0.858,-0.528 1.94,-0.751 2.93,-0.859 2.373,-0.257 5.102,0.017 7.465,0.329 3.529,0.466 7.199,1.177 10.66,2.038l0.845 0.21 2.462 7.819z"/>
   <path class="fil12" d="M40.415 124.871c0,0 -4.242,1.767 -8.768,2.969 -4.525,1.203 -12.727,0.425 -14.636,-0.777 -1.909,-1.202 -10.677,-26.304 -11.03,-31.253 -0.354,-4.95 20.646,0.283 20.646,0.283l2.775 8.815c0,0 4.389,-2.565 6.44,-2.989 2.05,-0.424 7.189,11.073 4.573,22.952z"/>
   <path class="fil13" d="M40.415 124.871c0,0 -4.242,1.767 -8.768,2.969 -3.285,0.873 -8.507,0.702 -11.854,0.083 3.781,-0.896 6.6,-4.378 6.561,-9.72 -0.038,-5.342 -3.857,-14.089 -3.857,-14.089 -11.861,3.264 -15.977,-4.979 -17.472,-10.219 5.721,-0.659 21.602,2.198 21.602,2.198l2.775 8.815c0,0 4.389,-2.565 6.44,-2.989 2.05,-0.424 7.189,11.073 4.573,22.952z"/>
   <path class="fil11" d="M29.402 104.908c0,0 2.033,6.281 2.232,7.678 0.2,1.397 -1.53,8.349 -1.53,8.349 0,0 3.227,-6.885 2.794,-8.848 -0.432,-1.962 -2.19,-8.221 -2.19,-8.221l-1.306 1.042z"/>
   <path class="fil5" d="M100.03 148.986c0,0 -2.131,1.021 -11.386,0.888 -9.255,-0.134 -17.333,-3.552 -17.333,-3.552 0,0 0.31,-6.88 0.177,-7.146 -0.133,-0.266 -1.622,-1.164 -1.825,-1.329 0.216,-0.251 0.826,-0.802 0.826,-0.802 0,0 -8.766,-7.213 -12.34,-11.63 -3.573,-4.416 -11.985,-17.527 -11.63,-20.863 0.355,-3.336 9.226,-9.652 9.226,-9.652 0,0 5.11,-4.542 24.201,-4.542 7.493,0 13.007,2.779 17.038,6.467 2.218,0.932 9.572,4.935 9.97,6.157 0.343,1.051 -0.986,4.882 -1.558,6.439 1.013,2.477 1.553,4.427 1.79,5.198 1.15,3.74 -1.981,16.817 -5.049,24.177 -1.802,4.322 -2.715,7.865 -2.763,8.433 -0.056,0.664 0.358,1.307 0.656,1.757z"/>
   <path class="fil3" d="M107.324 118.822c-0.031,0.334 -0.068,0.68 -0.112,1.036 -0.876,-0.044 -2.195,-0.194 -4.024,-0.608 0,0 2.448,-0.154 4.136,-0.428z"/>
   <path class="fil3" d="M96.984 96.825c1.86,0.781 7.328,3.721 9.282,5.371 0.113,2.402 -0.87,7.225 -0.87,7.225 0,0 -2.468,-5.397 -4.416,-5.703 -1.948,-0.307 -10.703,6.063 -10.966,6.544 -0.263,0.482 0.547,3.437 0.547,3.437l-2.267 -4.852c0,0 1.878,-2.311 5.008,-6.115 3.13,-3.804 3.682,-5.907 3.682,-5.907z"/>
   <path class="fil4" d="M97.889 149.468c-0.174,0.025 -0.36,0.05 -0.561,0.075 -0.155,-0.276 -0.309,-0.553 -0.46,-0.831 -0.128,-0.235 -0.254,-0.47 -0.376,-0.708 -0.086,-0.168 -0.184,-0.355 -0.248,-0.532 -0.087,-0.238 0.235,-1.723 0.289,-2.009 0.283,-1.483 0.553,-2.965 0.787,-4.455 0.697,-4.43 1.118,-8.953 0.993,-13.4 -0.118,-4.225 -0.783,-8.458 -1.955,-12.481 -0.402,-1.38 -0.866,-2.749 -1.409,-4.077 -0.302,-0.738 -0.645,-1.539 -1.046,-2.228l-0.126 -0.216 0.453 -0.265 0.126 0.216c0.413,0.708 0.765,1.528 1.076,2.287 0.549,1.343 1.019,2.728 1.425,4.124 1.184,4.063 1.855,8.337 1.975,12.603 0.123,4.415 -0.286,8.902 -0.969,13.3 -0.233,1.501 -0.502,2.994 -0.787,4.488 -0.086,0.454 -0.175,0.908 -0.254,1.363 -0.023,0.128 -0.087,0.446 -0.081,0.581 0.057,0.153 0.145,0.317 0.218,0.461 0.121,0.235 0.246,0.468 0.372,0.699 0.164,0.301 0.331,0.6 0.499,0.899l0.059 0.106z"/>
   <path class="fil3" d="M100.03 148.986c0,0 -2.131,1.021 -11.386,0.888 -9.255,-0.134 -17.333,-3.552 -17.333,-3.552 0,0 0.31,-6.88 0.177,-7.146 -0.133,-0.266 -1.709,-1.199 -1.687,-1.398 0.023,-0.2 0.688,-0.733 0.688,-0.733 0,0 -8.766,-7.213 -12.34,-11.63 -3.573,-4.416 -11.985,-17.527 -11.63,-20.863 0.198,-1.861 3.046,-4.648 5.525,-6.75 1.861,3.198 5.194,8.7 7.997,12.107 4.139,5.033 10.586,10.303 15.143,11.235 4.557,0.931 10.49,-0.002 10.49,-0.002 0,0 -0.625,0.354 -2.853,1.249 -2.228,0.896 -5.716,1.76 -5.716,1.76 0,0 0.196,1.022 1.808,3.538 1.611,2.515 3.339,3.614 3.339,3.614 0,0 3.861,-3.323 14.413,-3.682 4.769,-0.163 7.382,0.33 8.814,0.919 -0.955,3.693 -2.153,7.404 -3.342,10.256 -1.802,4.322 -2.715,7.865 -2.763,8.433 -0.056,0.664 0.358,1.307 0.656,1.757z"/>
   <path class="fil5" d="M97.889 149.468c-0.174,0.025 -0.36,0.05 -0.561,0.075 -0.155,-0.276 -0.309,-0.553 -0.46,-0.831 -0.128,-0.235 -0.254,-0.47 -0.376,-0.708 -0.086,-0.168 -0.184,-0.355 -0.248,-0.532 -0.087,-0.238 0.235,-1.723 0.289,-2.009 0.283,-1.483 0.553,-2.965 0.787,-4.455 0.697,-4.43 1.118,-8.953 0.993,-13.4l0 -0.018c0.177,-0.001 0.35,0 0.519,0.001 0.122,4.409 -0.287,8.889 -0.969,13.28 -0.233,1.501 -0.502,2.994 -0.787,4.488 -0.086,0.454 -0.175,0.908 -0.254,1.363 -0.023,0.128 -0.087,0.446 -0.081,0.581 0.057,0.153 0.145,0.317 0.218,0.461 0.121,0.235 0.246,0.468 0.372,0.699 0.164,0.301 0.331,0.6 0.499,0.899l0.059 0.106z"/>
   <path class="fil5" d="M73.105 146.274l0.767 0.208c0,0 0.112,-6.717 0.096,-7.165 -0.016,-0.447 -1.023,-1.263 -0.927,-1.471 0.096,-0.208 1.119,-1.215 0.943,-1.535 -0.176,-0.32 -6.306,-3.857 -10.468,-8.788 -4.162,-4.93 -6.179,-8.836 -6.179,-8.836l-0.833 0.704c0,0 2.914,5.187 6.66,9.125 3.745,3.938 9.764,7.844 9.764,7.844 0,0 -0.668,1.269 -0.624,1.423 0.044,0.154 0.904,0.904 1.014,1.588 0.11,0.683 -0.213,6.903 -0.213,6.903z"/>
   <path class="fil4" d="M93.565 149.825c-0.191,0.008 -0.387,0.015 -0.589,0.021l-0.126 -0.218c-0.139,-0.24 -0.276,-0.481 -0.409,-0.724 -0.094,-0.172 -0.2,-0.363 -0.273,-0.544 -0.097,-0.244 0.156,-1.762 0.197,-2.054 0.214,-1.518 0.415,-3.033 0.58,-4.557 0.491,-4.53 0.703,-9.156 0.373,-13.704 -0.314,-4.321 -1.176,-8.65 -2.534,-12.764 -0.466,-1.411 -0.994,-2.812 -1.598,-4.17 -0.336,-0.754 -0.716,-1.573 -1.149,-2.278l-0.136 -0.221 0.441 -0.271 0.136 0.221c0.446,0.724 0.836,1.562 1.181,2.339 0.612,1.373 1.146,2.79 1.617,4.218 1.372,4.154 2.241,8.525 2.558,12.888 0.328,4.515 0.127,9.105 -0.352,13.602 -0.164,1.535 -0.364,3.062 -0.579,4.59 -0.065,0.464 -0.133,0.929 -0.192,1.394 -0.016,0.131 -0.066,0.457 -0.054,0.594 0.065,0.156 0.16,0.324 0.24,0.471 0.131,0.241 0.267,0.479 0.404,0.716 0.087,0.151 0.175,0.301 0.264,0.451z"/>
   <ellipse class="fil14" transform="matrix(0.927888 -0 0.122526 0.808859 92.2079 112.035)" rx="1.062" ry="1.555"/>
   <ellipse class="fil14" transform="matrix(0.836503 0.0400706 0.0755281 0.734489 94.7151 119.402)" rx="1.062" ry="1.555"/>
   <path class="fil11" d="M94.836 92.053c0.292,0.496 0.724,1.07 1.027,1.499 0.342,0.485 0.634,1.043 0.915,1.566 0.362,0.674 0.721,1.348 1.104,2.011 0.732,1.268 -0.522,2.803 -1.264,3.772 -0.476,0.62 -0.972,1.217 -1.479,1.811 -0.771,1.058 -1.524,2.146 -2.327,3.178 -0.581,0.745 -1.268,1.564 -2.093,2.045 -2.1,1.224 -3.96,-0.235 -5.479,-1.642 -0.307,-0.284 -0.608,-0.603 -0.904,-0.901 -0.574,-0.578 -1.147,-1.158 -1.721,-1.737 -1.111,-1.121 -2.219,-2.25 -3.344,-3.355 -1.869,-1.835 -2.736,-3.003 -5.181,-4.183 -1.161,-0.408 -2.325,-0.877 -3.456,-1.355 -2.392,-1.011 -4.794,-2.157 -7.013,-3.506l-0.776 -0.472 0.03 -0.908c0.07,-2.117 0.112,-4.237 0.096,-6.355 -0.014,-1.821 -0.061,-3.675 -0.241,-5.488 -0.446,-4.488 -1.207,-9.04 -1.977,-13.485 -0.446,-2.576 -0.912,-5.154 -1.412,-7.72l-0.389 -2.003 34.724 2.66 1.16 34.568z"/>
   <path class="fil12" d="M60.867 56.531c0,0 2.627,13.469 3.41,21.349 0.319,3.218 0.294,7.778 0.152,12.047 4.528,2.753 10.255,4.751 10.255,4.751 2.896,1.38 3.812,2.683 5.676,4.512 1.311,1.288 5.668,5.714 5.936,5.962 3.377,3.127 3.79,1.847 7.622,-3.404 0.014,-0.019 2.91,-3.335 2.617,-3.842 -0.876,-1.518 -1.48,-2.803 -1.943,-3.458 -1.221,-1.73 -1.297,-1.985 -1.297,-1.985l-1.126 -33.535 -31.302 -2.397z"/>
   <path class="fil13" d="M60.867 56.531c0,0 2.627,13.469 3.41,21.349 0.782,7.88 -0.503,23.807 -0.503,23.807 0,0 4.304,-1.084 9.962,-0.071l-3.057 -18.409c0,0 2.679,6.877 7.372,10.456 4.692,3.579 4.931,3.698 4.931,3.698 0,0 -1.472,-1.55 -2.267,-3.141 -0.795,-1.591 -0.835,-2.028 -0.835,-2.028 0,0 4.533,2.942 9.266,2.505 2.139,-0.198 3.45,-1.119 4.243,-2.069 -0.083,-0.136 -0.094,-0.165 -0.094,-0.165l-1.126 -33.535 -31.302 -2.397z"/>
   <path class="fil15" d="M93.087 89.726l-0.918 -27.339 -29.488 -2.259 3.658 11.698c0,0 0.395,4.123 3.012,8.354 2.617,4.231 6.561,7.673 6.561,7.673l-2.438 -5.988c4.184,5.056 11.35,7.523 19.613,7.861z"/>
   <path class="fil11" d="M9.771 68.833c-0.209,0.446 -0.426,1.34 -0.515,1.712 -0.161,0.673 -0.719,1.143 -1.409,1.189 -0.691,0.045 -1.306,-0.348 -1.554,-0.994 -0.464,-1.208 -1.045,-2.398 -1.78,-3.465 -0.832,-1.206 -1.759,-2.426 -2.788,-3.474 -0.282,-0.287 -0.677,-0.682 -1.015,-0.909 -0.46,-0.298 -0.715,-0.771 -0.71,-1.32 0.007,-0.747 0.245,-1.647 0.523,-2.329 0.676,-1.658 1.884,-2.958 3.438,-3.837 4.026,-2.275 8.335,-1.373 11.332,2.124 1.92,2.24 2.822,5.97 3.248,8.837 0.067,0.455 -0.051,0.873 -0.346,1.226 -0.295,0.353 -0.685,0.542 -1.145,0.556 -1.412,0.043 -2.831,0.112 -4.238,0.235 -0.604,0.053 -2.332,0.207 -3.041,0.449z"/>
   <path class="fil12" d="M17.003 66.595c-0.348,-2.347 -1.148,-6.022 -2.89,-8.053 -2.696,-3.145 -6.247,-3.557 -9.387,-1.782 -3.141,1.774 -3.171,4.827 -3.171,4.827 0,0 1.649,1.052 4.238,4.806 0.836,1.213 1.473,2.544 1.951,3.789 0.276,-1.149 0.598,-2.162 0.932,-2.511 0.734,-0.768 6.147,-1.009 8.327,-1.076z"/>
   <path class="fil13" style="mask:url(#id0)" d="M17.003 66.595c-0.348,-2.347 -1.148,-6.022 -2.89,-8.053 -2.572,-3.001 -5.923,-3.513 -8.952,-2.013 -0.688,0.897 -1.629,2.249 -1.666,2.974 -0.058,1.148 2.995,3.968 4.018,5.565 0.512,0.799 0.909,1.795 1.178,2.589 0.786,-0.757 6.146,-0.996 8.312,-1.062z"/>
   <path class="fil11" d="M28.145 80.049c0.669,1.074 1.104,2.444 1.358,3.646 1.12,0.324 2.249,0.935 2.733,1.933 0.702,1.447 0.541,4.065 0.358,5.641 -0.167,1.439 -0.44,2.349 -1.385,3.476 -1.121,1.337 -5.042,2.495 -7.171,3.05 -0.464,0.588 -1.024,1.167 -1.542,1.645 -2.721,2.511 -6.175,3.86 -9.874,2.881 -5.594,-1.48 -8.458,-5.333 -9.284,-10.847 -0.347,-2.314 -0.071,-6.265 0.246,-8.666 0.301,-2.277 0.64,-4.565 1.025,-6.831 0.063,-0.638 -0.785,-4.096 -0.614,-5.31 0.216,-1.544 4.035,-2.996 5.346,-3.415 7.08,-2.262 17.884,-3.791 22.892,4.385 -0.031,2.375 -0.293,1.874 -1.153,4.107 -0.573,1.491 -1.676,3.081 -2.935,4.305z"/>
   <path class="fil12" d="M25.396 79.898c0,0 2.59,-1.811 3.701,-4.698 1.111,-2.887 0.895,-3.86 0.895,-3.86 0,0 -2.669,-4.011 -9.243,-4.428 -4.25,-0.269 -15.43,1.441 -15.785,3.975 -0.118,0.842 0.735,4.462 0.618,5.296 0,0 -1.753,10.65 -1.236,14.097 0.516,3.447 2.359,8.58 8.385,10.174 3.72,0.984 6.703,-0.922 8.44,-2.525 1.076,-0.993 1.674,-1.869 1.674,-1.869 0,0 5.886,-1.47 6.904,-2.684 1.018,-1.215 1.409,-5.31 0.555,-7.071 -0.494,-1.019 -2.683,-1.319 -2.683,-1.319 0,0 -0.574,-4.105 -2.225,-5.088z"/>
   <path class="fil13" style="mask:url(#id2)" d="M12.836 75.729c0,0 8.757,3.079 10.196,3.708 1.439,0.629 2.63,1.428 3.061,2.424 0.43,0.997 0.458,1.958 0.458,1.958 0,0 -6.312,0.296 -8.02,0.566 -1.707,0.27 -5.023,1.093 -5.023,1.093 0,0 0.4,-7.767 -0.672,-9.749z"/>
   <path class="fil13" style="mask:url(#id4)" d="M11.437 100.034c0.408,0.159 0.839,0.3 1.294,0.42 3.72,0.984 6.703,-0.922 8.44,-2.525 1.076,-0.993 1.674,-1.869 1.674,-1.869 0,0 3.578,-0.893 5.637,-1.863 0.479,-1.928 0.859,-3.926 0.86,-4.82 0.002,-0.894 0.154,-2.765 -1.451,-3.341 -1.605,-0.576 -14.383,-0.558 -14.383,-0.558 2.879,6.056 -0.045,11.114 -2.071,14.556z"/>
   <path class="fil13" style="mask:url(#id6)" d="M26.597 78.866c0.856,-0.77 1.785,-1.809 2.5,-3.666 0.714,-1.857 0.794,-2.87 0.895,-3.86 -0.772,-0.594 -1.621,-2.235 -6.089,-2.861 -4.469,-0.626 -10.01,0.528 -10.01,0.528 0,0 0.426,1.157 0.249,2.613 -0.177,1.456 -1.306,4.109 -1.306,4.109 0,0 6.864,-1.061 13.761,3.137z"/>
   <path class="fil11" d="M27.62 84.986c0,0 -3.295,-0.458 -7.335,-0.366 -4.04,0.091 -6.777,0.858 -6.777,0.858 0,0 3.014,-1.709 7.66,-2.272 4.645,-0.564 7.162,0.062 7.162,0.062l-0.71 1.718z"/>
   <path class="fil11" d="M25.396 79.898c0,0 -3.544,-1.987 -6.941,-3.004 -3.397,-1.016 -5.619,-1.165 -5.619,-1.165 0,0 2.58,-0.558 7.021,0.416 4.441,0.974 7.207,3.037 7.207,3.037l-1.668 0.716z"/>
   <path class="fil4" d="M79.346 102.99c0,0 -3.243,-1.524 -3.673,-1.524 -0.43,0 -3.79,2.578 -5.626,4.688 -1.836,2.11 -2.735,3.907 -2.735,3.907 0,0 -5.04,-5.001 -9.415,-11.916 -4.376,-6.915 -5.353,-9.611 -5.314,-10.744 0.039,-1.133 2.682,-4.086 5.527,-6.473 2.844,-2.388 6.069,-3.975 6.069,-3.975l0.268 12.405c0,0 3.538,2.449 7.386,3.883 3.848,1.434 5.177,1.819 5.177,1.819 0,0 5.352,5.037 7.731,7.696 2.378,2.658 3.288,4.442 3.288,4.442l-0.377 0.08 -8.306 -4.288z"/>
   <path class="fil5" d="M87.652 107.278c0,0 -8.959,-9.948 -11.868,-11.402 -2.909,-1.454 -5.865,-2.379 -8.712,-3.968 -2.848,-1.59 -4.173,-2.683 -4.173,-2.683 0,0 0.1,-2.582 0.1,-5.397 0,-2.814 -0.1,-4.635 -0.1,-4.635 0,0 -3.039,2.047 -5.343,4.669 -2.305,2.623 -2.901,3.537 -2.98,4.133 -0.08,0.596 3.417,7.827 7.112,12.357 3.695,4.53 5.92,6.636 5.92,6.636 0,0 6.543,-6.514 7.717,-6.553 1.174,-0.039 10.292,8.922 10.292,8.922l2.035 -2.079z"/>
   <path class="fil16" d="M62.953 80.57c-0.026,-0.879 -0.054,-1.377 -0.054,-1.377 0,0 -3.039,2.047 -5.343,4.669 -2.305,2.623 -2.901,3.537 -2.98,4.133 -0.08,0.596 3.417,7.827 7.112,12.357 0.326,0.399 0.64,0.779 0.942,1.141 -3.051,-5.002 -5.805,-12.252 -5.837,-12.915 -0.038,-0.808 0.462,-2.04 2.925,-5.041 1.031,-1.257 2.211,-2.244 3.235,-2.967z"/>
   <path class="fil3" d="M66.805 106.182c0.524,0.541 0.803,0.806 0.803,0.806 0,0 6.543,-6.514 7.717,-6.553 0.683,-0.023 4.05,2.997 6.75,5.529 -2.298,-3.519 -5.945,-6.748 -6.542,-6.958 -0.655,-0.231 -1.078,0 -3.425,1.808 -1.799,1.387 -4.255,4.152 -5.303,5.368z"/>
   <path class="fil4" d="M91.709 106.447c0,0 7.425,-5.747 9.344,-6.047 1.918,-0.3 6.715,5.067 6.715,5.067 0,0 -0.179,-6.356 -3.118,-13.672 -2.938,-7.315 -6.596,-9.564 -7.105,-9.954 -0.51,-0.39 -3.004,1.148 -3.004,1.148l-1.556 0.234 0.31 9.24 1.516 0.412c0,0 2.067,1.652 2.203,3.242 0.136,1.59 -8.881,12.425 -8.881,12.425l0.565 0.451 3.011 -2.546z"/>
   <path class="fil3" d="M88.692 109.001c0,0 6.92,-8.668 8.049,-10.38 1.129,-1.712 1.639,-3.132 -0.073,-5.209 -1.712,-2.076 -1.857,-2.148 -1.857,-2.148l-0.266 -7.896c0,0 2.467,-0.344 3.582,0.681 1.116,1.025 4.492,6.348 5.913,10.529 1.421,4.182 1.694,7.16 1.694,7.16 0,0 -4.046,-2.63 -4.826,-2.465 -0.781,0.164 -5.524,3.305 -7.906,5.769 -2.382,2.465 -3.901,4.703 -3.901,4.703l-0.409 -0.744z"/>
   <path class="fil16" d="M105.546 100.416c0.145,0.843 0.188,1.322 0.188,1.322 0,0 -4.046,-2.63 -4.826,-2.465 -0.432,0.09 -2.077,1.093 -3.864,2.388 1.29,-1.51 3.743,-3.197 4.362,-3.108 0.542,0.077 3.004,1.292 4.14,1.863z"/>
   <path class="fil4" d="M64.447 89.358c0,0 -3.688,-2.575 -3.849,-2.991 -0.161,-0.416 0.282,-1.341 0.282,-1.341 0,0 -1.019,1.019 -0.993,1.435 0.027,0.416 3.012,2.764 3.012,2.764l1.548 0.133z"/>
   <path class="fil16" d="M96.833 83.443c0.485,0.107 0.953,0.292 1.294,0.606 1.116,1.025 4.492,6.348 5.913,10.529 0.412,1.211 0.727,2.32 0.967,3.286l-3.479 -1.345c0,0 -0.068,-0.811 -1.351,-5.943 -0.919,-3.676 -2.514,-6.07 -3.344,-7.133z"/>
   <path class="fil4" d="M97.098 94.644c0,0 0.117,-1.146 0.073,-2.467 -0.044,-1.321 -0.22,-1.732 -0.22,-1.732 0,0 1.122,2.519 0.825,5.546 -0.046,0.469 -0.175,0.773 -0.36,0.951l-0.318 -2.298z"/>
   <path class="fil4" d="M76.163 110.538c0.027,-0.008 0.056,-0.013 0.085,-0.017 1.374,-0.166 2.585,-0.131 3.982,-0.079 0.21,0.008 0.387,0.122 0.482,0.31l1.87 3.722c0.091,0.182 0.081,0.384 -0.029,0.556 -0.11,0.172 -0.289,0.266 -0.493,0.259 -3.354,-0.11 -6.873,1.074 -9.825,2.598 -0.12,0.063 -0.241,0.126 -0.362,0.187 -0.169,0.085 -0.352,0.083 -0.519,-0.007 -0.167,-0.089 -0.271,-0.24 -0.293,-0.428l-0.246 -2.021c-0.018,-0.152 0.022,-0.296 0.109,-0.409 -0.092,-0.087 -0.153,-0.205 -0.17,-0.34l-0.27 -2.178c-0.032,-0.262 0.114,-0.504 0.361,-0.597 2.225,-0.834 3.039,-1.13 5.318,-1.556z"/>
   <path class="fil4" d="M76.316 111.082c0,0 0,-0.001 -0.001,-0.002l0.21 -0.025 1.145 -0.087c0.064,-0.003 0.129,-0.006 0.194,-0.009l0.818 1.074 -0.069 -1.088 1.596 0.06 1.87 3.722c-3.451,-0.114 -7.061,1.09 -10.102,2.66 -0.12,0.063 -0.239,0.125 -0.358,0.184l-0.245 -2.021 0.993 -0.476 -1.054 -0.275 -0.27 -2.178 2.667 -1 0.126 0.602 0.502 -0.771 1.978 -0.37zm-2.395 2.392l-0.677 0.246c0.258,0.076 0.517,0.153 0.777,0.228 -0.033,-0.158 -0.067,-0.315 -0.1,-0.474z"/>
   <path class="fil17" d="M74.319 115.95c-0.413,0.167 -0.825,0.339 -1.234,0.527 -0.41,0.189 -0.821,0.394 -1.228,0.603 -0.027,-0.221 -0.054,-0.441 -0.081,-0.661 -0.027,-0.22 -0.052,-0.443 -0.08,-0.662 0.3,-0.146 0.602,-0.29 0.904,-0.428 0.024,0.167 0.049,0.334 0.075,0.502 0.191,-0.089 0.379,-0.172 0.571,-0.256 -0.037,-0.214 -0.073,-0.429 -0.111,-0.644 -0.267,-0.069 -0.531,-0.136 -0.792,-0.205 -0.257,-0.068 -0.514,-0.134 -0.768,-0.202 -0.036,-0.281 -0.069,-0.563 -0.105,-0.843 -0.036,-0.282 -0.069,-0.562 -0.104,-0.843 0.353,-0.153 0.705,-0.303 1.06,-0.438 0.354,-0.136 0.711,-0.256 1.068,-0.373 0.042,0.194 0.08,0.389 0.12,0.583 0.04,0.195 0.079,0.391 0.119,0.585 -0.265,0.092 -0.525,0.187 -0.788,0.288 -0.024,-0.144 -0.049,-0.285 -0.073,-0.428 -0.187,0.071 -0.373,0.144 -0.558,0.219 0.027,0.179 0.056,0.357 0.084,0.534 0.257,0.075 0.516,0.149 0.777,0.225 0.264,0.077 0.531,0.155 0.8,0.233 0.057,0.281 0.113,0.561 0.17,0.842 0.057,0.281 0.116,0.561 0.174,0.842zm1.356 -0.49c-0.316,0.105 -0.633,0.218 -0.949,0.331 -0.059,-0.273 -0.118,-0.546 -0.178,-0.818 -0.06,-0.272 -0.119,-0.546 -0.178,-0.818 -0.06,-0.272 -0.119,-0.544 -0.179,-0.816 -0.06,-0.272 -0.116,-0.545 -0.176,-0.817 0.174,-0.268 0.347,-0.533 0.515,-0.791 0.593,-0.137 1.191,-0.252 1.795,-0.347 0.095,0.3 0.191,0.598 0.285,0.898 0.094,0.298 0.191,0.596 0.286,0.894 0.095,0.297 0.19,0.596 0.285,0.892 0.095,0.297 0.19,0.594 0.286,0.889 -0.327,0.079 -0.648,0.163 -0.969,0.251 -0.057,-0.2 -0.114,-0.402 -0.171,-0.604 -0.057,-0.201 -0.114,-0.403 -0.172,-0.604 -0.266,0.07 -0.528,0.14 -0.793,0.219 0.052,0.206 0.106,0.414 0.158,0.62 0.052,0.207 0.103,0.414 0.155,0.621zm0.284 -2.16c-0.05,-0.18 -0.102,-0.358 -0.151,-0.537 -0.05,-0.18 -0.101,-0.359 -0.153,-0.537 -0.251,0.056 -0.501,0.112 -0.75,0.175 0.047,0.183 0.092,0.367 0.138,0.55 0.046,0.184 0.094,0.367 0.14,0.551 0.257,-0.072 0.516,-0.139 0.776,-0.202zm2.979 -2.08c0.358,0.006 0.717,0.016 1.081,0.032 0.134,0.271 0.268,0.543 0.402,0.812 0.133,0.267 0.267,0.535 0.401,0.803 0.134,0.267 0.266,0.533 0.399,0.796 0.132,0.264 0.266,0.528 0.401,0.793 -0.334,-0.001 -0.661,0.002 -0.986,0.021 -0.153,-0.331 -0.306,-0.666 -0.459,-1.001 -0.154,-0.336 -0.308,-0.672 -0.46,-1.011 0.03,0.342 0.061,0.684 0.086,1.03 0.026,0.347 0.046,0.696 0.063,1.047 -0.102,0.011 -0.203,0.022 -0.303,0.037 -0.132,-0.163 -0.267,-0.328 -0.395,-0.493 -0.131,-0.166 -0.261,-0.334 -0.391,-0.502 -0.259,-0.336 -0.51,-0.677 -0.759,-1.02 0.131,0.357 0.266,0.712 0.399,1.066 0.133,0.353 0.265,0.706 0.396,1.058 -0.306,0.053 -0.612,0.112 -0.915,0.173 -0.099,-0.292 -0.198,-0.585 -0.297,-0.877 -0.098,-0.294 -0.197,-0.588 -0.295,-0.881 -0.099,-0.293 -0.199,-0.587 -0.298,-0.882 -0.1,-0.295 -0.199,-0.59 -0.298,-0.886 0.341,-0.034 0.682,-0.064 1.027,-0.085 0.211,0.28 0.421,0.556 0.636,0.831 0.214,0.274 0.433,0.547 0.652,0.817 -0.01,-0.282 -0.02,-0.564 -0.034,-0.844 -0.015,-0.28 -0.034,-0.558 -0.053,-0.834z"/>
   <path class="fil4" style="mask:url(#id8)" d="M74.145 115.845c-0.048,-0.235 -0.095,-0.471 -0.144,-0.706 -0.049,-0.248 -0.1,-0.495 -0.151,-0.742 -0.09,-0.027 -0.185,-0.053 -0.277,-0.08 -0.312,0.106 -0.618,0.212 -0.916,0.322 0.169,0.044 0.34,0.088 0.51,0.132 0.03,0.009 0.063,0.017 0.095,0.026 0.005,0.037 0.013,0.072 0.018,0.108 0.038,0.214 0.075,0.429 0.11,0.644 0.008,0.043 0.014,0.088 0.024,0.131 -0.04,0.017 -0.077,0.034 -0.114,0.05 -0.19,0.084 -0.379,0.168 -0.568,0.255 -0.057,0.026 -0.114,0.052 -0.171,0.078 -0.01,-0.067 -0.021,-0.136 -0.031,-0.205 -0.016,-0.1 -0.03,-0.199 -0.045,-0.298 -0.21,0.099 -0.42,0.199 -0.628,0.302 0.021,0.177 0.043,0.354 0.065,0.532 0.019,0.146 0.036,0.294 0.055,0.439 0.348,-0.175 0.698,-0.348 1.052,-0.511 0.369,-0.168 0.742,-0.323 1.116,-0.477zm1.98 -2.261c0.395,-0.096 0.466,-0.107 0.698,-0.156 0.074,0.237 0.149,0.474 0.224,0.71 0.075,0.237 0.152,0.472 0.227,0.709 -0.224,0.054 -0.452,0.111 -0.676,0.172 -0.042,-0.151 -0.085,-0.301 -0.127,-0.452 -0.058,-0.201 -0.115,-0.402 -0.172,-0.603 -0.014,-0.051 -0.028,-0.101 -0.042,-0.152 -0.048,0.012 -0.097,0.024 -0.145,0.037 -0.266,0.069 -0.532,0.139 -0.795,0.217 -0.045,0.014 -0.09,0.027 -0.134,0.04 0.01,0.049 0.023,0.098 0.036,0.147 0.052,0.208 0.106,0.415 0.158,0.623 0.04,0.158 0.079,0.317 0.117,0.476 -0.22,0.073 -0.44,0.151 -0.663,0.229 -0.051,-0.243 -0.105,-0.485 -0.158,-0.728 -0.054,-0.243 -0.105,-0.486 -0.159,-0.728 -0.008,-0.033 -0.014,-0.066 -0.021,-0.101 0.53,-0.158 1.237,-0.345 1.632,-0.44zm1.399 -0.292c0.193,-0.034 0.384,-0.067 0.574,-0.097 0.058,0.158 0.117,0.316 0.178,0.473 0.113,0.303 0.225,0.604 0.338,0.905 -0.207,0.035 -0.414,0.075 -0.619,0.115 -0.078,-0.232 -0.159,-0.464 -0.236,-0.696 -0.076,-0.233 -0.157,-0.466 -0.235,-0.7zm1.08 -0.172c0.127,-0.017 0.255,-0.032 0.383,-0.047 0.067,0.083 0.135,0.166 0.204,0.249 -0.003,-0.091 -0.007,-0.182 -0.009,-0.273 0.144,-0.017 0.288,-0.031 0.429,-0.043 0.014,0.16 0.028,0.323 0.04,0.484 0.023,0.307 0.039,0.617 0.057,0.928 -0.028,0.003 -0.053,0.006 -0.082,0.009 -0.243,-0.301 -0.487,-0.606 -0.728,-0.919 -0.098,-0.129 -0.197,-0.258 -0.294,-0.388zm1.498 -0.155c0.199,-0.011 0.399,-0.023 0.596,-0.03 0.117,0.232 0.234,0.465 0.349,0.696 0.115,0.232 0.232,0.463 0.348,0.692 -0.223,0.001 -0.442,0.004 -0.662,0.015 -0.139,-0.298 -0.276,-0.597 -0.414,-0.898 -0.073,-0.158 -0.145,-0.316 -0.217,-0.475z"/>
   <path class="fil11" d="M119.436 143.364c2.012,-4.265 3.518,-8.951 3.978,-13.661 0.123,-1.253 0.175,-2.533 0.111,-3.792 -0.022,-0.412 -0.05,-0.88 -0.123,-1.288l-0.07 -0.391 0.162 -0.363c0.548,-1.233 1.317,-2.556 2.103,-3.642 1.29,-1.782 3.374,-3.865 5.788,-3.02 4.057,1.42 6.975,5.818 7.287,10.022 0.2,2.701 -0.812,5.943 -1.94,8.368 -1.261,2.709 -3.202,5.594 -5.691,7.299 -1.947,1.334 -4.178,2.221 -6.494,2.658 -0.965,0.182 -2.145,0.33 -3.134,0.287l-0.393 -0.017 -2.041 -1.493 0.457 -0.967z"/>
   <path class="fil12" d="M120.607 143.917l0.861 0.63c0,0 4.584,0.195 8.841,-2.72 4.258,-2.916 7.38,-10.322 7.07,-14.502 -0.309,-4.18 -3.282,-7.796 -6.422,-8.895 -3.14,-1.099 -6.28,5.965 -6.28,5.965 0,0 1.413,7.902 -4.07,19.522z"/>
   <path class="fil13" d="M120.607 143.917l0.861 0.63c0,0 4.584,0.195 8.841,-2.72 4.258,-2.916 7.38,-10.322 7.07,-14.502 -0.046,-0.623 -0.151,-1.233 -0.308,-1.825 -1.698,8.484 -7.02,10.446 -7.02,10.446 0,0 0.865,-4.171 0.102,-7.883 -0.5,-2.437 -2.425,-5.202 -3.688,-6.815 -1.08,1.555 -1.788,3.147 -1.788,3.147 0,0 1.413,7.902 -4.07,19.522z"/>
   <path class="fil11" d="M108.027 116.783l23.381 -3.897c0.613,-0.102 1.225,0.168 1.562,0.689l0.495 0.766c0.353,0.545 0.333,1.242 -0.052,1.766l-19.795 26.958c-0.175,0.237 -0.413,0.377 -0.705,0.414l-22.821 2.901c-0.8,0.102 -1.564,-0.253 -2.002,-0.93l-0.327 -0.505c-0.352,-0.544 -0.332,-1.24 0.05,-1.763l18.547 -25.372c0.41,-0.56 0.983,-0.913 1.667,-1.027z"/>
   <path class="fil8" d="M108.197 117.805l23.382 -3.897c0.208,-0.035 0.406,0.053 0.521,0.23l0.495 0.766c0.12,0.184 0.113,0.412 -0.017,0.589l-19.796 26.958 -22.82 2.901c-0.406,0.052 -0.78,-0.122 -1.002,-0.465l-0.327 -0.505c-0.119,-0.184 -0.112,-0.411 0.017,-0.588l18.547 -25.373c0.25,-0.341 0.584,-0.547 1,-0.616z"/>
   <path class="fil18" d="M109.072 119.157l23.087 -3.847c0.107,-0.018 0.208,0.028 0.264,0.12 0.057,0.092 0.052,0.203 -0.011,0.29l-19.63 26.731 -22.869 2.907c-0.105,0.014 -0.203,-0.034 -0.257,-0.125 -0.054,-0.092 -0.048,-0.2 0.014,-0.286l18.402 -25.173c0.25,-0.341 0.584,-0.547 1,-0.617z"/>
   <path class="fil18" d="M119.896 116.184l2.731 -0.458c0.078,-0.013 0.151,0.007 0.211,0.058 0.06,0.051 0.092,0.119 0.092,0.198l0 0.266c0,0.128 -0.091,0.235 -0.217,0.256l-2.731 0.457c-0.078,0.013 -0.151,-0.007 -0.211,-0.058 -0.061,-0.051 -0.092,-0.119 -0.092,-0.198l0 -0.265c0,-0.128 0.091,-0.235 0.217,-0.256z"/>
   <circle class="fil18" cx="124.175" cy="115.898" r="0.335"/>
   <path class="fil4" d="M60.713 112.654c-0.185,0.468 1.717,1.841 1.352,2.177 -1.797,1.655 -2.76,1.959 -4.802,3.309 -3.261,2.156 -6.683,4.111 -10.175,5.868 -1.489,0.749 -3.03,1.498 -4.568,2.144l-2.44 1.024 0.293 -2.629c0.151,-1.364 0.187,-2.836 0.185,-4.205 -0.005,-2.979 -0.265,-6.057 -0.949,-8.959 -0.59,-2.502 -1.668,-4.887 -3.199,-6.954 -0.54,-0.727 -1.325,-1.678 -2.039,-2.254l-1.834 -1.482 2.084 -1.102c2.155,-1.14 4.325,-2.261 6.5,-3.362 1.59,-0.805 3.189,-1.605 4.804,-2.361 0.845,-0.396 2.385,-1.161 3.289,-1.303 1.214,-0.192 2.997,0.084 4.238,0.282 0.883,0.142 1.774,0.303 2.649,0.491l-0.327 1.52c0.562,2.079 5.239,17.034 4.939,17.796z"/>
   <path class="fil5" d="M41.918 124.719c0,0 7.033,-2.949 14.488,-7.876 7.454,-4.928 6.654,-5.18 6.654,-5.18l-7.286 -16.805c0,0 -4.717,-1.01 -6.317,-0.758 -1.601,0.253 -14.109,6.865 -14.109,6.865 0,0 4.201,3.387 5.774,10.061 1.574,6.674 0.796,13.693 0.796,13.693z"/>
   <path class="fil16" d="M56.372 96.237l-0.598 -1.379c0,0 -3.179,-0.681 -5.203,-0.785l1 1.633c0,0 -0.166,0.021 1.601,0.125 1.278,0.075 2.578,0.291 3.2,0.406z"/>
   <path class="fil16" d="M49.548 94.088c-0.032,0.004 -0.062,0.008 -0.091,0.012 -1.601,0.253 -14.109,6.865 -14.109,6.865 0,0 0.847,0.683 1.922,2.039 1.91,-1.166 6.478,-3.903 8.999,-4.969 3.244,-1.373 4.263,-1.456 4.99,-1.435l-1.711 -2.512z"/>
   <path class="fil3" d="M41.918 124.719c0,0 7.033,-2.949 14.488,-7.876 3.507,-2.318 5.186,-3.601 5.982,-4.311 -3.394,-4.104 -10.257,-14.847 -10.257,-14.847 0,0 0.214,0.722 1.675,3.43 1.462,2.709 3.107,5.876 3.107,5.876 0,0 -0.914,-0.849 -2.198,-1.763 -1.284,-0.914 -4.462,-2.22 -4.462,-2.22 0,0 0.762,0.457 1.785,1.48 1.023,1.023 2.59,2.807 2.59,2.807 0,0 -0.458,-0.435 -1.546,-0.936 -1.088,-0.5 -2.889,-1.073 -2.889,-1.073 0,0 2.118,4.583 0.506,5.72 -1.274,0.9 -6.676,3.162 -8.883,4.07 0.596,5.187 0.102,9.643 0.102,9.643z"/>
   <path class="fil4" d="M49.34 122.288c0,0 -0.506,-5.751 -1.864,-10.397 -1.359,-4.645 -2.939,-7.426 -2.939,-7.426 0,0 2.749,3.413 3.981,8.279 1.233,4.867 1.612,9.512 1.612,9.512l-0.79 0.032z"/>
   <path class="fil4" d="M59.603 111.81c0,0 1.33,0.443 1.552,0.576 0.221,0.133 4.19,5.853 8.446,8.292 4.257,2.438 4.434,2.372 6.784,2.305 2.35,-0.066 6.297,-0.554 6.297,-0.554 0,0 -5.498,2.173 -8.89,1.995 -5.551,-0.29 -12.702,-9.147 -14.189,-12.614z"/>
   <path class="fil4" d="M8.413 52.163c0,0 3.226,-0.21 5.193,1.023 1.968,1.232 3.017,3.252 3.017,3.252 0,0 -0.875,-6.55 -8.21,-4.275z"/>
   <path class="fil4" d="M11.212 50.894c0,0 1.97,-0.129 3.171,0.624 1.202,0.753 1.842,1.986 1.842,1.986 0,0 -0.12,-4.435 -5.013,-2.61z"/>
   <path class="fil11" d="M100.949 139.475c-0.296,-1.207 0.022,-2.599 0.418,-3.713 0.389,-1.092 1.126,-1.972 2.15,-2.517 0.52,-0.277 1.366,-0.571 1.966,-0.493 0.121,-1.39 0.57,-3.582 1.766,-4.289 1.342,-0.793 6.834,0.668 8.759,0.417 1.084,-0.141 7.981,-2.591 9.483,-3.735l0.168 1.292c-0.682,3.476 -4.38,14.561 -4.191,18.11 0.578,0.256 1.471,-0.137 1.092,0.308 -0.607,0.868 -2.345,1.81 -3.332,2.172 -2.335,0.856 -8.166,3.008 -10.445,2.249 -1.602,-0.534 -7.111,-3.962 -7.986,-5.321 -0.708,-1.098 -0.706,-3.711 0.152,-4.48z"/>
   <path class="fil13" d="M125.759 126.53c0,0 -8.769,3.439 -9.672,3.557 -0.904,0.118 -7.315,-1.019 -8.179,-0.508 -0.864,0.51 -1.335,3.652 -1.099,4.477 0.235,0.824 5.851,3.024 7.893,3.102 2.043,0.079 6.48,-3.377 6.48,-3.377 0,0 -3.887,4.121 -5.451,4.386 -1.563,0.266 -6.432,-1.062 -7.73,-1.711 -1.298,-0.649 -2.051,-1.054 -2.217,-1.331 -0.166,-0.277 -0.277,-1.071 -0.48,-1.09 -0.204,-0.018 -2.032,0.24 -2.716,2.162 -0.684,1.921 -0.517,3.048 -0.074,3.639 0.443,0.591 5.635,3.436 6.226,3.565 0.591,0.13 6.539,-1.847 7.186,-1.921 0.647,-0.074 0.795,0.832 0.628,1.183 -0.166,0.351 -0.277,-0.499 -0.72,-0.499 -0.444,0 -5.265,2.069 -6.485,2.161 -1.219,0.092 -5.93,-2.494 -6.613,-2.993 -0.684,-0.498 -0.776,-0.868 -0.924,-0.868 -0.148,0 -0.462,1.958 0.074,2.79 0.536,0.831 5.588,4.22 7.306,4.792 1.718,0.573 7.171,-1.349 9.591,-2.235 2.42,-0.887 2.685,-1.264 2.685,-1.264 0,0 5.95,-12.142 4.291,-18.017z"/>
   <path class="fil19" d="M116.087 130.087c-0.992,0.12 -7.319,-1.017 -8.179,-0.508 -0.86,0.508 -1.335,3.652 -1.099,4.477 0.068,0.24 0.595,0.597 1.356,0.985 2.448,0.954 6.149,1.119 6.554,0.917 0.404,-0.202 1.21,-1.232 1.342,-2.671 0.133,-1.438 0.158,-2.237 0.026,-3.2z"/>
   <path class="fil19" d="M115.259 138.202c-1.902,0.008 -6.072,-1.152 -7.258,-1.746 -1.298,-0.649 -2.051,-1.054 -2.217,-1.331 -0.166,-0.277 -0.277,-1.071 -0.48,-1.09 -0.204,-0.018 -2.032,0.24 -2.716,2.162 -0.684,1.921 -0.517,3.048 -0.074,3.639 0.443,0.591 5.635,3.436 6.226,3.565 0.135,0.03 0.553,-0.051 1.124,-0.195 0.405,-1.17 0.216,-4.819 0.216,-4.819 0,0 1.572,0.097 3.474,0.097 0.776,0 1.326,-0.129 1.705,-0.282z"/>
   <path class="fil19" d="M109.547 144.299c-0.073,0.013 -0.14,0.022 -0.198,0.026 -1.219,0.092 -5.93,-2.494 -6.613,-2.993 -0.684,-0.498 -0.776,-0.868 -0.924,-0.868 -0.148,0 -0.462,1.958 0.074,2.79 0.473,0.733 4.46,3.457 6.573,4.481 0.616,-0.181 1.051,-0.506 1.08,-0.635 0.038,-0.173 0.02,-1.895 0.008,-2.801z"/>
   <g>
    <path class="fil1" d="M92.706 198.864l0.19 -0.094 0.107 -0.161c0.943,-1.417 2.961,-2.058 4.628,-2.756 0.542,-0.227 1.421,-0.597 1.731,-1.042 0.2,-0.287 0.189,-0.602 -0.032,-0.845 -0.135,-0.149 -0.328,-0.25 -0.531,-0.335 -0.643,-0.267 -1.81,-0.259 -2.547,-0.192 -1.491,0.138 -2.959,0.599 -4.263,1.269 -1.185,0.61 -2.415,1.461 -3.041,2.485 -0.429,0.703 -0.586,1.606 0.092,2.158 0.926,0.753 2.664,0.027 3.666,-0.487z"/>
    <path class="fil8" d="M92.361 198.376c-0.075,0.037 -2.065,1.118 -2.771,0.544 -0.706,-0.574 -0.175,-2.222 2.753,-3.729 2.928,-1.506 5.504,-1.268 6.066,-1.034 0.562,0.234 0.642,0.467 -1.067,1.183 -1.709,0.715 -3.902,1.413 -4.981,3.036z"/>
    <path class="fil2" d="M92.361 198.376l-0.003 0.002 -0.002 0.001 -0.002 0.001 -0.005 0.003 -0.001 0 -0.005 0.003 -0.005 0.002 -0.002 0.001 -0.009 0.005 -0.002 0.001 -0.007 0.004 -0.008 0.004 -0.003 0.001 -0.011 0.006 -0.004 0.002 -0.008 0.004 -0.012 0.006 -0.002 0.001 -0.014 0.007 -0.007 0.004 -0.008 0.004 -0.016 0.008 -0.001 0 -0.016 0.009 -0.01 0.005 -0.008 0.004 -0.018 0.009 -0.003 0.001 -0.017 0.008 -0.014 0.008 -0.006 0.002 -0.021 0.011 -0.006 0.003 -0.016 0.007 -0.019 0.009 -0.004 0.002 -0.023 0.011 -0.009 0.005 -0.015 0.007 -0.024 0.011 -0.001 0 -0.025 0.012 -0.013 0.006 -0.001 0.001 -0.034 0.015 -0.005 0.002 -0.002 0.001 -0.025 0.012 -0.018 0.008 -0.01 0.004 -0.029 0.013 -0.005 0.003 -0.024 0.01 -0.022 0.01 -0.007 0.003 -0.03 0.013 -0.009 0.004 -0.022 0.009 -0.027 0.011 -0.004 0.002 -0.031 0.013 -0.014 0.006 -0.018 0.008 -0.032 0.013 -0.001 0 -0.032 0.013 -0.006 0.002 -0.025 0.01 -0.003 0.001 -0.033 0.014 -0.003 0.001 -0.031 0.012 -0.005 0.002 -0.027 0.01 -0.002 0.001 -0.035 0.013 -0.007 0.003 -0.027 0.01 -0.009 0.003 -0.026 0.009 -0.036 0.013 -0.001 0 -0.023 0.008 -0.028 0.01 -0.015 0.005 -0.004 0.002 -0.036 0.012 -0.007 0.002 -0.018 0.006 -0.034 0.011 -0.013 0.004 0 0 -0.036 0.012 -0.005 0.001 -0.028 0.009 -0.004 0.001 -0.036 0.011 -0.019 0.005 -0.029 0.008 -0.023 0.007 -0.003 0.001 -0.036 0.01 -0.003 0.001 -0.02 0.005 -0.03 0.008 -0.018 0.004 -0.003 0.001 -0.036 0.009 -0.004 0.001 -0.021 0.005 -0.037 0.008 -0.009 0.002 -0.003 0.001c-0.435,0.095 -0.854,0.102 -1.107,-0.104 -0.448,-0.364 -0.398,-1.161 0.446,-2.079 0.235,-0.121 0.448,-0.204 0.632,-0.241 0,0 0.367,0.226 0.908,0.542 0.542,-0.565 1.265,-1.049 1.981,-1.433 1.276,-0.686 2.701,-1.227 4.188,-1.469 0.215,-0.036 0.434,-0.065 0.655,-0.087l0.009 0.004c0.562,0.234 0.642,0.467 -1.067,1.183 -1.505,0.63 -3.385,1.247 -4.55,2.494l-0.007 0.008 -0.008 0.008 -0.007 0.008 -0.029 0.032 -0.008 0.008 -0.007 0.008 -0.007 0.008 -0.007 0.008 -0.007 0.008 -0.022 0.024 -0.007 0.009 0 0 -0.028 0.032 -0.007 0.009 -0.018 0.021c-0.013,0.016 -0.026,0.031 -0.038,0.047l-0.016 0.019c-0.015,0.02 -0.031,0.039 -0.046,0.059l-0.008 0.011c-0.016,0.02 -0.031,0.041 -0.047,0.062l-0.006 0.008c-0.016,0.023 -0.033,0.046 -0.049,0.069l-0.001 0.001 -0.002 0.003c-0.017,0.024 -0.033,0.048 -0.049,0.072z"/>
   </g>
   <g>
    <path class="fil1" d="M95.432 199.045c0.49,-0.307 1.02,-0.624 1.561,-0.866 0.302,-0.135 0.602,-0.232 0.913,-0.346 0.944,-0.348 1.918,-0.749 2.814,-1.18 0.488,-0.234 1.088,-0.539 1.483,-0.871 0.241,-0.204 0.429,-0.445 0.441,-0.72 0.015,-0.359 -0.27,-0.606 -0.667,-0.717 -0.948,-0.263 -2.055,-0.275 -3.085,-0.142 -1.479,0.193 -2.92,0.69 -4.225,1.339 -1.159,0.577 -2.354,1.406 -2.849,2.441 -0.32,0.67 -0.336,1.534 0.4,1.951 0.588,0.334 1.296,0.218 1.937,-0.089 0.464,-0.221 0.869,-0.517 1.277,-0.8z"/>
    <path class="fil8" d="M94.998 198.609c-0.703,0.487 -1.653,1.212 -2.314,0.836 -0.662,-0.375 -0.598,-1.96 2.325,-3.414 2.924,-1.453 5.332,-1.501 6.665,-1.13 1.333,0.371 -3.421,2.183 -4.02,2.404 -0.599,0.221 -1.104,0.33 -2.656,1.304z"/>
    <path class="fil2" d="M94.998 198.609l-0.024 0.017 -0.009 0.006 -0.016 0.011 -0.017 0.012 -0.009 0.006 -0.025 0.018 0 0 -0.025 0.017 -0.009 0.007 -0.017 0.011 -0.018 0.013 -0.008 0.005 -0.026 0.019 -0.001 0 -0.025 0.018 -0.01 0.006 -0.017 0.012 -0.018 0.013 -0.008 0.006 -0.027 0.018 -0.001 0.001 -0.026 0.018 -0.01 0.006 -0.017 0.012 -0.019 0.013 -0.008 0.006 -0.027 0.018 -0.001 0.001 -0.026 0.018 -0.01 0.007 -0.017 0.011 -0.02 0.014 -0.008 0.005 -0.028 0.018 -0.001 0.001 -0.026 0.018 -0.011 0.007 -0.017 0.011 -0.004 0.002 -0.024 0.016 -0.028 0.018 -0.002 0.001 -0.026 0.017 -0.011 0.007 -0.017 0.011 -0.021 0.013 -0.007 0.005 -0.029 0.017 -0.002 0.002 -0.026 0.016 -0.012 0.007 -0.016 0.01 -0.022 0.013 -0.007 0.004 -0.028 0.017 -0.003 0.001 -0.026 0.016 -0.012 0.007 -0.008 0.004 -0.023 0.013 -0.007 0.004 -0.007 0.004 -0.029 0.016 -0.002 0.002 -0.011 0.005 -0.022 0.012 -0.006 0.003 -0.016 0.009 -0.007 0.004 -0.02 0.01 -0.002 0.001 -0.028 0.015 -0.003 0.002 -0.026 0.012 -0.001 0.001 -0.025 0.012 -0.009 0.005 -0.02 0.01 -0.002 0 -0.029 0.014 -0.003 0.001 -0.025 0.012 -0.004 0.002 -0.02 0.008 -0.012 0.006 -0.021 0.009 -0.029 0.012 -0.017 0.007 -0.015 0.006 -0.019 0.007 -0.014 0.006 -0.02 0.007 -0.028 0.01 -0.022 0.007 -0.009 0.003 -0.023 0.008 -0.009 0.003 -0.021 0.006 -0.001 0 -0.028 0.009 0 0 -0.021 0.005 -0.009 0.003 -0.021 0.005 -0.013 0.003 -0.019 0.005 -0.028 0.006 0 0 -0.018 0.003 -0.014 0.003 -0.017 0.003 -0.017 0.003 -0.015 0.002 -0.001 0 -0.027 0.004c-0.195,0.024 -0.38,-0.001 -0.547,-0.096 -0.491,-0.278 -0.582,-1.224 0.601,-2.288 0.324,0.211 0.669,0.429 1.01,0.635l0.024 0.014c0.595,-0.582 1.356,-1.116 2.12,-1.505 1.531,-0.78 3.182,-1.208 4.926,-1.474 0.109,0.022 0.213,0.047 0.31,0.074 1.333,0.371 -3.421,2.183 -4.02,2.404 -0.502,0.185 -0.937,0.291 -1.976,0.892l-0.009 0.006 -0.01 0.005 -0.009 0.006 -0.01 0.006 -0.009 0.005 -0.01 0.006 -0.01 0.006 -0.019 0.011 -0.01 0.006 -0.01 0.006 -0.01 0.005 -0.01 0.006 -0.01 0.006 -0.009 0.005 -0.001 0.001 -0.01 0.006 -0.01 0.006 -0.01 0.006 -0.01 0.006 -0.01 0.006 -0.01 0.006 -0.001 0 -0.009 0.006 -0.011 0.006 -0.01 0.006 -0.01 0.006 -0.011 0.007 -0.01 0.006 -0.002 0.001 -0.008 0.005 -0.011 0.006 -0.01 0.007 -0.011 0.006 -0.011 0.007 -0.01 0.006 -0.004 0.002 -0.007 0.004 -0.011 0.007 -0.021 0.013 -0.011 0.007 -0.011 0.006 -0.005 0.003 -0.006 0.004 -0.011 0.007 -0.011 0.006 -0.01 0.007 -0.012 0.007 -0.011 0.007 -0.006 0.004 -0.005 0.002 -0.011 0.007 -0.011 0.007 -0.023 0.014 -0.011 0.007 -0.008 0.005 -0.049 0.03 -0.012 0.008 -0.01 0.006 -0.001 0.001 -0.047 0.029 -0.012 0.008 -0.012 0.007z"/>
   </g>
   <g>
    <path class="fil1" d="M94.977 200.896c0.763,0.349 2.075,-0.169 2.69,-0.668 0.169,-0.136 0.327,-0.294 0.481,-0.441 0.202,-0.192 0.404,-0.384 0.616,-0.57 0.457,-0.402 0.988,-0.811 1.571,-1.092 0.666,-0.32 1.477,-0.571 2.196,-0.79 0.344,-0.105 0.691,-0.205 1.033,-0.314 0.247,-0.078 0.561,-0.177 0.777,-0.305 0.351,-0.208 0.483,-0.539 0.406,-0.852 -0.055,-0.225 -0.21,-0.427 -0.401,-0.587 -0.46,-0.382 -1.147,-0.554 -1.847,-0.448 -1.85,0.278 -3.597,0.724 -5.215,1.612 -0.971,0.533 -1.947,1.333 -2.526,2.146 -0.565,0.792 -0.84,1.824 0.219,2.309z"/>
    <path class="fil8" d="M95.362 200.416c0.417,0.191 1.405,-0.198 1.841,-0.551 0.436,-0.353 1.489,-1.558 2.823,-2.2 1.334,-0.642 3.535,-1.134 3.942,-1.376 0.408,-0.241 -0.311,-1.089 -1.408,-0.924 -1.097,0.165 -3.079,0.501 -4.927,1.516 -1.849,1.015 -3.493,2.975 -2.271,3.535z"/>
    <path class="fil2" d="M96.408 197.715c-0.397,0.327 -0.744,0.679 -1.001,1.021 0.086,-0.025 0.173,-0.05 0.259,-0.074 -0.198,0.177 -0.385,0.359 -0.558,0.547 -0.265,0.527 -0.239,0.981 0.254,1.207 0.417,0.191 1.405,-0.198 1.841,-0.551 0.436,-0.353 1.489,-1.558 2.823,-2.2 1.334,-0.642 3.535,-1.134 3.942,-1.376 0.341,-0.202 -0.107,-0.829 -0.906,-0.931 -1.482,0.224 -2.932,0.671 -4.252,1.284 -0.678,0.315 -1.355,0.692 -1.983,1.118 -0.141,-0.012 -0.281,-0.027 -0.419,-0.045z"/>
   </g>
   <g>
    <path class="fil1" d="M67.776 193.598c0.165,0.452 -0.727,2.215 -0.835,4.515 -1.99,-0.982 -4.371,-1.346 -6.519,-1.391 -1.697,-0.036 -3.405,0.146 -5.05,0.565 0.06,-0.39 0.129,-0.759 0.208,-1.092 0.603,-2.551 1.16,-3.71 1.67,-3.988 0.51,-0.279 7.048,-1.531 10.526,1.391z"/>
    <path class="fil8" d="M66.135 196.239c0.082,-0.472 0.321,-1.82 0.435,-2.201 0.139,-0.464 -2.11,-1.437 -5.124,-1.298 -3.014,0.139 -3.965,0.58 -4.197,0.951 -0.182,0.291 -0.435,1.81 -0.536,2.45 1.303,-0.532 3.13,-1.066 5.034,-0.944 1.846,0.119 3.354,0.599 4.388,1.042z"/>
    <path class="fil1" d="M65.271 190.954c0.093,0.209 -0.626,1.438 -0.718,2.342 -0.093,0.905 -0.116,1.16 -0.394,1.16 -0.279,0 -1.484,-0.255 -3.061,-0.302 -1.577,-0.046 -2.087,0.07 -2.133,-0.069 -0.047,-0.14 0,-2.667 0.765,-3.363 0.765,-0.695 1.368,-0.579 2.179,-0.533 0.812,0.047 2.968,0.394 3.362,0.765z"/>
    <path class="fil8" d="M64.622 191.51c0,0 -1.484,-0.556 -2.805,-0.602 -1.322,-0.047 -2.064,0.463 -2.157,0.742 -0.092,0.278 -0.417,1.785 -0.278,2.017 0.139,0.232 1.994,0.185 3.038,0.232 1.043,0.046 1.576,0.116 1.646,-0.047 0.069,-0.162 0.301,-2.226 0.556,-2.342z"/>
    <path class="fil20" d="M64.622 191.51c0,0 -1.073,-0.402 -2.207,-0.551 0.063,0.414 0.085,0.91 -0.038,1.361 -0.179,0.656 -0.319,1.234 -0.397,1.565 0.157,0.003 0.305,0.008 0.44,0.014 1.043,0.046 1.576,0.116 1.646,-0.047 0.069,-0.162 0.301,-2.226 0.556,-2.342z"/>
   </g>
   <path class="fil1" d="M97.245 193.029c0,0 -0.834,-2.976 -1.136,-3.415 -0.303,-0.439 -5.775,-0.541 -8.473,1.747 -2.699,2.288 -2.371,4.072 -2.119,4.607 0.252,0.534 2.296,1.411 2.296,1.411 0,0 2.218,-3.42 9.432,-4.35z"/>
   <path class="fil8" d="M86.652 196.816c0.58,0.314 1.161,0.563 1.161,0.563 0,0 1.977,-3.047 8.265,-4.17 -0.212,-0.719 -0.646,-2.028 -1.028,-2.18 -0.53,-0.21 -5.094,0.303 -6.935,1.617 -1.65,1.177 -2.246,2.875 -1.463,4.17z"/>
   <path class="fil1" d="M94.065 188.652c-0.63,-0.448 -4.892,0.764 -5.296,1.219 -0.403,0.454 -0.229,1.123 0.074,1.991 0.302,0.867 0.756,1.786 1.084,1.887 0.328,0.101 1.513,-0.405 2.698,-0.635 1.186,-0.231 1.841,-0.212 2.018,-0.713 0.176,-0.501 0.078,-2.843 -0.578,-3.749z"/>
   <path class="fil8" d="M94.093 191.491c0,0.551 -0.101,0.863 -0.757,1.059 -0.656,0.196 -2.648,0.633 -3.051,0.751 -0.404,0.118 -0.631,-0.326 -0.732,-0.748 -0.101,-0.422 -0.302,-2 -0.05,-2.2 0.252,-0.2 2.547,-0.687 3.429,-0.714 0.883,-0.027 1.06,-0.1 1.161,1.852z"/>
   <path class="fil20" d="M94.093 191.491c0,0.551 -0.101,0.863 -0.757,1.059 -0.181,0.054 -0.463,0.126 -0.786,0.205 -0.001,-0.923 -0.121,-2.157 -0.661,-2.994 0.41,-0.067 0.787,-0.114 1.043,-0.122 0.883,-0.027 1.06,-0.1 1.161,1.852z"/>
   <path class="fil21" d="M44.398 202.467c0,0.329 -0.802,0.596 -1.79,0.596 -0.988,0 -1.789,-0.267 -1.789,-0.596 0,-0.329 0.801,-0.596 1.789,-0.596 0.988,0 1.79,0.267 1.79,0.596z"/>
   <path class="fil21" d="M114.988 222.306c0,0.329 -0.801,0.596 -1.79,0.596 -0.988,0 -1.789,-0.267 -1.789,-0.596 0,-0.33 0.801,-0.596 1.789,-0.596 0.989,0 1.79,0.266 1.79,0.596z"/>
   <path class="fil21" d="M119.97 220.352c0,0.33 -0.801,0.596 -1.789,0.596 -0.989,0 -1.79,-0.266 -1.79,-0.596 0,-0.329 0.801,-0.596 1.79,-0.596 0.988,0 1.789,0.267 1.789,0.596z"/>
   <path class="fil21" d="M34.138 231.176c0,0.493 -1.197,0.891 -2.674,0.891 -1.477,0 -2.675,-0.398 -2.675,-0.891 0,-0.493 1.198,-0.891 2.675,-0.891 1.477,0 2.674,0.398 2.674,0.891z"/>
   <path class="fil21" d="M36.419 233.152c0,0.201 -0.49,0.364 -1.094,0.364 -0.603,0 -1.093,-0.163 -1.093,-0.364 0,-0.202 0.49,-0.364 1.093,-0.364 0.604,0 1.094,0.162 1.094,0.364z"/>
   <g>
    <path class="fil11" d="M61.581 56.971c1.262,2.55 1.017,3.993 0.468,6.629 -0.529,2.536 -2.859,4.944 -5.606,4.565 -1.503,-0.207 -4.034,-2.281 -5.184,-3.257 -1.522,-1.294 -3.628,-3.222 -4.635,-4.921 -1.418,-2.394 -2.192,-4.8 -2.24,-7.582 -0.027,-1.621 0.283,-4.859 1.42,-6.117 1.056,-1.169 2.619,-2.014 4.233,-1.755 1.779,0.285 6.018,2.868 6.99,4.377 0.803,1.247 1.552,2.612 2.283,3.905 0.769,1.358 1.58,2.759 2.271,4.156z"/>
    <path class="fil11" d="M105.207 23.3l0.827 2.681c0.5,1.677 3.778,12.669 3.841,13.922 0.052,1.02 -1.439,5.573 -1.788,6.709 -0.572,1.861 -1.276,4.041 -1.762,5.925 0.857,1.742 2.527,4.386 2.415,6.085 -0.028,0.434 -0.98,3.178 -1.213,3.836l-6.746 16.959 -0.779 4.768c0.052,1.154 -0.801,1.905 -1.921,2.518 -3.264,1.789 -4.7,2.288 -8.368,2.073 -6.162,-0.362 -10.422,-2.993 -15.699,-5.779 -2.135,-1.127 -4.314,-2.219 -6.415,-3.403 -1.054,-0.593 -2.762,-1.526 -3.271,-2.672l-2.387 -5.761c-2.936,-7.17 -11.839,-29.019 -13.474,-36.089 -1.289,-5.572 0.428,-12.214 3.275,-17.05 4.174,-7.093 10.974,-11.428 18.986,-13.009 7.566,-1.494 15.735,-1.321 22.565,2.633 5.991,3.468 9.808,9.15 11.914,15.654z"/>
    <path class="fil12" d="M103.704 23.854c0.21,0.472 4.524,15.165 4.573,16.13 0.049,0.964 -3.784,11.411 -3.623,12.901 0.161,1.489 2.503,3.608 2.488,5.317 -0.015,1.708 -7.747,20.049 -7.929,20.877 -0.181,0.827 -0.706,5.004 -1.171,5.362 -0.466,0.358 -2.454,3.077 -8.235,2.737 -5.781,-0.339 -9.583,-2.712 -15.046,-5.596 -5.464,-2.884 -8.551,-4.364 -8.971,-5.31 -0.419,-0.945 -13.832,-33.207 -15.764,-41.56 -1.932,-8.354 3.18,-24.61 21.012,-28.13 17.831,-3.519 28.489,4.292 32.666,17.272z"/>
    <path class="fil22" d="M105.95 61.08c-2.28,6.14 -6.579,17.28 -6.737,17.999 -0.157,0.718 -0.759,4.717 -1.171,5.362 -0.412,0.646 -1.696,1.626 -4.578,2.504 3.858,-1.531 3.467,-5.549 4.314,-8.863 0.304,-1.187 5.9,-12.432 8.172,-17.002z"/>
    <path class="fil22" d="M103.704 23.854c0.16,0.36 2.703,8.974 3.926,13.483 -0.73,-0.457 -1.468,-0.847 -1.742,-0.754 -0.606,0.207 -5.786,2.938 -6.825,3.902 -1.038,0.963 -3.646,4.592 -3.824,5.13 -0.179,0.538 -0.298,4.569 0.226,6.776 0.523,2.207 3.194,6.214 2.641,7.476 -0.553,1.263 -5.241,3.859 -5.241,3.859l-0.842 -3.874c0,0 2.507,0.197 2.88,-0.557 0.374,-0.753 -1.783,-4.464 -1.875,-5.693 -0.091,-1.23 0.19,-10.177 0.19,-10.177 0,0 0.51,0.209 1.36,0.166 0.85,-0.043 1.857,-2.209 2.93,-3.645 1.073,-1.435 6.626,-3.773 6.626,-3.773 0,0 0.2,-0.735 -1.341,-7.809 -0.95,-4.36 -2.716,-10.066 -3.932,-13.805 2.1,2.636 3.711,5.775 4.843,9.295z"/>
    <path class="fil23" d="M66.001 76.578c-0.097,-0.108 -0.168,-0.21 -0.211,-0.306 -0.419,-0.945 -13.832,-33.207 -15.764,-41.56 -1.908,-8.251 3.058,-24.211 20.362,-27.993 2.184,3.124 3.318,5.63 3.318,5.63 0,0 -0.658,13.694 -1.547,16.153 -0.89,2.458 -5.704,6.516 -6.943,11.599 -1.239,5.082 -3.061,13.912 -2.36,22.034 0.563,6.522 2.43,12.385 3.145,14.443z"/>
    <path class="fil23" style="mask:url(#id10)" d="M107.935 41.526c-0.909,3.296 -3.309,10.582 -3.288,11.311 -1.852,-0.074 -9.237,-1.265 -9.237,-1.265 0,0 -0.139,-2.731 -0.181,-4.038 -0.041,-1.306 0.091,-2.04 0.605,-2.89 0.515,-0.85 2.498,-3.325 2.498,-3.325 0,0 3.825,-1.988 4.944,-2.383 1.119,-0.396 1.726,0.106 2.727,0.734 0.651,0.408 1.453,1.168 1.932,1.856z"/>
    <path class="fil23" style="mask:url(#id12)" d="M83.584 36.331c0,0 2.44,2.318 7.209,3 4.768,0.681 7.247,0.228 7.247,0.228 0,0 -2.917,4.138 -3.447,4.254 -0.53,0.116 -3.936,-1.29 -4.827,-0.649 -0.89,0.641 -1.515,4.186 -1.567,6.094 -0.052,1.908 -0.232,3.644 -0.232,3.644 0,0 -1.657,-2.149 -2.981,-2.409 -1.323,-0.261 -7.025,0.028 -11.893,-0.857 -4.868,-0.885 -9.588,-1.777 -9.588,-1.777l2.631 -0.372c0,0 0.516,-7.291 2.908,-10.628 2.391,-3.337 6.134,-3.541 9.139,-2.413 3.004,1.128 5.401,1.885 5.401,1.885z"/>
    <path class="fil24" d="M83.096 50.169c0,0 0.14,-2.771 -0.244,-4.816 -0.383,-2.045 -0.924,-3.4 -1.596,-3.541 -0.672,-0.141 -1.199,-0.184 -1.199,-0.184 0,0 0.573,-0.256 1.275,-0.283 0.702,-0.026 0.895,0.001 0.895,0.001 0,0 -1.461,-0.903 -4.574,-0.545 -3.113,0.359 -6.937,1.447 -7.979,2.678 -1.043,1.23 -1.441,4.719 -1.441,4.719 0,0 6.78,2.117 14.863,1.971z"/>
    <path class="fil8" d="M82.121 49.927c0.01,-0.987 -0.24,-6.65 -1.189,-7.092 -2.557,-1.193 -5.206,-0.808 -7.721,-0.006 -0.689,0.22 -2.247,0.777 -2.723,1.339 -0.492,0.58 -0.806,2.945 -1.005,4.083 1.127,0.306 2.312,0.552 3.429,0.763 3.02,0.57 6.128,0.898 9.209,0.913z"/>
    <g style="clip-path:url(#id14)">
     <g>
      <g>
       <circle class="fil4" transform="matrix(0.775164 -0.0392661 0.0392661 0.775164 75.1338 46.5566)" r="5.714"/>
       <path class="fil25" d="M79.238 44.339c0.858,1.434 0.365,2.724 -0.498,2.796 -0.863,0.071 -0.871,-0.913 -1.363,-1.671 -0.493,-0.757 -1.126,-1.06 -1.06,-1.645 0.066,-0.585 2.063,-0.914 2.921,0.52z"/>
       <path class="fil26" d="M77.096 49.312c-0.508,0.362 -1.122,0.589 -1.791,0.623 -1.866,0.094 -3.455,-1.342 -3.549,-3.207 -0.049,-0.97 0.315,-1.865 0.939,-2.515 0.104,-0.108 0.242,-0.157 0.391,-0.137l1.004 0.13c0.229,0.03 0.239,0.147 0.14,0.258 -0.325,0.366 -0.513,0.855 -0.486,1.383 0.054,1.066 0.963,1.887 2.029,1.833 0.17,-0.009 0.335,-0.039 0.49,-0.088 0.11,-0.035 0.228,0.015 0.277,0.12l0.63 1.313c0.048,0.102 0.018,0.221 -0.074,0.287z"/>
       <path class="fil14" d="M76.576 48.85l-0.291 -0.608c-0.045,-0.093 -0.141,-0.144 -0.243,-0.128 -0.395,0.061 -0.795,0.022 -1.164,-0.108 -0.116,-0.041 -0.242,0.015 -0.29,0.128l-0.388 0.928c-0.026,0.063 -0.024,0.128 0.006,0.19 0.029,0.061 0.079,0.103 0.145,0.121 0.705,0.196 1.467,0.12 2.123,-0.218 0.111,-0.058 0.156,-0.193 0.102,-0.305zm-2.39 -1.228c-0.269,-0.214 -0.491,-0.484 -0.648,-0.794 -0.028,-0.057 -0.074,-0.096 -0.134,-0.115 -0.061,-0.02 -0.12,-0.015 -0.177,0.014l-0.777 0.402c-0.1,0.052 -0.147,0.164 -0.115,0.271 0.197,0.655 0.616,1.209 1.165,1.58 0.06,0.04 0.127,0.051 0.195,0.03 0.069,-0.02 0.119,-0.066 0.147,-0.132l0.413 -0.987c0.04,-0.096 0.013,-0.204 -0.069,-0.269zm-0.883 -1.557c-0.054,-0.405 -0.004,-0.814 0.144,-1.19 0.026,-0.068 0.021,-0.138 -0.016,-0.201 -0.038,-0.063 -0.096,-0.102 -0.169,-0.112l-0.117 -0.015c-0.079,-0.01 -0.151,0.017 -0.203,0.076 -0.44,0.498 -0.695,1.127 -0.728,1.786 -0.004,0.085 0.035,0.159 0.106,0.205 0.071,0.046 0.155,0.05 0.23,0.011l0.63 -0.325c0.088,-0.046 0.136,-0.137 0.123,-0.235z"/>
      </g>
     </g>
    </g>
    <path class="fil27" d="M82.121 49.927c0.01,-0.987 -0.24,-6.65 -1.189,-7.092 -2.557,-1.193 -5.206,-0.808 -7.721,-0.006 -0.689,0.22 -2.247,0.777 -2.723,1.339 -0.492,0.58 -0.806,2.945 -1.005,4.083 1.127,0.306 2.312,0.552 3.429,0.763 3.02,0.57 6.128,0.898 9.209,0.913z"/>
    <path class="fil28" d="M82.121 49.927c0.007,-0.697 -0.033,-1.709 -0.109,-2.644 -3.634,3.325 -10.114,1.418 -12.529,0.968 1.127,0.306 2.312,0.552 3.429,0.763 3.02,0.57 6.128,0.898 9.209,0.913z"/>
    <path class="fil29" d="M86.855 35.169c-0.162,0.826 -0.354,1.205 -0.825,1.403 -1.236,-2.226 -5.564,-3.389 -8.439,-3.62 -4.156,-0.335 -6.54,0.902 -7.998,2.54 -4.238,4.766 0.423,2.684 2.939,1.843 2.627,-0.878 7.678,-0.027 9.742,0.923 0.828,0.381 1.551,0.717 2.119,0.983 0.79,0.37 1.09,0.37 1.818,-0.091 0.729,-0.461 1.322,-2.111 0.644,-3.981z"/>
    <path class="fil29" d="M97.127 42.663c0,0 1.718,-2.797 5.414,-4.844 3.696,-2.047 4.172,-2.098 4.702,-1.594 0.531,0.505 1.336,3.812 1.176,4.325 -0.16,0.513 -0.787,2.298 -0.787,2.298 0,0 -1.205,-2.808 -3.055,-3.14 -1.851,-0.331 -7.45,2.955 -7.45,2.955z"/>
    <path class="fil8" d="M96.196 44.559c0,0 5.764,-0.486 6.609,0.574 0.845,1.061 1.148,3.681 0.731,4.842 -0.416,1.161 -0.858,2.503 -0.858,2.503l-6.959 -0.795 -0.366 -6.658 0.843 -0.466z"/>
    <g style="clip-path:url(#id15)">
     <g>
      <g>
       <circle class="fil4" transform="matrix(0.639899 -0.0890547 0.094615 0.623745 98.037 48.8231)" r="5.714"/>
       <path class="fil25" d="M101.264 46.727c0.827,1.096 0.521,2.175 -0.189,2.297 -0.71,0.121 -0.795,-0.674 -1.265,-1.25 -0.469,-0.576 -1.019,-0.774 -1.011,-1.251 0.008,-0.478 1.639,-0.892 2.465,0.204z"/>
       <path class="fil26" d="M99.885 50.906c-0.392,0.33 -0.883,0.558 -1.436,0.635 -1.54,0.215 -2.973,-0.829 -3.201,-2.33 -0.118,-0.78 0.113,-1.531 0.578,-2.102 0.078,-0.096 0.188,-0.145 0.314,-0.14l0.843 0.031c0.192,0.007 0.21,0.102 0.137,0.199 -0.241,0.319 -0.357,0.728 -0.293,1.153 0.131,0.858 0.95,1.455 1.83,1.332 0.141,-0.02 0.275,-0.056 0.399,-0.108 0.089,-0.036 0.191,-0.004 0.24,0.077l0.627 1.015c0.049,0.079 0.033,0.178 -0.038,0.238z"/>
       <path class="fil14" d="M99.417 50.571l-0.29 -0.47c-0.044,-0.072 -0.129,-0.106 -0.212,-0.086 -0.323,0.079 -0.658,0.077 -0.974,-0.001 -0.099,-0.025 -0.2,0.03 -0.23,0.125l-0.248 0.779c-0.017,0.053 -0.01,0.105 0.02,0.152 0.029,0.048 0.074,0.078 0.13,0.088 0.601,0.106 1.226,-0.011 1.744,-0.334 0.087,-0.054 0.114,-0.167 0.06,-0.253zm-2.081 -0.817c-0.24,-0.152 -0.446,-0.355 -0.601,-0.594 -0.028,-0.043 -0.069,-0.071 -0.121,-0.083 -0.052,-0.011 -0.1,-0.003 -0.145,0.025l-0.613 0.382c-0.078,0.049 -0.109,0.144 -0.073,0.228 0.215,0.515 0.607,0.932 1.093,1.191 0.052,0.028 0.109,0.032 0.164,0.01 0.055,-0.022 0.093,-0.062 0.111,-0.118l0.264 -0.828c0.025,-0.081 -0.006,-0.166 -0.079,-0.213zm-0.857 -1.193c-0.077,-0.323 -0.068,-0.657 0.024,-0.972 0.017,-0.058 0.006,-0.114 -0.03,-0.162 -0.036,-0.049 -0.087,-0.075 -0.149,-0.078l-0.098 -0.003c-0.066,-0.003 -0.123,0.025 -0.162,0.076 -0.325,0.436 -0.486,0.963 -0.461,1.498 0.004,0.068 0.042,0.126 0.104,0.158 0.063,0.032 0.133,0.028 0.193,-0.009l0.496 -0.309c0.069,-0.044 0.101,-0.121 0.083,-0.199z"/>
      </g>
     </g>
    </g>
    <path class="fil27" d="M96.196 44.559c0,0 5.764,-0.486 6.609,0.574 0.845,1.061 1.148,3.681 0.731,4.842 -0.416,1.161 -0.858,2.503 -0.858,2.503l-6.959 -0.795 -0.366 -6.658 0.843 -0.466z"/>
    <path class="fil0" d="M103.214 47.811c0.099,0.882 0.149,1.538 -0.106,2.348 -0.255,0.81 -0.469,2.254 -0.469,2.254l-7.133 -0.75 0.058 -0.252c2.475,-0.116 6.64,-1.028 7.65,-3.6z"/>
    <path class="fil24" d="M96.184 43.825c0,0 5.052,-0.329 5.829,-0.183 0.777,0.146 2.554,1.099 2.511,3.437 -0.044,2.338 -1.043,5.513 -1.043,5.513l-1.193 -0.158c0,0 0.765,-2.013 0.889,-3.675 0.124,-1.662 0.255,-3.401 -1.337,-3.769 -1.591,-0.367 -6.115,-0.045 -6.115,-0.045l0.459 -1.12z"/>
    <polygon class="fil24" points="103.166,52.068 103.336,52.572 95.487,51.676 "/>
    <path class="fil30" d="M97.555 42.059c0,0 -1.743,3.116 -1.885,3.578 -0.142,0.462 0.128,6.196 0.191,6.627 0.063,0.431 3.476,6.585 3.457,7.02 -0.019,0.435 -1.039,1.521 -3.105,2.783 -2.066,1.263 -3.348,1.659 -3.348,1.659 0,0 4.827,-3.491 4.785,-4.316 -0.042,-0.825 -2.48,-6.098 -2.658,-7.164 -0.178,-1.066 -0.178,-6.287 -0.069,-6.582 0.109,-0.295 2.632,-3.605 2.632,-3.605z"/>
    <path class="fil12" d="M60.146 57.653c-0.742,-1.502 -3.71,-6.705 -4.464,-7.876 -0.755,-1.172 -4.679,-3.469 -5.898,-3.664 -1.219,-0.196 -2.306,0.709 -2.793,1.248 -0.487,0.539 -1.045,2.729 -1.007,5.017 0.039,2.288 0.61,4.42 2.017,6.793 1.407,2.373 7.158,7.202 8.66,7.409 1.503,0.207 3.335,-2.066 3.595,-3.323 0.26,-1.257 0.549,-4.27 -0.11,-5.604z"/>
    <path class="fil23" d="M60.147 57.681c-0.745,-1.506 -3.711,-6.733 -4.465,-7.904 -0.755,-1.172 -4.679,-3.469 -5.898,-3.664 -0.179,-0.029 -0.355,-0.034 -0.526,-0.02 -0.091,0.514 -0.264,1.334 -0.114,1.66 0.15,0.325 6.622,3.771 7.907,6.586 1.285,2.815 -1.65,6.989 -0.749,8.165 0.901,1.176 2.152,2.328 3.387,2.556 0.367,-0.497 0.65,-1.1 0.793,-1.787 0.455,-2.184 0.767,-3.366 -0.335,-5.592z"/>
    <path class="fil23" d="M47.672 58.592c0.104,0.192 0.214,0.385 0.329,0.579 1.407,2.373 7.158,7.202 8.66,7.409 1.257,0.173 2.764,-0.728 3.491,-2.303 -0.864,-0.349 -2.691,-1.192 -3.463,-2.357 -1.029,-1.552 -7.56,-10.562 -7.56,-10.562 0,0 -1.008,1.256 -1.419,3.709 -0.16,0.955 -0.162,2.236 -0.038,3.525z"/>
    <path class="fil23" d="M95.74 60.006c0,0 -1.318,2.398 -2.922,3.112 -1.604,0.714 -5.625,-0.262 -7.234,-1.907 -1.608,-1.645 -1.922,-2.147 -1.922,-2.147 0,0 1.696,-1.18 4.106,-0.755 2.41,0.424 3.789,1.506 5.411,1.711 1.622,0.206 2.561,-0.014 2.561,-0.014z"/>
    <path class="fil30" d="M84.732 56.62c0,0 -1.16,1.72 -1.095,2.016 0.065,0.296 2.404,2.172 2.404,2.172 0,0 1.048,-0.303 2.136,-0.142 1.088,0.161 2.271,1.198 2.212,1.351 -0.059,0.152 -0.119,0.271 -0.599,-0.02 -0.48,-0.291 -1.128,-0.94 -2.141,-0.922 -1.012,0.018 -1.57,0.495 -1.737,0.47 -0.168,-0.024 -2.924,-2.278 -3.001,-2.806 -0.076,-0.528 1.821,-2.119 1.821,-2.119z"/>
    <path class="fil11" d="M106.093 26.409c0,0 -1.061,-2.572 -1.831,-2.599 -0.771,-0.027 -0.454,2.703 -2.031,4.396 0.267,-0.947 0.143,-1.637 0.033,-2.19 0,0 -1.756,1.569 -2.488,1.874 -3.674,1.53 -8.423,1.018 -11.229,-0.734 -2.251,-1.405 -4.314,-3.326 -4.748,-3.934 -3.544,-0.97 -3.79,2.051 -10.527,0.794 2.532,-0.688 3.816,-1.498 4.466,-2.271 0,0 -2.469,0.42 -4.701,0.86 -2.232,0.441 -3.212,1.232 -3.212,1.232 0,0 0.914,-0.771 1.345,-1.32 0.431,-0.549 0.911,-1.315 0.911,-1.315 0,0 -1.517,0.042 -2.465,0.666 -0.947,0.625 -1.992,1.93 -1.992,1.93l0.892 -1.957c0,0 -1.296,1.021 -1.993,1.83 -0.696,0.81 -1.429,1.921 -1.429,1.921l0.433 -3.173 -2.804 6.377c0,0 2.019,3.957 1.85,4.587 -0.169,0.631 -5.042,10.432 -5.151,11.512 -0.11,1.081 0.725,12.786 0.725,12.786 0,0 -4.557,-7.95 -5.29,-8.748 -0.732,-0.799 -2.923,-2.113 -2.923,-2.113 0,0 -7.808,-18.954 -8.277,-23.795 -0.182,-1.876 4.401,-6.293 6.844,-7.022 -1.348,-1.079 -1.659,-3.009 -1.659,-3.009 0.706,0.412 1.861,1.051 2.699,1.085 -0.067,-1.371 0.219,-4.664 1.499,-6.413 -0.01,0.938 -0.052,3.161 0.445,3.911 3.334,-4.685 12.041,-9.832 17.456,-11.577 -0.54,0.431 -0.932,1.267 -1.02,1.894 7.382,-1.967 24.04,-2.385 31.249,2.589 -1.933,-0.246 -3.185,-0.321 -4.711,-0.043 5.414,2.343 12.131,7.836 13.671,16.696 -1.698,-0.61 -3.236,-0.588 -4.057,-0.263 0,0 0.771,1.46 0.02,5.536z"/>
    <path class="fil29" d="M99.703 26.273c3.863,-2.89 3.356,-7.732 8.633,-6.946 -1.173,-5.019 -6.59,-11.083 -10.888,-13.113 -0.664,-0.314 -4.59,-1.703 -1.558,-2.996 -8.453,-2.661 -22.428,-1.28 -25.324,0.105 -0.831,0.398 -1.741,0.051 -2.102,-0.674 -4.923,2.201 -11.108,6.194 -13.678,9.805 -0.609,0.839 -1.34,2.314 -1.596,3.948 -2.128,0.625 -7.54,3.82 -7.928,6.438 -0.025,1.118 0.777,3.812 1.972,7.233 3.971,-1.423 7.275,-1.894 11.435,-2.1 0,0 -4.781,-1.115 -8.104,-0.742 0.981,-0.744 2.161,-1.5 3.545,-2.151 6.799,-3.197 10.603,-3.083 10.603,-3.083 0,0 -4.148,-1.067 -7.34,-1.137 -2.928,-0.065 -4.042,0.714 -4.042,0.714 0,0 4.832,-3.58 13.423,-3.492 8.591,0.087 16.268,3.786 16.268,3.786l-2.988 -5.278c2.701,2.922 4.448,6.171 8.103,8.769 3.171,2.253 9.186,2.694 11.566,0.914z"/>
    <path class="fil31" d="M99.703 26.272c1.835,-1.372 2.684,-3.185 3.635,-4.626l-0.001 0.002c-1.081,1.341 -1.728,4.136 -8.209,4.329 -6.011,0.18 -13.855,-8.047 -14.961,-9.242 2.626,2.885 4.375,6.069 7.97,8.624 3.171,2.253 9.186,2.694 11.566,0.913zm4.519 -5.77c0.898,-0.941 2.074,-1.479 4.114,-1.175l-0.002 -0.009c-0.531,-0.279 -1.299,-0.544 -2.075,-0.33 -0.954,0.263 -1.464,0.783 -2.037,1.514z"/>
    <path class="fil31" d="M60.831 6.962c-2.519,1.741 -4.745,3.665 -6.045,5.492 -0.609,0.839 -1.34,2.314 -1.596,3.948 -2.128,0.625 -7.54,3.82 -7.928,6.438 -0.019,0.833 0.467,2.671 1.211,4.97 0.196,-1.942 0.419,-3.919 0.555,-4.375 0.285,-0.954 10.721,-5.315 10.721,-5.315l-3.477 -1.258c0,0 4.257,0.033 7.724,-0.956 3.467,-0.99 4.578,-2.149 4.578,-2.149 0,0 -2.684,0.705 -4.917,0.449 -2.233,-0.257 -2.649,-0.932 -2.649,-0.932 0,0 2.652,-3.511 9.818,-6.718 7.167,-3.206 12.488,-3.502 12.488,-3.502 0,0 -5.942,-0.266 -12.276,1.428 -6.333,1.693 -9.017,4.409 -9.017,4.409 0,0 0.203,-0.715 0.81,-1.929z"/>
    <path class="fil23" d="M91.803 77.723c0,0 -0.006,2.024 -1.667,2.228 -1.66,0.205 -7.108,-3.5 -7.108,-3.5 0,0 6.234,1.938 8.775,1.272z"/>
    <path class="fil32" d="M50.539 50.852c0,0 -0.908,-0.256 -1.252,0.36 -0.344,0.616 -1.035,3.671 0.048,5.949 1.592,3.35 4.102,5.311 8.266,4.596 0,0 -1.704,-0.614 -1.927,-2.013 -0.222,-1.4 0.119,-2.718 0.412,-3.064 0.293,-0.345 0.303,-0.698 0.093,-1.001 -0.209,-0.302 -1.983,-3.104 -5.64,-4.827z"/>
    <path class="fil12" d="M49.336 57.163c1.292,2.717 3.188,4.519 6.08,4.721 -0.962,-0.279 -2.739,-1.022 -3.234,-2.767 -0.689,-2.43 0.308,-4.243 0.308,-4.243 0,0 -2.397,0.316 -3.154,2.289z"/>
    <path class="fil11" d="M57.784 61.818c0,0 -1.993,-1.084 -2.138,-2.682 -0.146,-1.598 1.392,-2.916 1.392,-2.916 0,0 -2.571,-3.726 -4.907,-5.059 -2.336,-1.333 -2.738,-0.648 -2.899,-0.248 -0.161,0.399 -0.433,2.478 -0.433,2.478 0,0 0.7,-1.697 1.387,-1.694 0.688,0.003 1.204,0.315 3.293,2.373 2.09,2.057 1.882,2.271 1.882,2.271 0,0 -1.422,1.511 -0.834,3.326 0.589,1.814 3.257,2.151 3.257,2.151z"/>
    <path class="fil33" style="mask:url(#id16)" d="M61.913 29.012c-4.264,-0.375 -10.343,0.599 -14.231,2.332l4.543 13.375c0,0 3.425,1.412 4.152,2.416 0.728,1.004 2.342,4.261 2.342,4.261 0,0 -0.726,-5.512 -0.796,-6.375 -0.069,-0.863 5.229,-11.138 5.38,-11.666 0.151,-0.527 -1.39,-4.343 -1.39,-4.343z"/>
    <g>
     <g>
      <path class="fil11" d="M72.227 61.966c0.369,0.84 2.273,4.71 2.739,5.346 1.049,1.7 1.502,2.279 2.741,3.757 2.949,3.514 8.654,5.442 13.139,5.045 0.92,-0.081 1.802,-0.251 2.572,-0.572 2.418,-1.008 1.938,-2.364 2.56,-4.013l1.727 -3.247c0.576,-0.995 0.218,-0.888 1.156,-1.324 0.508,-0.236 1.091,-0.843 1.245,-1.257 -1.032,0.329 -0.727,0.556 -2.889,1.021 -3.429,0.739 -7.448,0.508 -10.838,-0.238 -3.962,-0.872 -9.251,-2.345 -11.895,-4.414 -0.566,-0.366 -0.383,-0.23 -0.718,-0.556 -0.265,-0.258 -0.209,-0.111 -0.331,-0.423l1.866 -0.556c0.327,0.039 0.351,-0.005 0.652,-0.097 -0.97,-0.068 -2.304,-0.265 -3.231,-0.074 -0.484,0.101 -1.472,0.389 -1.725,0.789 -0.087,0.137 -0.148,0.407 -0.084,0.578 0.325,0.032 0.609,-0.404 1.036,-0.496l0.278 0.731zm-0.241 -0.71l0.241 0.71 -0.241 -0.71z"/>
     </g>
     <path class="fil34" d="M96.259 67.834c-4.584,0.359 -6.97,0.518 -11.685,-0.744 -1.979,-0.53 -6.521,-1.769 -8.59,-2.879 -0.334,-0.179 -0.85,-0.54 -1.123,-0.631 0.675,2.534 0.615,2.782 2.054,3.707 2.129,1.37 4.473,2.184 7.208,2.687 2.098,0.386 5.128,0.875 7.238,0.729 1.015,-0.07 2.49,-0.071 3.28,-0.52 0.521,-0.296 0.619,-0.409 0.932,-1.018 0.179,-0.35 0.601,-1.029 0.686,-1.331z"/>
     <path class="fil35" d="M78.187 69.327c0.87,1.557 0.878,1.949 2.309,2.996 2.005,1.467 5.4,2.737 7.939,2.938 1.374,0.109 3.531,-0.084 4.583,-0.572 0.003,-1.123 -1.271,-2.524 -2.027,-2.902 -0.388,-0.195 -1.809,-0.171 -2.37,-0.219 -2.448,-0.214 -4.205,-0.542 -6.609,-1.048 -0.698,-0.147 -1.337,-0.303 -1.993,-0.523 -0.469,-0.158 -1.434,-0.634 -1.832,-0.67z"/>
     <path class="fil36" d="M72.227 61.966l-0.25 -0.736c-0.442,0.077 -0.732,0.534 -1.064,0.501 -0.064,-0.171 -0.003,-0.441 0.084,-0.578 0.253,-0.4 1.241,-0.688 1.725,-0.789 0.927,-0.191 2.261,0.006 3.231,0.074 -0.301,0.092 -0.325,0.136 -0.652,0.097l-1.866 0.556c0.111,0.285 0.008,0.106 0.194,0.3 0.1,0.105 0.035,0.024 0.137,0.123 0.014,0.014 0.033,0.031 0.047,0.045 0.013,0.014 0.032,0.035 0.044,0.047 0.013,0.013 0.034,0.04 0.044,0.05 0.01,0.011 0.031,0.034 0.044,0.052 0.179,0.108 0.324,0.249 0.539,0.362 0.01,-0.023 0.024,-0.085 0.03,-0.07 0.005,0.015 0.021,-0.053 0.03,-0.065 0.008,-0.011 0.025,-0.042 0.035,-0.055 0.079,-0.096 0.07,-0.065 0.178,-0.147 0.177,-0.135 0.221,-0.167 0.394,-0.287 0.919,-0.634 0.341,-0.358 1.646,-0.964 0.424,-0.197 0.624,-0.204 0.946,-0.399 -0.243,-0.095 -0.8,-0.179 -1.167,-0.223 -1.586,-0.191 -4.674,-0.804 -5.939,0.552 -0.054,0.058 -0.147,0.138 -0.224,0.205 -0.504,0.437 -0.645,1.725 -0.102,2.122 0.387,-0.067 1.354,-0.818 1.916,-0.773z"/>
     <path class="fil37" d="M78.963 68.127c0.063,-0.353 -0.072,-0.83 -0.028,-1.251 0.047,-0.448 0.198,-0.714 0.263,-1.095 -0.878,-0.291 -3.621,-1.643 -3.927,-1.669 0,0.526 0.262,0.975 0.409,1.442 0.236,0.753 0.18,0.799 0.776,1.176 1.336,0.844 1.005,0.692 2.507,1.397z"/>
    </g>
    <circle class="fil30" transform="matrix(0.814108 -0.042264 0.042264 0.814108 56.8713 64.246)" r="1.485"/>
    <path class="fil29" d="M77.042 23.441c0,0 1.648,-0.451 2.835,-0.966 1.187,-0.514 1.874,-1.438 1.874,-1.438l-2.245 -0.825 0.071 -0.895c0,0 -4.836,-1.595 -4.947,-1.626 -0.111,-0.031 -5.02,-1.602 -5.02,-1.602 -1.869,2.141 -2.834,3.877 -3.305,6.385 1.879,-1.964 5.265,-3.073 7.993,-2.737 -0.354,0.524 -0.915,1.48 -1.346,1.898 2.337,-0.829 4.089,-1.047 6.534,-1.174 -0.003,0.541 -0.266,1.821 -2.444,2.98z"/>
   </g>
  </g>
 </g>
</svg>
