<svg width="28" height="28" viewBox="0 0 28 28" fill="none" xmlns="http://www.w3.org/2000/svg">
<path fill-rule="evenodd" clip-rule="evenodd" d="M14.7878 1.99342L14.79 9.4859C19.0469 9.45873 18.5351 8.95153 18.5057 13.2152H27.1643C27.8458 13.2152 28.8149 14.6462 26.759 14.7866V26.4295C28.8149 26.5698 27.8458 28.0009 27.1643 28.0009H0.835307C0.153761 28.0009 -0.817612 26.5698 1.24061 26.4295V10.5184C-0.131538 11.0799 -0.167766 9.59685 0.414152 9.22777L14.7742 0.132188C15.6504 -0.422559 16.4928 0.913362 15.6165 1.46811L14.7878 1.99342ZM2.82107 13.2152H5.77595C5.76463 12.4815 5.72161 11.757 5.71255 11.0256C5.70576 10.5841 5.70123 10.018 6.06578 9.70101C6.419 9.3908 7.05074 9.41118 7.49227 9.42024C8.42968 9.43609 9.35577 9.48816 10.2954 9.48816H13.2096V2.99423L2.82107 9.57421V13.2152ZM11.0743 18.9506V26.4181H13.2096V18.9506H11.0743ZM9.49389 26.4181V18.9506H7.35868V26.4181H9.49389ZM16.9252 11.0686H14.79V13.2152H16.9252V11.0686ZM7.35868 13.2152H9.49389V11.0686H7.35868V13.2152ZM11.0743 13.2152H13.2096V11.0686H11.0743V13.2152ZM14.79 26.4181H25.1785V14.7956H2.82107V26.4181H5.77821V18.1581C5.77821 17.7211 6.13144 17.3656 6.56845 17.3656C9.04556 17.3656 11.5227 17.3656 13.9998 17.3656C14.4368 17.3656 14.79 17.7211 14.79 18.1581V26.4181ZM17.7155 17.3656H22.2531C23.041 17.3656 23.0954 18.4366 23.1067 19.0026C23.1248 19.8744 23.0433 20.7507 23.0433 21.6247C23.0433 22.0594 22.6878 22.4149 22.2531 22.4149H17.7155C16.9252 22.4149 16.8709 21.3439 16.8596 20.7778C16.8415 19.9083 16.9252 19.0298 16.9252 18.1581C16.9252 17.7211 17.2785 17.3656 17.7155 17.3656ZM21.4628 18.9483H18.5057V20.8322H21.4628V18.9483Z" fill="white"/>
</svg>
