<svg width="28" height="28" viewBox="0 0 28 28" fill="none" xmlns="http://www.w3.org/2000/svg">
<path fill-rule="evenodd" clip-rule="evenodd" d="M27.9983 14.0264C27.9983 27.7811 10.0367 33.2469 2.39567 21.8016C-1.09854 16.5626 -0.732921 10.0416 3.24724 5.18212C7.23204 0.317987 13.5401 -1.3111 19.3669 1.10476C24.592 3.27071 27.9983 8.37088 27.9983 14.0264ZM10.5689 22.0238V21.2046H12.1795V12.1983H10.4069L10.4208 11.3791C11.4066 11.3514 12.3553 11.3143 13.2717 11.2588C14.1927 11.2033 15.0813 11.1339 15.9421 11.0552V21.2046H17.6314V22.0238H10.5689ZM11.8879 8.08394C11.8879 7.5008 12.0962 7.00559 12.5127 6.59369C12.9339 6.17716 13.4337 5.97352 14.0122 5.97352C14.5815 5.97352 15.072 6.17253 15.4701 6.58443C15.8681 6.99171 16.0671 7.49154 16.0671 8.08394C16.0671 8.66708 15.8634 9.16691 15.4608 9.58807C15.0582 10.0046 14.5676 10.2129 13.9891 10.2129C13.4013 10.2129 12.9061 10.0046 12.4988 9.58807C12.0915 9.16691 11.8879 8.66708 11.8879 8.08394ZM26.2582 16.0072C27.1329 10.5877 24.5226 5.54311 19.6631 3.03005C14.7712 0.498482 9.16195 1.34542 5.25121 5.25154C1.91898 8.5884 0.766583 13.5081 2.26609 17.9788C5.91766 28.8641 21.2598 29.2714 25.4667 18.798L26.2582 16.0072Z" fill="white"/>
</svg>
