<?xml version="1.0" encoding="UTF-8"?>
<!DOCTYPE svg PUBLIC "-//W3C//DTD SVG 1.1//EN" "http://www.w3.org/Graphics/SVG/1.1/DTD/svg11.dtd">
<!-- Creator: CorelDRAW -->
<svg xmlns="http://www.w3.org/2000/svg" xml:space="preserve" width="94px" height="90px" version="1.1" style="shape-rendering:geometricPrecision; text-rendering:geometricPrecision; image-rendering:optimizeQuality; fill-rule:evenodd; clip-rule:evenodd"
viewBox="0 0 38.717 36.992"
 xmlns:xlink="http://www.w3.org/1999/xlink"
 xmlns:xodm="http://www.corel.com/coreldraw/odm/2003">
 <defs>
  <style type="text/css">
   <![CDATA[
    .fil11 {fill:#3A4D7B}
    .fil5 {fill:#56A6E8}
    .fil2 {fill:#596E99}
    .fil8 {fill:#7C8EB0}
    .fil7 {fill:#8EC264}
    .fil10 {fill:#A65D51}
    .fil3 {fill:#A9BED4}
    .fil0 {fill:#CAE5ED}
    .fil14 {fill:#CCC5A9}
    .fil4 {fill:#D58376}
    .fil13 {fill:#E2B074}
    .fil12 {fill:#EAD7B1}
    .fil6 {fill:#EFF0DB}
    .fil1 {fill:#FDD699}
    .fil9 {fill:#FFE166}
   ]]>
  </style>
 </defs>
 <g id="Layer_x0020_1">
  <metadata id="CorelCorpID_0Corel-Layer"/>
  <polygon class="fil0" points="11.179,36.978 27.538,36.978 27.54,25.05 11.177,25.05 "/>
  <path class="fil1" d="M0.605 36.861l10.508 0.018 0 -11.741 0.079 0 -11.192 0 0 10.952c0.023,0.475 0.172,0.783 0.605,0.771z"/>
  <path class="fil2" d="M13.57 26.683c-0.941,0.222 -0.777,0.951 -0.777,1.977l-0.002 5.448c0.007,1.077 0.451,1.232 1.501,1.227 1.351,-0.006 10.455,0.088 10.942,-0.044 0.815,-0.219 0.69,-1.135 0.69,-2.018l0.002 -5.449c-0.012,-1.049 -0.481,-1.185 -1.5,-1.182 -1.407,0.005 -10.287,-0.093 -10.856,0.041z"/>
  <path class="fil1" d="M36.642 25.127l-9.039 0.011 0 11.741c1.255,0 7.682,-0.086 8.354,0.047l0 0.052c2.038,0 2.618,0.186 2.76,-0.798l0 -11.093 -2.075 0.04z"/>
  <polygon class="fil3" points="11.177,25.05 27.54,25.05 27.535,19.738 11.182,19.738 "/>
  <polygon class="fil4" points="0,19.734 11.182,19.738 27.535,19.738 36.632,19.721 38.717,19.733 38.717,17.544 37.356,17.554 36.632,17.57 33.802,17.561 31.987,17.566 28.509,17.568 25.862,17.558 24.652,17.547 19.888,17.553 18.829,17.553 14.065,17.547 12.855,17.558 3.857,17.547 2.647,17.556 0,17.543 "/>
  <polygon class="fil5" points="13.927,34.183 24.803,34.2 24.788,27.786 13.952,27.777 "/>
  <polygon class="fil6" points="0,25.053 11.177,25.05 11.182,19.738 0,19.734 "/>
  <polygon class="fil6" points="27.54,25.05 36.64,25.053 36.642,25.127 38.717,25.087 38.717,19.733 36.632,19.721 27.535,19.738 "/>
  <path class="fil7" d="M33.802 17.561l2.83 0.009 0.724 -0.016c0,-1.131 0.112,-3.376 -0.139,-4.182 -0.087,-0.278 -0.204,-0.473 -0.367,-0.691 -0.146,-0.196 -0.377,-0.422 -0.468,-0.591 -0.245,-0.455 -0.044,-1.532 -0.16,-2.033 -0.26,-0.124 -0.612,-0.226 -1.02,-0.112 -0.459,0.128 -0.347,0.402 -0.342,0.944 0.023,2.623 -1.058,0.525 -1.058,4.084 0,0.863 0,1.726 0,2.588z"/>
  <path class="fil8" d="M11.267 5.178c-0.113,-0.054 -0.075,-0.06 -0.075,0.073 -0.151,0.172 -0.093,1.613 -0.037,1.818 0.138,0.503 0.601,0.342 1.625,0.342l11.94 0c0.507,0 1.013,0 1.52,0 0.251,0 0.515,0.01 0.763,0.007 0.396,-0.006 0.422,0.006 0.538,-0.31 0.211,-0.417 0.06,-1.419 0.06,-1.966 -0.401,-0.093 -2.93,-1.538 -3.528,-1.841 -2.129,-1.079 -2.076,-0.893 -2.068,-1.939 0.003,-0.454 0,-0.908 0,-1.362l-2.628 0 -2.665 0c0,0.429 -0.002,0.857 0,1.286 0.002,0.545 0.101,0.868 -0.273,1.088l-5.041 2.679c-0.126,0.097 -0.026,-0.003 -0.131,0.125z"/>
  <path class="fil2" d="M2.647 17.556l1.21 -0.009 0.016 -4.827c0.183,-0.947 1.563,-1.041 1.979,-0.272 0.474,0.874 -0.07,2.579 0.36,2.968 0.393,0.356 0.906,0.097 0.967,-0.372 0.092,-0.696 0.064,-2.472 -0.219,-3.024 -0.924,-1.802 -3.285,-1.61 -4.063,-0.049 -0.369,0.74 -0.25,2.057 -0.25,3.077 -0.679,0 -1.288,-0.084 -1.29,0.606 -0.001,0.634 0.659,0.604 1.29,0.604l0 1.298z"/>
  <path class="fil9" d="M28.509 17.568l3.478 -0.002c0,-1.93 0.243,-2.603 -0.735,-3.749 -0.174,-0.204 -0.246,-0.29 -0.254,-0.654 -0.016,-0.696 0.099,-1.159 -0.145,-1.669 -1.676,-0.39 -1.327,0.375 -1.355,1.67 -0.019,0.835 -0.969,1.028 -0.993,2.183 -0.016,0.73 0.004,1.488 0.004,2.221z"/>
  <path class="fil10" d="M31.543 21.304c-0.309,0.112 -0.528,0.37 -0.337,0.797 0.15,0.338 0.555,0.296 1.007,0.293 0.956,-0.006 3.457,0.337 2.822,-0.86 -0.164,-0.308 -0.564,-0.278 -1.005,-0.275 -0.471,0.002 -2.188,-0.064 -2.487,0.045z"/>
  <path class="fil10" d="M4.386 22.393l2.42 0c1.074,0 1.042,-1.133 0,-1.133l-2.42 0c-1.087,0 -1.054,1.133 0,1.133z"/>
  <path class="fil11" d="M24.652 17.547l1.21 0.011c0,-0.811 0.079,-1.191 -0.321,-1.659 -0.602,-0.704 -2.908,-0.721 -2.489,0.363 0.208,0.537 0.879,0.374 1.6,0.374l0 0.911z"/>
  <path class="fil11" d="M12.855 17.558l1.21 -0.011 0 -0.911c0.721,0 1.392,0.163 1.6,-0.374 0.256,-0.662 -0.456,-0.834 -0.993,-0.841 -1.874,-0.022 -1.817,0.958 -1.817,2.137z"/>
  <path class="fil10" d="M8.704 29.492l0 2.041c0,1.041 1.132,1.047 1.132,0l0 -2.041c0,-0.459 -0.09,-0.75 -0.537,-0.764 -0.477,-0.014 -0.595,0.302 -0.595,0.764z"/>
  <path class="fil10" d="M28.881 29.492l0 2.041c0,1.041 1.132,1.042 1.132,0l0 -2.041c0,-1.041 -1.132,-1.086 -1.132,0z"/>
  <path class="fil12" d="M0.605 36.861c0.121,0.119 0.117,0.125 0.525,0.124l10.049 -0.007 -0.002 -11.928 -11.177 0.003 0 0.085 11.192 0 -0.079 0 0 11.741 -10.508 -0.018z"/>
  <path class="fil2" d="M15.433 21.457c-1.18,0.502 -0.443,2.133 0.663,1.75 1.206,-0.418 0.514,-2.251 -0.663,-1.75z"/>
  <path class="fil2" d="M22.592 21.442c-1.07,0.396 -0.536,2.216 0.68,1.757 1.042,-0.393 0.591,-2.229 -0.68,-1.757z"/>
  <path class="fil12" d="M27.538 36.978l8.419 0 0 -0.052c-0.839,-0.166 -3.199,-0.047 -4.197,-0.047 -1.385,0 -2.771,0 -4.157,0l0 -11.741 9.039 -0.011 -0.002 -0.074 -9.1 -0.003 -0.002 11.928z"/>
  <path class="fil11" d="M18.829 17.553l1.059 0c0,0 0.485,-2.063 -0.53,-2.063 -1.014,0 -0.529,2.063 -0.529,2.063z"/>
  <path class="fil13" d="M35.957 36.926l0 0.052c2.038,0 2.618,0.186 2.76,-0.798l0 -3.739 0 -0.115 0 -0.115 0 -0.115 0 -0.115 0 -0.115 0 -0.115 0 -0.115 0 -0.115 0 -0.114 0 -0.115 0 -0.115 0 -0.115 0 -0.115 0 -0.115 0 -0.115 0 -0.115 0 -0.115 0 -0.115 0 -0.115 0 -0.114 0 -0.115 0 -0.115 0 -0.115 0 -0.115 0 -0.115 0 -0.115 0 -0.115 0 -0.115 0 -0.115 0 -0.114 0 -0.115 0 -0.115 0 -0.115 0 -0.115 0 -0.115 0 -0.115 0 -0.115 0 -0.115 0 -0.115 0 -0.114 0 -0.115 0 -0.115 0 -0.115 0 -0.115 0 -0.115 0 -0.115 0 -0.115 0 -0.115 0 -0.115 0 -0.115 0 -0.114 0 -0.115 0 -0.115 0 -0.115 0 -0.115 0 -0.115 0 -0.115 0 -0.115 0 -0.115 0 -0.115 0 -0.114 0 -0.115 0 -0.115 0 -0.115 -2.075 0.04c-0.095,2.003 -0.008,4.227 -0.008,6.255 0,1.033 0,2.067 0,3.1 0,0.885 0.239,2.352 -0.677,2.444z"/>
  <polygon class="fil14" points="36.64,25.053 36.642,25.127 38.717,25.087 38.717,19.733 36.632,19.721 "/>
  <polygon class="fil10" points="36.632,19.721 38.717,19.733 38.717,17.544 37.356,17.554 36.632,17.57 "/>
  <path class="fil2" d="M24.72 7.411c0.24,-0.36 0.212,-0.416 0.209,-0.982 -0.003,-0.416 -0.001,-0.833 -0.001,-1.25 -0.493,0.226 -5.863,0.086 -6.855,0.086 -2.161,0 -4.776,0.133 -6.881,-0.014 -0.151,0.172 -0.093,1.613 -0.037,1.818 0.138,0.503 0.601,0.342 1.625,0.342l11.94 0z"/>
  <path class="fil11" d="M24.72 7.411c0.507,0 1.013,0 1.52,0 0.251,0 0.515,0.01 0.763,0.007 0.396,-0.006 0.422,0.006 0.538,-0.31l0.009 -1.923 -2.622 -0.006c0,0.417 -0.002,0.834 0.001,1.25 0.003,0.566 0.031,0.622 -0.209,0.982z"/>
  <path class="fil3" d="M11.267 5.178l13.4 -0.097c-0.283,-0.234 -2.816,-1.54 -3.355,-1.819 -2.45,-1.269 -1.935,-0.754 -1.935,-3.262l-2.665 0c0,0.429 -0.002,0.857 0,1.286 0.002,0.545 0.101,0.868 -0.273,1.088l-5.041 2.679c-0.126,0.097 -0.026,-0.003 -0.131,0.125z"/>
 </g>
</svg>
