<?xml version="1.0" encoding="UTF-8"?>
<!DOCTYPE svg PUBLIC "-//W3C//DTD SVG 1.1//EN" "http://www.w3.org/Graphics/SVG/1.1/DTD/svg11.dtd">
<!-- Creator: CorelDRAW -->
<svg xmlns="http://www.w3.org/2000/svg" xml:space="preserve" width="39px" height="39px" version="1.1" style="shape-rendering:geometricPrecision; text-rendering:geometricPrecision; image-rendering:optimizeQuality; fill-rule:evenodd; clip-rule:evenodd"
viewBox="0 0 0.316 0.316"
 xmlns:xlink="http://www.w3.org/1999/xlink"
 xmlns:xodm="http://www.corel.com/coreldraw/odm/2003">
 <defs>
  <style type="text/css">
   <![CDATA[
    .fil2 {fill:#242F5C}
    .fil0 {fill:#FAFDFF}
    .fil1 {fill:white;fill-rule:nonzero;fill-opacity:0.501961}
   ]]>
  </style>
 </defs>
 <g id="Layer_x0020_1">
  <metadata id="CorelCorpID_0Corel-Layer"/>
  <path class="fil0" d="M0.271 0.047c0.029,0.03 0.045,0.07 0.045,0.111 0,0.042 -0.016,0.082 -0.046,0.112 0,0 0,0 -0.001,0l0 0.001c-0.03,0.029 -0.069,0.045 -0.111,0.045 -0.042,0 -0.082,-0.016 -0.112,-0.046 -0.029,-0.03 -0.046,-0.07 -0.046,-0.112 0,-0.042 0.017,-0.082 0.046,-0.112 0.03,-0.029 0.07,-0.046 0.112,-0.046 0.042,0 0.082,0.017 0.112,0.046 0,0.001 0,0.001 0.001,0.001l0 0zm-0.113 -0.027c0.038,0 0.073,0.016 0.098,0.041l0 0c0.025,0.025 0.04,0.059 0.04,0.097 0,0.038 -0.015,0.073 -0.04,0.098l-0.001 0c-0.025,0.025 -0.059,0.04 -0.097,0.04 -0.038,0 -0.072,-0.015 -0.097,-0.04 -0.025,-0.025 -0.041,-0.06 -0.041,-0.098 0,-0.038 0.016,-0.072 0.041,-0.097 0.025,-0.025 0.059,-0.041 0.097,-0.041z"/>
  <path class="fil1" d="M0.158 0.02c0.038,0 0.073,0.016 0.098,0.041l0 0c0.025,0.025 0.04,0.059 0.04,0.097 0,0.038 -0.015,0.073 -0.04,0.098l-0.001 0c-0.025,0.025 -0.059,0.04 -0.097,0.04 -0.038,0 -0.072,-0.015 -0.097,-0.04 -0.025,-0.025 -0.041,-0.06 -0.041,-0.098 0,-0.038 0.016,-0.072 0.041,-0.097 0.025,-0.025 0.059,-0.041 0.097,-0.041z"/>
  <path class="fil2" d="M0.096 0.088l0.101 0c0.008,0 0.014,0.006 0.014,0.014 0,0.007 -0.006,0.014 -0.014,0.014l-0.101 0c-0.008,0 -0.014,-0.007 -0.014,-0.014 0,-0.008 0.006,-0.014 0.014,-0.014zm0 0.057l0.137 0c0.008,0 0.014,0.006 0.014,0.014 0,0.007 -0.006,0.014 -0.014,0.014l-0.137 0c-0.008,0 -0.014,-0.007 -0.014,-0.014 0,-0.008 0.006,-0.014 0.014,-0.014zm0 0.055l0.066 0c0.008,0 0.014,0.007 0.014,0.014 0,0.008 -0.006,0.014 -0.014,0.014l-0.066 0c-0.008,0 -0.014,-0.006 -0.014,-0.014 0,-0.007 0.006,-0.014 0.014,-0.014z"/>
 </g>
</svg>
