<?xml version="1.0" encoding="UTF-8"?>
<!DOCTYPE svg PUBLIC "-//W3C//DTD SVG 1.1//EN" "http://www.w3.org/Graphics/SVG/1.1/DTD/svg11.dtd">
<!-- Creator: CorelDRAW -->
<svg xmlns="http://www.w3.org/2000/svg" xml:space="preserve" width="84px" height="81px" version="1.1" style="shape-rendering:geometricPrecision; text-rendering:geometricPrecision; image-rendering:optimizeQuality; fill-rule:evenodd; clip-rule:evenodd"
viewBox="0 0 7.661 7.42"
 xmlns:xlink="http://www.w3.org/1999/xlink"
 xmlns:xodm="http://www.corel.com/coreldraw/odm/2003">
 <defs>
  <style type="text/css">
   <![CDATA[
    .fil2 {fill:#275132}
    .fil3 {fill:#50813F}
    .fil1 {fill:#78B14C}
    .fil0 {fill:#A26A55}
   ]]>
  </style>
 </defs>
 <g id="Layer_x0020_1">
  <metadata id="CorelCorpID_0Corel-Layer"/>
  <g id="_1729678027280">
   <polygon class="fil0" points="3.5,6.54 4.037,6.54 4.037,4.471 3.5,4.468 "/>
   <polygon class="fil0" points="1.218,6.368 1.755,6.368 1.755,4.299 1.218,4.297 "/>
   <polygon class="fil0" points="5.915,6.368 6.452,6.368 6.452,4.299 5.915,4.297 "/>
   <path class="fil1" d="M6.452 6.144c-0.218,-0.095 -0.317,-0.092 -0.536,-0.001 -0.086,0.053 -0.136,0.091 -0.185,0.183 -0.16,-0.084 -0.333,-0.194 -0.599,-0.062 -0.074,0.037 -0.099,0.075 -0.156,0.113 -0.151,-0.101 -0.324,-0.263 -0.638,-0.118 -0.078,0.036 -0.106,0.077 -0.167,0.118 -0.049,-0.033 -0.077,-0.065 -0.134,-0.099 -0.219,-0.094 -0.319,-0.093 -0.537,0 -0.056,0.034 -0.086,0.066 -0.135,0.099 -0.15,-0.101 -0.324,-0.263 -0.637,-0.118 -0.078,0.036 -0.107,0.077 -0.168,0.118 -0.085,-0.058 -0.169,-0.159 -0.352,-0.169 -0.217,-0.011 -0.272,0.049 -0.403,0.118 -0.025,-0.047 -0.01,-0.033 -0.05,-0.075 -0.044,-0.03 -0.052,-0.049 -0.097,-0.08 -0.044,-0.03 -0.072,-0.046 -0.121,-0.063 -0.111,-0.04 -0.198,-0.038 -0.319,-0.018 -0.11,0.03 -0.133,0.057 -0.218,0.102 -0.082,-0.155 -0.28,-0.287 -0.55,-0.248 -0.21,0.03 -0.361,0.202 -0.42,0.385 -0.049,0.151 -0.02,0.586 -0.02,0.786 0,0.36 -0.01,0.302 0.52,0.302l6.878 -0.001c0.14,-0.019 0.118,-0.131 0.118,-0.284 0,-0.186 0.022,-0.659 -0.016,-0.79 -0.053,-0.184 -0.204,-0.359 -0.409,-0.395 -0.275,-0.05 -0.482,0.089 -0.565,0.245 -0.031,-0.016 -0.057,-0.032 -0.084,-0.048z"/>
   <g>
    <path class="fil2" d="M1.947 0.496c-0.063,0.059 -0.252,0.046 -0.404,0.298 -0.178,0.297 0.003,0.488 -0.045,0.542 -0.06,0.067 -0.111,0.053 -0.199,0.171 -0.281,0.377 -0.044,0.63 0.022,0.78 -0.289,0.16 -0.391,0.668 -0.051,0.934 0.297,0.233 0.421,0.194 0.754,0.017 0.121,0.228 0.323,0.312 0.518,0.309 0.195,0.003 0.398,-0.081 0.519,-0.309 0.333,0.177 0.457,0.216 0.754,-0.017 0.34,-0.266 0.238,-0.774 -0.051,-0.934 0.066,-0.15 0.303,-0.403 0.022,-0.78 -0.088,-0.118 -0.139,-0.104 -0.199,-0.171 -0.048,-0.054 0.133,-0.245 -0.045,-0.542 -0.152,-0.252 -0.341,-0.239 -0.404,-0.298 -0.127,-0.117 -0.118,-0.505 -0.596,-0.496 -0.477,-0.009 -0.469,0.379 -0.595,0.496z"/>
    <path class="fil2" d="M4.398 0.496c-0.063,0.059 -0.252,0.046 -0.404,0.298 -0.178,0.297 0.003,0.488 -0.045,0.542 -0.06,0.067 -0.111,0.053 -0.198,0.171 -0.282,0.377 -0.045,0.63 0.021,0.78 -0.289,0.16 -0.391,0.668 -0.051,0.934 0.297,0.233 0.421,0.194 0.754,0.017 0.121,0.228 0.324,0.312 0.519,0.309 0.195,0.003 0.397,-0.081 0.518,-0.309 0.333,0.177 0.457,0.216 0.754,-0.017 0.341,-0.266 0.238,-0.774 -0.051,-0.934 0.067,-0.15 0.303,-0.403 0.022,-0.78 -0.088,-0.118 -0.139,-0.104 -0.198,-0.171 -0.049,-0.054 0.132,-0.245 -0.046,-0.542 -0.152,-0.252 -0.341,-0.239 -0.404,-0.298 -0.126,-0.117 -0.118,-0.505 -0.595,-0.496 -0.478,-0.009 -0.469,0.379 -0.596,0.496z"/>
   </g>
   <path class="fil3" d="M0.891 1.435c-0.063,0.059 -0.252,0.046 -0.404,0.298 -0.178,0.297 0.003,0.488 -0.045,0.542 -0.06,0.067 -0.111,0.053 -0.199,0.171 -0.281,0.377 -0.044,0.63 0.022,0.78 -0.289,0.16 -0.391,0.668 -0.051,0.934 0.297,0.233 0.421,0.194 0.754,0.017 0.121,0.228 0.323,0.312 0.518,0.309 0.195,0.003 0.398,-0.081 0.519,-0.309 0.333,0.177 0.457,0.216 0.754,-0.017 0.34,-0.266 0.238,-0.774 -0.051,-0.934 0.066,-0.15 0.303,-0.403 0.022,-0.78 -0.088,-0.118 -0.139,-0.104 -0.199,-0.171 -0.048,-0.054 0.133,-0.245 -0.045,-0.542 -0.152,-0.252 -0.341,-0.239 -0.404,-0.298 -0.127,-0.118 -0.118,-0.505 -0.596,-0.496 -0.477,-0.009 -0.469,0.378 -0.595,0.496z"/>
   <path class="fil3" d="M5.588 1.435c-0.063,0.059 -0.252,0.046 -0.403,0.298 -0.179,0.297 0.002,0.488 -0.046,0.542 -0.06,0.067 -0.11,0.053 -0.198,0.171 -0.281,0.377 -0.045,0.63 0.021,0.78 -0.288,0.16 -0.369,0.685 -0.051,0.934 0.319,0.25 0.421,0.194 0.755,0.017 0.12,0.228 0.323,0.312 0.518,0.309 0.195,0.003 0.397,-0.081 0.518,-0.309 0.333,0.177 0.436,0.233 0.755,-0.017 0.318,-0.249 0.237,-0.774 -0.052,-0.934 0.067,-0.15 0.303,-0.403 0.022,-0.78 -0.088,-0.118 -0.139,-0.104 -0.198,-0.171 -0.049,-0.054 0.133,-0.245 -0.046,-0.542 -0.151,-0.252 -0.34,-0.239 -0.404,-0.298 -0.126,-0.118 -0.118,-0.505 -0.595,-0.496 -0.477,-0.009 -0.469,0.378 -0.596,0.496z"/>
   <path class="fil1" d="M3.173 1.571c-0.064,0.059 -0.253,0.046 -0.404,0.298 -0.179,0.297 0.003,0.488 -0.046,0.542 -0.059,0.067 -0.11,0.053 -0.198,0.171 -0.281,0.377 -0.045,0.63 0.022,0.78 -0.289,0.16 -0.392,0.668 -0.052,0.934 0.298,0.233 0.422,0.194 0.755,0.017 0.121,0.228 0.323,0.312 0.518,0.309 0.195,0.003 0.398,-0.081 0.518,-0.309 0.334,0.177 0.458,0.216 0.755,-0.017 0.34,-0.266 0.237,-0.774 -0.051,-0.934 0.066,-0.15 0.302,-0.403 0.021,-0.78 -0.088,-0.118 -0.139,-0.104 -0.198,-0.171 -0.048,-0.054 0.133,-0.245 -0.046,-0.542 -0.151,-0.252 -0.34,-0.239 -0.403,-0.298 -0.127,-0.117 -0.119,-0.505 -0.596,-0.496 -0.477,-0.009 -0.469,0.379 -0.595,0.496z"/>
  </g>
 </g>
</svg>
