<?xml version="1.0" encoding="UTF-8"?>
<!DOCTYPE svg PUBLIC "-//W3C//DTD SVG 1.1//EN" "http://www.w3.org/Graphics/SVG/1.1/DTD/svg11.dtd">
<!-- Creator: CorelDRAW -->
<svg xmlns="http://www.w3.org/2000/svg" xml:space="preserve" width="75px" height="94px" version="1.1" style="shape-rendering:geometricPrecision; text-rendering:geometricPrecision; image-rendering:optimizeQuality; fill-rule:evenodd; clip-rule:evenodd"
viewBox="0 0 3.848 4.829"
 xmlns:xlink="http://www.w3.org/1999/xlink"
 xmlns:xodm="http://www.corel.com/coreldraw/odm/2003">
 <defs>
  <style type="text/css">
   <![CDATA[
    .fil3 {fill:#EB5569}
    .fil5 {fill:#F07180}
    .fil4 {fill:#F5A30F}
    .fil2 {fill:#FBD84F}
    .fil0 {fill:#FEE87C}
    .fil1 {fill:#FFB850}
   ]]>
  </style>
 </defs>
 <g id="Layer_x0020_1">
  <metadata id="CorelCorpID_0Corel-Layer"/>
  <path class="fil0" d="M1.641 3.786c0.351,-0.091 0.216,-0.092 0.596,0.003 0.049,0.012 0.165,0.048 0.206,0.047 0.091,-0.072 0.322,-0.352 0.405,-0.376 0.064,-0.018 0.143,-0.041 0.208,-0.053 0.059,-0.011 0.117,-0.03 0.174,-0.046 0.124,-0.035 0.097,-0.005 0.121,-0.096 0.028,-0.112 0.065,-0.23 0.094,-0.349 0.006,-0.024 0.012,-0.054 0.022,-0.082 0.014,-0.037 0.023,-0.038 0.049,-0.064 0.074,-0.072 0.284,-0.296 0.332,-0.328l-0.099 -0.381c-0.051,-0.203 -0.043,-0.096 0.03,-0.387 0.022,-0.091 0.049,-0.17 0.069,-0.26l-0.347 -0.351c-0.045,-0.045 -0.07,-0.187 -0.088,-0.26 -0.093,-0.377 -0.034,-0.269 -0.346,-0.362 -0.044,-0.012 -0.094,-0.026 -0.141,-0.038 -0.152,-0.039 -0.129,-0.054 -0.301,-0.227 -0.217,-0.217 -0.146,-0.186 -0.28,-0.152 -0.039,0.009 -0.06,0.015 -0.097,0.026 -0.068,0.02 -0.135,0.037 -0.201,0.053 -0.142,0.035 -0.119,0.037 -0.303,-0.018 -0.034,-0.01 -0.077,-0.018 -0.107,-0.029 -0.035,-0.011 -0.072,-0.019 -0.109,-0.028 -0.15,-0.04 -0.079,-0.067 -0.29,0.143l-0.132 0.123c-0.14,0.13 -0.053,0.066 -0.303,0.14 -0.372,0.111 -0.255,-0.011 -0.361,0.347 -0.013,0.044 -0.024,0.095 -0.038,0.141 -0.017,0.059 -0.01,0.084 -0.052,0.127l-0.352 0.356 0.1 0.381c0.009,0.035 0.031,0.101 0.032,0.128 0.001,0.04 -0.021,0.093 -0.03,0.13l-0.102 0.389c0.005,0.018 0.272,0.277 0.323,0.328 0.061,0.06 0.052,0.05 0.077,0.149 0.031,0.123 0.061,0.23 0.092,0.351 0.026,0.098 0.025,0.069 0.12,0.097l0.18 0.048c0.066,0.017 0.144,0.034 0.209,0.054 0.047,0.016 0.36,0.333 0.402,0.388 0.045,-0.01 0.074,-0.021 0.121,-0.032 0.039,-0.01 0.085,-0.019 0.117,-0.03z"/>
  <path class="fil1" d="M1.802 0.571c-0.38,0.033 -0.67,0.204 -0.901,0.462 -0.203,0.227 -0.37,0.594 -0.329,1.017 0.069,0.708 0.689,1.294 1.477,1.225 0.703,-0.062 1.302,-0.693 1.228,-1.477 -0.067,-0.706 -0.685,-1.297 -1.475,-1.227z"/>
  <path class="fil0" d="M2.1 2.963c0.757,-0.105 1.204,-1.091 0.598,-1.757 -0.072,-0.079 -0.155,-0.147 -0.27,-0.211 -0.088,-0.049 -0.257,-0.115 -0.374,-0.118 -0.312,0.07 -0.424,0.141 -0.63,0.348 -0.161,0.16 -0.269,0.466 -0.264,0.717 0.007,0.365 0.161,0.568 0.343,0.761 0.039,0.041 0.163,0.121 0.218,0.15 0.08,0.043 0.273,0.125 0.379,0.11z"/>
  <path class="fil2" d="M2.1 2.963c-0.106,0.015 -0.299,-0.067 -0.379,-0.11 -0.055,-0.029 -0.179,-0.109 -0.218,-0.15 -0.182,-0.193 -0.336,-0.396 -0.343,-0.761 -0.005,-0.251 0.103,-0.557 0.264,-0.717 0.206,-0.207 0.318,-0.278 0.63,-0.348 -0.089,-0.05 -0.407,0.021 -0.493,0.051 -0.266,0.092 -0.473,0.296 -0.594,0.548 -0.143,0.297 -0.131,0.634 0.015,0.927 0.123,0.247 0.351,0.44 0.617,0.525 0.116,0.037 0.373,0.084 0.501,0.035z"/>
  <path class="fil3" d="M2.443 3.836c0.07,0.149 0.396,0.691 0.499,0.871 0.018,0.03 0.052,0.104 0.076,0.122l0.095 -0.347c0.01,-0.051 0.033,-0.103 0.037,-0.153 0.045,0.001 0.204,0.049 0.257,0.064l0.253 0.068c-0.009,-0.039 -0.332,-0.579 -0.38,-0.667 -0.022,-0.039 -0.039,-0.071 -0.062,-0.108 -0.023,-0.039 -0.04,-0.078 -0.066,-0.112 -0.009,-0.027 -0.079,-0.147 -0.096,-0.167 -0.065,0.012 -0.144,0.035 -0.208,0.053 -0.083,0.024 -0.314,0.304 -0.405,0.376zm-1.904 0.531c0.044,-0.012 0.115,-0.035 0.159,-0.038 0.011,0.023 0.025,0.084 0.034,0.117l0.068 0.253c0.01,0.037 0.027,0.093 0.03,0.13l0 0c0.032,-0.024 0.098,-0.154 0.123,-0.198l0.236 -0.406c0.018,-0.033 0.037,-0.068 0.058,-0.102 0.02,-0.034 0.044,-0.065 0.056,-0.106 0.024,-0.018 0.089,-0.138 0.1,-0.169 -0.042,-0.055 -0.355,-0.372 -0.402,-0.388 -0.065,-0.02 -0.143,-0.037 -0.209,-0.054l-0.149 0.264c-0.053,0.088 -0.102,0.176 -0.152,0.263l-0.302 0.528c0.057,-0.014 0.119,-0.031 0.171,-0.045 0.056,-0.016 0.133,-0.029 0.179,-0.049z"/>
  <path class="fil1" d="M1.967 2.373c0.03,0.032 0.136,0.075 0.181,0.1 0.049,0.027 0.151,0.102 0.201,0.054 0.04,-0.039 -0.016,-0.264 -0.032,-0.355 -0.018,-0.101 -0.038,-0.075 0.149,-0.254 0.031,-0.029 0.133,-0.108 0.135,-0.156 0.003,-0.086 -0.129,-0.079 -0.2,-0.089 -0.069,-0.01 -0.208,-0.017 -0.247,-0.05 -0.096,-0.142 -0.185,-0.535 -0.306,-0.304 -0.021,0.04 -0.035,0.067 -0.054,0.106 -0.032,0.065 -0.073,0.161 -0.107,0.213 -0.087,0.012 -0.172,0.024 -0.256,0.037 -0.074,0.01 -0.216,0.008 -0.18,0.11 0.009,0.027 0.123,0.128 0.15,0.153 0.024,0.023 0.137,0.125 0.141,0.154 0.015,0.098 -0.153,0.485 0.02,0.451l0.301 -0.153c0.065,-0.035 0.039,-0.035 0.104,-0.017z"/>
  <path class="fil2" d="M0.792 3.406c0.066,0.017 0.144,0.034 0.209,0.054 0.047,0.016 0.36,0.333 0.402,0.388 0.045,-0.01 0.074,-0.021 0.121,-0.032 0.039,-0.01 0.085,-0.019 0.117,-0.03 -0.077,-0.06 -0.265,-0.288 -0.327,-0.319 -0.06,-0.03 -0.481,-0.12 -0.503,-0.139 -0.03,-0.054 -0.089,-0.319 -0.111,-0.398 -0.047,-0.168 -0.039,-0.127 -0.215,-0.303 -0.219,-0.219 -0.202,-0.162 -0.164,-0.297 0.02,-0.074 0.105,-0.355 0.107,-0.408 0.001,-0.038 -0.086,-0.335 -0.104,-0.399 -0.039,-0.146 -0.066,-0.085 0.152,-0.302 0.045,-0.045 0.083,-0.083 0.128,-0.127 0.07,-0.071 0.063,-0.047 0.095,-0.169 0.016,-0.061 0.092,-0.375 0.114,-0.403l0.5 -0.144c0.031,-0.013 0.31,-0.293 0.324,-0.322 -0.035,-0.011 -0.072,-0.019 -0.109,-0.028 -0.15,-0.04 -0.079,-0.067 -0.29,0.143l-0.132 0.123c-0.14,0.13 -0.053,0.066 -0.303,0.14 -0.372,0.111 -0.255,-0.011 -0.361,0.347 -0.013,0.044 -0.024,0.095 -0.038,0.141 -0.017,0.059 -0.01,0.084 -0.052,0.127l-0.352 0.356 0.1 0.381c0.009,0.035 0.031,0.101 0.032,0.128 0.001,0.04 -0.021,0.093 -0.03,0.13l-0.102 0.389c0.005,0.018 0.272,0.277 0.323,0.328 0.061,0.06 0.052,0.05 0.077,0.149 0.031,0.123 0.061,0.23 0.092,0.351 0.026,0.098 0.025,0.069 0.12,0.097l0.18 0.048z"/>
  <path class="fil4" d="M1.967 2.373c0.022,-0.03 0.052,-0.248 0.053,-0.301 -0.037,-0.025 -0.28,-0.252 -0.291,-0.285 -0.034,-0.104 0.096,-0.1 0.174,-0.111 0.041,-0.006 0.082,-0.012 0.124,-0.018 0.024,-0.004 0.043,-0.006 0.066,-0.009 0.042,-0.005 0.045,-0.009 0.061,-0.026 -0.096,-0.142 -0.185,-0.535 -0.306,-0.304 -0.021,0.04 -0.035,0.067 -0.054,0.106 -0.032,0.065 -0.073,0.161 -0.107,0.213 -0.087,0.012 -0.172,0.024 -0.256,0.037 -0.074,0.01 -0.216,0.008 -0.18,0.11 0.009,0.027 0.123,0.128 0.15,0.153 0.024,0.023 0.137,0.125 0.141,0.154 0.015,0.098 -0.153,0.485 0.02,0.451l0.301 -0.153c0.065,-0.035 0.039,-0.035 0.104,-0.017z"/>
  <path class="fil5" d="M3.113 4.482c0.01,-0.051 0.033,-0.103 0.037,-0.153 0.045,0.001 0.204,0.049 0.257,0.064l0.253 0.068c-0.009,-0.039 -0.332,-0.579 -0.38,-0.667 -0.022,-0.039 -0.039,-0.071 -0.062,-0.108 -0.023,-0.039 -0.04,-0.078 -0.066,-0.112 -0.09,0.055 -0.216,0.026 -0.277,0.113 0.018,0.052 0.074,0.134 0.102,0.184 0.026,0.047 0.1,0.137 0.032,0.185 -0.088,0.063 -0.139,-0.083 -0.197,-0.181 -0.019,-0.032 -0.025,-0.062 -0.059,-0.076 -0.029,0.06 0.026,0.112 0.063,0.176l0.196 0.341c0.033,0.056 0.064,0.12 0.101,0.166z"/>
  <path class="fil5" d="M0.539 4.367c0.044,-0.012 0.115,-0.035 0.159,-0.038 0.011,0.023 0.025,0.084 0.034,0.117l0.068 0.253c0.01,0.037 0.027,0.093 0.03,0.13l0 0c0.032,-0.024 0.098,-0.154 0.123,-0.198l0.236 -0.406c0.018,-0.033 0.037,-0.068 0.058,-0.102 0.02,-0.034 0.044,-0.065 0.056,-0.106 -0.036,-0.041 -0.179,-0.188 -0.219,-0.215 -0.021,0.035 -0.131,0.242 -0.156,0.257 -0.031,0.019 -0.073,0.012 -0.094,-0.008 -0.052,-0.052 0.018,-0.137 0.045,-0.183 0.031,-0.053 0.064,-0.119 0.101,-0.173l-0.036 -0.035c-0.07,0.136 -0.36,0.605 -0.405,0.707z"/>
 </g>
</svg>
