<svg width="28" height="28" viewBox="0 0 28 28" fill="none" xmlns="http://www.w3.org/2000/svg">
<path d="M3.77778 27.0002C3.28889 27.0002 2.87052 26.8263 2.52267 26.4785C2.17481 26.1306 2.00059 25.7119 2 25.2225V2.77802C2 2.28913 2.17422 1.87076 2.52267 1.52291C2.87111 1.17506 3.28948 1.00084 3.77778 1.00024H21.5556L26 5.44469V25.2225C26 25.7114 25.8261 26.13 25.4782 26.4785C25.1304 26.8269 24.7117 27.0008 24.2222 27.0002H3.77778ZM3.77778 25.2225H24.2222V6.33358H20.6667V2.77802H3.77778V25.2225Z" fill="white"/>
<path d="M21.4444 11.5002C21.4444 11.9912 21.0465 12.3891 20.5555 12.3891H7.44443C6.95351 12.3891 6.55554 11.9912 6.55554 11.5002C6.55554 11.0093 6.95351 10.6113 7.44443 10.6113H20.5555C21.0465 10.6113 21.4444 11.0093 21.4444 11.5002Z" fill="white"/>
<path d="M21.4444 16.5558C21.4444 17.0467 21.0465 17.4447 20.5555 17.4447H7.44443C6.95351 17.4447 6.55554 17.0467 6.55554 16.5558C6.55554 16.0649 6.95351 15.6669 7.44443 15.6669H20.5555C21.0465 15.6669 21.4444 16.0649 21.4444 16.5558Z" fill="white"/>
<path d="M21.4444 21.6114C21.4444 22.1023 21.0465 22.5002 20.5556 22.5002H7.44444C6.95352 22.5002 6.55556 22.1023 6.55556 21.6114C6.55556 21.1204 6.95353 20.7225 7.44445 20.7225H20.5556C21.0465 20.7225 21.4444 21.1204 21.4444 21.6114Z" fill="white"/>
<path d="M18 6.44467C18 6.9356 17.602 7.33356 17.1111 7.33356H7.44443C6.95351 7.33356 6.55554 6.9356 6.55554 6.44467C6.55554 5.95375 6.95351 5.55579 7.44443 5.55579H17.1111C17.602 5.55579 18 5.95375 18 6.44467Z" fill="white"/>
</svg>
