<?xml version="1.0" encoding="UTF-8"?>
<!DOCTYPE svg PUBLIC "-//W3C//DTD SVG 1.1//EN" "http://www.w3.org/Graphics/SVG/1.1/DTD/svg11.dtd">
<!-- Creator: CorelDRAW -->
<svg xmlns="http://www.w3.org/2000/svg" xml:space="preserve" width="90px" height="85px" version="1.1" style="shape-rendering:geometricPrecision; text-rendering:geometricPrecision; image-rendering:optimizeQuality; fill-rule:evenodd; clip-rule:evenodd"
viewBox="0 0 8.646 8.213"
 xmlns:xlink="http://www.w3.org/1999/xlink"
 xmlns:xodm="http://www.corel.com/coreldraw/odm/2003">
 <defs>
  <style type="text/css">
   <![CDATA[
    .fil3 {fill:#467CA4}
    .fil1 {fill:#EFC44B}
    .fil2 {fill:#F4B5A4}
    .fil0 {fill:#FDCBBB}
    .fil5 {fill:#FFD54F}
    .fil4 {fill:white}
   ]]>
  </style>
 </defs>
 <g id="Layer_x0020_1">
  <metadata id="CorelCorpID_0Corel-Layer"/>
  <path class="fil0" d="M0.738 5.805l1.125 1.209c0.044,0.051 0.104,0.139 0.159,0.171 0.065,0.095 0.162,0.191 0.25,0.267 0.221,-0.252 0.4,-0.25 0.701,-0.25 0.113,0 0.148,-0.02 0.266,-0.019 0.674,0.003 1.431,-0.103 2.068,-0.226 0.12,-0.023 0.619,-0.107 0.704,-0.15l0.553 -0.318c0.119,-0.069 0.239,-0.136 0.36,-0.209 0.304,-0.183 1.278,-0.717 1.466,-0.847 0.137,-0.093 0.108,-0.275 0.031,-0.408 -0.093,-0.16 -0.253,-0.21 -0.316,-0.26 -0.128,-0.009 -0.228,-0.087 -0.478,0.012 -0.142,0.056 -0.258,0.119 -0.386,0.183l-1.144 0.563c-0.211,0.106 -0.164,0.109 -0.451,0.072l-1.019 -0.114 0.426 -0.165c0.144,-0.065 0.253,-0.123 0.339,-0.248 0.088,-0.126 0.103,-0.311 0.024,-0.47 -0.055,-0.111 -0.179,-0.245 -0.315,-0.26 -0.206,-0.072 -1.003,0.078 -1.264,0.117 -0.425,0.062 -0.842,0.117 -1.256,0.185 -0.193,0.032 -0.392,0.086 -0.556,0.155 -0.152,0.064 -0.34,0.175 -0.453,0.277l-0.834 0.733z"/>
  <path class="fil1" d="M4.631 0.016l-0.544 1.007c-0.068,0.116 -0.116,0.096 -0.271,0.121l-1.003 0.17c0.084,0.127 0.452,0.48 0.582,0.61 0.037,0.036 0.065,0.06 0.096,0.099 0.23,0.288 0.212,0.027 0.11,0.737 -0.025,0.171 -0.095,0.565 -0.095,0.706l1.127 -0.551 0.557 0.273c0.19,0.095 0.375,0.182 0.557,0.278 0,-0.134 -0.063,-0.543 -0.089,-0.693 -0.018,-0.11 -0.035,-0.235 -0.05,-0.341 -0.044,-0.304 -0.048,-0.156 0.348,-0.606l0.294 -0.294c0.058,-0.058 0.17,-0.138 0.191,-0.218l-1.001 -0.172c-0.159,-0.027 -0.208,0.003 -0.269,-0.123l-0.509 -0.97c-0.041,-0.075 -0.017,-0.045 -0.031,-0.033zm2.853 3.379l0.534 0.273c0.065,0.033 0.125,0.052 0.183,0.083 0,-0.155 -0.114,-0.751 -0.106,-0.783 0.009,-0.036 0.504,-0.516 0.551,-0.586 -0.114,-0.055 -0.732,-0.089 -0.8,-0.178l-0.255 -0.474c-0.033,-0.063 -0.056,-0.111 -0.083,-0.172 -0.058,-0.021 -0.069,0.055 -0.101,0.118l-0.266 0.499c-0.05,0.1 -0.139,0.086 -0.388,0.128 -0.155,0.026 -0.297,0.046 -0.437,0.079 0.052,0.077 0.172,0.18 0.245,0.253 0.391,0.391 0.331,0.183 0.232,0.882 -0.008,0.061 -0.031,0.168 -0.032,0.234l0.723 -0.356zm-5.713 -1.832l-0.054 0.061c-0.018,0.026 -0.03,0.057 -0.043,0.082 -0.027,0.056 -0.051,0.105 -0.082,0.166l-0.171 0.327c-0.04,0.062 -0.03,0.045 -0.181,0.068l-0.632 0.115 0.494 0.519c0.09,0.09 0.051,0.123 0.011,0.395 -0.021,0.145 -0.061,0.314 -0.061,0.455 0.178,-0.094 0.57,-0.256 0.719,-0.356l0.718 0.363c0.003,-0.105 -0.063,-0.508 -0.087,-0.664 -0.019,-0.128 -0.053,-0.107 0.157,-0.326 0.045,-0.046 0.079,-0.079 0.125,-0.124 0.073,-0.074 0.202,-0.186 0.253,-0.262 -0.051,-0.025 -0.329,-0.064 -0.419,-0.079l-0.319 -0.055c-0.106,-0.026 -0.054,-0.034 -0.163,-0.228 -0.035,-0.062 -0.055,-0.093 -0.089,-0.16l-0.155 -0.287c-0.031,-0.036 -0.005,-0.021 -0.021,-0.01z"/>
  <path class="fil2" d="M2.022 7.185c0.065,0.095 0.162,0.191 0.25,0.267 0.221,-0.252 0.4,-0.25 0.701,-0.25 0.113,0 0.148,-0.02 0.266,-0.019 0.674,0.003 1.431,-0.103 2.068,-0.226 0.12,-0.023 0.619,-0.107 0.704,-0.15l0.553 -0.318c0.119,-0.069 0.239,-0.136 0.36,-0.209 0.304,-0.183 1.278,-0.717 1.466,-0.847 0.137,-0.093 0.108,-0.275 0.031,-0.408 -0.093,-0.16 -0.253,-0.21 -0.316,-0.26 0.024,0.105 0.162,0.235 0.055,0.402 -0.057,0.087 -0.878,0.539 -0.997,0.605l-1.366 0.786c-0.147,0.088 -0.24,0.09 -0.425,0.124 -0.871,0.163 -1.462,0.284 -2.386,0.302 -0.173,0.003 -0.361,-0.005 -0.53,0.003 -0.269,0.014 -0.34,0.178 -0.434,0.198z"/>
  <path class="fil2" d="M4.627 5.481l0.426 -0.165c0.144,-0.065 0.253,-0.123 0.339,-0.248 0.088,-0.126 0.103,-0.311 0.024,-0.47 -0.055,-0.111 -0.179,-0.245 -0.315,-0.26 0.057,0.146 0.12,0.239 0.05,0.435 -0.146,0.41 -1.051,0.537 -1.447,0.758 -0.147,0.083 -0.085,0.324 0.131,0.257 0.249,-0.077 0.549,-0.249 0.792,-0.307z"/>
  <path class="fil3" d="M2.333 7.408c-0.149,-0.128 -0.281,-0.29 -0.41,-0.438l-1.125 -1.209c-0.041,-0.034 -0.054,-0.062 -0.122,-0.072 -0.151,-0.02 -0.259,0.155 -0.482,0.352 -0.21,0.185 -0.251,0.242 -0.116,0.374l0.613 0.649c0.042,0.05 0.05,0.067 0.099,0.115l0.919 0.983c0.129,0.154 0.287,-0.071 0.477,-0.254 0.076,-0.074 0.159,-0.119 0.222,-0.205 0.095,-0.129 -0.003,-0.23 -0.075,-0.295z"/>
  <path class="fil4" d="M1.664 7.614c-0.026,0.021 -0.033,0.003 -0.052,0.06 -0.034,0.102 0.079,0.201 0.189,0.135 0.13,-0.078 0.005,-0.31 -0.137,-0.195z"/>
  <path class="fil5" d="M4.633 2.915l-0.002 -2.899 -0.544 1.007c-0.068,0.116 -0.116,0.096 -0.271,0.121l-1.003 0.17c0.084,0.127 0.452,0.48 0.582,0.61 0.037,0.036 0.065,0.06 0.096,0.099 0.23,0.288 0.212,0.027 0.11,0.737 -0.025,0.171 -0.095,0.565 -0.095,0.706l1.127 -0.551z"/>
  <path class="fil5" d="M7.484 3.395l0.024 -1.837c-0.058,-0.021 -0.069,0.055 -0.101,0.118l-0.266 0.499c-0.05,0.1 -0.139,0.086 -0.388,0.128 -0.155,0.026 -0.297,0.046 -0.437,0.079 0.052,0.077 0.172,0.18 0.245,0.253 0.391,0.391 0.331,0.183 0.232,0.882 -0.008,0.061 -0.031,0.168 -0.032,0.234l0.723 -0.356z"/>
  <path class="fil5" d="M1.771 3.395l0 -1.832 -0.054 0.061c-0.018,0.026 -0.03,0.057 -0.043,0.082 -0.027,0.056 -0.051,0.105 -0.082,0.166l-0.171 0.327c-0.04,0.062 -0.03,0.045 -0.181,0.068l-0.632 0.115 0.494 0.519c0.09,0.09 0.051,0.123 0.011,0.395 -0.021,0.145 -0.061,0.314 -0.061,0.455 0.178,-0.094 0.57,-0.256 0.719,-0.356z"/>
 </g>
</svg>
