<?xml version="1.0" encoding="UTF-8"?>
<!DOCTYPE svg PUBLIC "-//W3C//DTD SVG 1.1//EN" "http://www.w3.org/Graphics/SVG/1.1/DTD/svg11.dtd">
<!-- Creator: CorelDRAW -->
<svg xmlns="http://www.w3.org/2000/svg" xml:space="preserve" width="94px" height="94px" version="1.1" style="shape-rendering:geometricPrecision; text-rendering:geometricPrecision; image-rendering:optimizeQuality; fill-rule:evenodd; clip-rule:evenodd"
viewBox="0 0 30.498 30.487"
 xmlns:xlink="http://www.w3.org/1999/xlink"
 xmlns:xodm="http://www.corel.com/coreldraw/odm/2003">
 <defs>
  <style type="text/css">
   <![CDATA[
    .fil0 {fill:#384949}
    .fil1 {fill:#4A686F}
    .fil2 {fill:#6AA8FE}
    .fil7 {fill:#7ED7F6}
    .fil9 {fill:#7ED8F6}
    .fil3 {fill:#D3D3D8}
    .fil5 {fill:#E56C2E}
    .fil4 {fill:#ECECF1}
    .fil6 {fill:#FEBA32}
    .fil10 {fill:#FF9933}
    .fil8 {fill:white}
   ]]>
  </style>
 </defs>
 <g id="Layer_x0020_1">
  <metadata id="CorelCorpID_0Corel-Layer"/>
  <g id="_1729970454656">
   <path class="fil0" d="M3.574 12.557l0 7.148 16.202 0 1.787 0 1.787 0 1.787 0 1.787 0 1.787 0 1.787 0 0 -18.789c-0.004,-0.144 -0.008,-0.234 -0.013,-0.259 -0.22,-1.136 -1.684,-0.483 -2.166,-0.345l-3.666 1.099c-0.418,0.133 -0.827,0.249 -1.244,0.364 -0.831,0.231 -1.62,0.496 -2.476,0.741 -0.826,0.235 -1.617,0.462 -2.43,0.726 -1.543,0.503 -3.361,0.964 -4.914,1.46 -0.387,0.123 -2.242,0.639 -2.451,0.766 -0.768,0.465 -0.474,1.811 0.648,1.664l1.246 -0.366c0.266,-0.074 1.043,-0.339 1.264,-0.344l0 6.135 -10.722 0z"/>
   <path class="fil1" d="M3.574 19.705l8.042 0 0 -7.148c-1.315,0 -10.71,-0.099 -11.084,0.055 -0.342,0.141 -0.481,0.418 -0.532,0.778l0 1.505 0.013 4.142c0.062,0.32 0.378,0.636 0.761,0.668 0.801,0.068 1.96,0.001 2.8,0z"/>
   <path class="fil2" d="M25.797 7.176l-7.174 1.787c-0.664,0.215 -0.635,0.837 -0.634,1.569l-0.002 4.529c0.008,0.799 0.413,1.073 1.192,1.072l6.675 0c0.808,-0.009 1.073,-0.398 1.072,-1.192l0 -6.735c-0.007,-0.692 -0.397,-1.187 -1.129,-1.03z"/>
   <rect class="fil3" x="3.574" y="19.705" width="16.202" height="10.782"/>
   <polygon class="fil4" points="3.574,28.7 3.574,30.487 11.675,30.487 11.616,19.705 3.574,19.705 "/>
   <path class="fil0" d="M16.083 30.487c0,-5.705 -0.001,-3.222 0,-7.387 0,-0.737 0.057,-1.248 -0.503,-1.523 -0.357,-0.175 -4.273,-0.085 -4.922,-0.085l0 8.995 5.425 0z"/>
   <path class="fil5" d="M29.023 30.487c1.063,-0.003 1.389,-0.054 1.475,-0.942l0 -9.84 -1.787 0 -8.935 0 0 10.782 8.934 0 0.313 0z"/>
   <path class="fil6" d="M16.083 26.853l0 -1.787c-0.755,0 -1.509,0.002 -2.264,-0.001 -0.519,-0.002 -1.307,0.042 -1.306,0.894 0.001,0.328 0.174,0.593 0.385,0.742 0.378,0.266 2.655,0.152 3.185,0.152z"/>
   <polygon class="fil7" points="3.574,30.487 3.574,28.7 "/>
   <rect class="fil8" x="1.797" y="14.326" width="1.803" height="3.585"/>
   <rect class="fil8" x="5.347" y="14.326" width="1.803" height="3.585"/>
   <rect class="fil8" x="8.897" y="14.326" width="1.803" height="3.585"/>
   <rect class="fil8" x="12.447" y="14.326" width="1.803" height="3.585"/>
   <path class="fil9" d="M3.574 30.487l-2.645 0c-0.504,0 -0.915,-0.412 -0.915,-0.915l0 0c0,-0.504 0.411,-0.915 0.915,-0.915l2.645 0 0 1.83z"/>
   <polygon class="fil10" points="28.71,30.487 28.711,19.705 26.924,19.705 26.924,30.487 "/>
   <polygon class="fil10" points="21.563,30.487 21.563,19.705 19.776,19.705 19.776,30.487 "/>
   <polygon class="fil10" points="25.137,30.487 25.137,19.705 23.35,19.705 23.351,30.487 "/>
   <path class="fil1" d="M11.616 30.487l0 -8.995c-1.132,0.001 -2.267,-0.009 -3.398,-0.002 -1.34,0.01 -1.07,1.136 -1.07,2.266l0 6.731 4.468 0z"/>
  </g>
 </g>
</svg>
