<svg width="28" height="28" viewBox="0 0 28 28" fill="none" xmlns="http://www.w3.org/2000/svg">
<path fill-rule="evenodd" clip-rule="evenodd" d="M26.7557 10.4992V26.4283C28.8176 26.5681 27.846 28.001 27.1611 28.001C18.3892 28.001 9.61039 28.001 0.831561 28.001C0.153578 28.001 -0.817965 26.5681 1.24394 26.4283V10.4992C-0.0840655 11.0864 -0.174929 9.61856 0.384232 9.23414L13.5525 0.133787C13.5944 0.105829 13.6294 0.0848607 13.6783 0.0778711L14.0208 0.00797598C14.1186 -0.0129926 14.2025 0.00797597 14.2864 0.0638921L27.6084 9.23414C28.1745 9.61856 28.0837 11.0864 26.7557 10.4992ZM18.5011 26.4144H25.176V9.47178L13.9998 1.74138L2.82357 9.47178V26.4144H9.49157V13.994C9.49157 13.5537 9.84804 13.2042 10.2814 13.2042H17.7112C18.1516 13.2042 18.5011 13.5537 18.5011 13.994V26.4144ZM16.9214 14.7838H11.0712V26.4144H16.9214V14.7838Z" fill="white"/>
</svg>
