<?xml version="1.0" encoding="UTF-8"?>
<!DOCTYPE svg PUBLIC "-//W3C//DTD SVG 1.1//EN" "http://www.w3.org/Graphics/SVG/1.1/DTD/svg11.dtd">
<!-- Creator: CorelDRAW -->
<svg xmlns="http://www.w3.org/2000/svg" xml:space="preserve" width="89px" height="94px" version="1.1" style="shape-rendering:geometricPrecision; text-rendering:geometricPrecision; image-rendering:optimizeQuality; fill-rule:evenodd; clip-rule:evenodd"
viewBox="0 0 5.161 5.468"
 xmlns:xlink="http://www.w3.org/1999/xlink"
 xmlns:xodm="http://www.corel.com/coreldraw/odm/2003">
 <defs>
  <style type="text/css">
   <![CDATA[
    .fil3 {fill:#0193FA}
    .fil6 {fill:#23A8FE}
    .fil5 {fill:#4F67D2}
    .fil0 {fill:#60B6FC}
    .fil2 {fill:#6B7ED6}
    .fil7 {fill:#8BCAFF}
    .fil4 {fill:#B1D9FC}
    .fil1 {fill:#DCEAFA}
   ]]>
  </style>
 </defs>
 <g id="Layer_x0020_1">
  <metadata id="CorelCorpID_0Corel-Layer"/>
  <path class="fil0" d="M0.945 4.184l0.395 -0.002c-0.017,-0.227 -0.013,-0.471 0.082,-0.653 0.274,-0.528 1.137,-0.533 1.298,0.244 0.018,-0.036 0.025,-0.099 0.04,-0.145 0.016,-0.047 0.038,-0.089 0.062,-0.13 0.271,-0.457 0.933,-0.457 1.198,0.02 0.11,0.199 0.086,0.42 0.085,0.665 0.165,0 0.33,0 0.495,0 0.21,0.001 0.183,-0.038 0.152,-0.296 -0.035,-0.293 -0.068,-0.587 -0.103,-0.879 -0.07,-0.587 -0.139,-1.173 -0.208,-1.76 -0.017,-0.146 -0.033,-0.292 -0.051,-0.438 -0.012,-0.097 -0.018,-0.366 -0.077,-0.415 -0.058,-0.048 -0.825,-0.021 -0.962,-0.021 -0.328,0 -0.655,0 -0.983,0 -0.328,0 -0.67,-0.009 -0.996,0.001 -0.111,-0.003 -0.434,-0.015 -0.518,0.014 -0.054,0.062 -0.044,0.097 -0.055,0.198l-0.364 3.096c-0.013,0.106 -0.073,0.391 -0.023,0.471 0.068,0.06 0.414,0.033 0.533,0.03z"/>
  <path class="fil1" d="M1.34 4.182l0.396 0.002c0.028,-0.166 -0.036,-0.367 0.057,-0.498 0.074,-0.104 0.233,-0.177 0.384,-0.087 0.138,0.082 0.143,0.208 0.143,0.406 0,0.103 0.013,0.478 -0.005,0.548l0 0.712c0,0.111 -0.015,0.133 0.032,0.203l0.29 0c0.026,-0.002 0.051,-0.005 0.073,-0.01 0.013,-0.055 0.008,-0.084 0.012,-0.15l0.004 -0.384 -0.003 -0.364 -0.001 -0.377 0.404 -0.001c-0.011,-0.085 -0.01,-0.363 0.019,-0.437 0.095,-0.248 0.446,-0.246 0.539,0.002 0.03,0.08 0.021,0.336 0.018,0.439 0.204,0.031 0.221,0.32 0.001,0.369l0 0.381c0.213,0.043 0.21,0.329 0,0.369l0 0.131 0.034 0.03 0.34 0.002c0.047,-0.07 0.032,-0.092 0.032,-0.203 0,-0.194 0.009,-0.544 -0.002,-0.705l-0.002 -0.377c0.001,-0.245 0.025,-0.466 -0.085,-0.665 -0.265,-0.477 -0.927,-0.477 -1.198,-0.02 -0.024,0.041 -0.046,0.083 -0.062,0.13 -0.015,0.046 -0.022,0.109 -0.04,0.145 -0.161,-0.777 -1.024,-0.772 -1.298,-0.244 -0.095,0.182 -0.099,0.426 -0.082,0.653z"/>
  <path class="fil2" d="M0.716 4.56c0.266,0 0.532,0 0.798,0 0.141,0 0.709,0.018 0.801,-0.007l0.003 -0.37 -0.582 0.001 -0.396 -0.002 -0.395 0.002c-0.119,0.003 -0.465,0.03 -0.533,-0.03 -0.05,-0.08 0.01,-0.365 0.023,-0.471l0.364 -3.096c0.011,-0.101 0.001,-0.136 0.055,-0.198 0.084,-0.029 0.407,-0.017 0.518,-0.014 0.326,-0.01 0.668,-0.001 0.996,-0.001 0.328,0 0.655,0 0.983,0 0.137,0 0.904,-0.027 0.962,0.021 0.059,0.049 0.065,0.318 0.077,0.415 0.018,0.146 0.034,0.292 0.051,0.438 0.069,0.587 0.138,1.173 0.208,1.76 0.035,0.292 0.068,0.586 0.103,0.879 0.031,0.258 0.058,0.297 -0.152,0.296 -0.165,0 -0.33,0 -0.495,0l0.002 0.377c0.2,0 0.4,0 0.6,0 0.171,0.001 0.314,-0.017 0.41,-0.188 0.079,-0.142 0.033,-0.326 0.01,-0.509 -0.066,-0.526 -0.118,-1.113 -0.19,-1.626 -0.047,-0.343 -0.08,-0.721 -0.125,-1.082 -0.022,-0.174 -0.042,-0.355 -0.063,-0.535 -0.02,-0.171 -0.022,-0.381 -0.114,-0.484 -0.105,-0.117 -0.168,-0.134 -0.319,-0.136l-3.161 0 -0.387 0c-0.004,0 -0.008,0.001 -0.011,0.001 -0.104,0.011 -0.191,0.079 -0.247,0.159 -0.088,0.124 -0.099,0.507 -0.122,0.679 -0.018,0.124 -0.027,0.231 -0.04,0.355l-0.297 2.524c-0.013,0.119 -0.027,0.24 -0.041,0.353 -0.019,0.152 -0.015,0.223 0.053,0.328 0.143,0.219 0.398,0.161 0.653,0.161z"/>
  <path class="fil3" d="M1.759 2.461c0.056,0.034 0.152,0.172 0.406,0.173 0.191,0.001 0.325,-0.091 0.417,-0.173 0.234,0.21 0.569,0.236 0.785,0.032 0.022,-0.021 0.003,-0.011 0.037,-0.031 0.056,0.043 0.117,0.099 0.211,0.136 0.066,0.025 0.235,0.057 0.304,0.021 0.034,-0.017 0.058,-0.07 0.028,-0.117 -0.051,-0.082 -0.208,0.037 -0.405,-0.141 -0.244,-0.222 -0.193,0.031 -0.447,0.095 -0.108,0.028 -0.207,0.011 -0.294,-0.037 -0.133,-0.072 -0.17,-0.233 -0.331,-0.085 -0.154,0.142 -0.328,0.189 -0.52,0.071 -0.07,-0.044 -0.107,-0.155 -0.227,-0.124 -0.077,0.02 -0.127,0.173 -0.348,0.187 -0.057,0.003 -0.122,-0.013 -0.154,0.027 -0.036,0.046 -0.013,0.106 0.023,0.125 0.067,0.034 0.23,0.005 0.296,-0.019 0.106,-0.039 0.157,-0.092 0.219,-0.14z"/>
  <path class="fil3" d="M1.759 1.784c0.061,0.05 0.083,0.075 0.17,0.118 0.148,0.075 0.327,0.071 0.477,0.005 0.084,-0.038 0.121,-0.087 0.176,-0.123 0.105,0.07 0.174,0.171 0.405,0.173 0.193,0.002 0.295,-0.074 0.417,-0.173 0.034,0.018 0.053,0.045 0.089,0.071 0.032,0.023 0.07,0.044 0.111,0.06 0.311,0.125 0.305,-0.063 0.245,-0.106 -0.083,-0.06 -0.122,0.047 -0.345,-0.168 -0.097,-0.092 -0.172,-0.02 -0.222,0.031 -0.046,0.048 -0.131,0.1 -0.224,0.115 -0.102,0.016 -0.192,-0.006 -0.268,-0.051 -0.041,-0.025 -0.066,-0.046 -0.095,-0.077 -0.192,-0.206 -0.237,0.183 -0.589,0.128 -0.207,-0.032 -0.233,-0.168 -0.316,-0.184 -0.061,-0.012 -0.101,0.009 -0.13,0.038 -0.213,0.208 -0.241,0.108 -0.339,0.164 -0.114,0.064 0.004,0.277 0.343,0.054 0.04,-0.026 0.061,-0.056 0.095,-0.075z"/>
  <path class="fil3" d="M1.759 1.103c0.17,0.157 0.405,0.232 0.646,0.12 0.088,-0.041 0.118,-0.077 0.177,-0.12 0.119,0.089 0.206,0.17 0.406,0.173 0.193,0.002 0.324,-0.088 0.416,-0.173 0.059,0.037 0.093,0.081 0.183,0.124 0.075,0.035 0.2,0.073 0.211,-0.033 0.01,-0.098 -0.1,-0.092 -0.174,-0.133 -0.074,-0.04 -0.129,-0.125 -0.181,-0.138 -0.107,-0.027 -0.139,0.055 -0.2,0.101 -0.176,0.134 -0.409,0.11 -0.555,-0.052 -0.169,-0.188 -0.22,0.149 -0.534,0.138 -0.272,-0.009 -0.275,-0.227 -0.433,-0.187 -0.05,0.012 -0.109,0.098 -0.175,0.135 -0.071,0.041 -0.183,0.037 -0.181,0.127 0.002,0.112 0.139,0.074 0.204,0.045 0.097,-0.043 0.129,-0.089 0.19,-0.127z"/>
  <path class="fil0" d="M1.736 4.184l0.582 -0.001 -0.003 0.37c0.018,-0.07 0.005,-0.445 0.005,-0.548 0,-0.198 -0.005,-0.324 -0.143,-0.406 -0.151,-0.09 -0.31,-0.017 -0.384,0.087 -0.093,0.131 -0.029,0.332 -0.057,0.498z"/>
  <path class="fil0" d="M3.126 4.182l0.576 0.004c0.003,-0.103 0.012,-0.359 -0.018,-0.439 -0.093,-0.248 -0.444,-0.25 -0.539,-0.002 -0.029,0.074 -0.03,0.352 -0.019,0.437z"/>
  <path class="fil4" d="M3.128 5.308l0.575 -0.003c0.21,-0.04 0.213,-0.326 0,-0.369l-0.574 -0.002c-0.003,-0.001 -0.007,-0.005 -0.009,-0.003l-0.394 -0.007 -0.004 0.384 0.406 0zm-0.405 -0.748l0.403 0 0.577 -0.005c0.22,-0.049 0.203,-0.338 -0.001,-0.369l-0.576 -0.004 -0.404 0.001 0.001 0.377z"/>
  <path class="fil5" d="M0.716 4.56c-0.102,-0.053 -0.153,-0.044 -0.222,-0.134 -0.055,-0.072 -0.087,-0.154 -0.082,-0.272 -0.05,-0.08 0.01,-0.365 0.023,-0.471l0.364 -3.096c0.011,-0.101 0.001,-0.136 0.055,-0.198 0.006,-0.105 0.03,-0.194 0.088,-0.256 0.023,-0.025 0.056,-0.058 0.091,-0.08 0.042,-0.027 0.084,-0.031 0.122,-0.053l-0.387 0c-0.004,0 -0.008,0.001 -0.011,0.001 -0.104,0.011 -0.191,0.079 -0.247,0.159 -0.088,0.124 -0.099,0.507 -0.122,0.679 -0.018,0.124 -0.027,0.231 -0.04,0.355l-0.297 2.524c-0.013,0.119 -0.027,0.24 -0.041,0.353 -0.019,0.152 -0.015,0.223 0.053,0.328 0.143,0.219 0.398,0.161 0.653,0.161z"/>
  <path class="fil6" d="M0.854 0.389c-0.054,0.062 -0.044,0.097 -0.055,0.198l-0.364 3.096c-0.013,0.106 -0.073,0.391 -0.023,0.471 0.068,0.06 0.414,0.033 0.533,0.03 -0.083,-0.052 -0.067,-0.087 -0.053,-0.202l0.402 -3.419c0.012,-0.1 0.001,-0.141 0.078,-0.188 -0.111,-0.003 -0.434,-0.015 -0.518,0.014z"/>
  <path class="fil7" d="M2.722 5.308l0.406 0 0.001 -0.374c-0.003,-0.001 -0.007,-0.005 -0.009,-0.003l-0.394 -0.007 -0.004 0.384z"/>
  <polygon class="fil7" points="2.723,4.56 3.126,4.56 3.126,4.182 2.722,4.183 "/>
 </g>
</svg>
