<?xml version="1.0" encoding="UTF-8"?>
<!DOCTYPE svg PUBLIC "-//W3C//DTD SVG 1.1//EN" "http://www.w3.org/Graphics/SVG/1.1/DTD/svg11.dtd">
<!-- Creator: CorelDRAW -->
<svg xmlns="http://www.w3.org/2000/svg" xml:space="preserve" width="28px" height="28px" version="1.1" style="shape-rendering:geometricPrecision; text-rendering:geometricPrecision; image-rendering:optimizeQuality; fill-rule:evenodd; clip-rule:evenodd"
viewBox="0 0 0.151 0.151"
 xmlns:xlink="http://www.w3.org/1999/xlink"
 xmlns:xodm="http://www.corel.com/coreldraw/odm/2003">
 <defs>
  <style type="text/css">
   <![CDATA[
    .fil1 {fill:#012169;fill-rule:nonzero}
    .fil2 {fill:#C8102E;fill-rule:nonzero}
    .fil0 {fill:white;fill-rule:nonzero}
   ]]>
  </style>
 </defs>
 <g id="Layer_x0020_1">
  <metadata id="CorelCorpID_0Corel-Layer"/>
  <path class="fil0" d="M0.076 0c0.02,0 0.039,0.008 0.053,0.022l0 0c0.014,0.014 0.022,0.033 0.022,0.053 0,0.021 -0.008,0.04 -0.022,0.054l0 0c-0.014,0.014 -0.033,0.022 -0.053,0.022 -0.021,0 -0.04,-0.008 -0.054,-0.022 -0.014,-0.014 -0.022,-0.033 -0.022,-0.054 0,-0.02 0.008,-0.039 0.022,-0.053 0.014,-0.014 0.033,-0.022 0.054,-0.022z"/>
  <path class="fil1" d="M0.052 0.051l0 -0.041c-0.013,0.005 -0.024,0.014 -0.032,0.025l0.032 0.016zm0 0.049l0 0.041c-0.013,-0.005 -0.024,-0.014 -0.032,-0.025l0.032 -0.016zm0.046 0l0 0.041c0.014,-0.005 0.025,-0.014 0.033,-0.025l-0.033 -0.016zm0 -0.049l0 -0.041c0.014,0.005 0.025,0.014 0.033,0.025l-0.033 0.016z"/>
  <path class="fil2" d="M0.137 0.099l-0.015 0 0.015 0.007c0.001,-0.002 0.002,-0.004 0.003,-0.006l-0.003 -0.001zm-0.003 -0.06l-0.028 0.013 0.016 0 0.015 -0.007c-0.001,-0.002 -0.002,-0.004 -0.003,-0.006zm-0.072 0.05l0 0.054c0.004,0.001 0.009,0.002 0.014,0.002 0.004,0 0.009,-0.001 0.013,-0.002l0 -0.054 0.054 0c0.001,-0.004 0.002,-0.009 0.002,-0.014 0,-0.004 -0.001,-0.009 -0.002,-0.013l-0.054 0 0 -0.054c-0.004,-0.001 -0.009,-0.002 -0.013,-0.002 -0.005,0 -0.01,0.001 -0.014,0.002l0 0.054 -0.054 0c-0.001,0.004 -0.002,0.009 -0.002,0.013 0,0.005 0.001,0.01 0.002,0.014l0.054 0zm-0.048 -0.037l0.015 0 -0.015 -0.007c-0.001,0.002 -0.002,0.004 -0.003,0.006l0.003 0.001zm0.031 0.047l-0.016 0 -0.015 0.007c0.001,0.002 0.002,0.004 0.003,0.006l0.028 -0.013 0 0z"/>
 </g>
</svg>
