<?xml version="1.0" encoding="UTF-8"?>
<!DOCTYPE svg PUBLIC "-//W3C//DTD SVG 1.1//EN" "http://www.w3.org/Graphics/SVG/1.1/DTD/svg11.dtd">
<!-- Creator: CorelDRAW -->
<svg xmlns="http://www.w3.org/2000/svg" xml:space="preserve" width="28px" height="28px" version="1.1" style="shape-rendering:geometricPrecision; text-rendering:geometricPrecision; image-rendering:optimizeQuality; fill-rule:evenodd; clip-rule:evenodd"
viewBox="0 0 0.153 0.153"
 xmlns:xlink="http://www.w3.org/1999/xlink"
 xmlns:xodm="http://www.corel.com/coreldraw/odm/2003">
 <defs>
  <style type="text/css">
   <![CDATA[
    .fil1 {fill:#C8102E}
    .fil0 {fill:white;fill-rule:nonzero}
   ]]>
  </style>
 </defs>
 <g id="Layer_x0020_1">
  <metadata id="CorelCorpID_0Corel-Layer"/>
  <path class="fil0" d="M0.077 0c0.021,0 0.04,0.009 0.054,0.022l0 0.001c0.014,0.014 0.022,0.033 0.022,0.054 0,0.021 -0.009,0.04 -0.022,0.054l-0.001 0c-0.014,0.014 -0.033,0.022 -0.053,0.022 -0.022,0 -0.041,-0.009 -0.055,-0.022 -0.013,-0.014 -0.022,-0.033 -0.022,-0.054 0,-0.022 0.009,-0.041 0.022,-0.055 0.014,-0.013 0.033,-0.022 0.055,-0.022z"/>
  <path class="fil1" d="M0.076 0.007c0.039,0 0.07,0.031 0.07,0.07l-0.14 0c0,-0.039 0.032,-0.07 0.07,-0.07z"/>
 </g>
</svg>
