<svg width="323" height="120" viewBox="0 0 323 120" fill="none" xmlns="http://www.w3.org/2000/svg">
<path fill-rule="evenodd" clip-rule="evenodd" d="M262.452 16.6157L264.16 15.0079C266.955 12.3758 269.739 9.73192 272.515 7.07787L275.168 4.5408L278.817 4.84092C287.456 5.55187 296.089 6.32974 304.719 7.1389L311.011 7.72896L312.031 14.0023C313.548 23.332 315.095 32.6566 316.611 41.9863C318.128 51.3176 319.673 60.6445 321.217 69.9714L323 80.7391L269.705 93.9655L262.481 93.1321L262.205 93.1004L261.929 93.0687L261.653 93.037L261.377 93.0049L261.101 92.9732L260.825 92.9415L260.549 92.9094L260.273 92.8778L259.997 92.8461L259.721 92.8144L259.445 92.7827L259.169 92.751L258.893 92.7193L258.617 92.6872L258.341 92.6555L258.065 92.6242L257.789 92.5925L257.513 92.5608L257.237 92.5291L256.96 92.4974L256.684 92.4657L256.408 92.434L256.133 92.4027L255.856 92.371L255.58 92.3394L255.305 92.3077L255.028 92.276L254.752 92.2447L254.476 92.2134L254.2 92.1817L253.924 92.15L253.648 92.1187L249.477 91.6425L249.475 91.6339L246.137 91.3079L245.878 91.2829L245.62 91.2575L245.361 91.2324L245.103 91.207L244.844 91.1816L244.585 91.1561L244.327 91.1307L244.068 91.1053L243.81 91.0798L243.551 91.0544L243.293 91.029L243.034 91.0035L242.776 90.9777L242.517 90.9523L242.259 90.9268L242 90.901L241.741 90.8756L241.483 90.8498L241.224 90.8243L240.966 90.7985L240.707 90.7727L240.449 90.7472L240.19 90.7214L239.932 90.6956L239.673 90.6702L239.415 90.6443L239.156 90.6185L238.898 90.5927L238.639 90.5672L238.381 90.5414L238.122 90.5156L237.863 90.4898L233.854 90.1525L233.358 90.1106L232.863 90.0691L232.367 90.0281L231.872 89.987L231.376 89.9463L230.88 89.9056L230.385 89.8653L229.889 89.825L229.393 89.7851L228.898 89.7456L228.402 89.706L227.906 89.6665L227.411 89.6274L226.915 89.5887L226.419 89.5503L225.923 89.512L225.427 89.474L224.931 89.4357L224.435 89.3981L223.939 89.3609L223.443 89.3238L222.947 89.287L222.451 89.2502L221.955 89.2142L221.459 89.1782L220.963 89.1422L220.467 89.1066L219.972 89.0714L219.476 89.0362L218.979 89.0017L218.483 88.9673L217.987 88.9329L213.98 88.6586L213.491 88.63L213.002 88.6015L212.513 88.5733L212.024 88.5455L211.535 88.5181L211.045 88.4903L210.556 88.4633L210.067 88.4359L209.578 88.4093L209.089 88.3823L208.599 88.3561L208.11 88.3295L207.621 88.3033L207.131 88.2775L206.642 88.2517L206.153 88.2258L205.663 88.2004L205.174 88.175L204.685 88.1495L204.196 88.1245L203.706 88.0994L203.217 88.0748L202.727 88.0498L202.238 88.0251L201.749 88.0008L201.259 87.9766L200.77 87.9523L200.281 87.9277L199.791 87.9038L199.302 87.8795L198.812 87.8557L198.323 87.8318L198.078 87.8201L194.529 87.6909L194.258 87.6812L193.988 87.6714L193.717 87.6616L193.446 87.6514L193.176 87.6416L192.905 87.6315L192.635 87.6213L192.364 87.6115L192.093 87.6017L191.823 87.5916L191.552 87.5814L191.282 87.5716L191.011 87.5618L190.741 87.552L190.47 87.5419L190.199 87.5321L189.928 87.5223L189.658 87.5129L189.387 87.5031L189.117 87.4937L188.846 87.4844L188.575 87.475L188.305 87.4656L188.034 87.4566L187.763 87.4476L187.493 87.4386L187.222 87.43L186.952 87.4214L186.681 87.4127L186.41 87.4045L186.14 87.3959L185.869 87.3881L180.762 87.2371L176.531 87.1827L176.1 87.1772L175.669 87.1721L175.238 87.167L174.808 87.1619L174.377 87.1569L173.947 87.1522L173.516 87.1475L173.085 87.1432L172.654 87.1385L172.224 87.1342L171.793 87.1302L171.362 87.1259L170.931 87.122L170.501 87.1181L170.07 87.1142L169.639 87.1107L169.208 87.1072L168.778 87.1036L168.347 87.1001L167.917 87.0966L167.485 87.0935L167.055 87.0903L166.624 87.0868L166.194 87.0841L165.763 87.0809L165.332 87.0778L164.901 87.0747L164.471 87.0719L164.04 87.0688L163.609 87.0661L163.178 87.0633L162.748 87.0606L158.12 87.0309L157.375 82.4361L157.329 82.152L157.283 81.8675L157.237 81.5838L157.192 81.2994L157.146 81.0153L157.101 80.7313L157.055 80.4468L157.01 80.1627L156.965 79.8787L156.92 79.5942L156.875 79.3097L156.831 79.0257L156.786 78.7412L156.741 78.4567L156.697 78.1727L156.653 77.8882L156.609 77.6037L156.565 77.3193L156.521 77.0348L156.477 76.7504L156.434 76.4659L156.39 76.1814L156.347 75.897L156.303 75.6125L156.26 75.3281L156.217 75.0432L156.174 74.7587L156.131 74.4743L156.089 74.1894L156.046 73.905L156.003 73.6201L155.961 73.3357L155.919 73.052L155.877 72.7687L155.835 72.4858L155.792 72.2021L155.75 71.9188L155.707 71.6356L155.665 71.3523L155.622 71.069L155.579 70.7857L155.537 70.5024L155.494 70.2191L155.451 69.9358L155.409 69.6525L155.366 69.3689L155.323 69.086L155.281 68.8027L155.238 68.5194L155.196 68.2361L155.153 67.9524L155.111 67.6691L155.069 67.3859L155.027 67.1022L154.985 66.8189L154.943 66.5356L154.902 66.2519L154.86 65.9686L154.819 65.685L154.778 65.4013L154.737 65.118L154.696 64.8343L154.656 64.5506L154.615 64.267L154.586 64.0627L154.557 63.8589L154.528 63.6542L154.499 63.4504L154.47 63.2461L154.442 63.0419L154.412 62.8376L154.384 62.6334L154.355 62.4295L154.326 62.2253L154.297 62.021L154.268 61.8168L154.239 61.6125L154.21 61.4083L154.181 61.204L154.153 60.9998L154.124 60.7959L154.095 60.5917L154.067 60.387L154.038 60.1832L154.009 59.9789L153.981 59.7747L153.952 59.5704L153.923 59.3662L153.895 59.1619L153.866 58.9577L153.837 58.7534L153.809 58.5492L153.781 58.3449L153.753 58.1407L153.724 57.9364L153.696 57.7322L153.691 57.92L153.685 58.1078L153.68 58.2956L153.674 58.4835L153.669 58.6717L153.664 58.8595L153.659 59.0473L153.653 59.2351L153.648 59.4229L153.642 59.6107L153.637 59.7985L153.632 59.9864L153.626 60.1746L153.621 60.3624L153.616 60.5502L153.611 60.738L153.605 60.9258L153.6 61.1136L153.595 61.3018L153.59 61.4897L153.584 61.6775L153.579 61.8653L153.574 62.0531L153.569 62.2409L153.564 62.4287L153.559 62.6165L153.553 62.8048L153.548 62.9926L153.543 63.1804L153.538 63.3682L153.533 63.556L153.528 63.7438L153.513 64.3092L153.497 64.8746L153.482 65.44L153.467 66.0054L153.452 66.5704L153.436 67.1358L153.421 67.7012L153.406 68.2666L153.391 68.832L153.376 69.397L153.36 69.9624L153.345 70.5278L153.33 71.0932L153.315 71.6582L153.299 72.2236L153.284 72.789L153.269 73.3544L153.254 73.9195L153.238 74.4849L153.223 75.0503L153.208 75.6157L153.192 76.1811L153.177 76.7461L153.162 77.3115L153.147 77.8769L153.132 78.4423L153.117 79.0073L153.101 79.5727L153.086 80.1381L153.071 80.7035L153.056 81.2685L153.04 81.8339L152.9 87.0559L147.708 87.194L147.455 87.2007L147.201 87.2073L146.948 87.214L146.695 87.2202L146.442 87.2269L146.188 87.2331L145.935 87.2394L145.682 87.2457L145.429 87.2519L145.175 87.2582L144.922 87.2644L144.669 87.2703L144.416 87.2766L144.162 87.2825L143.909 87.2887L143.656 87.2946L143.403 87.3005L143.149 87.3063L142.896 87.3122L142.643 87.3181L142.39 87.3239L142.136 87.3298L141.883 87.3357L141.63 87.3415L141.377 87.3474L141.123 87.3533L140.87 87.3591L140.617 87.365L140.364 87.3709L140.11 87.3771L139.857 87.383L139.604 87.3889L136.999 87.4503L136.997 87.457L133.177 87.5857L133.098 87.5888L133.018 87.5916L132.939 87.5939L132.86 87.5966L132.78 87.5998L132.701 87.6025L132.622 87.6053L132.542 87.608L132.463 87.6107L132.384 87.6139L132.305 87.6166L132.225 87.6193L132.146 87.6225L132.067 87.6252L131.987 87.6283L131.908 87.6311L131.829 87.6342L131.749 87.6373L131.67 87.6405L131.591 87.6432L131.511 87.6463L131.432 87.6495L131.353 87.6526L131.274 87.6557L131.194 87.6589L131.115 87.662L131.036 87.6651L130.957 87.6686L130.877 87.6718L130.798 87.6749L130.719 87.6784L130.639 87.6816L126.138 87.8694L126.098 87.8318L124.162 87.9288L123.909 87.9414L123.656 87.9543L123.404 87.9672L123.151 87.9797L122.898 87.9926L122.645 88.0055L122.393 88.0184L122.14 88.0314L121.888 88.0443L121.635 88.0572L121.382 88.0701L121.13 88.0834L120.877 88.0963L120.624 88.1092L120.372 88.1225L120.119 88.1354L119.866 88.1487L119.614 88.1617L119.361 88.1746L119.108 88.1875L118.856 88.2008L118.603 88.2137L118.35 88.227L118.098 88.2399L117.845 88.2528L117.592 88.2657L117.339 88.2787L117.087 88.2916L116.834 88.3045L116.582 88.3174L116.329 88.3299L116.076 88.3428L113.306 88.4825L112.279 88.5467L112.005 88.5635L111.732 88.5807L111.459 88.5979L111.185 88.6152L110.912 88.6324L110.639 88.65L110.365 88.6676L110.092 88.6848L109.819 88.7028L109.546 88.7204L109.272 88.7384L108.999 88.756L108.726 88.774L108.452 88.792L108.179 88.81L107.906 88.828L107.632 88.8464L107.359 88.8644L107.086 88.8828L106.813 88.9008L106.539 88.9196L106.266 88.938L105.993 88.9563L105.72 88.9747L105.447 88.9931L105.173 89.0119L104.9 89.0303L104.627 89.0487L104.353 89.0675L104.08 89.0859L103.807 89.1046L103.534 89.1234L98.1768 89.4897L96.0703 89.663L95.7952 89.6857L95.5202 89.708L95.2452 89.7307L94.9702 89.7534L94.6951 89.7757L94.4201 89.7984L94.1451 89.8207L93.87 89.8434L93.595 89.8657L93.32 89.8884L93.045 89.9107L92.7699 89.9334L92.4949 89.9557L92.2199 89.978L91.9448 90.0003L91.6698 90.023L91.3948 90.0453L91.1193 90.0676L90.8447 90.0899L90.5693 90.1126L90.2943 90.1349L90.0192 90.1572L89.7442 90.1795L89.4692 90.2022L89.1941 90.2245L88.9191 90.2468L88.6441 90.2695L88.3691 90.2918L88.094 90.3145L87.819 90.3368L87.544 90.3591L87.2689 90.3818L85.8988 90.4937L83.534 90.7249L82.814 90.7954L82.0935 90.8662L81.3731 90.9374L80.6527 91.0094L79.9326 91.081L79.2121 91.1538L78.4921 91.2266L77.7716 91.2993L77.0516 91.3729L76.3315 91.4465L75.6115 91.5204L74.8914 91.5947L74.1714 91.6695L73.4513 91.7442L72.7312 91.8197L72.0112 91.8953L71.2915 91.9708L70.5715 92.0467L69.8518 92.123L69.1317 92.1997L68.4121 92.2764L67.6924 92.3534L66.9727 92.4305L66.2527 92.5084L65.533 92.5859L64.8133 92.6637L64.0937 92.742L63.3744 92.8202L62.6543 92.8989L61.9347 92.9775L61.2154 93.0562L60.4957 93.1356L53.2951 93.9276L0 80.6823L1.79295 69.9581C2.2796 67.0494 2.79348 64.1453 3.27858 61.2365C3.76951 58.2953 4.28883 55.3591 4.80933 52.4233L5.88844 46.3358L12.0021 45.6866C12.3534 45.6495 12.7051 45.6123 13.0563 45.5747C12.5257 45.2155 11.9959 44.856 11.4661 44.496L7.09087 41.5219L7.98521 36.2869C8.62279 32.5549 9.25844 28.8221 9.89602 25.0897C10.5371 21.3353 11.1778 17.5802 11.8477 13.8306L12.9482 7.66987L19.1447 7.09391C29.7083 6.11258 40.2785 5.20285 50.8541 4.35964L60.9485 3.55478L61.9175 4.68519L63.3044 3.44405L66.1196 3.26523C74.1169 2.75813 82.1173 2.29877 90.1192 1.87071L90.1204 1.85428L91.9752 1.77211L101.259 1.28105L101.299 1.36165C104.73 1.21453 108.161 1.07524 111.593 0.951593L118.278 0.710956L120.268 6.23974L120.333 6.0488L122.172 0.572051L127.917 0.455841C132.629 0.361151 137.341 0.266462 142.052 0.172163L150.651 0L150.662 0.113862L155.506 0.0637786C159.81 0.0191727 164.114 0.0508664 168.418 0.0825601L170.804 0.0997764L170.812 0.0262158L178.249 0.140078C181.346 0.187423 184.444 0.24142 187.541 0.299329L187.552 0.247289L196.251 0.463276C196.533 0.470319 196.816 0.477362 197.098 0.484796L199.776 0.537228L199.774 0.558748C201.527 0.609614 203.279 0.664785 205.032 0.720347L205.05 0.671828L212.89 0.96607L216.062 1.06467L216.064 1.08658C219.471 1.21923 222.879 1.36361 226.286 1.51582L232.342 1.78619L232.358 1.75959L241.832 2.31012C245.952 2.54958 250.072 2.78904 254.19 3.05081L261.098 3.49022L261.809 10.4151C262.022 12.4822 262.236 14.549 262.452 16.6157Z" fill="#0E1923"/>
<path d="M295.589 40.9484C295.225 38.2419 294.845 35.5398 294.437 32.8423C294.027 30.1335 293.618 27.436 293.224 24.7357C289.584 24.4016 286.005 24.08 282.487 23.7771C282.821 26.4644 283.216 29.1517 283.549 31.8328C283.883 34.5264 284.276 37.2137 284.641 39.901C288.28 40.2293 291.95 40.5763 295.589 40.9484ZM44.3425 67.7147C32.8476 68.8377 21.3831 70.0554 9.85831 71.3231C10.3434 68.4214 10.8592 65.5067 11.3443 62.5987C11.8294 59.6907 12.3452 56.7761 12.8607 53.8681C17.1371 53.4138 21.4741 52.9533 25.7509 52.499C25.4171 54.7637 25.053 57.0285 24.659 59.2932C27.328 58.9904 30.0576 58.7063 32.7869 58.4602C33.2421 55.5142 33.6968 52.5683 34.0609 49.6348C31.0278 47.6225 27.9659 45.652 24.962 43.6674C21.9608 41.6844 18.9872 39.6803 16.0455 37.6809C16.6823 33.9523 17.3191 30.2113 17.9563 26.4832C18.5931 22.7551 19.2299 19.0203 19.8971 15.2859C30.4214 14.3081 40.976 13.3996 51.4999 12.5607C51.1361 15.2985 50.7864 18.0386 50.4083 20.7615C50.0282 23.4954 49.6501 26.2308 49.3164 28.9623C45.4344 29.284 41.6735 29.6123 37.8522 29.9464C38.1553 27.9845 38.4587 26.0227 38.7617 24.0545C36.0624 24.2881 33.272 24.5342 30.6034 24.78C30.1786 27.1961 29.8149 29.6185 29.4204 32.0347C35.4559 36.0594 41.4914 40.0841 47.5573 44.0838C47.0115 48.02 46.4354 51.963 45.9195 55.8992C45.4045 59.8293 44.8579 63.7722 44.3425 67.7147ZM77.28 36.9679C77.553 34.3119 77.8257 31.6559 78.0988 29.0003C78.3715 26.3509 78.6446 23.6949 78.9177 21.0389C75.3691 21.2537 71.8206 21.4556 68.272 21.6888C67.969 24.3574 67.6208 27.0177 67.3318 29.6878C67.0447 32.3418 66.7557 35.0061 66.4523 37.6809C70.0615 37.4281 73.6404 37.1886 77.28 36.9679ZM63.1768 66.1187C58.8094 66.4783 54.442 66.8316 50.0442 67.1912C51.0148 59.4697 52.0464 51.7419 53.0166 44.0266C53.9876 36.3055 55.0185 28.584 56.0194 20.8625C59.6282 17.7271 63.1464 14.5985 66.6343 11.4757C75.1871 10.9333 83.7099 10.4474 92.293 9.99309C91.8986 14.5355 91.4734 19.0774 91.0797 23.6065C90.6848 28.1485 90.2912 32.6846 89.8967 37.2203C89.5026 41.756 89.0782 46.298 88.6838 50.84C88.2897 55.3757 87.8953 59.911 87.5311 64.4409C83.1637 64.712 78.766 65.0086 74.4289 65.3048C74.7323 62.3147 75.0653 59.3218 75.3691 56.3281C75.6718 53.3477 75.9453 50.3352 76.2487 47.3451C72.5484 47.5783 68.8785 47.8181 65.2393 48.0956C64.8752 51.0986 64.5115 54.1076 64.1777 57.1106C63.8439 60.1133 63.5106 63.1223 63.1768 66.1187ZM128.081 8.68113C132.782 8.58644 137.483 8.49175 142.215 8.39706C141.942 17.4055 141.668 26.4139 141.426 35.4095C141.183 44.4117 140.941 53.4138 140.698 62.4094C136.665 62.5166 132.631 62.605 128.627 62.6997C128.84 57.0852 129.082 51.477 129.294 45.8688C129.507 40.2606 129.78 34.6527 130.022 29.0383C128.233 34.6778 126.381 40.3419 124.533 46.0077C122.681 51.6844 120.802 57.3626 118.952 62.9963C117.648 63.0401 116.314 63.0906 115.1 63.1411C113.766 57.5583 112.462 52.0256 111.249 46.4745C110.036 40.9293 108.853 35.359 107.7 29.7445C107.306 35.3465 106.881 40.9926 106.487 46.6322C106.093 52.2721 105.698 57.9053 105.365 63.5136C101.331 63.7155 97.2972 63.9299 93.2935 64.1318C93.6577 59.6023 94.0218 55.0729 94.3855 50.5434C94.7496 46.0139 95.1736 41.4872 95.5381 36.9488C95.9015 32.422 96.2664 27.8899 96.5997 23.3608C96.9335 18.8251 97.3276 14.289 97.6913 9.75363C102.392 9.54508 107.154 9.34357 111.885 9.17297C112.947 13.6269 114.025 18.091 115.1 22.5344C116.178 26.9856 117.345 31.4352 118.497 35.8637C120.105 31.3406 121.743 26.7923 123.32 22.2629C124.897 17.7338 126.565 13.1981 128.081 8.68113ZM178.125 8.36576C182.249 8.42876 186.435 8.50467 190.62 8.58644C190.104 13.0779 189.558 17.5632 189.043 22.0484C188.527 26.5337 187.981 31.0252 187.435 35.5042C186.89 39.9831 186.283 44.475 185.737 48.9536C185.191 53.4264 184.615 57.9116 184.039 62.3906C177.184 62.3021 170.269 62.2517 163.415 62.2075C162.687 57.716 161.989 53.2245 161.322 48.7329C160.655 44.2414 159.957 39.7433 159.32 35.2518C158.683 30.7603 158.046 26.2688 157.44 21.7773C156.833 17.2858 156.196 12.7876 155.59 8.28985C159.866 8.24564 164.082 8.27733 168.358 8.30902C169.208 15.2229 170.118 22.1369 170.967 29.0508C171.816 35.9647 172.726 42.8786 173.605 49.7925C174.333 42.8915 175.122 35.9835 175.85 29.0825C176.577 22.1811 177.366 15.273 178.125 8.36576ZM210.546 52.8836C210.759 56.3093 210.91 59.7346 211.092 63.154C206.755 62.9963 202.388 62.8257 198.111 62.6997C197.747 53.6975 197.383 44.6957 197.05 35.6998C196.716 26.7043 196.382 17.6896 196.049 8.68739C200.113 8.78834 204.207 8.92686 208.272 9.05324C208.635 16.3647 209.03 23.6636 209.394 30.9684C209.758 38.2736 210.152 45.5788 210.546 52.8836ZM216.855 63.3684C216.309 54.3474 215.793 45.3202 215.278 36.2992C214.762 27.2783 214.246 18.2507 213.731 9.2301C217.765 9.38152 221.829 9.55173 225.923 9.73446C226.439 17.0647 227.015 24.3953 227.531 31.7256C228.046 39.0558 228.622 46.3861 229.168 53.7167C232.626 53.8994 236.175 54.0696 239.723 54.3032C239.996 57.741 240.299 61.1921 240.602 64.6236C232.656 64.1568 224.771 63.753 216.855 63.3684ZM246.365 65.0212C245.516 55.9372 244.667 46.8466 243.848 37.7626C243.029 28.6849 242.18 19.601 241.36 10.5233C245.486 10.7627 249.61 11.0026 253.674 11.2612C254.432 18.6419 255.221 26.0164 255.979 33.4038C256.737 40.7845 257.556 48.1777 258.345 55.5647C261.863 55.8488 265.472 56.1454 268.96 56.429C269.385 59.8989 269.779 63.3872 270.173 66.8504C262.227 66.1817 254.281 65.5635 246.365 65.0212ZM288.614 68.5853C284.216 68.1565 279.848 67.721 275.481 67.2859C274.51 59.5706 273.54 51.8554 272.6 44.1405C271.66 36.4252 270.689 28.7229 269.749 21.0139C272.57 18.3583 275.36 15.7085 278.15 13.0404C286.733 13.7466 295.346 14.5226 303.96 15.3302C305.477 24.6602 307.023 33.9836 308.54 43.3141C310.056 52.6442 311.603 61.9805 313.15 71.3231C308.722 70.8121 304.324 70.3073 299.957 69.8092C299.501 66.7874 299.047 63.7088 298.592 60.6369C298.137 57.5708 297.652 54.5051 297.136 51.5024C293.436 51.1111 289.736 50.7453 286.066 50.3982C286.49 53.4326 286.915 56.4733 287.34 59.5014C287.764 62.5291 288.189 65.5572 288.614 68.5853Z" fill="white"/>
<mask id="mask0_77_1712" style="mask-type:luminance" maskUnits="userSpaceOnUse" x="11" y="39" width="301" height="31">
<path d="M311.18 39.4304H11.834V69.4502H311.18V39.4304Z" fill="url(#paint0_linear_77_1712)"/>
</mask>
<g mask="url(#mask0_77_1712)">
<path fill-rule="evenodd" clip-rule="evenodd" d="M14.2552 55.3731C13.8133 57.8703 13.3749 60.3686 12.9575 62.8701C12.5911 65.0647 12.2087 67.2567 11.834 69.4502C22.1813 68.3171 32.5321 67.2215 42.8914 66.203C43.3551 62.6959 43.8383 59.1908 44.2981 55.683C44.7703 52.0809 45.2905 48.4846 45.7934 44.8864L45.0917 44.4232C40.3815 44.8489 35.7457 45.3004 31.1811 45.7754C32.4434 46.6002 33.705 47.4266 34.9615 48.2604L35.8099 48.8235L35.6839 49.8377C35.3159 52.804 34.8595 55.7581 34.4032 58.7119L34.2072 59.9832L32.9332 60.0982C30.233 60.3416 27.536 60.6214 24.8421 60.927L22.6707 61.1735L23.0476 59.0081C23.3168 57.4606 23.5724 55.9104 23.8144 54.3581C20.628 54.6966 17.4416 55.0347 14.2552 55.3731ZM161.581 39.4304C164.611 39.4304 167.625 39.4429 170.631 39.4625C171.081 42.975 171.536 46.4872 171.983 50.0005L172.168 51.4525L175.079 51.4208L175.232 49.9652C175.6 46.4782 175.983 42.993 176.365 39.5075C179.348 39.5384 182.313 39.5811 185.27 39.63C184.882 42.6706 184.485 45.7097 184.114 48.7523C183.626 52.7457 183.116 56.736 182.603 60.7262C176.672 60.6542 170.74 60.6092 164.808 60.5701C164.161 56.547 163.538 52.5195 162.939 48.4889C162.491 45.4687 162.029 42.4507 161.581 39.4304ZM198.845 39.9203C201.989 40.0033 205.114 40.0972 208.224 40.2001C208.444 44.4591 208.672 48.7178 208.913 52.9761C209.073 55.7981 209.217 58.6204 209.364 61.4431C206.137 61.3241 202.911 61.2028 199.683 61.1007C199.398 54.0408 199.114 46.981 198.845 39.9203ZM217.158 40.5233C220.314 40.6489 223.446 40.787 226.563 40.9333C226.886 45.2351 227.217 49.5364 227.537 53.8385L227.645 55.2823L229.082 55.3586C232.124 55.5195 235.167 55.6674 238.207 55.8544C238.398 58.1935 238.6 60.5322 238.806 62.8701C232.005 62.4784 225.202 62.1286 218.398 61.7952C217.972 54.7052 217.563 47.6144 217.158 40.5233ZM245.873 41.9863C249.042 42.1839 252.185 42.3928 255.304 42.6119C255.774 46.988 256.251 51.3633 256.718 55.7394L256.863 57.0948L258.214 57.2039C261.309 57.4536 264.403 57.7071 267.498 57.9595C267.782 60.3197 268.052 62.6818 268.321 65.0436C261.506 64.4774 254.686 63.9496 247.863 63.4746C247.194 56.3122 246.526 49.1498 245.873 41.9863ZM274.243 44.0976C285.782 45.1009 296.914 46.2532 307.571 47.5428C308.764 54.8433 309.972 62.1411 311.18 69.4389C307.916 69.0632 304.651 68.6884 301.387 68.3155C300.991 65.6751 300.601 63.034 300.209 60.3932C299.755 57.3307 299.271 54.2725 298.748 51.2213L298.537 49.9954L297.307 49.8651C293.613 49.4746 289.917 49.1087 286.219 48.7593L284.158 48.5641L284.446 50.6265C284.871 53.6609 285.294 56.6957 285.72 59.73C286.048 62.0683 286.376 64.4062 286.704 66.7445C283.449 66.4248 280.194 66.1012 276.94 65.7769C276.031 58.5519 275.124 51.3265 274.243 44.0976ZM54.7193 43.5964C65.4544 42.7211 76.5283 41.9749 87.8878 41.3649C87.6085 44.4752 87.3245 47.5847 87.0542 50.6958C86.7013 54.7584 86.3477 58.8215 86.0159 62.8861C82.7622 63.0919 79.5093 63.3091 76.2564 63.5305C76.5023 61.1848 76.7582 58.8406 76.9963 56.4941C77.3001 53.5009 77.5724 50.5044 77.8759 47.5107L78.0715 45.5806L76.1463 45.7019C72.4682 45.9339 68.7905 46.1737 65.1156 46.4543L63.7778 46.5564L63.6155 47.8958C63.2506 50.9047 62.8869 53.914 62.552 56.9265C62.2684 59.4804 61.9852 62.0343 61.7012 64.5882C58.4409 64.8558 55.181 65.1203 51.9211 65.3864C52.8162 58.3336 53.7522 51.2862 54.6391 44.2322L54.7193 43.5964ZM96.8487 40.9142C99.6449 40.7835 102.453 40.659 105.281 40.5452C105.137 42.5348 104.994 44.5253 104.855 46.5157C104.496 51.6571 104.136 56.7986 103.821 61.9431C100.905 62.0906 97.99 62.2436 95.0744 62.3927C95.3883 58.4869 95.7022 54.5808 96.0158 50.675C96.2776 47.42 96.5697 44.1676 96.8487 40.9142ZM111.588 40.3069C113.687 40.2329 115.795 40.1637 117.909 40.0983L118.255 41.4306L118.739 40.0713C120.751 40.0103 122.775 39.9555 124.801 39.9031C124.195 41.7668 123.586 43.63 122.978 45.4937C121.249 50.7963 119.498 56.0919 117.756 61.3906C117.297 61.4074 116.837 61.4243 116.377 61.4423C115.162 56.3439 113.965 51.2408 112.846 46.1201C112.423 44.1833 112.003 42.2457 111.588 40.3069ZM131.183 39.7536C134.003 39.6937 136.833 39.6401 139.677 39.5963L139.105 60.8041C136.18 60.8784 133.254 60.945 130.329 61.013C130.524 55.9855 130.738 50.9583 130.929 45.9304C131.007 43.8711 131.093 41.8125 131.183 39.7536Z" fill="#242F5C"/>
</g>
<path fill-rule="evenodd" clip-rule="evenodd" d="M94.678 110.155L103.125 116.199L57.575 119.149L47.5316 73.8821L70.6049 71.5066L70.8189 67.0511L76.6657 66.5859C84.64 65.9516 92.6882 65.5412 100.677 65.1667C120.747 64.2269 140.86 63.7742 160.952 63.7742C182.044 63.7742 203.156 64.2934 224.227 65.2301C233.218 65.6296 242.25 66.0714 251.229 66.7088L257.075 67.1235L257.292 70.9158L280.672 73.323L270.628 118.589L225.079 115.64L233.011 109.963C229.829 109.828 226.647 109.701 223.468 109.579C202.142 108.76 180.78 108.26 159.439 108.26C139.679 108.26 119.892 108.792 100.159 109.852C98.3351 109.95 96.5075 110.05 94.678 110.155Z" fill="#0E1923"/>
<path fill-rule="evenodd" clip-rule="evenodd" d="M249.487 76.8484L272.536 79.2215L265.367 111.533L244.224 110.164L252.526 104.223L249.487 76.8484Z" fill="#0077C0"/>
<path fill-rule="evenodd" clip-rule="evenodd" d="M249.487 76.8484L270.223 78.9836L254.964 110.859L244.224 110.164L252.526 104.223L249.487 76.8484Z" fill="#0D5395"/>
<path fill-rule="evenodd" clip-rule="evenodd" d="M78.7161 77.407L55.6669 79.7801L62.8359 112.092L83.9798 110.723L75.6771 104.781L78.7161 77.407Z" fill="#0077C0"/>
<path fill-rule="evenodd" clip-rule="evenodd" d="M78.7161 77.407L57.9803 79.5422L73.2389 111.418L83.9798 110.723L75.6772 104.781L78.7161 77.407Z" fill="#0D5395"/>
<path fill-rule="evenodd" clip-rule="evenodd" d="M75.6772 104.782C75.6772 104.782 111.76 101.558 159.439 101.558C207.117 101.558 252.526 104.223 252.526 104.223L250.76 73.3933C250.76 73.3933 209.514 70.4751 160.952 70.4751C112.391 70.4751 77.1908 73.2661 77.1908 73.2661L75.6772 104.782Z" fill="#0077C0"/>
<path d="M104.564 86.5975C105.663 88.0726 106.776 89.5497 107.903 91.0225C109.03 92.4956 110.171 93.9727 111.325 95.4459C109.377 95.5312 107.416 95.6165 105.469 95.7018C104.676 94.7635 103.878 93.8287 103.104 92.8873C102.334 91.9525 101.56 91.0107 100.808 90.0728C100.753 91.0479 100.69 92.0241 100.641 92.9976C100.592 93.9704 100.558 94.9458 100.53 95.9185C98.8746 95.9925 97.219 96.0641 95.5637 96.1357C95.7302 93.2398 95.8835 90.342 96.0644 87.4462C96.2449 84.5507 96.4121 81.6529 96.593 78.755C98.1786 78.6834 99.7646 78.6118 101.365 78.5379C101.309 79.513 101.26 80.4904 101.211 81.4627C101.163 82.4362 101.1 83.4109 101.086 84.384C101.921 83.3741 102.784 82.3642 103.618 81.3543C104.453 80.3444 105.301 79.3326 106.15 78.3207C108.084 78.2339 110.059 78.1446 112.021 78.0554C110.783 79.4801 109.545 80.9047 108.307 82.3274C107.068 83.7501 105.802 85.1748 104.564 86.5975ZM119.672 95.7288C118.337 95.7706 117.098 95.5742 115.944 95.1297C114.802 94.6903 113.829 94.0658 112.981 93.2653C112.16 92.4628 111.517 91.5045 111.075 90.4062C110.627 89.2969 110.414 88.1129 110.463 86.8436C110.511 85.5739 110.83 84.373 111.367 83.2344C111.901 82.1017 112.605 81.1023 113.468 80.2454C114.33 79.3889 115.346 78.6991 116.487 78.1775C117.613 77.654 118.824 77.3719 120.09 77.3304C121.369 77.2885 122.566 77.4924 123.679 77.9408C124.792 78.3896 125.755 79.0113 126.586 79.8174C127.41 80.616 128.075 81.5715 128.561 82.6761C129.049 83.781 129.285 84.9694 129.271 86.2391C129.257 87.5084 129.001 88.7096 128.492 89.8482C127.985 90.981 127.32 91.9768 126.447 92.8368C125.581 93.6902 124.57 94.3816 123.4 94.8934C122.219 95.4107 120.98 95.6877 119.672 95.7288ZM119.992 81.7671C119.324 81.7894 118.699 81.9405 118.128 82.2206C117.558 82.5008 117.07 82.8619 116.653 83.308C116.236 83.7556 115.902 84.2694 115.652 84.8531C115.401 85.4365 115.248 86.0489 115.234 86.6906C115.221 87.3186 115.304 87.9196 115.527 88.4952C115.749 89.0688 116.055 89.5677 116.459 89.9875C116.862 90.4066 117.334 90.7411 117.891 90.9818C118.46 91.2275 119.102 91.3339 119.755 91.3132C120.437 91.2917 121.062 91.1391 121.634 90.8616C122.216 90.5791 122.715 90.216 123.136 89.7723C123.563 89.3227 123.879 88.8113 124.138 88.2178C124.394 87.6312 124.52 87.0181 124.527 86.392C124.534 85.7488 124.422 85.1411 124.193 84.5757C123.963 84.0072 123.665 83.515 123.261 83.0951C122.859 82.6761 122.37 82.3435 121.815 82.1005C121.258 81.8571 120.66 81.7452 119.992 81.7671ZM143.503 81.5327C141.903 81.5676 140.317 81.6024 138.717 81.6353C138.717 83.8178 138.717 86.0023 138.717 88.1829C138.717 90.3635 138.731 92.5461 138.745 94.7267C137.131 94.7615 135.517 94.7944 133.876 94.8273C133.89 92.647 133.89 90.4645 133.918 88.2839C133.945 86.1033 133.945 83.9188 133.973 81.7362C132.373 81.771 130.76 81.8039 129.16 81.8368C129.063 81.7362 128.965 81.6337 128.854 81.5308C128.882 80.2008 128.909 78.8713 128.937 77.5397C133.876 77.4353 138.828 77.3304 143.781 77.2236C143.795 78.5535 143.809 79.8831 143.823 81.2127C143.711 81.3195 143.614 81.4259 143.503 81.5327ZM154.618 94.5522C154.284 93.7555 153.964 92.9589 153.63 92.1623C151.808 92.1779 149.971 92.1936 148.149 92.2088C147.843 93.0113 147.537 93.8138 147.259 94.614C145.562 94.6297 143.864 94.6434 142.195 94.6571C143.266 91.7495 144.393 88.8379 145.464 85.9307C146.535 83.0235 147.607 80.112 148.65 77.2024C150.013 77.1907 151.377 77.1794 152.74 77.1676C153.853 80.0596 154.988 82.9519 156.135 85.8396C157.283 88.7319 158.458 91.6195 159.668 94.5095C157.985 94.5252 156.301 94.5385 154.618 94.5522ZM150.792 83.531C150.347 85.068 149.888 86.6033 149.443 88.1383C150.375 88.1305 151.307 88.1227 152.253 88.1152C151.752 86.5877 151.265 85.0605 150.792 83.531ZM179.353 94.6625C175.958 94.6242 172.564 94.5831 169.183 94.5424C169.086 91.6426 169.023 88.7429 168.933 85.8435C168.843 82.9437 168.78 80.0439 168.682 77.1445C171.702 77.1809 174.72 77.2181 177.753 77.2549C178.073 77.2588 178.421 77.3061 178.768 77.3906C179.13 77.4783 179.479 77.5992 179.826 77.7628C180.161 77.9208 180.482 78.1063 180.786 78.3227C181.08 78.5324 181.342 78.7707 181.578 79.0266C181.968 79.4801 182.274 79.9841 182.511 80.5405C182.761 81.0945 182.875 81.665 182.914 82.248C182.959 82.9214 182.859 83.5643 182.622 84.1821C182.386 84.7988 182.038 85.3356 181.537 85.793C181.885 86.0062 182.201 86.2676 182.497 86.5666C182.799 86.8721 183.048 87.2036 183.262 87.5608C183.479 87.9243 183.665 88.3015 183.804 88.6986C183.943 89.0958 184.016 89.4816 184.041 89.8557C184.085 90.5126 183.985 91.1351 183.763 91.7225C183.54 92.3094 183.227 92.8141 182.789 93.2574C182.365 93.6867 181.857 94.0384 181.273 94.2924C180.688 94.5463 180.034 94.6704 179.353 94.6625ZM176.487 80.7361C175.444 80.7244 174.414 80.7107 173.371 80.6974C173.412 81.8794 173.454 83.0599 173.51 84.2404C174.553 84.2541 175.597 84.2654 176.668 84.2772C177.141 84.2827 177.548 84.116 177.892 83.7654C178.23 83.4222 178.393 83.0059 178.365 82.5289C178.337 82.0504 178.14 81.6364 177.767 81.2768C177.402 80.9251 176.974 80.7416 176.487 80.7361ZM176.96 87.4407C175.847 87.4289 174.734 87.4152 173.621 87.4019C173.663 88.5766 173.719 89.7492 173.76 90.9219C174.873 90.9352 176 90.9489 177.099 90.9606C177.614 90.9661 178.028 90.7963 178.365 90.4606C178.709 90.1178 178.88 89.7038 178.852 89.2104C178.825 88.7327 178.616 88.3203 178.254 87.9716C177.893 87.6242 177.46 87.4458 176.96 87.4407ZM197.034 94.9904C196.672 94.186 196.311 93.3795 195.949 92.5735C194.127 92.5363 192.277 92.4976 190.44 92.4588C190.162 93.2535 189.925 94.0463 189.661 94.839C187.964 94.8042 186.267 94.7694 184.597 94.7345C185.557 91.8578 186.496 88.9835 187.421 86.1052C188.346 83.2309 189.244 80.3522 190.148 77.4759C191.511 77.5049 192.875 77.5339 194.252 77.5632C195.518 80.4861 196.806 83.4117 198.12 86.3298C199.435 89.2535 200.763 92.174 202.112 95.0949C200.415 95.0601 198.731 95.0253 197.034 94.9904ZM192.638 83.8644C192.263 85.3861 191.887 86.9078 191.511 88.4291C192.444 88.4486 193.376 88.4678 194.322 88.4873C193.751 86.9465 193.181 85.4056 192.638 83.8644ZM214.911 82.5055C213.297 82.4515 211.683 82.3971 210.083 82.3407C210.264 84.5237 210.452 86.7066 210.654 88.8865C210.855 91.0678 211.043 93.2477 211.238 95.4283C209.597 95.3743 207.969 95.3199 206.327 95.2655C206.16 93.0849 205.993 90.9043 205.813 88.7237C205.632 86.5431 205.479 84.3625 205.326 82.1803C203.698 82.1259 202.098 82.0715 200.498 82.0152C200.387 81.9088 200.262 81.8 200.151 81.6916C200.053 80.362 199.956 79.0321 199.872 77.7025C204.839 77.8731 209.805 78.0437 214.786 78.2143C214.911 79.5439 215.05 80.8738 215.189 82.2014C215.078 82.304 214.994 82.4049 214.911 82.5055ZM232.231 89.9429C232.327 90.7356 232.28 91.4744 232.091 92.1662C231.904 92.8544 231.591 93.4636 231.159 94.0193C230.742 94.5553 230.239 95.026 229.615 95.4111C229.001 95.7894 228.308 96.0798 227.556 96.2695C227.223 96.3587 226.888 96.4256 226.541 96.4691C226.179 96.5145 225.831 96.5274 225.47 96.5117C225.122 96.4969 224.773 96.4538 224.398 96.3763C224.05 96.3043 223.703 96.2057 223.341 96.0852C222.548 95.8278 221.773 95.4725 221.087 95.0389C220.382 94.5925 219.749 94.0881 219.209 93.4957C218.677 92.9116 218.249 92.2573 217.916 91.544C217.581 90.8292 217.379 90.0775 217.303 89.286C217.129 87.4512 216.969 85.613 216.803 83.7771C216.636 81.942 216.455 80.1042 216.302 78.2667C217.93 78.3403 219.543 78.4142 221.157 78.4858C221.352 80.2748 221.533 82.0625 221.713 83.8511C221.894 85.6365 222.066 87.4282 222.242 89.214C222.274 89.5426 222.387 89.8447 222.548 90.1292C222.707 90.4089 222.909 90.659 223.16 90.8714C223.41 91.0831 223.69 91.2482 224.009 91.3754C224.316 91.4983 224.635 91.5706 224.955 91.5847C225.302 91.5996 225.609 91.5577 225.901 91.4587C226.193 91.3597 226.436 91.222 226.652 91.0244C226.854 90.8401 227.013 90.6018 227.125 90.3307C227.236 90.0611 227.259 89.7633 227.223 89.4331C227.023 87.6469 226.84 85.8564 226.638 84.0698C226.436 82.282 226.248 80.4939 226.04 78.7046C227.668 78.7785 229.295 78.8521 230.923 78.9237C231.131 80.7611 231.327 82.6005 231.549 84.4345C231.772 86.2715 232.007 88.1074 232.231 89.9429Z" fill="white"/>
<defs>
<linearGradient id="paint0_linear_77_1712" x1="135.929" y1="78.0048" x2="135.929" y2="46.3318" gradientUnits="userSpaceOnUse">
<stop stop-color="white"/>
<stop offset="0.341176" stop-color="white" stop-opacity="0.501961"/>
<stop offset="1" stop-color="white" stop-opacity="0"/>
</linearGradient>
</defs>
</svg>
