<svg width="312" height="115" viewBox="0 0 312 115" fill="none" xmlns="http://www.w3.org/2000/svg">
<g clip-path="url(#clip0_32_240)">
<path fill-rule="evenodd" clip-rule="evenodd" d="M253.512 16.2433L255.162 14.7003C257.866 12.1745 260.551 9.63545 263.233 7.08748L265.799 4.65067L269.32 4.93526C277.667 5.62006 286.004 6.36711 294.342 7.14529L300.421 7.71002L301.403 13.7353C302.871 22.6955 304.365 31.6512 305.828 40.6113C307.295 49.5715 308.785 58.5272 310.279 67.4829L312 77.826L260.52 90.5258L253.543 89.7254L253.277 89.6943L253.01 89.6676L252.743 89.6365L252.476 89.6054L252.209 89.5742L251.943 89.5431L251.676 89.512L251.409 89.4808L251.142 89.4542L250.875 89.423L250.609 89.3919L250.342 89.3608L250.075 89.3297L249.808 89.2985L249.541 89.2674L249.274 89.2407L249.008 89.2096L248.741 89.1785L248.474 89.1473L248.207 89.1162L247.94 89.0851L247.678 89.0584L247.411 89.0273L247.145 88.9961L246.878 88.965L246.611 88.9339L246.344 88.9028L246.077 88.8761L245.811 88.845L245.544 88.8138L245.277 88.7827L245.01 88.7516L240.981 88.298L240.977 88.2891L237.753 87.9734L237.504 87.9512L237.255 87.9245L237.006 87.9023L236.757 87.88L236.504 87.8533L236.254 87.8311L236.005 87.8044L235.756 87.7822L235.507 87.7555L235.258 87.7333L235.009 87.7066L234.756 87.6844L234.507 87.6577L234.258 87.6355L234.009 87.6088L233.76 87.5821L233.511 87.5599L233.257 87.5332L233.008 87.5109L232.759 87.4843L232.51 87.462L232.261 87.4353L232.012 87.4131L231.759 87.3864L231.51 87.3642L231.261 87.3375L231.012 87.3108L230.763 87.2886L230.514 87.2619L230.26 87.2397L230.011 87.213L229.762 87.1908L225.889 86.8662L225.413 86.8262L224.933 86.7861L224.453 86.7461L223.977 86.7061L223.497 86.6661L223.017 86.6305L222.541 86.5905L222.061 86.5505L221.58 86.5104L221.1 86.4749L220.624 86.4348L220.144 86.3993L219.664 86.3592L219.188 86.3237L218.708 86.2881L218.227 86.2481L217.752 86.2125L217.271 86.1769L216.791 86.1414L216.311 86.1058L215.835 86.0702L215.355 86.0346L214.875 85.9991L214.399 85.9635L213.919 85.9279L213.438 85.8968L212.958 85.8612L212.482 85.8256L212.002 85.7945L211.522 85.7589L211.042 85.7278L210.561 85.6922L206.693 85.4299L206.221 85.4032L205.75 85.3765L205.274 85.3498L204.803 85.3232L204.331 85.2965L203.86 85.2698L203.384 85.2431L202.913 85.2164L202.442 85.1898L201.966 85.1675L201.494 85.1408L201.023 85.1142L200.552 85.0875L200.076 85.0652L199.605 85.0386L199.133 85.0163L198.657 84.9897L198.186 84.9674L197.715 84.9407L197.243 84.9185L196.768 84.8918L196.296 84.8696L195.825 84.8474L195.349 84.8207L194.878 84.7984L194.406 84.7762L193.931 84.754L193.459 84.7273L192.988 84.7051L192.517 84.6828L192.041 84.6606L191.569 84.6384L191.334 84.625L187.905 84.5005L187.643 84.4916L187.381 84.4827L187.118 84.4738L186.86 84.4649L186.598 84.4516L186.336 84.4427L186.073 84.4338L185.811 84.4249L185.553 84.416L185.291 84.4071L185.028 84.3982L184.766 84.3849L184.508 84.376L184.246 84.3671L183.983 84.3582L183.721 84.3493L183.459 84.3404L183.201 84.3315L182.938 84.3226L182.676 84.3138L182.414 84.3049L182.151 84.296L181.893 84.2871L181.631 84.2782L181.369 84.2693L181.106 84.2604L180.848 84.2515L180.586 84.2426L180.324 84.2337L180.061 84.2248L179.799 84.2159L179.541 84.2115L174.605 84.0647L170.519 84.0114L170.101 84.0069L169.687 84.0025L169.269 83.998L168.855 83.9936L168.437 83.9891L168.024 83.9847L167.606 83.9802L167.192 83.9758L166.774 83.9714L166.356 83.9669L165.943 83.9625L165.525 83.958L165.111 83.9536L164.693 83.9491H164.28L163.862 83.9447L163.444 83.9402L163.03 83.9358H162.612L162.199 83.9313L161.781 83.9269L161.367 83.9224H160.949L160.536 83.918L160.118 83.9135H159.7L159.286 83.9091H158.868L158.455 83.9047L158.037 83.9002H157.623L157.205 83.8958L152.736 83.8691L152.016 79.4535L151.971 79.1822L151.927 78.911L151.882 78.6353L151.838 78.364L151.793 78.0883L151.749 77.8171L151.709 77.5458L151.664 77.2701L151.62 76.9989L151.576 76.7276L151.531 76.4519L151.491 76.1807L151.447 75.905L151.402 75.6337L151.362 75.3625L151.318 75.0868L151.273 74.8155L151.233 74.5398L151.189 74.2686L151.149 73.9929L151.104 73.7217L151.064 73.4504L151.024 73.1747L150.98 72.9035L150.94 72.6278L150.895 72.3565L150.855 72.0808L150.815 71.8096L150.775 71.5339L150.731 71.2626L150.691 70.9869L150.651 70.7157L150.611 70.4444L150.566 70.1732L150.526 69.8975L150.486 69.6262L150.446 69.355L150.406 69.0837L150.362 68.8125L150.322 68.5368L150.282 68.2655L150.241 67.9943L150.197 67.723L150.157 67.4518L150.117 67.1761L150.077 66.9048L150.033 66.6336L149.992 66.3623L149.952 66.0911L149.912 65.8198L149.868 65.5441L149.828 65.2729L149.788 65.0016L149.748 64.7304L149.708 64.4591L149.668 64.1834L149.628 63.9122L149.588 63.6409L149.548 63.3697L149.508 63.094L149.468 62.8227L149.428 62.5515L149.388 62.2802L149.348 62.0045L149.321 61.8089L149.294 61.6132L149.268 61.4176L149.237 61.2219L149.21 61.0263L149.183 60.8306L149.152 60.6349L149.125 60.4393L149.099 60.2436L149.072 60.0435L149.041 59.8479L149.014 59.6522L148.988 59.4566L148.956 59.2609L148.93 59.0652L148.903 58.8696L148.876 58.6739L148.845 58.4783L148.819 58.2782L148.792 58.0825L148.765 57.8869L148.739 57.6912L148.707 57.4956L148.681 57.2999L148.654 57.1042L148.627 56.9086L148.601 56.7129L148.57 56.5173L148.543 56.3172L148.516 56.1215L148.489 55.9259L148.463 55.7302L148.458 55.9125L148.449 56.0904L148.445 56.2727L148.441 56.4506L148.436 56.6329L148.432 56.8152L148.427 56.9931L148.418 57.1754L148.414 57.3533L148.409 57.5356L148.405 57.7134L148.401 57.8958L148.396 58.0781L148.387 58.2559L148.383 58.4383L148.378 58.6161L148.374 58.7984L148.369 58.9763L148.365 59.1586L148.361 59.3409L148.356 59.5188L148.347 59.7011L148.343 59.879L148.338 60.0613L148.334 60.2392L148.329 60.4215L148.325 60.6038L148.321 60.7817L148.316 60.964L148.307 61.1419L148.303 61.3242L148.298 61.5021L148.285 62.049L148.272 62.5915L148.254 63.134L148.24 63.6765L148.227 64.219L148.209 64.7615L148.196 65.304L148.183 65.8465L148.165 66.389L148.152 66.9315L148.138 67.474L148.125 68.021L148.107 68.5635L148.094 69.106L148.08 69.6484L148.063 70.191L148.049 70.7335L148.036 71.276L148.018 71.8185L148.005 72.361L147.991 72.9035L147.974 73.446L147.96 73.9929L147.947 74.5354L147.929 75.0779L147.916 75.6204L147.903 76.1629L147.889 76.7054L147.871 77.2479L147.858 77.7904L147.845 78.3329L147.827 78.8754L147.694 83.8913L142.678 84.0247L142.433 84.0292L142.188 84.0381L141.944 84.0425L141.699 84.0514L141.455 84.0558L141.21 84.0603L140.966 84.0692L140.721 84.0736L140.476 84.0781L140.232 84.087L139.987 84.0914L139.743 84.0959L139.498 84.1048L139.254 84.1092L139.009 84.1136L138.764 84.1225L138.52 84.127L138.275 84.1314L138.031 84.1359L137.786 84.1448L137.542 84.1492L137.297 84.1537L137.053 84.1581L136.808 84.167L136.563 84.1715L136.319 84.1759L136.074 84.1848L135.83 84.1892L135.585 84.1937L135.341 84.1981L135.096 84.207L134.851 84.2115L132.335 84.2693L132.33 84.2782L128.639 84.4027H128.564L128.488 84.4071H128.413L128.337 84.4116H128.257L128.181 84.416L128.106 84.4205H128.03L127.95 84.4249H127.874L127.799 84.4294L127.723 84.4338H127.648L127.568 84.4383L127.492 84.4427H127.416L127.341 84.4472L127.261 84.4516H127.185L127.11 84.456L127.034 84.4605H126.958L126.878 84.4649L126.803 84.4694H126.727L126.652 84.4738L126.572 84.4783H126.496L126.42 84.4827L126.345 84.4872H126.265L126.189 84.4916L121.84 84.6739L121.805 84.6384L119.933 84.7317L119.688 84.7406L119.443 84.754L119.199 84.7673L118.959 84.7807L118.714 84.7896L118.47 84.8029L118.225 84.8162L117.981 84.8296L117.736 84.8385L117.491 84.8518L117.247 84.8651L117.007 84.8785L116.762 84.8918L116.518 84.9052L116.273 84.9141L116.028 84.9274L115.784 84.9407L115.539 84.9541L115.295 84.9674L115.05 84.9763L114.81 84.9897L114.565 85.003L114.321 85.0163L114.076 85.0297L113.832 85.043L113.587 85.0519L113.343 85.0652L113.098 85.0786L112.853 85.0919L112.613 85.1008L112.369 85.1142L112.124 85.1275L109.447 85.2609L108.456 85.3232L108.189 85.3409L107.926 85.3543L107.664 85.3721L107.397 85.3899L107.135 85.4076L106.873 85.421L106.606 85.4388L106.343 85.4566L106.081 85.4743L105.814 85.4921L105.552 85.5055L105.285 85.5233L105.023 85.5411L104.76 85.5588L104.494 85.5766L104.231 85.5944L103.969 85.6122L103.702 85.63L103.44 85.6478L103.177 85.6611L102.911 85.6833L102.648 85.6967L102.381 85.7145L102.119 85.7323L101.857 85.75L101.59 85.7678L101.328 85.7856L101.065 85.8034L100.798 85.8212L100.536 85.839L100.274 85.8612L100.007 85.879L94.8353 86.2303L92.7987 86.3948L92.5319 86.417L92.2695 86.4393L92.0027 86.4615L91.7359 86.4838L91.4691 86.5015L91.2068 86.5238L90.94 86.546L90.6732 86.5682L90.4064 86.5905L90.144 86.6127L89.8772 86.6349L89.6104 86.6527L89.3436 86.675L89.0812 86.6972L88.8144 86.7194L88.5476 86.7417L88.2808 86.7639L88.0185 86.7817L87.7517 86.8039L87.4849 86.8262L87.2181 86.8484L86.9557 86.8706L86.6889 86.8929L86.4221 86.9106L86.1553 86.9329L85.8929 86.9551L85.6261 86.9773L85.3593 86.9996L85.0925 87.0218L84.8302 87.044L84.5634 87.0618L84.2966 87.0841L82.9714 87.1908L80.6903 87.4131L79.9921 87.4843L79.2984 87.551L78.6003 87.6177L77.9066 87.6888L77.2085 87.7555L76.5148 87.8267L75.8167 87.8978L75.123 87.969L74.4293 88.0357L73.7311 88.1068L73.0375 88.178L72.3393 88.2491L71.6456 88.3203L70.9519 88.3958L70.2538 88.467L69.5601 88.5381L68.862 88.6137L68.1683 88.6849L67.4746 88.756L66.7765 88.8316L66.0828 88.9072L65.3891 88.9784L64.691 89.054L63.9973 89.1296L63.3036 89.2007L62.6054 89.2763L61.9118 89.3519L61.2181 89.4275L60.5199 89.5031L59.8262 89.5787L59.1325 89.6543L58.4344 89.7299L51.4797 90.4903L0 77.7726L1.73422 67.474C2.20113 64.677 2.69916 61.8889 3.16607 59.0964C3.64187 56.2727 4.14435 53.4535 4.64683 50.6343L5.68736 44.7868L11.5926 44.1643C11.9306 44.1287 12.273 44.0931 12.6109 44.0576C12.0995 43.7107 11.5882 43.3639 11.0768 43.0215L6.84796 40.1622L7.71507 35.1374C8.32872 31.5534 8.94236 27.9649 9.56046 24.3808C10.1786 20.7789 10.7966 17.1727 11.4459 13.5708L12.5086 7.65221L18.4939 7.10082C28.6947 6.15811 38.9088 5.28656 49.123 4.47725L58.8746 3.70352L59.8084 4.78852L61.1469 3.5968L63.8683 3.42338C71.5923 2.93868 79.3207 2.49401 87.0491 2.08491V2.06713L88.8411 1.99153L97.8102 1.52018L97.8502 1.59577C101.163 1.45348 104.476 1.32008 107.793 1.20446L114.25 0.968786L116.171 6.28262L116.233 6.09586L118.012 0.835384L123.561 0.724216C128.11 0.635281 132.664 0.546347 137.213 0.452966L145.519 0.288437L145.532 0.399605L150.21 0.350691C154.368 0.306224 158.526 0.337351 162.683 0.368478L164.987 0.386265L164.996 0.315117L172.177 0.421839C175.17 0.466306 178.162 0.519667 181.155 0.577474L181.164 0.524113L189.568 0.733109C189.84 0.742003 190.111 0.74645 190.387 0.755343L192.975 0.804257L192.97 0.826491C194.664 0.875405 196.358 0.928765 198.048 0.982126L198.066 0.933212L205.639 1.2178L208.703 1.31118L208.707 1.33342C211.998 1.45793 215.288 1.59577 218.579 1.74252L224.431 2.00487L224.444 1.97819L233.595 2.50735C237.575 2.73858 241.555 2.96537 245.535 3.21883L252.205 3.64127L252.894 10.2891C253.099 12.2768 253.308 14.26 253.512 16.2433Z" fill="#242F5C"/>
<path d="M285.524 39.6108C285.173 37.0139 284.804 34.4171 284.408 31.8291C284.012 29.2277 283.617 26.6353 283.239 24.0428C279.721 23.7227 276.266 23.4114 272.864 23.1224C273.189 25.7015 273.571 28.285 273.892 30.8597C274.216 33.4432 274.594 36.0268 274.945 38.6059C278.463 38.9216 282.007 39.2551 285.524 39.6108ZM42.8308 65.3173C31.7274 66.3934 20.655 67.5629 9.52043 68.7813C9.99178 65.9932 10.4898 63.1963 10.9567 60.4037C11.4281 57.6112 11.9261 54.8142 12.4241 52.0172C16.5551 51.5814 20.744 51.1412 24.875 50.7054C24.5504 52.8799 24.1991 55.0543 23.8211 57.2288C26.3958 56.9397 29.0327 56.664 31.6696 56.4283C32.1098 53.6002 32.55 50.7721 32.9013 47.9529C29.9709 46.023 27.0138 44.1287 24.1101 42.2211C21.2109 40.3179 18.3427 38.3924 15.4968 36.4759C16.1149 32.8918 16.7286 29.2989 17.3467 25.7193C17.9603 22.1396 18.574 18.5556 19.2187 14.9671C29.384 14.0288 39.5803 13.1573 49.7455 12.3524C49.3942 14.9804 49.0563 17.6129 48.6916 20.2276C48.3226 22.8511 47.9579 25.4791 47.6378 28.1027C43.8847 28.4095 40.2562 28.7252 36.561 29.0454C36.8545 27.1644 37.1479 25.279 37.4414 23.3892C34.8356 23.6115 32.1409 23.8472 29.5618 24.0829C29.1527 26.4041 28.8014 28.7297 28.419 31.0509C34.2487 34.9151 40.0783 38.7837 45.9391 42.6213C45.41 46.4054 44.8541 50.1896 44.3561 53.9693C43.858 57.7446 43.3289 61.5287 42.8308 65.3173ZM74.6472 35.7911C74.914 33.2387 75.1763 30.6863 75.4387 28.1383C75.701 25.5948 75.9678 23.0423 76.2302 20.4944C72.8018 20.6989 69.3734 20.8901 65.9494 21.1169C65.6559 23.6782 65.3179 26.2351 65.0378 28.7964C64.7621 31.3488 64.482 33.9057 64.1885 36.4759C67.6747 36.2313 71.1343 36.0001 74.6472 35.7911ZM61.0268 63.7832C56.8069 64.1301 52.587 64.468 48.3403 64.8149C49.2786 57.3977 50.2747 49.9761 51.2129 42.5679C52.1512 35.1552 53.1428 27.7381 54.1122 20.3209C57.5984 17.3105 60.9957 14.309 64.3663 11.3074C72.6284 10.7872 80.8592 10.3202 89.1479 9.88447C88.77 14.2467 88.3564 18.6089 87.9784 22.9578C87.596 27.3201 87.2181 31.6779 86.8356 36.0312C86.4532 40.389 86.0441 44.7512 85.6617 49.1135C85.2837 53.4668 84.9013 57.8246 84.55 62.1735C80.3301 62.4314 76.0835 62.716 71.8946 63.0006C72.1881 60.1325 72.5083 57.2554 72.8018 54.3828C73.0953 51.5192 73.3576 48.6288 73.6511 45.7562C70.0759 45.9785 66.5319 46.2098 63.019 46.4766C62.6677 49.358 62.3164 52.2484 61.9918 55.1343C61.6716 58.0158 61.347 60.9062 61.0268 63.7832ZM123.721 8.62605C128.261 8.53267 132.801 8.44373 137.373 8.35035C137.106 17.0037 136.844 25.6526 136.608 34.2925C136.377 42.937 136.141 51.5814 135.905 60.2214C132.01 60.3237 128.115 60.4082 124.246 60.5015C124.45 55.1077 124.686 49.7227 124.891 44.3377C125.095 38.9527 125.358 33.5677 125.593 28.1739C123.868 33.59 122.076 39.0283 120.293 44.4711C118.501 49.9228 116.686 55.3745 114.903 60.7861C113.64 60.8261 112.351 60.8751 111.181 60.924C109.892 55.5612 108.633 50.2518 107.46 44.9202C106.29 39.593 105.147 34.2436 104.031 28.8542C103.653 34.2303 103.24 39.6553 102.862 45.0714C102.479 50.4875 102.097 55.8947 101.777 61.2842C97.8813 61.4754 93.9815 61.6799 90.1173 61.8756C90.4686 57.5267 90.8199 53.1778 91.1712 48.8244C91.5225 44.4755 91.9316 40.1311 92.2829 35.7733C92.6342 31.4244 92.9855 27.0711 93.3101 22.7222C93.6302 18.3644 94.0127 14.011 94.3639 9.65324C98.904 9.45314 103.506 9.26193 108.073 9.0974C109.1 13.3751 110.141 17.6618 111.181 21.9262C112.222 26.204 113.347 30.4773 114.463 34.7283C116.015 30.3839 117.598 26.0172 119.119 21.6683C120.644 17.3194 122.254 12.9616 123.721 8.62605ZM172.057 8.32367C176.041 8.38148 180.083 8.45263 184.13 8.53267C183.632 12.846 183.103 17.1549 182.605 21.4637C182.107 25.7682 181.578 30.0815 181.053 34.3859C180.524 38.6859 179.941 42.9992 179.412 47.2992C178.883 51.5947 178.327 55.9036 177.771 60.2036C171.15 60.1191 164.471 60.0702 157.85 60.0302C157.147 55.7124 156.471 51.3991 155.827 47.0858C155.182 42.7724 154.51 38.4547 153.892 34.1414C153.279 29.828 152.665 25.5147 152.078 21.2014C151.491 16.8881 150.877 12.5703 150.29 8.24808C154.421 8.20806 158.495 8.23474 162.626 8.26586C163.444 14.9048 164.324 21.5482 165.142 28.1872C165.965 34.8262 166.846 41.4651 167.695 48.1041C168.397 41.4785 169.158 34.8439 169.86 28.2183C170.563 21.5883 171.328 14.9537 172.057 8.32367ZM203.375 51.0745C203.58 54.3651 203.727 57.6512 203.905 60.9373C199.716 60.7861 195.496 60.6216 191.365 60.5015C191.014 51.8571 190.662 43.2127 190.338 34.5727C190.017 25.9327 189.693 17.2749 189.373 8.63049C193.299 8.72832 197.252 8.86172 201.179 8.98179C201.53 16.0032 201.912 23.0112 202.264 30.0281C202.615 37.0451 202.993 44.0576 203.375 51.0745ZM209.467 61.1419C208.943 52.4797 208.445 43.8085 207.947 35.1463C207.449 26.4841 206.951 17.813 206.453 9.15076C210.348 9.2975 214.274 9.46203 218.227 9.63545C218.726 16.6746 219.286 23.7138 219.784 30.753C220.282 37.7966 220.838 44.8357 221.362 51.8749C224.702 52.0483 228.13 52.2128 231.559 52.4352C231.821 55.7391 232.115 59.0519 232.408 62.3469C224.733 61.8978 217.116 61.5109 209.467 61.1419ZM237.975 62.7293C237.153 54.0049 236.335 45.276 235.543 36.5515C234.752 27.8359 233.933 19.1114 233.142 10.3914C237.126 10.6226 241.11 10.8539 245.037 11.1029C245.766 18.191 246.531 25.2701 247.26 32.3671C247.994 39.4552 248.785 46.5566 249.546 53.6491C252.943 53.9204 256.429 54.205 259.8 54.4807C260.209 57.8113 260.591 61.1597 260.974 64.4858C253.299 63.8455 245.619 63.2496 237.975 62.7293ZM278.783 66.1533C274.536 65.7398 270.316 65.3218 266.101 64.9038C265.163 57.4956 264.224 50.0873 263.317 42.6791C262.41 35.2664 261.472 27.8715 260.56 20.4677C263.286 17.9197 265.981 15.3717 268.676 12.8104C276.969 13.4908 285.289 14.2334 293.608 15.0115C295.071 23.9717 296.565 32.923 298.033 41.8831C299.496 50.8433 300.99 59.8079 302.484 68.7813C298.206 68.2922 293.96 67.8075 289.74 67.3273C289.304 64.428 288.864 61.4709 288.423 58.5183C287.983 55.5746 287.516 52.6308 287.018 49.7494C283.443 49.3714 279.868 49.0201 276.324 48.6866C276.733 51.5992 277.142 54.5207 277.556 57.4289C277.965 60.337 278.374 63.2452 278.783 66.1533Z" fill="white"/>
<path fill-rule="evenodd" clip-rule="evenodd" d="M13.7715 53.4668C13.3446 55.8636 12.9177 58.2648 12.5175 60.6661C12.1618 62.7738 11.7927 64.8771 11.4325 66.9849C21.4243 65.8954 31.425 64.846 41.4301 63.8677C41.8793 60.4971 42.3462 57.1309 42.7908 53.7648C43.2444 50.3052 43.7469 46.8501 44.236 43.395L43.5557 42.9503C39.0067 43.3594 34.5288 43.7907 30.1177 44.2488C31.3405 45.0403 32.5589 45.8362 33.7729 46.6367L34.5911 47.1747L34.471 48.1485C34.1153 50.9989 33.6706 53.8359 33.2304 56.6729L33.0436 57.8913L31.8119 58.0025C29.2016 58.2382 26.6003 58.505 23.9945 58.7984L21.9001 59.0341L22.2647 56.9575C22.5227 55.4723 22.7717 53.9826 23.0029 52.4885C19.9258 52.8176 16.8486 53.1422 13.7715 53.4668ZM156.08 38.1567C159.006 38.1567 161.919 38.1656 164.818 38.1879C165.254 41.5585 165.694 44.9336 166.125 48.3042L166.303 49.7004L169.118 49.6693L169.265 48.273C169.62 44.9247 169.989 41.5763 170.358 38.2279C173.24 38.259 176.104 38.299 178.958 38.348C178.585 41.265 178.202 44.1865 177.842 47.108C177.371 50.9411 176.882 54.7742 176.384 58.6072C170.656 58.5361 164.925 58.4961 159.197 58.456C158.57 54.5918 157.97 50.7232 157.392 46.8545C156.956 43.9553 156.511 41.056 156.08 38.1567ZM192.072 38.6237C195.109 38.7037 198.128 38.7971 201.134 38.8949C201.343 42.9859 201.566 47.0724 201.797 51.1634C201.952 53.8715 202.09 56.584 202.233 59.2965C199.115 59.1809 195.998 59.0652 192.886 58.9674C192.61 52.1862 192.334 45.4049 192.072 38.6237ZM209.761 39.2062C212.811 39.3262 215.835 39.4596 218.846 39.5975C219.161 43.7285 219.477 47.8595 219.788 51.9905L219.891 53.3779L221.282 53.4535C224.217 53.6047 227.156 53.747 230.096 53.9293C230.278 56.1749 230.474 58.4205 230.674 60.6661C224.106 60.2881 217.534 59.9546 210.962 59.6344C210.548 52.8265 210.152 46.0141 209.761 39.2062ZM237.5 40.6113C240.559 40.7981 243.596 41.0027 246.611 41.2116C247.064 45.4138 247.522 49.616 247.976 53.8181L248.114 55.121L249.421 55.2233C252.409 55.4634 255.398 55.708 258.39 55.9481C258.662 58.2159 258.924 60.4838 259.182 62.7516C252.601 62.2091 246.011 61.7022 239.421 61.2441C238.776 54.3695 238.131 47.4904 237.5 40.6113ZM264.905 42.639C276.048 43.5995 286.8 44.7068 297.095 45.9474C298.251 52.9554 299.416 59.9635 300.581 66.976C297.428 66.6113 294.275 66.2512 291.123 65.8954C290.74 63.3608 290.362 60.8217 289.984 58.2871C289.548 55.3478 289.082 52.4085 288.575 49.4781L288.37 48.2997L287.183 48.1752C283.612 47.8017 280.041 47.4504 276.471 47.1124L274.479 46.9257L274.759 48.9089C275.168 51.8215 275.577 54.7341 275.99 57.6512C276.306 59.8968 276.622 62.1424 276.938 64.388C273.794 64.0812 270.65 63.7699 267.511 63.4586C266.63 56.5173 265.754 49.5804 264.905 42.639ZM52.8582 42.1544C63.2235 41.3139 73.9224 40.598 84.8924 40.011C84.6256 42.9992 84.3499 45.9874 84.0876 48.9756C83.7496 52.8754 83.4072 56.7752 83.087 60.6794C79.9432 60.8795 76.7994 61.0885 73.66 61.2975C73.8957 59.0475 74.1447 56.7974 74.3759 54.5429C74.6694 51.6659 74.9318 48.7889 75.2252 45.9163L75.412 44.062L73.5533 44.1776C70.0003 44.3999 66.4474 44.6312 62.8989 44.9024L61.6049 45.0003L61.4493 46.2854C61.098 49.1757 60.7467 52.0661 60.4221 54.9565C60.1464 57.4111 59.8751 59.8612 59.5994 62.3158C56.4512 62.5737 53.3029 62.8272 50.1546 63.0806C51.0173 56.3083 51.92 49.5404 52.7782 42.768L52.8582 42.1544ZM93.5502 39.5797C96.2494 39.4552 98.9619 39.3351 101.697 39.224C101.559 41.1361 101.421 43.0481 101.283 44.9602C100.936 49.8961 100.589 54.8364 100.287 59.7767C97.4678 59.919 94.653 60.0658 91.8382 60.2081C92.1406 56.455 92.443 52.7064 92.7453 48.9534C92.9988 45.8273 93.2789 42.7057 93.5502 39.5797ZM107.789 38.9972C109.816 38.926 111.853 38.8593 113.894 38.7971L114.227 40.0777L114.694 38.7704C116.638 38.7126 118.594 38.6592 120.551 38.6103C119.964 40.3979 119.377 42.1899 118.79 43.9775C117.118 49.069 115.428 54.1561 113.747 59.2431C113.303 59.2609 112.858 59.2787 112.413 59.292C111.239 54.3962 110.083 49.4959 109.003 44.5778C108.593 42.7191 108.189 40.8604 107.789 38.9972ZM126.714 38.468C129.44 38.4102 132.174 38.3568 134.918 38.3124L134.367 58.6828C131.543 58.754 128.715 58.8162 125.891 58.8829C126.078 54.0538 126.287 49.2246 126.469 44.3955C126.545 42.4212 126.629 40.4424 126.714 38.468Z" fill="url(#paint0_linear_32_240)"/>
<path fill-rule="evenodd" clip-rule="evenodd" d="M91.4558 106.076L99.6111 111.879L55.6152 114.712L45.9124 71.2404L68.1994 68.9592L68.4084 64.6815L74.0558 64.2323C81.7575 63.6231 89.5304 63.2318 97.2499 62.8716C116.633 61.969 136.065 61.5332 155.471 61.5332C175.846 61.5332 196.238 62.0312 216.591 62.9294C225.276 63.3163 234 63.7387 242.671 64.3524L248.318 64.7482L248.527 68.39L271.112 70.7023L261.414 114.174L217.414 111.341L225.075 105.889C222.003 105.76 218.93 105.64 215.857 105.52C195.26 104.733 174.623 104.253 154.008 104.253C134.923 104.253 115.811 104.764 96.7474 105.783C94.9865 105.876 93.2211 105.974 91.4558 106.076Z" fill="#242F5C"/>
<path fill-rule="evenodd" clip-rule="evenodd" d="M240.99 74.0907L263.255 76.3674L256.331 107.397L235.908 106.085L243.925 100.38L240.99 74.0907Z" fill="#0077C0"/>
<path fill-rule="evenodd" clip-rule="evenodd" d="M240.99 74.0907L261.018 76.1407L246.282 106.752L235.908 106.085L243.925 100.38L240.99 74.0907Z" fill="#0D5395"/>
<path fill-rule="evenodd" clip-rule="evenodd" d="M76.0346 74.6243L53.7698 76.9055L60.6978 107.935L81.1216 106.619L73.0997 100.913L76.0346 74.6243Z" fill="#0077C0"/>
<path fill-rule="evenodd" clip-rule="evenodd" d="M76.0346 74.6243L56.0065 76.6743L70.7429 107.29L81.1216 106.619L73.0997 100.913L76.0346 74.6243Z" fill="#0D5395"/>
<path fill-rule="evenodd" clip-rule="evenodd" d="M73.0997 100.913C73.0997 100.913 107.953 97.8185 154.008 97.8185C200.063 97.8185 243.925 100.38 243.925 100.38L242.222 70.769C242.222 70.769 202.379 67.9676 155.471 67.9676C108.562 67.9676 74.5627 70.649 74.5627 70.649L73.0997 100.913Z" fill="#0077C0"/>
<path d="M101.003 83.4511C102.066 84.8696 103.142 86.2881 104.227 87.7022C105.316 89.1162 106.419 90.5347 107.535 91.9488C105.654 92.0333 103.76 92.1133 101.879 92.1933C101.11 91.2951 100.34 90.3969 99.5933 89.4942C98.8507 88.596 98.0992 87.6888 97.3744 86.7906C97.321 87.7244 97.2588 88.6626 97.2143 89.5965C97.1654 90.5303 97.1343 91.4685 97.1076 92.4023C95.5068 92.4735 93.9104 92.5446 92.3096 92.6113C92.4697 89.8321 92.6164 87.0485 92.7943 84.2693C92.9677 81.4856 93.1278 78.702 93.3056 75.9228C94.8353 75.8516 96.3694 75.7805 97.9124 75.7138C97.8591 76.6476 97.8102 77.5859 97.7657 78.5197C97.7168 79.4579 97.659 80.3917 97.6456 81.3256C98.4505 80.3562 99.282 79.3868 100.091 78.4174C100.896 77.448 101.714 76.4742 102.537 75.5048C104.405 75.4203 106.312 75.3358 108.207 75.2469C107.01 76.6165 105.814 77.9861 104.618 79.3512C103.422 80.7164 102.199 82.0859 101.003 83.4511ZM115.597 92.22C114.308 92.2601 113.111 92.0733 111.995 91.6464C110.892 91.224 109.954 90.6237 109.132 89.8544C108.34 89.0851 107.722 88.1646 107.291 87.1107C106.859 86.0435 106.655 84.9052 106.699 83.6868C106.748 82.4684 107.055 81.3167 107.575 80.2228C108.091 79.1333 108.771 78.1728 109.603 77.3502C110.439 76.5275 111.417 75.865 112.52 75.3669C113.609 74.8645 114.779 74.5932 116.002 74.5532C117.238 74.5132 118.394 74.7088 119.466 75.1402C120.542 75.5715 121.471 76.1674 122.276 76.9411C123.072 77.7059 123.712 78.6264 124.184 79.6847C124.655 80.7475 124.882 81.8903 124.868 83.1087C124.855 84.3271 124.606 85.4788 124.117 86.5727C123.628 87.6621 122.983 88.6182 122.143 89.4453C121.307 90.2635 120.328 90.926 119.199 91.4196C118.056 91.9132 116.86 92.18 115.597 92.22ZM115.904 78.8132C115.259 78.8354 114.654 78.9777 114.103 79.2489C113.556 79.5157 113.085 79.8626 112.68 80.2939C112.275 80.7208 111.955 81.2144 111.715 81.7747C111.471 82.335 111.324 82.9264 111.31 83.54C111.297 84.1448 111.377 84.7229 111.591 85.2742C111.808 85.8256 112.102 86.3059 112.493 86.7061C112.88 87.1107 113.338 87.4309 113.876 87.6621C114.428 87.8978 115.046 88.0001 115.677 87.9823C116.335 87.9601 116.94 87.8133 117.491 87.5465C118.056 87.2753 118.536 86.9284 118.941 86.5015C119.355 86.0702 119.661 85.5766 119.91 85.0074C120.159 84.4427 120.279 83.8557 120.288 83.2554C120.293 82.6373 120.186 82.0548 119.964 81.5123C119.741 80.9654 119.452 80.4896 119.066 80.0894C118.674 79.6847 118.203 79.369 117.665 79.1333C117.127 78.8976 116.549 78.7909 115.904 78.8132ZM138.618 78.5864C137.07 78.6219 135.541 78.6531 133.993 78.6842C133.993 80.7831 133.993 82.8819 133.993 84.9763C133.993 87.0707 134.007 89.1651 134.02 91.2595C132.463 91.2907 130.903 91.3218 129.315 91.3574C129.329 89.263 129.329 87.1641 129.355 85.0697C129.382 82.9753 129.382 80.8809 129.409 78.782C127.866 78.8176 126.305 78.8487 124.762 78.8799C124.668 78.782 124.575 78.6842 124.464 78.5864C124.491 77.3102 124.517 76.034 124.548 74.7533C129.315 74.651 134.1 74.5532 138.885 74.4509C138.898 75.7271 138.911 77.0033 138.925 78.2795C138.818 78.3818 138.724 78.4841 138.618 78.5864ZM149.352 91.0906C149.032 90.3257 148.721 89.5609 148.396 88.796C146.64 88.8094 144.865 88.8272 143.105 88.8405C142.807 89.6098 142.513 90.3835 142.242 91.1528C140.605 91.1662 138.965 91.1795 137.35 91.1928C138.387 88.4003 139.476 85.6033 140.512 82.8108C141.544 80.0182 142.58 77.2257 143.589 74.4287C144.905 74.4198 146.222 74.4065 147.538 74.3976C148.614 77.1723 149.708 79.9515 150.815 82.7218C151.927 85.501 153.061 88.2758 154.23 91.0505C152.603 91.0639 150.98 91.0772 149.352 91.0906ZM145.657 80.5074C145.226 81.9837 144.785 83.4555 144.354 84.9318C145.252 84.923 146.155 84.9185 147.067 84.9096C146.586 83.4422 146.115 81.9748 145.657 80.5074ZM173.244 91.1973C169.967 91.1617 166.685 91.1217 163.422 91.0817C163.328 88.298 163.266 85.5144 163.181 82.7263C163.093 79.9426 163.03 77.159 162.937 74.3753C165.854 74.4109 168.771 74.442 171.701 74.4776C172.008 74.482 172.346 74.531 172.68 74.611C173.031 74.6955 173.369 74.8111 173.702 74.9667C174.027 75.1179 174.334 75.2958 174.627 75.5048C174.912 75.7049 175.165 75.9361 175.397 76.1807C175.77 76.6165 176.068 77.1012 176.295 77.6348C176.535 78.1684 176.646 78.7153 176.686 79.2756C176.726 79.9204 176.633 80.5385 176.402 81.1343C176.175 81.7258 175.837 82.2416 175.357 82.6774C175.69 82.8864 175.997 83.1354 176.282 83.42C176.575 83.7179 176.815 84.0336 177.02 84.376C177.229 84.7273 177.411 85.0875 177.544 85.4699C177.678 85.8523 177.749 86.2214 177.771 86.5816C177.816 87.213 177.718 87.8089 177.504 88.3736C177.291 88.9383 176.989 89.423 176.562 89.8499C176.153 90.259 175.663 90.597 175.099 90.8415C174.534 91.0861 173.903 91.2062 173.244 91.1973ZM170.479 77.8215C169.469 77.8126 168.473 77.7993 167.468 77.786C167.508 78.9199 167.548 80.0538 167.602 81.1877C168.611 81.201 169.616 81.2144 170.652 81.2233C171.11 81.2277 171.501 81.0676 171.835 80.7341C172.159 80.4006 172.319 80.0004 172.293 79.5469C172.262 79.0844 172.075 78.6886 171.715 78.3418C171.359 78.0038 170.945 77.826 170.479 77.8215ZM170.932 84.2604C169.86 84.2515 168.784 84.2382 167.708 84.2248C167.748 85.3543 167.802 86.4793 167.842 87.6043C168.918 87.6177 170.007 87.631 171.07 87.6399C171.564 87.6488 171.964 87.4843 172.293 87.1597C172.622 86.8306 172.786 86.4348 172.76 85.959C172.733 85.501 172.533 85.1053 172.182 84.7718C171.835 84.4383 171.417 84.2648 170.932 84.2604ZM190.324 91.513C189.973 90.7393 189.626 89.9655 189.275 89.1918C187.514 89.1562 185.731 89.1162 183.957 89.0806C183.685 89.8455 183.459 90.6059 183.201 91.3663C181.564 91.3351 179.923 91.2996 178.309 91.264C179.239 88.5026 180.146 85.7412 181.04 82.9797C181.933 80.2183 182.8 77.4525 183.672 74.691C184.988 74.7177 186.304 74.7488 187.638 74.7755C188.861 77.5814 190.102 80.3917 191.374 83.1932C192.645 86.0035 193.926 88.8049 195.229 91.6108C193.588 91.5797 191.965 91.5441 190.324 91.513ZM186.078 80.8275C185.713 82.2905 185.353 83.749 184.988 85.212C185.891 85.2298 186.789 85.2476 187.705 85.2654C187.154 83.789 186.602 82.3083 186.078 80.8275ZM207.591 79.5202C206.035 79.4713 204.474 79.4179 202.931 79.3646C203.104 81.459 203.286 83.5578 203.478 85.6522C203.673 87.7466 203.856 89.8366 204.042 91.931C202.459 91.8821 200.885 91.8287 199.302 91.7754C199.138 89.6809 198.978 87.5865 198.804 85.4921C198.631 83.3977 198.48 81.3033 198.333 79.2089C196.759 79.1555 195.216 79.1066 193.668 79.0533C193.561 78.951 193.441 78.8443 193.335 78.742C193.241 77.4613 193.148 76.1851 193.063 74.9089C197.861 75.0735 202.659 75.238 207.471 75.4025C207.591 76.6787 207.724 77.9549 207.862 79.2311C207.751 79.329 207.671 79.4268 207.591 79.5202ZM224.324 86.6661C224.413 87.4265 224.368 88.1335 224.186 88.8005C224.008 89.4586 223.706 90.0456 223.288 90.5792C222.883 91.095 222.398 91.5441 221.794 91.9177C221.202 92.2778 220.531 92.558 219.806 92.7403C219.486 92.8248 219.161 92.8915 218.828 92.9315C218.476 92.976 218.139 92.9893 217.792 92.9715C217.454 92.9582 217.12 92.9182 216.756 92.8426C216.422 92.7759 216.084 92.678 215.737 92.5624C214.968 92.3179 214.221 91.9755 213.558 91.5575C212.878 91.1306 212.264 90.6459 211.744 90.0767C211.228 89.5164 210.815 88.8894 210.495 88.2002C210.17 87.5154 209.974 86.795 209.903 86.0346C209.734 84.2737 209.579 82.5084 209.419 80.743C209.258 78.9821 209.085 77.2168 208.934 75.4514C210.508 75.5226 212.069 75.5937 213.625 75.6604C213.812 77.3813 213.99 79.0977 214.163 80.8142C214.337 82.5306 214.501 84.2515 214.675 85.9635C214.706 86.2792 214.812 86.5682 214.968 86.8439C215.124 87.1107 215.319 87.3509 215.559 87.5554C215.8 87.76 216.071 87.92 216.382 88.0401C216.676 88.1602 216.987 88.2269 217.294 88.2402C217.632 88.2535 217.925 88.2135 218.21 88.1202C218.49 88.0268 218.726 87.8934 218.935 87.7022C219.13 87.5243 219.281 87.2975 219.388 87.0351C219.499 86.7772 219.521 86.4927 219.486 86.1769C219.29 84.4605 219.112 82.7396 218.921 81.0232C218.726 79.3067 218.543 77.5903 218.343 75.8739C219.913 75.945 221.487 76.0117 223.057 76.0829C223.261 77.8482 223.448 79.6136 223.661 81.3745C223.879 83.1398 224.106 84.9007 224.324 86.6661Z" fill="white"/>
</g>
<defs>
<linearGradient id="paint0_linear_32_240" x1="156.007" y1="77.5" x2="156.007" y2="38.1567" gradientUnits="userSpaceOnUse">
<stop stop-color="#242F5C"/>
<stop offset="0.8" stop-color="#4C63C2" stop-opacity="0"/>
</linearGradient>
<clipPath id="clip0_32_240">
<rect width="312" height="115" fill="white"/>
</clipPath>
</defs>
</svg>
