<?xml version="1.0" encoding="UTF-8"?>
<!DOCTYPE svg PUBLIC "-//W3C//DTD SVG 1.1//EN" "http://www.w3.org/Graphics/SVG/1.1/DTD/svg11.dtd">
<!-- Creator: CorelDRAW -->
<svg xmlns="http://www.w3.org/2000/svg" xml:space="preserve" width="580px" height="1035px" version="1.1" style="shape-rendering:geometricPrecision; text-rendering:geometricPrecision; image-rendering:optimizeQuality; fill-rule:evenodd; clip-rule:evenodd"
viewBox="0 0 200.313 357.273"
 xmlns:xlink="http://www.w3.org/1999/xlink"
 xmlns:xodm="http://www.corel.com/coreldraw/odm/2003">
 <defs>
  <style type="text/css">
   <![CDATA[
    .fil25 {fill:none}
    .fil7 {fill:black}
    .fil3 {fill:#0077C0}
    .fil9 {fill:#0D5395}
    .fil10 {fill:#212025}
    .fil0 {fill:#242F5C}
    .fil24 {fill:#2EB8B1}
    .fil13 {fill:#32333B}
    .fil1 {fill:#3F251B}
    .fil4 {fill:#46A5DD}
    .fil26 {fill:#55321E}
    .fil11 {fill:#6E6D6E}
    .fil29 {fill:#7A5F54}
    .fil27 {fill:#895E47}
    .fil15 {fill:#8ACDCD}
    .fil28 {fill:#A96045}
    .fil30 {fill:#AB8474}
    .fil35 {fill:#BEC1C4}
    .fil18 {fill:#C57958}
    .fil32 {fill:#CB4D30}
    .fil34 {fill:#D88451}
    .fil21 {fill:#E09867}
    .fil17 {fill:#E19968}
    .fil8 {fill:#E6E6E6}
    .fil31 {fill:#EBF1F3}
    .fil33 {fill:#F27053}
    .fil16 {fill:#F8CA87}
    .fil22 {fill:#FEEAB6}
    .fil12 {fill:white}
    .fil23 {fill:white}
    .fil14 {fill:#212025;fill-rule:nonzero}
    .fil36 {fill:#3F251B;fill-rule:nonzero}
    .fil5 {fill:#E09867;fill-rule:nonzero}
    .fil2 {fill:#F8CA87;fill-rule:nonzero}
    .fil19 {fill:white;fill-rule:nonzero}
    .fil20 {fill:black;fill-opacity:0.149020}
    .fil6 {fill:black;fill-opacity:0.200000}
   ]]>
  </style>
    <mask id="id0">
  <linearGradient id="id1" gradientUnits="userSpaceOnUse" x1="115.461" y1="51.117" x2="111.242" y2="69.785">
   <stop offset="0" style="stop-opacity:1; stop-color:white"/>
   <stop offset="0.760784" style="stop-opacity:0.501961; stop-color:white"/>
   <stop offset="1" style="stop-opacity:0; stop-color:white"/>
  </linearGradient>
     <rect style="fill:url(#id1)" x="95.27" y="48.877" width="35.234" height="28.454"/>
    </mask>
    <mask id="id2">
  <linearGradient id="id3" gradientUnits="userSpaceOnUse" x1="152.756" y1="58.881" x2="149.705" y2="75.089">
   <stop offset="0" style="stop-opacity:1; stop-color:white"/>
   <stop offset="1" style="stop-opacity:0; stop-color:white"/>
  </linearGradient>
     <rect style="fill:url(#id3)" x="141.166" y="56.284" width="18.632" height="20.517"/>
    </mask>
    <clipPath id="id4">
     <path d="M122.287 72.322c0.023,-1.427 -0.297,-9.623 -1.666,-10.27 -3.528,-1.668 -12.619,-1.073 -15.122,1.85 -0.715,0.835 -1.188,4.255 -1.484,5.899 1.629,0.452 3.34,0.817 4.955,1.131 4.365,0.847 8.86,1.346 13.317,1.39z"/>
    </clipPath>
    <clipPath id="id5">
     <path d="M142.693 64.662c0,0 8.343,-0.66 9.558,0.882 1.215,1.541 1.633,5.333 1.021,7.01 -0.612,1.676 -1.261,3.615 -1.261,3.615l-10.062 -1.203 -0.479 -9.636 1.223 -0.668z"/>
    </clipPath>
    <clipPath id="id6">
     <path d="M93.207 41.908c-6.166,-0.575 -14.969,0.788 -20.607,3.267l6.472 19.386c0,0 4.944,2.068 5.989,3.526 1.045,1.459 3.356,6.183 3.356,6.183 0,0 -1.009,-7.98 -1.103,-9.229 -0.095,-1.25 7.65,-16.076 7.872,-16.839 0.223,-0.762 -1.979,-6.294 -1.979,-6.294z"/>
    </clipPath>
     <mask id="id7">
  <linearGradient id="id8" gradientUnits="userSpaceOnUse" x1="81.783" y1="39.861" x2="85.8" y2="60.056">
   <stop offset="0" style="stop-opacity:1; stop-color:white"/>
   <stop offset="1" style="stop-opacity:0; stop-color:white"/>
  </linearGradient>
      <rect style="fill:url(#id8)" x="72.6" y="41.777" width="22.602" height="32.493"/>
     </mask>
    <clipPath id="id9">
     <path d="M93.207 41.908c-6.166,-0.575 -14.969,0.788 -20.607,3.267l6.472 19.386c0,0 4.944,2.068 5.989,3.526 1.045,1.459 3.356,6.183 3.356,6.183 0,0 -1.009,-7.98 -1.103,-9.229 -0.095,-1.25 7.65,-16.076 7.872,-16.839 0.223,-0.762 -1.979,-6.294 -1.979,-6.294z"/>
    </clipPath>
      <mask id="id10">
  <linearGradient id="id11" gradientUnits="userSpaceOnUse" x1="79.438" y1="56.945" x2="110.134" y2="45.755">
   <stop offset="0" style="stop-opacity:0; stop-color:white"/>
   <stop offset="0.619608" style="stop-opacity:0.501961; stop-color:white"/>
   <stop offset="1" style="stop-opacity:1; stop-color:white"/>
  </linearGradient>
       <rect style="fill:url(#id11)" x="70.257" y="45.68" width="29.651" height="7.867"/>
      </mask>
      <mask id="id12">
  <linearGradient id="id13" gradientUnits="userSpaceOnUse" x1="77.768" y1="52.67" x2="98.396" y2="45.899">
   <stop offset="0" style="stop-opacity:0; stop-color:white"/>
   <stop offset="0.619608" style="stop-opacity:0.501961; stop-color:white"/>
   <stop offset="1" style="stop-opacity:1; stop-color:white"/>
  </linearGradient>
       <rect style="fill:url(#id13)" x="70.206" y="42.952" width="29.831" height="7.109"/>
      </mask>
      <mask id="id14">
  <linearGradient id="id15" gradientUnits="userSpaceOnUse" x1="83.057" y1="61.766" x2="100.927" y2="54.566">
   <stop offset="0" style="stop-opacity:0; stop-color:white"/>
   <stop offset="0.619608" style="stop-opacity:0.501961; stop-color:white"/>
   <stop offset="1" style="stop-opacity:1; stop-color:white"/>
  </linearGradient>
       <rect style="fill:url(#id15)" x="75.853" y="53.567" width="24.055" height="6.406"/>
      </mask>
      <mask id="id16">
  <linearGradient id="id17" gradientUnits="userSpaceOnUse" x1="86.445" y1="64.059" x2="103.572" y2="58.794">
   <stop offset="0" style="stop-opacity:0; stop-color:white"/>
   <stop offset="0.619608" style="stop-opacity:0.501961; stop-color:white"/>
   <stop offset="1" style="stop-opacity:1; stop-color:white"/>
  </linearGradient>
       <rect style="fill:url(#id17)" x="79.502" y="55.96" width="24.054" height="6.406"/>
      </mask>
 </defs>
 <g id="Layer_x0020_1">
  <metadata id="CorelCorpID_0Corel-Layer"/>
  <path class="fil0" d="M43.384 126.194c0,0 -5.436,1.862 -9.428,14.298 -3.992,12.436 3.13,24.911 3.13,24.911 0,0 11.839,-2.495 14.833,-13.089 2.994,-10.594 -1.458,-24.412 -8.535,-26.12z"/>
  <path class="fil0" d="M184.888 167.385c-0.252,3.278 -8.888,14.466 -7.782,13.53 1.106,-0.936 -14.493,7.355 -16.635,8.031 -2.141,0.676 0.326,-9.844 0.391,-10.233 0.065,-0.39 14.091,-11.429 24.026,-11.328z"/>
  <path class="fil1" d="M162.738 233.798c0.582,1.08 0.306,2.27 -0.07,3.388 -0.918,2.73 -3.556,4.447 -6.39,4.546 -2.577,0.09 -4.936,-0.395 -7.164,-1.74 -0.666,-0.403 -1.469,-0.677 -2.195,-0.956 -1.064,-0.409 -2.064,-0.844 -2.984,-1.534l-0.804 -0.602 -0.024 -1.005c-0.147,-6.1 0.106,-12.194 1.257,-18.199 0.075,-0.394 0.207,-0.698 0.329,-1.067l0.368 -1.111 0.012 -0.003c-0.004,-0.331 0.015,-0.666 0.052,-1.008 0.063,-0.582 0.204,-1.234 0.202,-1.813 -0.004,-1.03 0.562,-1.916 1.499,-2.332 0.363,-0.161 0.66,-0.204 1.039,-0.267 3.832,-0.646 7.629,-0.744 11.31,0.031 0.061,-0.212 0.148,-0.428 0.263,-0.649 3.241,-6.175 6.038,-12.567 9.748,-18.49 0.039,-0.061 0.078,-0.123 0.116,-0.184 -0.264,-0.023 -0.533,-0.078 -0.805,-0.162 -2.022,-0.623 -3.978,-1.431 -5.836,-2.442 -1.449,-0.789 -2.217,-2.215 -1.562,-3.839 1.015,-2.518 1.991,-4.89 3.868,-6.896 2.196,-3.313 5.299,-5.486 8.679,-7.475 2.057,-1.21 4.114,-2.256 6.496,-2.659 1.868,-0.316 3.415,0.1 4.816,1.405 4.778,4.45 9.333,9.105 12.979,14.551 0.536,0.8 0.943,1.656 1.446,2.47 1.062,1.718 1.15,5.972 0.592,7.928 -1.373,5.07 -4.051,9.449 -7.247,13.564 -5.19,6.682 -11.523,12.199 -18.486,16.964 -0.291,0.199 -0.511,0.568 -0.681,0.868 -2.605,4.577 -6.248,7.508 -10.823,8.718z"/>
  <path class="fil2" d="M197.98 193.128c-1.301,4.816 -3.869,8.965 -6.887,12.85 -5.068,6.524 -11.227,11.877 -18.02,16.525 -0.6,0.41 -0.977,0.964 -1.312,1.553 -3.219,5.656 -8.069,8.429 -14.574,8.303 -0.158,-0.003 -0.315,0.014 -0.731,0.035 1.426,1.677 1.504,3.212 -0.482,4.56 1.764,-0.159 2.42,-0.743 2.564,-2.217 0.045,-0.464 0.106,-0.605 0.619,-0.565 1.904,0.152 2.166,0.519 1.549,2.354 -0.603,1.791 -2.392,3.062 -4.5,3.136 -2.132,0.075 -4.111,-0.289 -6.021,-1.443 -1.565,-0.945 -3.495,-1.239 -5.008,-2.374 -0.143,-5.957 0.095,-11.889 1.22,-17.759 0.053,-0.275 0.173,-0.538 0.262,-0.806 0.309,-0.07 0.572,-0.203 0.715,-0.506l0.017 -0.005c-0.566,-1.36 0.011,-2.722 0.007,-4.083 -0.002,-0.479 0.447,-0.488 0.811,-0.549 5.297,-0.892 10.476,-0.714 15.417,1.676 0.059,0.028 0.148,-0.005 0.381,-0.018 -0.858,-0.789 -1.649,-1.494 -2.411,-2.228 -0.306,-0.294 -0.621,-0.562 -0.324,-1.127 3.213,-6.123 5.99,-12.481 9.669,-18.353 2.537,-4.05 4.455,-5.953 8.77,-9.393 -2.232,0.765 -1.713,0.516 -3.85,1.679 -2.423,1.355 -3.274,2.137 -5.53,4.079 -0.394,0.339 -0.763,0.353 -1.224,0.211 -1.894,-0.584 -3.714,-1.335 -5.457,-2.283 -0.53,-0.289 -0.875,-0.642 -0.631,-1.246 0.918,-2.278 1.826,-4.567 3.577,-6.379 2.017,-3.121 4.988,-5.149 8.1,-6.981 1.808,-1.064 3.671,-2.043 5.792,-2.402 1.185,-0.201 2.1,-0.015 3.058,0.878 4.664,4.343 9.109,8.868 12.67,14.188 0.516,0.77 0.917,1.617 1.405,2.406 0.809,1.31 0.681,5.175 0.359,6.284z"/>
  <path class="fil0" d="M181.09 168.393c-0.961,0.261 -2.113,0.804 -2.994,1.249 -2.687,1.355 -5.221,3.147 -7.505,5.098 -2.332,1.992 -4.278,4.243 -5.867,6.864 -0.464,0.765 -0.875,1.547 -1.318,2.323 -0.566,0.995 -1.258,1.937 -2.55,1.937l-0.508 0 -0.45 -0.235c-6.81,-3.553 -12.499,-9.217 -16.967,-15.4 -1.554,-2.15 -2.991,-4.403 -4.278,-6.722 -0.523,-0.942 -1.051,-1.927 -1.497,-2.909l-0.091 -0.201 -0.046 -0.215c-0.707,-3.254 -0.964,-7.389 -0.535,-10.665 0.913,-6.974 5.079,-10.994 12.43,-9.451 5.59,1.173 10.799,3.422 14.959,7.406 1.265,1.211 2.355,2.515 3.393,3.921 0.378,0.511 1.087,1.608 1.541,2.005 1.035,0.906 1.709,1.853 2.51,2.942 0.412,0.559 0.83,1.108 1.465,1.426 0.85,0.425 1.744,1.095 2.505,1.665 1.001,0.751 1.981,1.533 2.951,2.323 1.235,1.005 2.461,2.029 3.668,3.068l2.982 2.563 -3.798 1.008z"/>
  <path class="fil3" d="M160.856 183.793c0.808,0 1.988,-5.158 8.39,-10.627 6.401,-5.469 11.31,-6.774 11.31,-6.774 0,0 -6.711,-5.78 -8.7,-6.774 -1.989,-0.995 -2.424,-2.921 -4.413,-4.661 -1.988,-1.74 -5.033,-9.944 -18.954,-12.865 -13.921,-2.92 -9.447,17.65 -9.447,17.65 0,0 7.52,16.593 21.814,24.051z"/>
  <path class="fil4" d="M160.856 183.793c0.785,0 1.922,-4.868 7.854,-10.159 -0.27,0.227 -0.543,0.462 -0.818,0.705 -4.29,3.782 -6.235,7.36 -7.295,9.315 0.086,0.046 0.172,0.094 0.259,0.139zm18.032 -16.795c1.063,-0.445 1.668,-0.606 1.668,-0.606 0,0 -6.711,-5.78 -8.7,-6.774 -1.989,-0.995 -2.424,-2.921 -4.413,-4.661 -1.988,-1.74 -5.033,-9.944 -18.954,-12.865 -4.786,-1.004 -7.397,0.768 -8.764,3.526 1.537,-1.602 3.882,-2.435 7.41,-1.79 13.921,2.544 16.966,10.665 18.954,12.351 1.989,1.686 2.424,3.601 4.413,4.541 1.731,0.819 7.039,5.165 8.386,6.278z"/>
  <path class="fil5" d="M166.596 178.755c0.846,1.132 1.283,2.504 2.168,3.621 0.897,1.13 1.986,1.982 3.262,2.628 0.612,0.31 1.404,-0.225 1.93,0.435 -1.21,1.001 -2.434,1.988 -3.625,3.013 -0.394,0.339 -0.763,0.353 -1.224,0.211 -1.894,-0.584 -3.714,-1.335 -5.457,-2.283 -0.53,-0.289 -0.875,-0.642 -0.631,-1.246 0.918,-2.278 1.826,-4.567 3.577,-6.379z"/>
  <path class="fil5" d="M197.98 193.128c-1.301,4.816 -3.869,8.965 -6.887,12.85 -5.068,6.524 -11.227,11.877 -18.02,16.525 -0.6,0.41 -0.977,0.964 -1.312,1.553 -3.219,5.656 -8.069,8.429 -14.574,8.303 -0.158,-0.003 -0.315,0.014 -0.731,0.035 1.426,1.677 1.504,3.212 -0.482,4.56 1.764,-0.159 2.42,-0.743 2.564,-2.217 0.045,-0.464 0.106,-0.605 0.619,-0.565 1.904,0.152 2.166,0.519 1.549,2.354 -0.603,1.791 -2.392,3.062 -4.5,3.136 -2.132,0.075 -4.111,-0.289 -6.021,-1.443 -1.565,-0.945 -3.495,-1.239 -5.008,-2.374 -0.143,-5.957 0.095,-11.889 1.22,-17.759 0.053,-0.275 0.173,-0.538 0.262,-0.806 0.309,-0.07 0.572,-0.203 0.715,-0.506 1.291,-0.408 1.89,-0.048 1.987,1.198 0.019,0.242 0.008,0.486 0.014,0.73 0.035,1.429 0.332,1.921 1.726,2.234 0.993,0.222 1.445,0.659 1.507,1.692 0.076,1.268 0.89,2.035 2.047,2.471 4.385,1.654 8.453,0.969 12.22,-1.709 1.053,-0.749 2.089,-1.55 2.794,-2.681 0.174,-0.28 0.414,-0.507 0.717,-0.642 2.458,-1.1 4.384,-2.939 6.289,-4.739 5.983,-5.655 11.235,-11.918 15.34,-19.096 1.48,-2.591 2.648,-5.294 3.211,-8.239 0.066,-0.347 0.044,-0.841 0.459,-0.909 0.386,-0.062 0.593,0.37 0.786,0.675 1.032,1.639 1.697,3.385 1.509,5.369z"/>
  <path class="fil0" d="M60.879 130.548c7.138,-3.538 13.704,-3.024 20.926,0.002 4.343,1.819 7.382,6.973 9.038,11.205 1.1,2.811 3.057,9.169 0.886,11.833 -1.688,2.072 -5.677,4.219 -8.09,5.312 -3.149,1.427 -7.534,2.913 -10.995,2.306 -2.585,-0.454 -4.381,-3.519 -5.471,-5.658 -1.511,-2.964 -2.692,-6.267 -3.721,-9.428 -1.403,-4.314 -2.659,-8.828 -3.672,-13.255l-0.364 -1.592 1.463 -0.725z"/>
  <path class="fil3" d="M61.799 132.403c6.424,-3.184 12.32,-2.828 19.206,0.057 6.886,2.884 11.166,17.308 9.119,19.82 -2.047,2.512 -11.818,7.817 -17.122,6.886 -5.304,-0.931 -11.203,-26.763 -11.203,-26.763z"/>
  <path class="fil4" d="M62.679 131.988c4.505,-2.021 8.781,-2.3 13.363,-1.192 0.177,0.357 0.276,0.581 0.276,0.581 0,0 0.19,0.285 -3.693,0.19 -3.883,-0.095 -5.145,1.073 -5.145,1.073 0,0 -1.614,-0.277 -4.801,-0.652z"/>
  <path class="fil6" d="M121.836 308.794c37.058,0 67.299,7.135 67.544,15.937 0.142,5.082 -9.749,9.609 -25.267,12.527 -4.576,11.332 -32.171,20.015 -65.779,20.015 -37.058,0 -67.394,-10.558 -67.757,-23.582 -0.356,-12.792 28.334,-23.204 64.468,-23.571 8.193,-0.852 17.252,-1.326 26.791,-1.326z"/>
  <path class="fil7" d="M170.913 312.559c0.592,1.906 0.919,4.392 0.773,6.343 -0.118,1.577 -0.249,3.993 -1.605,5.023 -0.531,0.403 -1.168,0.445 -1.809,0.498 -0.695,0.056 -1.395,0.089 -2.092,0.118 -2.392,0.097 -4.798,0.12 -7.194,0.109 -7.51,-0.034 -15.088,-0.426 -22.577,-1.221 -6.112,-0.649 -12.368,-1.523 -18.378,-2.934 -1.83,-0.43 -4.008,-0.955 -5.769,-1.66l-1.734 -0.694 3.909 -13.689 1.813 0.405c7.597,1.699 15.344,3.179 23.009,4.45 5.815,0.964 11.737,1.835 17.601,2.293 2.868,0.224 8.725,0.612 11.394,-0.378l2.011 -0.747 0.648 2.084z"/>
  <path class="fil8" d="M168.998 313.105c0,0 0.89,2.878 0.687,5.592 -0.203,2.714 -0.516,3.368 -0.846,3.619 -0.33,0.25 -15.314,0.919 -32.273,-0.882 -16.959,-1.801 -23.603,-4.459 -23.603,-4.459l2.901 -10.161c0,0 43.733,9.779 53.134,6.291z"/>
  <path class="fil7" d="M144.035 305.833c1.502,-1.313 3.339,-2.556 4.98,-3.472 4.084,-2.279 8.881,-3.586 13.612,-2.401 4.567,1.144 7.596,4.269 8.759,8.786 0.39,1.516 0.551,3.117 0.502,4.669 -0.027,0.86 -0.132,2.22 -0.498,2.996 -0.78,1.653 -2.274,2.104 -3.979,2.378 -1.552,0.249 -3.204,0.322 -4.779,0.368 -2.81,0.082 -5.642,0.044 -8.456,-0.02 -4.184,-0.095 -8.424,-0.475 -12.595,-0.914 -4.518,-0.475 -9.032,-1.053 -13.535,-1.683 -5.133,-0.718 -10.281,-1.493 -15.395,-2.365l-1.935 -0.33 1.994 -17.082 31.325 9.07z"/>
  <path class="fil8" d="M112.935 312.198c0,0 26.984,4.61 41.23,4.934 14.246,0.323 14.947,-0.647 15.406,-1.618 0.458,-0.971 1.662,-11.345 -7.38,-13.609 -9.042,-2.265 -17.573,4.47 -17.573,4.47l-30.181 -7.039 -1.502 12.862z"/>
  <path class="fil9" d="M114.751 312.5c4.01,0.657 14.049,2.25 23.916,3.387 1.148,-3.365 1.381,-5.864 4.683,-8.769 0.272,-0.239 0.562,-0.528 0.855,-0.839l-27.037 -6.306c-0.466,0.478 -0.91,0.975 -1.327,1.488 -2.279,2.799 -2.404,7.696 -1.09,11.039z"/>
  <path class="fil7" d="M142.238 308.61l-0.103 1.405 -0.704 -0.071c-0.555,-0.056 -1.109,-0.154 -1.658,-0.259 -1.377,-0.262 -2.739,-0.616 -4.078,-1.045 -4.109,-1.318 -8.046,-3.378 -11.329,-6.238l-0.54 -0.47 0.911 -1.053 0.54 0.47c3.132,2.728 6.895,4.691 10.815,5.947 1.283,0.411 2.589,0.751 3.908,1.003 0.508,0.096 1.02,0.188 1.534,0.24l0.704 0.071z"/>
  <path class="fil7" d="M145.695 227.105l3.18 -1.179 0.341 12.251 -1.459 0.619c-1.098,0.466 -2.477,0.805 -3.64,1.057 -3.256,0.707 -6.682,0.992 -10.026,1.023 -7.353,0.07 -16.328,-1.381 -23.202,-4.302 -1.717,-0.73 -3.461,-1.48 -5.134,-2.314 -0.463,-0.23 -1.019,-0.501 -1.443,-0.803l-1.036 -0.738 -0.095 -9.934 3.121 1.008c2.452,0.792 5.092,1.43 7.598,1.979 5.493,1.203 11.212,2.03 16.807,2.128 3.919,0.069 8.005,0.07 11.898,-0.314 0.865,-0.085 2.254,-0.212 3.09,-0.481z"/>
  <path class="fil7" d="M105.62 226.082c0,0 12.405,4.002 25.112,4.225 12.707,0.222 15.832,-0.934 15.832,-0.934l0.2 7.203c0,0 -4.285,1.814 -12.763,1.894 -8.478,0.079 -17.014,-1.894 -22.223,-4.107 -5.208,-2.214 -6.106,-2.854 -6.106,-2.854l-0.052 -5.427z"/>
  <path class="fil10" d="M112.508 227.909c1.135,0.259 2.378,0.523 3.706,0.778l0.167 5.976c3.529,1.045 7.522,1.897 11.593,2.121 12.434,0.683 16.117,-1.455 16.117,-1.455l-0.153 -5.467c0.653,-0.081 1.162,-0.162 1.55,-0.235l0.154 5.506 0.644 0.597 -0.765 1.266c-1.832,0.541 -5.682,1.419 -11.52,1.474 -8.478,0.079 -17.014,-1.894 -22.223,-4.107 -5.208,-2.214 -6.106,-2.854 -6.106,-2.854l-0.01 -1.014c1.564,0.762 4.04,1.886 7.08,2.976l-0.234 -5.562z"/>
  <path class="fil11" d="M128.389 230.406c0.78,0.04 1.563,0.069 2.348,0.083l0.079 0.001 0.047 4.926c0,0 2.794,0.218 5.217,0.145 2.422,-0.073 4.283,-0.283 4.283,-0.283l-0.021 -0.752 -0.681 -0.032 -0.066 -1.288 1.138 -0.044 -0.016 -0.586 -5.188 0 -0.058 -2.067c2.526,-0.028 4.517,-0.118 6.072,-0.234l0.187 6.705c0,0 -2.625,0.501 -6.515,0.501 -3.891,0 -6.635,-0.234 -6.635,-0.234l-0.191 -6.841z"/>
  <path class="fil7" d="M108.336 334.807c-0.117,0.205 -0.237,0.41 -0.361,0.613 -1.174,1.928 -2.609,3.664 -4.475,4.958 -5.993,4.153 -16.953,4.536 -24.063,4.268 -4.71,-0.177 -9.486,-0.984 -13.99,-2.507 -1.72,-0.582 -3.769,-1.372 -5.356,-2.298l-0.718 -0.42 -0.324 -0.763c-0.536,-1.264 -0.898,-2.912 -0.904,-4.257 -0.007,-1.42 0.475,-3.074 1.232,-4.28l2.563 -4.631 1.725 0.375c4.346,0.947 8.792,1.752 13.177,2.435 3.454,0.539 6.959,1.011 10.438,1.256 2.086,0.147 5.308,0.329 7.317,-0.191 3.32,-0.859 6.872,-3.914 9.544,-6.04 2.839,-2.259 6.801,-5.519 10.753,-4.717l1.506 0.305 0.402 1.485c0.232,0.855 0.401,1.917 0.358,2.793 -0.056,1.144 -0.118,2.286 -0.21,3.426 -0.106,1.31 -0.197,3.474 -1.105,4.455 -0.805,0.87 -3.509,2.058 -4.699,2.598l-2.784 1.263 -0.026 -0.126z"/>
  <path class="fil8" d="M63.215 328.217l-1.758 3.176c0,0 -0.912,1.406 -0.904,3.063 0.007,1.657 0.709,3.315 0.709,3.315 0,0 6.934,4.046 18.199,4.47 11.265,0.424 18.849,-1.233 22.63,-3.854 3.78,-2.62 5.115,-7.283 5.909,-7.823 0.794,-0.539 1.231,-0.341 1.615,0.054 0.384,0.395 0.485,0.855 0.485,0.855 0,0 3.53,-1.601 3.956,-2.062 0.426,-0.46 0.657,-5.549 0.699,-6.405 0.042,-0.855 -0.276,-2.04 -0.276,-2.04 -5.193,-1.053 -11.884,8.832 -19.218,10.73 -7.334,1.898 -32.046,-3.479 -32.046,-3.479z"/>
  <path class="fil12" d="M63.215 328.217l-1.758 3.176c0,0 -0.595,0.917 -0.82,2.143l0.71 0.281c9.369,3.702 19.385,4.877 29.276,3.471 3.044,-0.433 6.083,-1.109 9.003,-2.052 1.012,-0.326 2.251,-0.462 3.145,-1.042l0 0 0.001 0c0.112,-0.073 0.219,-0.152 0.319,-0.24l0.811 -0.612c1.694,-1.908 3.755,-3.801 5.679,-5.463 1.241,-1.071 3.374,-2.662 5.098,-3.414 0.039,-0.681 0.065,-1.226 0.076,-1.459 0.042,-0.855 -0.276,-2.04 -0.276,-2.04 -5.193,-1.053 -11.884,8.832 -19.218,10.73 -7.334,1.898 -32.046,-3.479 -32.046,-3.479z"/>
  <path class="fil7" d="M97.565 331.375l-32.974 -9.392 1.745 -2.738c1.349,-2.119 2.683,-4.25 4.006,-6.386 1.069,-1.724 2.131,-3.454 3.172,-5.196 0.797,-1.332 1.61,-2.688 2.331,-4.063 3.06,-5.837 13.404,-6.857 19.401,-5.921 3.254,0.509 6.133,1.666 8.931,3.433 2.103,1.328 3.947,2.903 5.967,4.324 1.064,0.749 2.169,1.497 3.299,2.14 0.284,0.163 0.656,0.378 0.967,0.5l1.809 0.554 -0.103 1.925c-0.089,1.661 -0.067,3.398 -0.021,5.062 0.04,1.416 0.236,3.29 0.674,4.668l0.274 1.227 -1.781 1.751c-1.801,0.569 -4.317,2.394 -5.709,3.578 -1.925,1.638 -3.988,3.504 -5.682,5.391l-1.131 0.838 -5.175 -1.695z"/>
  <path class="fil3" d="M98.285 329.096l3.774 1.502c0,0 2.222,-2.476 5.903,-5.608 3.682,-3.132 6.517,-4.024 6.517,-4.024 0,0 -0.702,-2.169 -0.791,-5.349 -0.088,-3.18 0.023,-5.257 0.023,-5.257 0,0 -1.24,-0.382 -4.916,-2.968 -3.676,-2.586 -7.341,-6.317 -13.856,-7.335 -6.515,-1.017 -14.821,0.636 -16.955,4.706 -2.133,4.07 -9.607,15.814 -9.607,15.814l29.908 8.519z"/>
  <path class="fil9" d="M105.96 326.752c0.136,-0.116 0.092,-0.137 2.003,-1.762 1.91,-1.626 6.516,-4.024 6.516,-4.024 0,0 -0.702,-2.169 -0.791,-5.349 -0.088,-3.18 0.023,-5.257 0.023,-5.257 0,0 -1.24,-0.382 -4.916,-2.968 -2.949,-2.075 -5.892,-4.887 -10.306,-6.443 -1.298,-0.22 -2.344,-0.229 -3.029,0.009 0,0 -1.451,4.021 -3.007,7.506 -1.556,3.485 -8.622,6.11 -8.622,6.11 0,0 12.268,-1.184 16.25,1.899 3.982,3.083 4.255,5.049 5.879,10.279z"/>
  <path class="fil7" d="M138.643 316.891l-1.334 -0.501 0.232 -0.66c0.183,-0.52 0.406,-1.027 0.634,-1.527 0.573,-1.255 1.232,-2.47 1.958,-3.64 2.227,-3.593 5.133,-6.806 8.658,-9.159l0.58 -0.387 0.806 1.181 -0.579 0.387c-3.364,2.245 -6.134,5.319 -8.259,8.746 -0.695,1.121 -1.327,2.285 -1.876,3.487 -0.211,0.463 -0.419,0.932 -0.588,1.413l-0.232 0.66z"/>
  <path class="fil7" d="M95.767 321.926l0.838 1.159 0.568 -0.403c0.448,-0.317 0.873,-0.67 1.289,-1.026 1.046,-0.894 2.03,-1.86 2.954,-2.878 2.835,-3.128 5.125,-6.812 6.427,-10.866l0.213 -0.666 -1.346 -0.465 -0.214 0.666c-1.241,3.868 -3.434,7.383 -6.139,10.367 -0.885,0.976 -1.828,1.902 -2.83,2.758 -0.385,0.33 -0.777,0.657 -1.192,0.951l-0.568 0.403z"/>
  <path class="fil7" d="M94.824 308.931l-0.468 0 -0.409 -0.264c-3.594,-2.325 -8.083,-1.461 -12.019,-1.16 -1.279,0.098 -3.356,0.253 -4.509,-0.46 -0.746,-0.461 -1.147,-1.243 -1.075,-2.102 0.044,-0.525 0.256,-1.004 0.509,-1.455 0.799,-1.425 2.91,-2.811 4.327,-3.531 2.868,-1.458 6.126,-2.099 9.37,-2.03 2.949,0.063 6.303,0.659 8.8,2.406 1.713,1.198 3.206,3.214 2.724,5.376 -0.659,2.951 -4.759,3.271 -7.25,3.22z"/>
  <path class="fil12" d="M94.792 307.327c0.185,0 5.212,0.244 5.714,-2.006 0.502,-2.25 -2.659,-5.633 -9.945,-5.788 -7.286,-0.154 -11.604,3.525 -12.303,4.771 -0.699,1.246 -0.531,1.912 3.503,1.603 4.034,-0.308 8.916,-1.243 13.031,1.42z"/>
  <path class="fil8" d="M94.792 307.326l0.007 0.001 0.005 0 0.005 0 0.013 0 0.001 0 0.014 0.001 0.012 0 0.006 0 0.021 0.001 0.005 0 0.018 0 0.021 0.001 0.005 0 0.028 0 0.011 0.001 0.02 0 0.03 0.001 0.003 0 0.035 0 0.018 0.001 0.02 0 0.04 0 0.001 0 0.041 0.001 0.026 0 0.018 0 0.046 0 0.007 0 0.041 0 0.035 0 0.015 0 0.051 0 0.015 0 0.039 -0.001 0.045 0 0.01 0 0.057 -0.001 0.022 0 0.036 -0.001 0.057 -0.001 0.003 0 0.062 -0.002 0.032 -0.001 0.002 0 0.081 -0.003 0.013 0 0.004 0 0.061 -0.003 0.042 -0.002 0.025 -0.001 0.068 -0.003 0.013 -0.001 0.057 -0.002 0.052 -0.003 0.018 -0.001 0.072 -0.005 0.022 -0.001 0.05 -0.004 0.064 -0.004 0.01 -0.001 0.074 -0.005 0.032 -0.003 0.044 -0.004 0.074 -0.006 0.001 0 0.077 -0.007 0.013 -0.001 0.058 -0.006 0.006 -0.001 0.079 -0.008 0.007 -0.001 0.071 -0.008 0.012 -0.001 0.061 -0.007 0.006 -0.001 0.079 -0.01 0.018 -0.002 0.062 -0.008 0.02 -0.003 0.06 -0.008 0.081 -0.012 0.003 0 0.052 -0.008 0.064 -0.01 0.033 -0.006 0.009 -0.001 0.081 -0.014 0.016 -0.003 0.04 -0.007 0.075 -0.014 0.03 -0.005 0.001 0 0.08 -0.016 0.011 -0.002 0.061 -0.013 0.008 -0.001 0.081 -0.018 0.041 -0.009 0.063 -0.014 0.049 -0.012 0.007 -0.002 0.079 -0.019 0.007 -0.002 0.042 -0.011 0.065 -0.017 0.038 -0.011 0.006 -0.001 0.078 -0.022 0.008 -0.003 0.044 -0.013 0.077 -0.024 0.02 -0.006 0.005 -0.002c0.912,-0.291 1.675,-0.777 1.854,-1.584 0.319,-1.428 -0.838,-3.311 -3.586,-4.537 -0.585,-0.013 -1.079,0.042 -1.46,0.174 0,0 -0.357,0.99 -0.907,2.413 -1.734,-0.727 -3.683,-1.039 -5.485,-1.116 -3.214,-0.137 -6.503,0.255 -9.504,1.452 -0.434,0.173 -0.868,0.366 -1.295,0.578l-0.011 0.019c-0.699,1.246 -0.531,1.912 3.503,1.603 3.553,-0.272 7.763,-1.028 11.529,0.614l0.024 0.01 0.023 0.011 0.024 0.011 0.096 0.043 0.024 0.01 0.023 0.011 0.024 0.012 0.024 0.011 0.024 0.011 0.071 0.034 0.023 0.011 0.001 0 0.094 0.046 0.024 0.012 0.06 0.031c0.045,0.022 0.089,0.045 0.133,0.068l0.053 0.028c0.054,0.029 0.108,0.058 0.161,0.088l0.03 0.016c0.056,0.032 0.111,0.064 0.167,0.096l0.022 0.013c0.061,0.036 0.121,0.072 0.18,0.109l0.004 0.001 0.008 0.006c0.062,0.038 0.124,0.077 0.185,0.116z"/>
  <path class="fil7" d="M91.798 312.851c-1.282,-0.243 -2.651,-0.468 -3.952,-0.492 -0.728,-0.013 -1.404,0.069 -2.123,0.117 -2.182,0.146 -4.484,0.192 -6.675,0.079 -1.192,-0.062 -2.678,-0.179 -3.811,-0.589 -0.693,-0.25 -1.332,-0.653 -1.679,-1.332 -0.453,-0.888 -0.21,-1.819 0.404,-2.527 1.467,-1.689 3.531,-2.917 5.622,-3.696 3.003,-1.118 6.294,-1.425 9.511,-1.204 2.855,0.195 6.079,0.989 8.231,3.059 1.391,1.337 2.441,3.496 1.553,5.343 -0.709,1.476 -2.174,1.95 -3.74,1.872 -1.132,-0.056 -2.241,-0.361 -3.341,-0.63z"/>
  <path class="fil12" d="M92.097 311.283c1.895,0.462 4.534,1.26 5.332,-0.401 0.798,-1.661 -1.196,-5.581 -8.399,-6.074 -7.204,-0.494 -11.78,1.994 -13.843,4.37 -2.063,2.376 8.999,1.79 10.385,1.697 1.386,-0.092 2.461,-0.364 6.525,0.408z"/>
  <path class="fil8" d="M92.097 311.283l0.066 0.016 0.023 0.006 0.045 0.011 0.045 0.011 0.023 0.005 0.068 0.018 0.001 0 0.068 0.017 0.024 0.006 0.045 0.011 0.048 0.012 0.022 0.005 0.071 0.018 0.001 0 0.069 0.017 0.026 0.007 0.045 0.011 0.05 0.012 0.022 0.006 0.072 0.017 0.002 0.001 0.07 0.017 0.027 0.006 0.045 0.011 0.052 0.013 0.021 0.005 0.073 0.017 0.003 0.001 0.07 0.016 0.028 0.007 0.045 0.01 0.053 0.012 0.021 0.005 0.073 0.016 0.004 0.001 0.07 0.016 0.029 0.006 0.045 0.009 0.01 0.003 0.064 0.013 0.074 0.015 0.005 0.001 0.069 0.014 0.03 0.006 0.044 0.009 0.054 0.01 0.02 0.004 0.074 0.014 0.005 0.001 0.068 0.012 0.031 0.005 0.043 0.007 0.055 0.01 0.019 0.003 0.073 0.011 0.006 0.001 0.067 0.01 0.031 0.005 0.02 0.002 0.059 0.009 0.018 0.002 0.018 0.002 0.072 0.009 0.007 0.001 0.026 0.003 0.057 0.007 0.014 0.001 0.04 0.004 0.017 0.002 0.05 0.005 0.005 0.001 0.071 0.006 0.008 0 0.063 0.005 0.004 0 0.059 0.004 0.023 0.001 0.05 0.003 0.004 0 0.07 0.003 0.008 0.001 0.061 0.001 0.009 0 0.047 0.001 0.03 0 0.05 0 0.068 -0.001 0.041 -0.001 0.035 -0.001 0.044 -0.002 0.034 -0.002 0.045 -0.003 0.065 -0.005 0.05 -0.005 0.019 -0.002 0.052 -0.006 0.02 -0.002 0.049 -0.007 0.001 0 0.062 -0.01 0.001 0 0.046 -0.008 0.019 -0.004 0.047 -0.009 0.027 -0.006 0.041 -0.01 0.059 -0.014 0.001 0 0.037 -0.011 0.03 -0.008 0.037 -0.012 0.034 -0.011 0.031 -0.01 0.002 -0.001 0.055 -0.02c0.394,-0.151 0.712,-0.414 0.913,-0.832 0.592,-1.234 -0.355,-3.712 -3.831,-5.108 -0.36,0.881 -0.749,1.803 -1.145,2.69l-0.029 0.062c-1.804,-0.822 -3.864,-1.341 -5.756,-1.493 -3.795,-0.305 -7.399,0.404 -10.986,1.622 -0.178,0.174 -0.344,0.349 -0.495,0.523 -2.063,2.376 8.999,1.79 10.385,1.697 1.16,-0.077 2.103,-0.28 4.762,0.108l0.024 0.004 0.025 0.004 0.024 0.003 0.025 0.004 0.024 0.003 0.025 0.004 0.025 0.004 0.05 0.008 0.025 0.003 0.026 0.004 0.025 0.004 0.026 0.004 0.025 0.004 0.023 0.004 0.003 0 0.026 0.004 0.026 0.004 0.026 0.005 0.026 0.004 0.026 0.004 0.026 0.004 0.001 0 0.026 0.004 0.026 0.005 0.027 0.004 0.026 0.005 0.027 0.004 0.027 0.004 0.005 0.001 0.022 0.004 0.027 0.004 0.027 0.005 0.028 0.005 0.027 0.004 0.028 0.005 0.008 0.001 0.019 0.004 0.028 0.004 0.056 0.01 0.028 0.005 0.028 0.005 0.013 0.002 0.015 0.003 0.029 0.005 0.028 0.005 0.029 0.005 0.029 0.005 0.028 0.005 0.017 0.003 0.012 0.002 0.029 0.005 0.029 0.005 0.059 0.011 0.03 0.005 0.021 0.004 0.128 0.024 0.03 0.005 0.026 0.005 0.004 0.001 0.123 0.023 0.031 0.006 0.031 0.006z"/>
  <path class="fil7" d="M96.677 318.408c-1.158,1.788 -4.464,1.792 -6.314,1.095 -0.506,-0.191 -1.016,-0.45 -1.505,-0.686 -0.64,-0.308 -1.281,-0.612 -1.934,-0.892 -1.412,-0.605 -2.982,-1.151 -4.511,-1.286 -1.744,-0.154 -3.706,0.04 -5.441,0.223 -0.83,0.087 -1.661,0.187 -2.493,0.262 -0.598,0.055 -1.359,0.125 -1.953,0.009 -0.967,-0.189 -1.627,-0.953 -1.835,-1.894 -0.15,-0.676 -0.069,-1.4 0.138,-2.046 0.496,-1.548 1.71,-2.765 3.271,-3.237 4.13,-1.25 8.245,-1.928 12.614,-1.253 2.621,0.406 5.564,1.536 7.707,3.135 2.09,1.559 3.865,4.088 2.256,6.57z"/>
  <path class="fil12" d="M95.323 317.51c-0.634,0.977 -3.12,0.987 -4.43,0.493 -1.31,-0.493 -4.888,-2.653 -8.383,-2.962 -3.496,-0.309 -8.598,0.736 -9.719,0.517 -1.12,-0.219 -0.635,-3.325 1.813,-4.066 2.448,-0.74 6.919,-1.975 11.908,-1.203 4.99,0.771 10.667,4.356 8.811,7.221z"/>
  <path class="fil8" d="M90.007 311.242c1.201,0.466 2.327,1.054 3.254,1.71 -0.206,0.026 -0.413,0.053 -0.618,0.08 0.613,0.27 1.211,0.567 1.788,0.892 1.163,1.158 1.64,2.43 0.892,3.586 -0.634,0.977 -3.121,0.987 -4.43,0.493 -1.31,-0.493 -4.888,-2.653 -8.383,-2.962 -3.496,-0.309 -8.598,0.736 -9.719,0.517 -0.938,-0.183 -0.75,-2.389 0.772,-3.538 3.311,-0.998 6.815,-1.35 10.247,-1.105 1.764,0.127 3.598,0.423 5.388,0.908 0.276,-0.186 0.547,-0.38 0.809,-0.581z"/>
  <path class="fil7" d="M59.769 330.202c-0.242,-1.836 0.08,-4.158 0.595,-5.886 1.291,-4.333 4.241,-7.562 8.22,-9.615 4.63,-2.39 10.027,-3.195 15.259,-2.623 4.424,0.484 9.284,2.049 12.807,4.932 2.753,2.253 4.81,5.247 6.223,8.476 0.628,1.434 1.254,3.181 1.55,4.723l0.227 1.183 -1.547 1.403c-0.896,0.812 -2.351,0.918 -3.51,1.277 -2.921,0.907 -5.961,1.545 -9.006,1.94 -9.894,1.283 -19.913,-0.016 -29.286,-3.833l-1.344 -0.548 -0.188 -1.429z"/>
  <path class="fil12" d="M62.156 329.953c0,0 -1.139,-8.608 7.579,-13.107 8.719,-4.499 19.906,-2.505 25.421,2.009 5.516,4.514 6.903,11.743 6.903,11.743 0,0 -18.142,8.219 -39.903,-0.645z"/>
  <path class="fil8" d="M85.188 314.685c3.964,0.664 7.523,2.169 9.968,4.17 5.515,4.514 6.903,11.743 6.903,11.743 0,0 -18.142,8.219 -39.903,-0.645 13.557,4.347 38.99,-2.378 21.675,-15.379 0,0 0.497,0.039 1.357,0.111z"/>
  <path class="fil7" d="M116.666 313.583l-2.119 5.208 -2.584 -2.965c-3.217,-3.693 -10.251,-11.063 -14.562,-13.106 -3.698,-1.754 -7.423,-2.216 -11.365,-1.544 -1.686,0.287 -4.048,1.202 -5.646,1.843l-5.845 2.342 6.531 -13.617 3.95 -1.202 -0.529 -0.835 0.359 -1.08c2.792,-8.415 5.578,-16.832 8.358,-25.252 1.951,-5.909 3.901,-11.82 5.836,-17.735 0.672,-2.057 1.344,-4.114 2.007,-6.174 0.267,-0.829 0.585,-1.723 0.816,-2.572 0.035,-0.992 0.007,-2.04 0.007,-3.03 0,-0.963 -0.003,-1.927 -0.003,-2.89l1.371 -1.238 1.037 1.304c-0.005,-0.031 2.005,0.982 9.697,4.246 0.783,0.179 1.565,0.364 2.351,0.532 0.445,0.095 0.891,0.186 1.337,0.28l1.917 0.405 0 0c3.048,0.805 6.182,1.367 9.303,1.539 3.789,0.208 7.963,0.409 11.702,-0.193 3.099,-0.5 6.166,-1.499 8.302,-3.993l0.042 1.503 1.345 1.245 -2.888 4.78c0.13,2.335 0.208,4.683 0.27,7.016 0.143,5.374 0.16,10.786 -0.097,16.145 -0.278,5.802 -1.066,11.718 -1.967,17.436 -0.402,2.552 -0.832,5.115 -1.314,7.656l4.412 4.126 -0.853 4.667 -1.653 0.244c-1.441,0.214 -3.024,0.645 -4.411,1.054 -3.695,1.09 -7.304,2.586 -10.695,4.377 -3.337,1.763 -6.619,3.7 -9.722,5.842 -1.08,0.745 -2.237,1.557 -3.241,2.405l-1.456 1.231z"/>
  <path class="fil13" d="M104.285 231.04l0.464 -0.225c0,0 3.592,2.007 8.909,3.914l-0.286 -6.781c0,0 1.518,0.354 2.383,0.538 0.865,0.185 1.342,0.282 1.342,0.282l0.199 7.153c3.53,1.045 7.523,1.897 11.594,2.121 12.433,0.683 16.116,-1.456 16.116,-1.456l-0.195 -7.002 1.549 -0.256 0.197 7.063 0.644 0.597 -2.254 3.732c0,0 0.748,12.494 0.214,23.644 -0.534,11.149 -3.497,26.072 -3.497,26.072l4.425 4.138 -0.314 1.718c0,0 -7.098,1.049 -15.861,5.678 -8.763,4.63 -12.623,7.926 -12.623,7.926 0,0 -1.31,-4.217 -1.287,-5.042 0.023,-0.826 14.078,-54.106 14.078,-54.106l6.109 -3.741 -7.455 2.348 -15.517 56.735 1.473 5.893 -0.932 2.291c0,0 -9.546,-10.959 -15.377,-13.724 -5.831,-2.765 -10.741,-2.101 -12.815,-1.747 -2.075,0.353 -6.127,1.978 -6.127,1.978l3.372 -7.03 5.919 -1.801 -1.589 -2.508c0,0 17.095,-51.518 17.126,-52.139 0.03,-0.621 0.016,-6.263 0.016,-6.263z"/>
  <path class="fil10" d="M143.34 237.186c0.816,-0.222 1.296,-0.421 1.517,-0.525l1.786 0.284 -2.124 3.923 -1.171 0.319c0,0 -0.248,13.627 -1.531,28.086 -1.282,14.459 -2.269,20.943 -2.269,20.943 0,0 -4.674,-0.168 -8.686,1.549 -4.012,1.718 -4.056,3.498 -4.056,3.498l3.379 4.684c0,0 7.423,-4.475 15.245,-5.989l0.659 0.616 -0.314 1.718c0,0 -7.098,1.049 -15.861,5.678 -8.763,4.63 -12.623,7.926 -12.623,7.926 0,0 -1.31,-4.217 -1.287,-5.042 0.023,-0.826 14.078,-54.106 14.078,-54.106l6.109 -3.741 -4.302 1.355c2.946,-1.215 5.508,-2.413 6.497,-3.252 2.293,-1.943 4.241,-6.222 4.954,-7.924zm-14.685 12.462l-15.436 56.442 1.473 5.893 -0.932 2.291c0,0 -9.546,-10.959 -15.377,-13.724 -1.251,-0.593 -2.46,-1.028 -3.608,-1.343 2.405,0.332 5.28,1.08 7.815,2.7 5.665,3.621 8.105,6.624 8.105,6.624 0,0 -0.93,-4.828 -1.28,-5.77 -0.35,-0.942 -3.386,-5.27 -7.684,-8.421 -4.298,-3.15 -6.368,-3.503 -6.368,-3.503l5.548 -1.649c0,0 3.179,1.06 5.042,2.385 1.862,1.325 2.286,1.737 2.286,1.737l10.853 -40.199c0,0 4.734,-1.601 9.563,-3.463z"/>
  <path class="fil13" d="M122.034 306.57c-0.241,0.157 -0.475,0.309 -0.701,0.458 -0.677,-1.805 -1.936,-5.224 -1.798,-5.763l0.714 0.237 -0.714 -0.239c1.462,-5.035 2.966,-11.321 4.293,-16.451 0.163,-0.632 2.012,-7.215 1.857,-7.481l-1.154 -1.983 2.803 -1.388 2.029 -20.479 0.719 -2.733 -2.229 23.566 -2.551 1.272c0.182,0.309 1.066,1.624 1.003,1.873 -0.331,1.309 -6.131,23.622 -6.001,24.141 0.42,1.681 1.086,3.338 1.73,4.97z"/>
  <path class="fil10" d="M107.143 232.025c0.239,0.114 0.492,0.232 0.762,0.356l-1.014 0.681c0.004,0.772 0.136,4.752 0.009,5.169l-14.901 49.148 5.521 1.863 -5.75 1.908 -2.448 5.007 -1.028 -0.536c0.331,-0.649 2.503,-5.157 2.722,-5.342l3.39 -1.074 -3.559 -1.249c1.562,-5.015 15.361,-49.16 15.356,-50.173l-0.025 -5.11 0.965 -0.648z"/>
  <path class="fil14" d="M114.299 238.605l0.244 -1.116 0.463 0.09 -0.167 1.403c-3.339,2.192 -6.691,4.194 -10.121,6.237l-0.496 -0.807c3.316,-1.975 6.676,-3.98 10.077,-5.807z"/>
  <polygon class="fil10" points="119.762,248.366 119.398,250.358 134.082,246.583 "/>
  <path class="fil14" d="M132.301 247.071c-0.052,0.245 -0.657,0.088 -0.608,-0.148l0.532 0.129 -0.531 -0.134c0.552,-2.39 1.01,-6.17 1.138,-8.614l0.294 0.006c0.171,2.72 -0.236,6.096 -0.825,8.761zm-0.607 -0.153l0.303 0.076 -0.303 -0.076z"/>
  <path class="fil14" d="M136.316 243.029c1.139,-1.286 1.726,-3.187 1.89,-4.892l0.174 -0.001c0.513,3.664 -2.236,7.27 -5.979,7.306l-0.028 -0.172c1.482,-0.407 2.93,-1.063 3.943,-2.241z"/>
  <path class="fil0" d="M101.523 213.012c-0.644,-0.454 -1.42,-0.858 -2.001,-1.33l-1.921 -1.562 1.176 -1.366c-5.1,-4.308 -13.372,-11.652 -17.433,-16.672 -5.155,-6.371 -13.201,-19.167 -16.526,-26.563 -0.921,-2.048 -4.43,-8.432 -4.188,-10.707 0.412,-3.876 5.274,-8.425 8.122,-10.94 2.226,-1.965 4.64,-3.908 7.063,-5.64 2.033,-1.736 6.046,-3.213 8.475,-3.963 9.436,-2.91 22.87,-0.382 32.67,-0.382 10.494,0 19.896,3.362 27.695,10.366 1.206,0.527 2.409,1.146 3.569,1.751 2.343,1.221 9.631,6.321 10.484,8.895 0.771,2.328 0.092,7.783 -0.599,10.551 0.911,2.381 2.282,6.066 3.026,8.483 2.565,8.33 -4.325,30.425 -7.599,38.277 -1.392,3.337 -2.91,7.546 -3.818,11.092 -0.344,1.344 -0.468,1.209 0.34,2.425l1.531 2.306c-2.947,1.413 -3.153,1.693 -6.666,2.186 -4.698,0.658 -9.8,0.689 -14.532,0.621 -6.502,-0.094 -13.087,-1.179 -19.353,-2.895 -3.989,-1.093 -6.223,-1.879 -9.929,-3.445 0.164,-3.557 0.402,-7.979 0.414,-11.488z"/>
  <path class="fil3" d="M148.053 227.059c0,0 -3.299,1.58 -17.627,1.374 -14.328,-0.206 -26.835,-5.497 -26.835,-5.497 0,0 0.481,-10.652 0.275,-11.064 -0.207,-0.413 -2.511,-1.803 -2.826,-2.058 0.334,-0.388 1.279,-1.241 1.279,-1.241 0,0 -13.572,-11.167 -19.104,-18.005 -5.532,-6.837 -20.194,-30.259 -19.645,-35.423 0.549,-5.164 14.283,-14.943 14.283,-14.943 0,0 9.551,-3.908 39.107,-3.908 11.601,0 20.136,4.302 26.376,10.013 3.13,1.27 13.323,6.9 13.941,8.689 0.618,1.789 -0.403,8.191 -0.916,10.81 1.567,3.835 2.403,6.854 2.77,8.048 1.78,5.79 -3.066,26.036 -7.817,37.43 -2.789,6.69 -4.203,12.176 -4.277,13.055 -0.087,1.028 0.554,2.024 1.016,2.72z"/>
  <path class="fil9" d="M159.345 180.36c-0.048,0.518 -0.106,1.054 -0.173,1.605 -1.356,-0.068 -3.398,-0.301 -6.23,-0.943 0,0 3.79,-0.237 6.403,-0.662z"/>
  <path class="fil9" d="M143.336 146.307c2.88,1.208 11.346,5.76 14.372,8.314 0.173,3.718 -1.347,11.185 -1.347,11.185 0,0 -3.822,-8.354 -6.838,-8.829 -3.016,-0.474 -16.57,9.386 -16.977,10.132 -0.406,0.745 0.847,5.32 0.847,5.32l-3.51 -7.511c0,0 2.908,-3.578 7.753,-9.467 4.846,-5.89 5.7,-9.144 5.7,-9.144z"/>
  <path class="fil0" d="M144.739 227.805c-0.27,0.039 -0.559,0.078 -0.869,0.116 -0.24,-0.427 -0.478,-0.856 -0.713,-1.286 -0.197,-0.363 -0.393,-0.728 -0.581,-1.096 -0.134,-0.26 -0.286,-0.55 -0.385,-0.824 -0.134,-0.369 0.364,-2.668 0.449,-3.11 0.437,-2.297 0.855,-4.591 1.218,-6.897 1.078,-6.858 1.73,-13.86 1.537,-20.746 -0.183,-6.54 -1.213,-13.094 -3.027,-19.322 -0.622,-2.136 -1.341,-4.256 -2.182,-6.312 -0.467,-1.142 -0.998,-2.382 -1.619,-3.449l-0.195 -0.334 0.702 -0.411 0.195 0.334c0.639,1.097 1.185,2.366 1.665,3.541 0.85,2.08 1.578,4.224 2.207,6.385 1.832,6.289 2.872,12.907 3.057,19.511 0.191,6.835 -0.443,13.782 -1.5,20.591 -0.361,2.323 -0.778,4.635 -1.218,6.948 -0.133,0.703 -0.271,1.406 -0.394,2.11 -0.035,0.198 -0.135,0.691 -0.126,0.899 0.089,0.237 0.225,0.491 0.339,0.714 0.186,0.364 0.38,0.724 0.575,1.083 0.254,0.466 0.513,0.929 0.773,1.391l0.092 0.164z"/>
  <path class="fil9" d="M148.053 227.059c0,0 -3.299,1.58 -17.627,1.374 -14.328,-0.206 -26.835,-5.497 -26.835,-5.497 0,0 0.481,-10.652 0.275,-11.064 -0.207,-0.413 -2.646,-1.856 -2.612,-2.165 0.035,-0.309 1.065,-1.134 1.065,-1.134 0,0 -13.572,-11.167 -19.104,-18.005 -5.532,-6.837 -18.554,-27.136 -18.005,-32.3 0.306,-2.88 4.714,-7.195 8.553,-10.449 2.881,4.951 8.041,13.468 12.38,18.744 6.408,7.791 16.39,15.95 23.444,17.392 7.055,1.442 16.241,-0.003 16.241,-0.003 0,0 -0.968,0.548 -4.417,1.934 -3.45,1.386 -8.85,2.725 -8.85,2.725 0,0 0.304,1.582 2.799,5.476 2.495,3.895 5.169,5.596 5.169,5.596 0,0 5.979,-5.144 22.315,-5.701 7.382,-0.251 11.428,0.512 13.645,1.423 -1.479,5.718 -3.334,11.463 -5.175,15.879 -2.789,6.69 -4.203,12.176 -4.277,13.055 -0.087,1.028 0.554,2.024 1.016,2.72z"/>
  <path class="fil3" d="M144.739 227.805c-0.27,0.039 -0.559,0.078 -0.869,0.116 -0.24,-0.427 -0.478,-0.856 -0.713,-1.286 -0.197,-0.363 -0.393,-0.728 -0.581,-1.096 -0.134,-0.26 -0.286,-0.55 -0.385,-0.824 -0.134,-0.369 0.364,-2.668 0.449,-3.11 0.437,-2.297 0.855,-4.591 1.218,-6.897 1.078,-6.858 1.73,-13.86 1.537,-20.746l-0.001 -0.028c0.274,-0.001 0.542,0 0.805,0.003 0.188,6.824 -0.446,13.761 -1.501,20.559 -0.361,2.323 -0.778,4.635 -1.218,6.948 -0.133,0.703 -0.271,1.406 -0.394,2.11 -0.035,0.198 -0.135,0.691 -0.126,0.899 0.089,0.237 0.225,0.491 0.339,0.714 0.186,0.364 0.38,0.724 0.575,1.083 0.254,0.466 0.513,0.929 0.773,1.391l0.092 0.164z"/>
  <path class="fil3" d="M106.368 222.86l1.189 0.322c0,0 0.173,-10.398 0.148,-11.091 -0.025,-0.693 -1.584,-1.956 -1.436,-2.278 0.149,-0.322 1.733,-1.881 1.461,-2.377 -0.272,-0.495 -9.764,-5.971 -16.207,-13.604 -6.443,-7.633 -17.509,-25.961 -19.895,-31.268l-1.289 1.09c3.993,8.035 14.84,25.618 20.639,31.714 5.799,6.097 15.117,12.144 15.117,12.144 0,0 -1.035,1.964 -0.967,2.203 0.069,0.239 1.4,1.4 1.571,2.458 0.17,1.058 -0.331,10.687 -0.331,10.687z"/>
  <path class="fil0" d="M138.044 228.358c-0.296,0.012 -0.6,0.023 -0.912,0.032l-0.195 -0.337c-0.215,-0.371 -0.428,-0.744 -0.633,-1.121 -0.145,-0.266 -0.311,-0.562 -0.423,-0.843 -0.151,-0.376 0.241,-2.727 0.305,-3.179 0.331,-2.35 0.643,-4.696 0.899,-7.055 0.76,-7.013 1.087,-14.174 0.576,-21.216 -0.486,-6.689 -1.82,-13.391 -3.922,-19.76 -0.722,-2.185 -1.539,-4.353 -2.474,-6.456 -0.52,-1.168 -1.109,-2.436 -1.78,-3.527l-0.21 -0.341 0.683 -0.421 0.21 0.342c0.691,1.122 1.295,2.419 1.83,3.621 0.946,2.127 1.773,4.32 2.502,6.53 2.124,6.432 3.47,13.199 3.961,19.954 0.508,6.99 0.195,14.095 -0.546,21.058 -0.253,2.376 -0.563,4.74 -0.896,7.105 -0.101,0.719 -0.206,1.438 -0.297,2.158 -0.025,0.203 -0.102,0.707 -0.084,0.92 0.1,0.242 0.248,0.502 0.372,0.73 0.203,0.372 0.413,0.74 0.625,1.107 0.135,0.234 0.272,0.467 0.409,0.699z"/>
  <ellipse class="fil15" transform="matrix(1.21789 -0 0.16082 1.06166 135.943 169.854)" rx="1.252" ry="1.834"/>
  <ellipse class="fil15" transform="matrix(1.09795 0.0525944 0.0991338 0.964047 139.824 181.259)" rx="1.252" ry="1.834"/>
  <path class="fil1" d="M140.012 138.917c0.451,0.769 1.12,1.657 1.589,2.321 0.53,0.751 0.983,1.615 1.418,2.425 0.56,1.044 1.115,2.087 1.708,3.113 1.133,1.963 -0.808,4.34 -1.957,5.84 -0.736,0.96 -1.505,1.884 -2.289,2.803 -1.448,1.477 -2.87,2.998 -4.368,4.434 -0.962,1.128 -2.095,2.366 -3.413,3.097 -2.883,2.113 -5.506,0.006 -7.545,-1.986 -0.475,-0.44 -0.941,-0.934 -1.398,-1.395 -0.89,-0.895 -1.778,-1.792 -2.666,-2.689 -1.719,-1.735 -3.434,-3.484 -5.177,-5.195 -2.893,-2.839 -4.235,-4.648 -8.021,-6.475 -1.797,-0.631 -3.599,-1.359 -5.351,-2.099 -3.702,-1.564 -7.42,-3.338 -10.856,-5.427l-1.201 -0.731 0.046 -1.406c0.109,-3.276 0.174,-6.559 0.149,-9.838 -0.022,-2.819 -0.096,-5.689 -0.374,-8.496 -0.69,-6.948 -1.868,-13.996 -3.06,-20.878 -0.691,-3.987 -1.412,-7.978 -2.185,-11.951l-0.604 -3.101 53.759 4.118 1.796 53.516z"/>
  <path class="fil16" d="M87.423 83.924c0,0 4.066,20.852 5.278,33.052 0.495,4.982 0.455,12.042 0.236,18.651 7.009,4.262 15.877,7.355 15.877,7.355 4.482,2.137 5.901,4.153 8.786,6.985 2.031,1.994 8.523,10.09 8.984,10.471 5.268,4.359 3.067,5.737 12.006,-6.51 0.022,-0.031 4.505,-5.164 4.052,-5.949 -1.356,-2.35 -2.291,-4.339 -3.007,-5.353 -1.891,-2.679 -2.01,-3.073 -2.01,-3.073l-1.742 -51.917 -48.46 -3.712z"/>
  <path class="fil17" d="M87.423 83.924c0,0 4.066,20.852 5.278,33.052 1.211,12.199 -0.779,36.857 -0.779,36.857 0,0 6.664,-1.679 15.423,-0.11l-4.732 -28.5c0,0 4.147,10.646 11.412,16.188 7.265,5.541 7.634,5.725 7.634,5.725 0,0 -2.278,-2.401 -3.509,-4.863 -1.231,-2.463 -1.293,-3.14 -1.293,-3.14 0,0 7.019,4.556 14.345,3.878 3.313,-0.306 5.341,-1.732 6.57,-3.203 -0.129,-0.211 -0.147,-0.255 -0.147,-0.255l-1.742 -51.917 -48.46 -3.712z"/>
  <path class="fil18" d="M137.303 131.146l-1.42 -42.325 -45.653 -3.497 5.664 18.111c0,0 0.611,6.383 4.663,12.933 4.052,6.549 10.158,11.878 10.158,11.878l-3.775 -9.269c6.477,7.826 17.571,11.645 30.363,12.169z"/>
  <path class="fil0" d="M116.03 155.85c0,0 -5.02,-2.359 -5.685,-2.359 -0.666,0 -5.867,3.992 -8.71,7.258 -2.843,3.266 -4.234,6.048 -4.234,6.048 0,0 -7.803,-7.742 -14.577,-18.448 -6.775,-10.706 -8.287,-14.879 -8.226,-16.633 0.06,-1.754 4.152,-6.326 8.555,-10.022 4.404,-3.695 9.397,-6.152 9.397,-6.152l0.415 19.203c0,0 5.477,3.792 11.434,6.013 5.957,2.22 8.015,2.816 8.015,2.816 0,0 8.286,7.798 11.968,11.914 3.683,4.115 6.378,8.27 6.378,8.27l-0.689 0.938 -14.041 -8.846z"/>
  <path class="fil3" d="M130.124 163.987c0,0 -15.105,-16.899 -19.608,-19.15 -4.503,-2.252 -9.08,-3.684 -13.488,-6.144 -4.408,-2.461 -6.459,-4.152 -6.459,-4.152 0,0 0.154,-3.999 0.154,-8.356 0,-4.357 -0.154,-7.177 -0.154,-7.177 0,0 -4.705,3.169 -8.273,7.229 -3.568,4.06 -4.491,5.475 -4.614,6.398 -0.123,0.923 5.291,12.118 11.011,19.131 5.721,7.013 9.166,10.273 9.166,10.273 0,0 10.129,-10.084 11.947,-10.144 1.817,-0.061 16.879,14.654 16.879,14.654l3.439 -2.562z"/>
  <path class="fil4" d="M90.651 121.141c-0.04,-1.361 -0.082,-2.133 -0.082,-2.133 0,0 -4.705,3.169 -8.273,7.229 -3.568,4.06 -4.491,5.475 -4.614,6.398 -0.123,0.923 5.291,12.118 11.011,19.131 0.505,0.618 0.991,1.207 1.459,1.767 -4.723,-7.745 -8.987,-18.968 -9.036,-19.995 -0.06,-1.251 0.715,-3.157 4.527,-7.804 1.597,-1.946 3.424,-3.474 5.008,-4.593z"/>
  <path class="fil9" d="M96.616 160.792c0.811,0.838 1.243,1.247 1.243,1.247 0,0 10.129,-10.084 11.947,-10.144 1.057,-0.036 6.27,4.639 10.45,8.559 -3.558,-5.448 -9.204,-10.446 -10.129,-10.772 -1.013,-0.358 -1.668,0 -5.302,2.8 -2.786,2.146 -6.586,6.428 -8.209,8.31z"/>
  <path class="fil0" d="M135.17 161.202c0,0 11.495,-8.897 14.466,-9.361 2.97,-0.464 10.397,7.844 10.397,7.844 0,0 -0.278,-9.84 -4.827,-21.166 -4.549,-11.326 -10.212,-14.807 -11.001,-15.41 -0.789,-0.604 -4.651,1.776 -4.651,1.776l-2.409 0.364 0.48 14.304 2.347 0.637c0,0 3.2,2.559 3.411,5.02 0.211,2.462 -13.749,19.235 -13.749,19.235l0.875 0.699 4.661 -3.942z"/>
  <path class="fil9" d="M130.499 165.156c0,0 10.714,-13.42 12.462,-16.07 1.748,-2.65 2.537,-4.849 -0.113,-8.063 -2.65,-3.214 -2.876,-3.327 -2.876,-3.327l-0.41 -12.224c0,0 3.818,-0.533 5.545,1.054 1.728,1.587 6.954,9.828 9.154,16.301 2.2,6.474 2.623,11.086 2.623,11.086 0,0 -6.265,-4.072 -7.473,-3.818 -1.208,0.254 -8.551,5.118 -12.238,8.933 -3.688,3.814 -6.04,7.279 -6.04,7.279l-0.634 -1.151z"/>
  <path class="fil4" d="M156.593 151.866c0.223,1.305 0.291,2.047 0.291,2.047 0,0 -6.265,-4.072 -7.473,-3.818 -0.668,0.141 -3.215,1.693 -5.981,3.697 1.998,-2.337 5.794,-4.948 6.753,-4.811 0.839,0.12 4.65,2 6.41,2.885z"/>
  <path class="fil0" d="M92.965 134.745c0,0 -5.71,-3.986 -5.959,-4.63 -0.249,-0.643 0.436,-2.076 0.436,-2.076 0,0 -1.578,1.578 -1.536,2.222 0.041,0.643 4.663,4.28 4.663,4.28l2.396 0.204z"/>
  <path class="fil4" d="M143.103 125.589c0.751,0.165 1.476,0.451 2.004,0.937 1.728,1.587 6.954,9.828 9.154,16.301 0.637,1.874 1.125,3.592 1.497,5.087l-5.387 -2.082c0,0 -0.104,-1.255 -2.09,-9.2 -1.423,-5.692 -3.892,-9.398 -5.178,-11.043z"/>
  <path class="fil0" d="M143.513 142.929c0,0 0.182,-1.773 0.114,-3.819 -0.068,-2.045 -0.341,-2.682 -0.341,-2.682 0,0 1.736,3.901 1.277,8.587 -0.071,0.726 -0.271,1.196 -0.558,1.472l-0.492 -3.558z"/>
  <path class="fil0" d="M111.102 167.535c0.043,-0.011 0.087,-0.02 0.132,-0.025 2.128,-0.257 4.003,-0.203 6.165,-0.122 0.326,0.012 0.599,0.188 0.746,0.479l2.895 5.762c0.142,0.282 0.126,0.594 -0.045,0.861 -0.17,0.266 -0.446,0.412 -0.763,0.401 -5.193,-0.171 -10.641,1.662 -15.21,4.023 -0.187,0.096 -0.373,0.194 -0.561,0.288 -0.261,0.132 -0.545,0.129 -0.804,-0.01 -0.258,-0.138 -0.418,-0.372 -0.453,-0.663l-0.38 -3.129c-0.029,-0.235 0.034,-0.458 0.168,-0.633 -0.143,-0.135 -0.237,-0.318 -0.263,-0.527l-0.418 -3.372c-0.05,-0.405 0.177,-0.78 0.559,-0.923 3.445,-1.292 4.705,-1.75 8.232,-2.41z"/>
  <path class="fil0" d="M111.34 168.378c0,0 0.001,-0.002 -0.001,-0.003l0.324 -0.039 1.773 -0.134c0.1,-0.005 0.199,-0.009 0.3,-0.014l1.267 1.662 -0.107 -1.684 2.47 0.092 2.895 5.762c-5.341,-0.176 -10.931,1.689 -15.639,4.119 -0.185,0.097 -0.37,0.193 -0.553,0.285l-0.38 -3.129 1.538 -0.737 -1.633 -0.425 -0.418 -3.372 4.129 -1.548 0.195 0.931 0.777 -1.194 3.063 -0.572zm-3.708 3.704l-1.048 0.38c0.399,0.118 0.801,0.236 1.202,0.352 -0.051,-0.244 -0.104,-0.487 -0.154,-0.732z"/>
  <path class="fil19" d="M108.247 175.915c-0.638,0.258 -1.276,0.523 -1.909,0.815 -0.635,0.293 -1.271,0.61 -1.901,0.934 -0.043,-0.342 -0.084,-0.683 -0.126,-1.024 -0.042,-0.341 -0.08,-0.685 -0.124,-1.025 0.465,-0.226 0.932,-0.449 1.399,-0.663 0.039,0.259 0.077,0.519 0.117,0.778 0.295,-0.137 0.586,-0.266 0.883,-0.397 -0.056,-0.33 -0.111,-0.663 -0.172,-0.996 -0.411,-0.106 -0.82,-0.21 -1.224,-0.317 -0.399,-0.105 -0.797,-0.208 -1.19,-0.313 -0.055,-0.436 -0.107,-0.873 -0.162,-1.306 -0.056,-0.435 -0.107,-0.87 -0.162,-1.305 0.546,-0.237 1.092,-0.468 1.641,-0.678 0.549,-0.21 1.102,-0.396 1.654,-0.576 0.065,0.3 0.124,0.602 0.185,0.902 0.062,0.302 0.123,0.604 0.185,0.905 -0.41,0.143 -0.813,0.29 -1.22,0.446 -0.037,-0.222 -0.075,-0.442 -0.114,-0.663 -0.289,0.11 -0.576,0.223 -0.862,0.34 0.041,0.276 0.085,0.552 0.129,0.827 0.398,0.115 0.799,0.23 1.203,0.348 0.409,0.119 0.821,0.239 1.239,0.36 0.087,0.435 0.175,0.869 0.263,1.305 0.088,0.433 0.18,0.867 0.268,1.303zm2.1 -0.76c-0.489,0.163 -0.98,0.338 -1.468,0.513 -0.092,-0.423 -0.183,-0.844 -0.276,-1.266 -0.093,-0.422 -0.184,-0.845 -0.276,-1.267 -0.092,-0.42 -0.184,-0.842 -0.277,-1.263 -0.093,-0.422 -0.18,-0.843 -0.272,-1.265 0.269,-0.415 0.537,-0.825 0.797,-1.224 0.918,-0.212 1.844,-0.39 2.778,-0.537 0.147,0.463 0.296,0.926 0.442,1.39 0.145,0.461 0.295,0.923 0.443,1.384 0.147,0.459 0.294,0.922 0.441,1.381 0.147,0.459 0.294,0.919 0.443,1.377 -0.506,0.121 -1.004,0.251 -1.501,0.388 -0.087,-0.311 -0.175,-0.623 -0.264,-0.935 -0.088,-0.311 -0.177,-0.625 -0.266,-0.936 -0.412,0.108 -0.818,0.218 -1.228,0.339 0.08,0.32 0.164,0.641 0.245,0.961 0.08,0.32 0.158,0.641 0.239,0.96zm0.44 -3.343c-0.078,-0.279 -0.157,-0.554 -0.234,-0.832 -0.078,-0.278 -0.157,-0.555 -0.236,-0.831 -0.389,0.086 -0.777,0.174 -1.161,0.27 0.073,0.284 0.142,0.569 0.213,0.852 0.071,0.285 0.146,0.569 0.217,0.853 0.397,-0.111 0.799,-0.215 1.201,-0.312zm4.612 -3.22c0.554,0.009 1.11,0.024 1.674,0.049 0.208,0.419 0.415,0.84 0.622,1.257 0.205,0.414 0.414,0.829 0.621,1.243 0.207,0.414 0.412,0.826 0.617,1.233 0.206,0.409 0.412,0.817 0.621,1.228 -0.516,-0.003 -1.023,0.002 -1.526,0.032 -0.237,-0.513 -0.474,-1.032 -0.71,-1.549 -0.238,-0.521 -0.477,-1.042 -0.713,-1.566 0.047,0.53 0.095,1.06 0.134,1.594 0.039,0.537 0.07,1.078 0.097,1.621 -0.158,0.017 -0.315,0.035 -0.47,0.057 -0.204,-0.252 -0.412,-0.506 -0.612,-0.762 -0.201,-0.258 -0.403,-0.517 -0.604,-0.778 -0.402,-0.52 -0.789,-1.047 -1.175,-1.579 0.203,0.552 0.412,1.102 0.618,1.651 0.205,0.547 0.409,1.093 0.613,1.637 -0.474,0.083 -0.948,0.173 -1.418,0.269 -0.152,-0.453 -0.306,-0.906 -0.458,-1.359 -0.152,-0.454 -0.305,-0.909 -0.458,-1.363 -0.153,-0.454 -0.308,-0.91 -0.461,-1.365 -0.154,-0.457 -0.308,-0.914 -0.461,-1.372 0.527,-0.054 1.055,-0.099 1.59,-0.132 0.326,0.434 0.651,0.861 0.984,1.287 0.331,0.424 0.67,0.846 1.01,1.265 -0.015,-0.438 -0.031,-0.873 -0.053,-1.308 -0.023,-0.432 -0.052,-0.863 -0.082,-1.29z"/>
  <path class="fil0" d="M84.651 170.435c4.438,4.691 10.381,10.118 15.77,13.205 6.59,3.776 7.388,3.266 11.026,3.163 3.638,-0.103 9.748,-0.858 9.748,-0.858 0,0 -8.512,3.364 -13.764,3.089 -8.592,-0.449 -20.478,-13.232 -22.78,-18.599z"/>
  <g id="_1693941823440">
   <path class="fil7" d="M138.985 304.278l0.291 -0.145 0.159 -0.25c1.399,-2.194 4.495,-3.185 7.046,-4.267 0.829,-0.351 2.174,-0.923 2.635,-1.612 0.297,-0.446 0.266,-0.933 -0.086,-1.309 -0.216,-0.231 -0.519,-0.387 -0.837,-0.518 -1.007,-0.414 -2.814,-0.402 -3.952,-0.297 -2.302,0.213 -4.555,0.926 -6.544,1.964 -1.808,0.944 -3.677,2.261 -4.601,3.847 -0.634,1.088 -0.839,2.486 0.235,3.341 1.466,1.166 4.126,0.042 5.654,-0.754z"/>
   <path class="fil12" d="M138.431 303.523c-0.115,0.057 -3.149,1.73 -4.267,0.841 -1.117,-0.888 -0.367,-3.44 4.101,-5.772 4.468,-2.332 8.466,-1.963 9.347,-1.601 0.88,0.361 1.014,0.723 -1.601,1.831 -2.614,1.108 -5.98,2.188 -7.58,4.701z"/>
   <path class="fil8" d="M138.43 303.523l-0.004 0.002 -0.003 0.002 -0.003 0.001 -0.008 0.004 -0.001 0.001 -0.008 0.004 -0.007 0.004 -0.004 0.002 -0.013 0.007 -0.003 0.002 -0.011 0.005 -0.013 0.007 -0.003 0.002 -0.017 0.009 -0.007 0.003 -0.012 0.007 -0.019 0.009 -0.001 0.001 -0.022 0.011 -0.011 0.006 -0.012 0.006 -0.025 0.013 -0.001 0 -0.025 0.013 -0.016 0.008 -0.011 0.006 -0.028 0.014 -0.005 0.003 -0.025 0.012 -0.022 0.011 -0.009 0.005 -0.032 0.016 -0.009 0.004 -0.025 0.012 -0.028 0.014 -0.006 0.003 -0.036 0.017 -0.014 0.007 -0.023 0.011 -0.035 0.017 -0.002 0.001 -0.039 0.018 -0.02 0.009 -0.002 0.001 -0.051 0.024 -0.008 0.004 -0.003 0.001 -0.038 0.018 -0.027 0.012 -0.016 0.007 -0.044 0.02 -0.008 0.004 -0.036 0.016 -0.033 0.015 -0.012 0.005 -0.046 0.02 -0.014 0.006 -0.033 0.014 -0.041 0.018 -0.006 0.003 -0.049 0.02 -0.02 0.009 -0.029 0.012 -0.048 0.02 -0.001 0 -0.05 0.021 -0.009 0.003 -0.037 0.015 -0.005 0.002 -0.051 0.021 -0.005 0.002 -0.047 0.018 -0.008 0.003 -0.041 0.016 -0.003 0.001 -0.053 0.02 -0.012 0.004 -0.041 0.016 -0.014 0.005 -0.04 0.015 -0.054 0.019 -0.003 0.001 -0.034 0.012 -0.044 0.016 -0.022 0.008 -0.006 0.002 -0.055 0.018 -0.012 0.004 -0.027 0.009 -0.052 0.017 -0.02 0.007 -0.001 0 -0.055 0.017 -0.008 0.003 -0.042 0.013 -0.006 0.002 -0.056 0.017 -0.029 0.008 -0.044 0.013 -0.035 0.01 -0.004 0.001 -0.057 0.016 -0.004 0.001 -0.031 0.008 -0.046 0.012 -0.028 0.007 -0.004 0.001 -0.056 0.014 -0.006 0.001 -0.032 0.008 -0.056 0.013 -0.015 0.003 -0.004 0.001c-0.671,0.148 -1.318,0.159 -1.719,-0.161 -0.709,-0.564 -0.665,-1.797 0.601,-3.218 0.359,-0.188 0.685,-0.316 0.969,-0.373 0,0 0.576,0.349 1.428,0.839 0.815,-0.875 1.913,-1.625 3.005,-2.219 1.946,-1.061 4.128,-1.899 6.42,-2.274 0.332,-0.055 0.67,-0.1 1.011,-0.134l0.014 0.006c0.88,0.361 1.014,0.723 -1.601,1.831 -2.303,0.976 -5.187,1.931 -6.937,3.861l-0.011 0.012 -0.011 0.013 -0.011 0.012 -0.044 0.049 -0.01 0.013 -0.011 0.012 -0.011 0.013 -0.011 0.012 -0.011 0.013 -0.032 0.038 -0.01 0.012 0 0.001 -0.042 0.05 -0.011 0.013 -0.027 0.033c-0.019,0.024 -0.038,0.048 -0.057,0.073l-0.023 0.03c-0.023,0.03 -0.046,0.06 -0.069,0.09l-0.012 0.017c-0.024,0.032 -0.047,0.064 -0.07,0.096l-0.009 0.013c-0.025,0.035 -0.049,0.071 -0.073,0.106l-0.001 0.002 -0.004 0.006c-0.024,0.036 -0.049,0.074 -0.073,0.111z"/>
  </g>
  <g id="_1693941821184">
   <path class="fil7" d="M143.214 304.559c0.746,-0.476 1.552,-0.967 2.379,-1.342 0.462,-0.209 0.922,-0.358 1.399,-0.536 1.446,-0.539 2.937,-1.159 4.306,-1.826 0.745,-0.363 1.661,-0.835 2.257,-1.349 0.365,-0.315 0.646,-0.688 0.652,-1.114 0.008,-0.556 -0.444,-0.939 -1.063,-1.11 -1.479,-0.408 -3.193,-0.426 -4.782,-0.219 -2.282,0.297 -4.491,1.068 -6.484,2.073 -1.769,0.892 -3.584,2.176 -4.305,3.779 -0.467,1.035 -0.453,2.374 0.704,3.02 0.925,0.517 2.016,0.337 2.995,-0.138 0.708,-0.343 1.322,-0.8 1.942,-1.238z"/>
   <path class="fil12" d="M142.524 303.883c-1.069,0.753 -2.507,1.876 -3.548,1.295 -1.04,-0.581 -1.009,-3.035 3.454,-5.286 4.463,-2.25 8.189,-2.324 10.269,-1.75 2.08,0.575 -5.202,3.38 -6.12,3.722 -0.919,0.342 -1.694,0.511 -4.055,2.019z"/>
   <path class="fil8" d="M142.524 303.883l-0.038 0.027 -0.013 0.009 -0.025 0.017 -0.026 0.019 -0.012 0.009 -0.038 0.027 -0.001 0 -0.038 0.027 -0.014 0.01 -0.025 0.018 -0.027 0.019 -0.012 0.009 -0.04 0.028 -0.001 0.001 -0.039 0.028 -0.014 0.01 -0.026 0.018 -0.028 0.02 -0.012 0.009 -0.041 0.028 -0.001 0.001 -0.039 0.028 -0.015 0.01 -0.026 0.018 -0.029 0.021 -0.012 0.008 -0.041 0.029 -0.002 0.001 -0.04 0.028 -0.016 0.01 -0.026 0.018 -0.029 0.021 -0.012 0.008 -0.042 0.028 -0.003 0.002 -0.039 0.027 -0.017 0.011 -0.026 0.017 -0.005 0.004 -0.037 0.024 -0.043 0.028 -0.002 0.002 -0.04 0.026 -0.018 0.011 -0.025 0.017 -0.032 0.02 -0.011 0.007 -0.043 0.028 -0.003 0.002 -0.04 0.025 -0.018 0.011 -0.025 0.015 -0.033 0.02 -0.011 0.007 -0.043 0.026 -0.004 0.002 -0.04 0.024 -0.018 0.01 -0.012 0.007 -0.035 0.021 -0.011 0.006 -0.011 0.006 -0.043 0.025 -0.004 0.002 -0.016 0.009 -0.034 0.019 -0.009 0.004 -0.025 0.014 -0.01 0.005 -0.03 0.016 -0.003 0.002 -0.044 0.023 -0.005 0.002 -0.039 0.02 -0.002 0.001 -0.037 0.019 -0.014 0.007 -0.032 0.015 -0.002 0.002 -0.044 0.02 -0.005 0.003 -0.038 0.017 -0.006 0.003 -0.03 0.014 -0.019 0.008 -0.033 0.014 -0.043 0.019 -0.027 0.01 -0.023 0.01 -0.029 0.011 -0.022 0.008 -0.03 0.012 -0.043 0.015 -0.034 0.012 -0.013 0.005 -0.035 0.011 -0.014 0.004 -0.033 0.011 0 0 -0.043 0.013 -0.001 0 -0.032 0.009 -0.013 0.003 -0.034 0.009 -0.019 0.004 -0.03 0.008 -0.042 0.009 0 0 -0.028 0.005 -0.022 0.004 -0.027 0.005 -0.025 0.004 -0.023 0.004 -0.002 0 -0.042 0.006c-0.3,0.037 -0.588,-0.002 -0.85,-0.148 -0.773,-0.431 -0.954,-1.896 0.831,-3.542 0.511,0.326 1.054,0.663 1.591,0.982l0.038 0.022c0.896,-0.902 2.052,-1.728 3.217,-2.33 2.337,-1.207 4.874,-1.87 7.563,-2.283 0.169,0.035 0.331,0.073 0.483,0.115 2.08,0.575 -5.202,3.38 -6.12,3.722 -0.769,0.286 -1.438,0.451 -3.02,1.382l-0.014 0.008 -0.015 0.009 -0.015 0.009 -0.014 0.008 -0.015 0.009 -0.014 0.009 -0.015 0.009 -0.03 0.017 -0.015 0.009 -0.015 0.009 -0.015 0.009 -0.015 0.009 -0.015 0.009 -0.014 0.008 -0.001 0.001 -0.016 0.009 -0.015 0.01 -0.015 0.009 -0.016 0.009 -0.015 0.009 -0.016 0.01 0 0 -0.015 0.009 -0.016 0.01 -0.015 0.009 -0.016 0.01 -0.016 0.01 -0.016 0.009 -0.003 0.002 -0.013 0.008 -0.016 0.01 -0.016 0.009 -0.016 0.01 -0.016 0.01 -0.016 0.01 -0.005 0.003 -0.011 0.007 -0.017 0.01 -0.032 0.021 -0.017 0.01 -0.016 0.01 -0.008 0.005 -0.009 0.005 -0.016 0.011 -0.017 0.01 -0.017 0.01 -0.017 0.011 -0.017 0.01 -0.01 0.007 -0.006 0.004 -0.017 0.011 -0.017 0.01 -0.035 0.022 -0.017 0.011 -0.013 0.008 -0.074 0.047 -0.017 0.011 -0.016 0.009 -0.002 0.002 -0.071 0.045 -0.018 0.012 -0.018 0.011z"/>
  </g>
  <g id="_1693941822864">
   <path class="fil7" d="M142.59 307.424c1.195,0.541 3.204,-0.263 4.135,-1.034 0.255,-0.212 0.494,-0.455 0.726,-0.683 0.304,-0.298 0.609,-0.594 0.929,-0.882 0.691,-0.622 1.494,-1.256 2.385,-1.691 1.017,-0.496 2.261,-0.885 3.366,-1.223 0.528,-0.162 1.06,-0.318 1.586,-0.486 0.378,-0.121 0.859,-0.274 1.188,-0.473 0.535,-0.322 0.726,-0.835 0.593,-1.319 -0.095,-0.348 -0.344,-0.661 -0.647,-0.908 -0.728,-0.592 -1.8,-0.857 -2.878,-0.695 -2.851,0.431 -5.538,1.122 -8.005,2.497 -1.48,0.825 -2.956,2.063 -3.817,3.321 -0.841,1.227 -1.222,2.825 0.439,3.576z"/>
   <path class="fil12" d="M143.165 306.68c0.653,0.296 2.166,-0.305 2.826,-0.852 0.659,-0.546 2.238,-2.413 4.275,-3.407 2.038,-0.993 5.424,-1.755 6.044,-2.129 0.621,-0.374 -0.529,-1.686 -2.22,-1.431 -1.69,0.255 -4.745,0.776 -7.563,2.347 -2.817,1.571 -5.278,4.605 -3.362,5.472z"/>
   <path class="fil8" d="M144.667 302.498c-0.601,0.508 -1.122,1.053 -1.505,1.581 0.133,-0.039 0.265,-0.077 0.397,-0.114 -0.298,0.274 -0.579,0.556 -0.84,0.847 -0.388,0.816 -0.327,1.518 0.446,1.868 0.653,0.296 2.166,-0.305 2.826,-0.852 0.659,-0.546 2.238,-2.413 4.275,-3.407 2.038,-0.993 5.424,-1.755 6.044,-2.129 0.52,-0.313 -0.202,-1.283 -1.442,-1.441 -2.286,0.347 -4.511,1.038 -6.527,1.987 -1.037,0.488 -2.069,1.071 -3.022,1.731 -0.219,-0.019 -0.438,-0.042 -0.652,-0.071z"/>
  </g>
  <g id="_1693931735600">
   <path class="fil7" d="M100.164 296.125c0.274,0.7 -1.031,3.43 -1.099,6.991 -3.123,-1.521 -6.825,-2.084 -10.152,-2.154 -2.629,-0.056 -5.265,0.226 -7.794,0.875 0.076,-0.604 0.168,-1.175 0.275,-1.692 0.824,-3.949 1.635,-5.743 2.413,-6.174 0.778,-0.431 10.846,-2.369 16.357,2.154z"/>
   <path class="fil12" d="M97.736 300.213c0.107,-0.73 0.419,-2.817 0.579,-3.406 0.195,-0.718 -3.328,-2.226 -7.989,-2.01 -4.661,0.215 -6.113,0.897 -6.456,1.472 -0.27,0.45 -0.596,2.802 -0.724,3.794 1.994,-0.825 4.8,-1.651 7.753,-1.462 2.863,0.184 5.218,0.928 6.837,1.612z"/>
   <path class="fil7" d="M96.172 292.033c0.152,0.323 -0.907,2.225 -1.012,3.625 -0.105,1.4 -0.13,1.795 -0.56,1.795 -0.431,0 -2.309,-0.395 -4.752,-0.467 -2.443,-0.072 -3.227,0.108 -3.305,-0.107 -0.078,-0.216 -0.115,-4.128 1.04,-5.205 1.154,-1.077 2.092,-0.898 3.351,-0.826 1.258,0.072 4.611,0.61 5.238,1.185z"/>
   <path class="fil12" d="M95.191 292.894c0,0 -2.322,-0.862 -4.37,-0.934 -2.048,-0.072 -3.174,0.718 -3.306,1.149 -0.132,0.431 -0.569,2.764 -0.344,3.123 0.226,0.359 3.095,0.287 4.713,0.359 1.617,0.072 2.445,0.179 2.546,-0.072 0.101,-0.251 0.371,-3.446 0.761,-3.625z"/>
   <path class="fil20" d="M95.191 292.894c0,0 -1.679,-0.623 -3.442,-0.854 0.115,0.64 0.171,1.409 0,2.107 -0.248,1.015 -0.441,1.911 -0.546,2.422 0.242,0.006 0.472,0.013 0.681,0.022 1.617,0.072 2.445,0.179 2.546,-0.072 0.101,-0.251 0.371,-3.446 0.761,-3.625z"/>
  </g>
  <path class="fil7" d="M145.761 295.245c0,0 -1.419,-4.608 -1.906,-5.288 -0.488,-0.68 -8.964,-0.836 -13.043,2.706 -4.078,3.542 -3.494,6.304 -3.08,7.131 0.413,0.827 3.615,2.185 3.615,2.185 0,0 3.286,-5.295 14.414,-6.734z"/>
  <path class="fil12" d="M129.525 301.108c0.912,0.486 1.822,0.871 1.822,0.871 0,0 2.929,-4.717 12.616,-6.457 -0.361,-1.113 -1.089,-3.139 -1.687,-3.373 -0.829,-0.326 -7.873,0.468 -10.666,2.502 -2.504,1.823 -3.354,4.452 -2.085,6.457z"/>
  <path class="fil7" d="M140.649 288.468c-0.995,-0.694 -7.541,1.183 -8.146,1.887 -0.605,0.704 -0.306,1.739 0.2,3.082 0.506,1.344 1.248,2.766 1.76,2.923 0.512,0.156 2.325,-0.627 4.15,-0.984 1.825,-0.357 2.841,-0.329 3.093,-1.104 0.251,-0.776 -0.003,-4.401 -1.057,-5.804z"/>
  <path class="fil12" d="M140.814 292.863c0.024,0.853 -0.119,1.337 -1.125,1.64 -1.007,0.304 -4.072,0.979 -4.692,1.162 -0.62,0.183 -0.99,-0.505 -1.164,-1.158 -0.175,-0.653 -0.555,-3.096 -0.173,-3.406 0.381,-0.309 3.913,-1.063 5.278,-1.105 1.366,-0.042 1.636,-0.154 1.876,2.867z"/>
  <path class="fil20" d="M140.814 292.863c0.024,0.853 -0.119,1.337 -1.125,1.64 -0.278,0.084 -0.712,0.196 -1.208,0.318 -0.041,-1.43 -0.28,-3.34 -1.153,-4.636 0.633,-0.104 1.213,-0.176 1.61,-0.189 1.366,-0.042 1.636,-0.154 1.876,2.867z"/>
  <g id="_1693931706560">
   <path class="fil1" d="M92.516 82.359c1.806,3.698 1.441,5.785 0.626,9.594 -0.785,3.666 -4.174,7.131 -8.145,6.563 -2.174,-0.311 -5.819,-3.331 -7.476,-4.752 -2.193,-1.883 -5.225,-4.69 -6.668,-7.155 -2.035,-3.474 -3.137,-6.962 -3.184,-10.988 -0.027,-2.344 0.445,-7.027 2.1,-8.839 1.537,-1.683 3.806,-2.894 6.139,-2.507 2.571,0.426 8.685,4.195 10.079,6.386 1.153,1.811 2.226,3.791 3.275,5.667 1.101,1.97 2.265,4.005 3.254,6.031z"/>
   <path class="fil1" d="M155.892 33.971l1.176 3.886c0.711,2.431 5.37,18.358 5.452,20.172 0.067,1.477 -2.125,8.052 -2.639,9.693 -0.841,2.689 -1.875,5.837 -2.594,8.559 1.227,2.528 3.624,6.366 3.449,8.824 -0.045,0.627 -1.443,4.59 -1.784,5.541l-9.89 24.485 -1.163 6.894c0.066,1.67 -1.173,2.75 -2.798,3.629 -4.736,2.562 -6.817,3.274 -12.123,2.935 -8.912,-0.57 -15.056,-4.41 -22.671,-8.48 -3.08,-1.647 -6.224,-3.244 -9.256,-4.972 -1.52,-0.866 -3.985,-2.23 -4.712,-3.892l-3.41 -8.353c-4.194,-10.396 -16.909,-42.076 -19.222,-52.317 -1.822,-8.073 0.712,-17.669 4.867,-24.644 6.094,-10.232 15.966,-16.453 27.569,-18.68 10.96,-2.103 22.776,-1.792 32.629,3.982 8.641,5.063 14.122,13.313 17.12,22.738z"/>
   <path class="fil16" d="M153.713 34.761c0.3,0.686 6.431,21.977 6.494,23.373 0.064,1.396 -5.561,16.482 -5.339,18.639 0.221,2.156 3.593,5.239 3.559,7.711 -0.035,2.472 -11.361,28.951 -11.63,30.146 -0.268,1.196 -1.06,7.236 -1.736,7.75 -0.676,0.515 -3.574,4.433 -11.935,3.898 -8.362,-0.535 -13.844,-3.997 -21.728,-8.211 -7.883,-4.214 -12.338,-6.379 -12.938,-7.75 -0.601,-1.371 -19.762,-48.151 -22.494,-60.252 -2.733,-12.101 4.788,-35.584 30.614,-40.54 25.826,-4.957 41.188,6.425 47.133,25.236z"/>
   <path class="fil21" style="mask:url(#id0)" d="M124.508 52.662c4.098,5.322 6.772,8.022 5.636,19.43 -0.267,2.676 -0.187,5.141 -0.187,5.141 0,0 -2.258,-3.212 -4.106,-3.647 -1.847,-0.435 -9.587,-0.436 -16.624,-1.753 -7.037,-1.317 -13.859,-2.644 -13.859,-2.644l3.81 -0.517c0,0 0.802,-10.547 4.288,-15.356 3.485,-4.81 8.901,-5.077 13.24,-3.422 4.339,1.654 7.802,2.768 7.802,2.768z"/>
   <path class="fil22" d="M156.68 88.64c-3.345,8.866 -9.65,24.952 -9.883,25.99 -0.233,1.039 -1.135,6.819 -1.736,7.75 -0.601,0.931 -2.465,2.34 -6.642,3.588 5.594,-2.185 5.058,-8.002 6.309,-12.791 0.448,-1.714 8.63,-17.942 11.952,-24.537z"/>
   <path class="fil22" d="M153.713 34.761c0.229,0.523 3.842,13.006 5.578,19.538 -1.052,-0.666 -2.118,-1.236 -2.514,-1.103 -0.879,0.295 -8.395,4.207 -9.905,5.593 -1.509,1.386 -5.31,6.617 -5.572,7.393 -0.262,0.777 -0.465,6.61 0.275,9.806 0.74,3.197 4.575,9.016 3.765,10.838 -0.81,1.822 -7.612,5.542 -7.612,5.542l-1.189 -5.61c0,0 3.626,0.303 4.172,-0.784 0.546,-1.088 -2.547,-6.473 -2.67,-8.252 -0.074,-1.065 0.463,-10.22 1.412,-11.907 0.812,-1.441 4.332,-6.093 6.228,-8.028 1.895,-1.935 8.56,-5.198 8.56,-5.198 0,0 0.295,-1.062 -1.881,-11.309 -1.341,-6.315 -3.853,-14.585 -5.584,-20.004 3.019,3.831 5.325,8.384 6.937,13.485z"/>
   <path class="fil21" d="M98.762 110.761c-0.14,-0.157 -0.241,-0.305 -0.302,-0.444 -0.116,-0.264 -6.562,-16.051 -11.174,-27.973 -3.266,-8.444 -7.203,-18.668 -9.895,-27.217 -1.69,-5.369 -2.432,-8.571 -1.673,-14.24 1.673,-12.503 9.855,-23.273 21.372,-28.407 3.034,-1.352 6.225,-2.329 9.49,-2.955 25.826,-4.957 41.188,6.425 47.133,25.236 0.117,0.267 1.112,3.638 2.29,7.746 -0.833,1.079 -1.991,0.667 -2.437,-0.634 -0.137,-0.397 -0.362,-1.122 -0.647,-1.929 -0.613,1.364 -1.383,2.255 -2.516,2.982 0.224,-1.014 0.229,-1.744 0.087,-2.667 -1.296,1.022 -2.563,1.62 -3.998,2.146 -5.539,2.028 -13.226,1.506 -18.264,-1.676 -1.632,-1.03 -3.2,-2.224 -4.656,-3.489 -0.677,-0.589 -1.562,-1.371 -2.238,-2.133 -1.535,-0.268 -2.473,0.251 -4.046,0.798 -7.661,2.667 -10.642,0.429 -14.585,0.154 1.343,3.38 2.354,6.813 1.74,8.408 -1.419,3.681 -7.32,12.448 -10.777,20.177 -0.773,1.729 -0.203,14.598 0.656,25.196 0.859,10.598 3.422,17.937 4.44,20.921z"/>
   <path class="fil21" style="mask:url(#id2)" d="M159.7 60.362c-1.339,4.763 -4.867,15.286 -4.842,16.341 -2.68,-0.121 -13.356,-1.9 -13.356,-1.9 0,0 -0.179,-3.953 -0.23,-5.843 -0.051,-1.891 0.146,-2.952 0.897,-4.178 0.75,-1.226 3.638,-4.792 3.638,-4.792 0,0 5.55,-2.846 7.172,-3.411 1.622,-0.564 2.496,0.168 3.94,1.083 0.939,0.596 2.094,1.701 2.781,2.7z"/>
   <path class="fil7" d="M123.697 72.68c0.12,-2.167 -0.063,-11.17 -2.17,-12.023 -1.08,-0.437 -2.097,-0.556 -2.097,-0.556 0.783,-0.29 1.879,-0.377 2.591,-0.202 0,0 -1.863,-1.452 -6.521,-1.046 -4.659,0.406 -9.947,2.163 -11.447,3.943 -1.499,1.78 -1.846,6.919 -1.846,6.919 0,0 9.793,3.115 21.49,2.965z"/>
   <path class="fil12" d="M122.287 72.322c0.023,-1.427 -0.297,-9.623 -1.666,-10.27 -3.528,-1.668 -12.619,-1.073 -15.122,1.85 -0.715,0.835 -1.188,4.255 -1.484,5.899 1.629,0.452 3.34,0.817 4.955,1.131 4.365,0.847 8.86,1.346 13.317,1.39z"/>
   <g style="clip-path:url(#id4)">
    <g>
     <g>
      <circle class="fil7" transform="matrix(0.951122 -0.0431889 0.0431889 0.951122 112.203 67.3929)" r="6.739"/>
      <path class="fil23" d="M118.158 64.216c1.231,2.081 0.507,3.944 -0.741,4.041 -1.249,0.097 -1.253,-1.328 -1.96,-2.428 -0.707,-1.099 -1.621,-1.542 -1.521,-2.388 0.099,-0.846 2.992,-1.307 4.222,0.775z"/>
      <path class="fil24" d="M115.021 71.395c-0.737,0.52 -1.627,0.843 -2.596,0.887 -2.7,0.122 -4.988,-1.967 -5.111,-4.667 -0.063,-1.404 0.471,-2.696 1.378,-3.631 0.152,-0.157 0.351,-0.225 0.568,-0.196l1.452 0.196c0.33,0.045 0.343,0.215 0.2,0.375 -0.474,0.527 -0.749,1.233 -0.714,1.996 0.07,1.544 1.378,2.738 2.922,2.668 0.246,-0.011 0.484,-0.054 0.709,-0.124 0.16,-0.05 0.329,0.024 0.401,0.176l0.9 1.905c0.07,0.147 0.025,0.32 -0.109,0.415z"/>
      <path class="fil15" d="M114.273 70.722l-0.417 -0.881c-0.063,-0.135 -0.203,-0.21 -0.35,-0.188 -0.573,0.086 -1.151,0.026 -1.684,-0.165 -0.167,-0.06 -0.35,0.02 -0.42,0.183l-0.568 1.34c-0.039,0.091 -0.037,0.185 0.006,0.274 0.043,0.09 0.114,0.15 0.21,0.177 1.018,0.289 2.121,0.185 3.073,-0.3 0.161,-0.082 0.227,-0.277 0.15,-0.44zm-3.449 -1.795c-0.387,-0.311 -0.706,-0.704 -0.931,-1.153 -0.041,-0.083 -0.106,-0.139 -0.194,-0.168 -0.088,-0.029 -0.173,-0.022 -0.256,0.019l-1.127 0.576c-0.145,0.074 -0.214,0.236 -0.169,0.392 0.28,0.948 0.882,1.753 1.675,2.294 0.085,0.059 0.182,0.074 0.281,0.045 0.1,-0.029 0.173,-0.095 0.214,-0.19l0.605 -1.425c0.059,-0.139 0.02,-0.295 -0.098,-0.39zm-1.266 -2.26c-0.074,-0.585 0.001,-1.177 0.217,-1.72 0.039,-0.098 0.032,-0.2 -0.022,-0.291 -0.053,-0.092 -0.138,-0.148 -0.243,-0.163l-0.169 -0.022c-0.114,-0.016 -0.218,0.023 -0.294,0.108 -0.64,0.718 -1.014,1.626 -1.066,2.578 -0.007,0.123 0.048,0.231 0.151,0.298 0.103,0.067 0.224,0.073 0.333,0.017l0.914 -0.466c0.127,-0.065 0.197,-0.197 0.179,-0.339z"/>
     </g>
    </g>
   </g>
   <path class="fil25" d="M122.287 72.322c0.023,-1.427 -0.297,-9.623 -1.666,-10.27 -3.528,-1.668 -12.619,-1.073 -15.122,1.85 -0.715,0.835 -1.188,4.255 -1.484,5.899 1.629,0.452 3.34,0.817 4.955,1.131 4.365,0.847 8.86,1.346 13.317,1.39z"/>
   <path class="fil26" d="M129.248 51.006c-0.24,1.193 -0.52,1.74 -1.203,2.022 -1.772,-3.228 -8.025,-4.944 -12.183,-5.301 -6.011,-0.515 -9.47,1.256 -11.591,3.616 -6.169,6.862 0.591,3.886 4.238,2.688 3.807,-1.251 11.11,0.019 14.089,1.409 1.195,0.558 2.238,1.05 3.058,1.439 1.14,0.54 1.574,0.543 2.631,-0.118 1.058,-0.662 1.929,-3.045 0.961,-5.755z"/>
   <path class="fil26" d="M144.054 61.926c0,0 2.508,-4.034 7.87,-6.968 5.363,-2.934 6.052,-3.004 6.816,-2.27 0.763,0.734 1.903,5.525 1.668,6.266 -0.236,0.741 -1.156,3.32 -1.156,3.32 0,0 -1.722,-4.073 -4.397,-4.566 -2.674,-0.494 -10.801,4.218 -10.801,4.218z"/>
   <path class="fil12" d="M142.693 64.662c0,0 8.343,-0.66 9.558,0.882 1.215,1.541 1.633,5.333 1.021,7.01 -0.612,1.676 -1.261,3.615 -1.261,3.615l-10.062 -1.203 -0.479 -9.636 1.223 -0.668z"/>
   <g style="clip-path:url(#id5)">
    <g>
     <g>
      <circle class="fil7" transform="matrix(0.785516 -0.105132 0.112056 0.765737 145.324 70.8457)" r="6.739"/>
      <path class="fil23" d="M150.009 67.837c1.188,1.592 0.737,3.151 -0.291,3.322 -1.028,0.171 -1.146,-0.981 -1.82,-1.818 -0.674,-0.836 -1.469,-1.127 -1.454,-1.818 0.015,-0.691 2.378,-1.278 3.565,0.314z"/>
      <path class="fil24" d="M147.982 73.873c-0.57,0.475 -1.282,0.802 -2.082,0.909 -2.23,0.298 -4.295,-1.222 -4.614,-3.396 -0.165,-1.13 0.175,-2.214 0.852,-3.037 0.114,-0.138 0.273,-0.208 0.455,-0.2l1.22 0.051c0.278,0.012 0.303,0.148 0.196,0.288 -0.35,0.461 -0.521,1.052 -0.432,1.667 0.182,1.243 1.363,2.112 2.638,1.941 0.204,-0.027 0.397,-0.079 0.578,-0.153 0.129,-0.052 0.276,-0.004 0.347,0.113l0.9 1.473c0.069,0.115 0.045,0.258 -0.058,0.344z"/>
      <path class="fil15" d="M147.308 73.385l-0.417 -0.682c-0.063,-0.105 -0.185,-0.155 -0.305,-0.126 -0.469,0.111 -0.953,0.106 -1.41,-0.01 -0.143,-0.036 -0.289,0.043 -0.334,0.18l-0.364 1.125c-0.025,0.077 -0.016,0.152 0.027,0.221 0.043,0.069 0.107,0.113 0.188,0.128 0.868,0.158 1.775,-0.007 2.526,-0.47 0.126,-0.078 0.166,-0.24 0.089,-0.366zm-3.005 -1.197c-0.346,-0.223 -0.642,-0.517 -0.865,-0.864 -0.041,-0.064 -0.099,-0.105 -0.174,-0.121 -0.075,-0.017 -0.146,-0.005 -0.211,0.035l-0.889 0.548c-0.114,0.07 -0.159,0.207 -0.108,0.329 0.308,0.746 0.872,1.353 1.572,1.732 0.076,0.04 0.158,0.046 0.238,0.015 0.08,-0.031 0.136,-0.089 0.161,-0.169l0.388 -1.197c0.038,-0.117 -0.007,-0.24 -0.112,-0.308zm-1.232 -1.734c-0.108,-0.467 -0.093,-0.951 0.043,-1.406 0.024,-0.083 0.01,-0.164 -0.042,-0.234 -0.052,-0.07 -0.126,-0.11 -0.215,-0.113l-0.142 -0.006c-0.095,-0.004 -0.179,0.034 -0.235,0.109 -0.473,0.627 -0.711,1.389 -0.678,2.163 0.005,0.099 0.059,0.183 0.15,0.229 0.09,0.047 0.191,0.043 0.278,-0.01l0.72 -0.444c0.101,-0.063 0.148,-0.174 0.121,-0.288z"/>
     </g>
    </g>
   </g>
   <path class="fil25" d="M142.693 64.662c0,0 8.343,-0.66 9.558,0.882 1.215,1.541 1.633,5.333 1.021,7.01 -0.612,1.676 -1.261,3.615 -1.261,3.615l-10.062 -1.203 -0.479 -9.636 1.223 -0.668z"/>
   <path class="fil7" d="M142.681 63.6c0,0 7.312,-0.437 8.435,-0.221 1.124,0.217 3.687,1.609 3.607,4.992 -0.081,3.382 -1.551,7.968 -1.551,7.968l-1.725 -0.237c0,0 1.123,-2.906 1.314,-5.31 0.192,-2.404 0.395,-4.92 -1.905,-5.463 -2.3,-0.543 -8.848,-0.112 -8.848,-0.112l0.673 -1.617z"/>
   <path class="fil6" d="M141.271 66.667c3.622,-0.677 7.231,-0.135 9.597,0.409 1.263,0.291 2.103,3.975 2.098,3.93 0.916,-2.353 0.248,-5.579 0.055,-5.737 -2.225,-1.82 -8.473,-2.01 -10.506,-0.739 -0.439,0.274 -0.776,0.831 -1.244,2.137z"/>
   <polygon class="fil7" points="152.72,75.579 152.963,76.31 141.613,74.955 "/>
   <path class="fil1" d="M144.678 61.055c0,0 -2.545,4.496 -2.754,5.163 -0.209,0.668 0.138,8.966 0.226,9.59 0.088,0.624 4.98,9.554 4.949,10.183 -0.032,0.63 -1.516,2.193 -4.514,4.004 -2.998,1.811 -4.857,2.373 -4.857,2.373 0,0 7.01,-5.013 6.956,-6.207 -0.054,-1.194 -3.542,-8.841 -3.791,-10.385 -0.25,-1.544 -0.211,-9.099 -0.051,-9.525 0.16,-0.426 3.836,-5.196 3.836,-5.196z"/>
   <path class="fil16" d="M90.434 83.334c-1.063,-2.179 -5.318,-9.729 -6.4,-11.43 -1.082,-1.7 -6.743,-5.053 -8.505,-5.345 -1.763,-0.292 -3.341,1.008 -4.05,1.784 -0.709,0.777 -1.533,3.941 -1.495,7.251 0.039,3.311 0.849,6.401 2.866,9.845 2.018,3.444 10.302,10.475 12.475,10.785 2.172,0.311 4.839,-2.964 5.226,-4.781 0.386,-1.817 0.826,-6.174 -0.117,-8.109z"/>
   <path class="fil21" d="M90.436 83.375c-1.067,-2.185 -5.32,-9.77 -6.402,-11.471 -1.082,-1.7 -6.743,-5.053 -8.505,-5.345 -0.259,-0.043 -0.513,-0.051 -0.761,-0.032 -0.136,0.743 -0.391,1.927 -0.177,2.4 0.214,0.472 9.552,5.506 11.39,9.589 1.838,4.083 -2.44,10.1 -1.145,11.808 1.295,1.708 3.096,3.384 4.881,3.723 0.535,-0.716 0.948,-1.585 1.161,-2.578 0.675,-3.157 1.135,-4.865 -0.442,-8.094z"/>
   <path class="fil21" d="M72.378 84.599c0.15,0.278 0.307,0.558 0.472,0.84 2.018,3.444 10.302,10.474 12.475,10.785 1.816,0.26 4.003,-1.032 5.067,-3.306 -1.246,-0.511 -3.884,-1.745 -4.993,-3.436 -1.477,-2.253 -10.858,-15.339 -10.858,-15.339 0,0 -1.467,1.81 -2.081,5.356 -0.239,1.38 -0.251,3.233 -0.082,5.1z"/>
   <path class="fil21" d="M141.916 87.008c0,0 -1.925,3.46 -4.251,4.481 -2.327,1.022 -8.137,-0.421 -10.452,-2.814 -2.315,-2.393 -2.765,-3.122 -2.765,-3.122 0,0 2.463,-1.693 5.947,-1.06 3.484,0.632 5.47,2.207 7.816,2.517 2.345,0.31 3.705,-0.002 3.705,-0.002z"/>
   <path class="fil1" d="M126.014 82.026c0,0 -1.69,2.48 -1.599,2.909 0.092,0.428 3.461,3.16 3.461,3.16 0,0 1.519,-0.43 3.092,-0.189 1.574,0.242 3.277,1.751 3.191,1.971 -0.086,0.22 -0.175,0.392 -0.867,-0.033 -0.692,-0.425 -1.625,-1.368 -3.09,-1.35 -1.466,0.019 -2.276,0.704 -2.518,0.667 -0.242,-0.037 -4.213,-3.318 -4.32,-4.082 -0.107,-0.765 2.65,-3.053 2.65,-3.053z"/>
   <path class="fil1" d="M157.154 41.314c0,0 -1.52,-6.567 -2.634,-6.612 -1.114,-0.044 -0.676,3.907 -2.972,6.345 0.394,-1.367 0.22,-2.367 0.064,-3.168 0,0 -2.551,2.256 -3.614,2.692 -5.327,2.187 -12.194,1.41 -16.241,-1.146 -3.246,-2.05 -6.217,-4.846 -6.839,-5.728 -5.121,-1.43 -5.5,2.938 -15.238,1.068 3.669,-0.975 5.533,-2.137 6.479,-3.251 0,0 -3.575,0.588 -6.807,1.209 -3.233,0.621 -4.657,1.757 -4.657,1.757 0,0 1.327,-1.108 1.955,-1.899 0.628,-0.792 1.328,-1.896 1.328,-1.896 0,0 -2.195,0.05 -3.571,0.946 -1.376,0.896 -2.896,2.776 -2.896,2.776l1.304 -2.825c0,0 -1.883,1.467 -2.897,2.634 -1.013,1.166 -2.082,2.768 -2.082,2.768l0.65 -4.588 -4.104 9.205c0,0 2.89,5.741 2.641,6.652 -0.249,0.911 -7.374,15.056 -7.54,16.618 -0.167,1.561 0.953,18.504 0.953,18.504 0,0 -6.534,-11.537 -7.588,-12.698 -1.053,-1.16 -4.214,-3.079 -4.214,-3.079 0,0 -11.153,-27.483 -11.795,-34.491 -0.249,-2.715 6.415,-9.072 9.956,-10.107 -1.943,-1.572 -2.379,-4.367 -2.379,-4.367 1.019,0.602 2.686,1.535 3.899,1.59 -0.088,-1.984 0.352,-6.745 2.216,-9.268 -0.022,1.358 -0.1,4.574 0.615,5.663 4.859,-6.753 17.496,-14.134 25.344,-16.618 -0.785,0.619 -1.358,1.827 -1.491,2.733 10.696,-2.791 34.801,-3.269 45.194,3.982 -2.795,-0.371 -4.606,-0.488 -6.816,-0.097 7.834,3.535 17.533,11.669 19.72,24.659 -0.986,-0.557 -1.767,-0.744 -2.778,-0.813 0,0 1.592,4.038 -3.165,10.85z"/>
   <path class="fil26" d="M147.906 38.231c5.611,-4.152 4.914,-11.161 12.543,-9.984 -1.659,-7.27 -9.452,-16.085 -15.655,-19.056 -0.957,-0.459 -6.627,-2.498 -2.231,-4.346 -12.211,-3.914 -32.441,-2.022 -36.641,-0.04 -1.206,0.569 -2.52,0.06 -3.036,-0.991 -7.141,3.147 -16.119,8.878 -19.864,14.083 -0.888,1.21 -1.958,3.337 -2.34,5.701 -3.084,0.887 -10.938,5.469 -11.519,9.254 -0.045,1.617 1.094,5.521 2.798,10.48 5.756,-2.029 10.54,-2.684 16.561,-2.952 -2.037,-0.714 -5.416,-1.377 -8.679,-0.871 1.314,-4.111 9.325,-9.869 14.688,-11.108 0,0 -3.083,-0.349 -7.02,0.781 -4.727,1.357 -6.701,2.725 -6.701,2.725 0,0 7.055,-5.968 19.485,-5.777 12.43,0.191 23.509,5.602 23.509,5.602l-4.284 -7.659c3.886,4.248 6.389,8.962 11.658,12.748 4.571,3.284 13.27,3.968 16.728,1.41z"/>
   <path class="fil27" d="M91.809 9.996c-3.658,2.5 -6.892,5.268 -8.787,7.901 -0.888,1.21 -1.958,3.337 -2.34,5.701 -3.084,0.887 -10.938,5.469 -11.519,9.254 -0.034,1.206 0.655,3.868 1.713,7.2 0.299,-2.809 0.636,-5.667 0.837,-6.325 0.419,-1.379 15.552,-7.61 15.552,-7.61l-5.022 -1.846c0,0 6.16,0.08 11.184,-1.325 5.024,-1.406 6.64,-3.075 6.64,-3.075 0,0 -3.888,1.001 -7.117,0.612 -3.229,-0.388 -3.826,-1.367 -3.826,-1.367 0,0 3.863,-5.061 14.256,-9.646 10.394,-4.585 18.095,-4.973 18.095,-4.973 0,0 -8.596,-0.429 -17.772,1.973 -9.177,2.402 -13.08,6.311 -13.08,6.311 0,0 0.298,-1.033 1.186,-2.785z"/>
   <path class="fil27" d="M147.906 38.231c2.665,-1.972 3.907,-4.589 5.294,-6.666l-0.002 0.002c-1.574,1.932 -2.532,5.971 -11.91,6.202 -8.698,0.215 -19.984,-11.749 -21.576,-13.485 3.777,4.193 6.284,8.814 11.466,12.537 4.571,3.284 13.27,3.968 16.728,1.41zm6.582 -8.315c1.306,-1.355 3.011,-2.124 5.961,-1.669l-0.003 -0.013c-0.802,-0.444 -1.993,-0.849 -3.131,-0.625 -1.138,0.224 -2.04,1.207 -2.827,2.307z"/>
   <path class="fil21" d="M136.085 112.613c0,0 -0.024,2.928 -2.428,3.211 -2.403,0.284 -10.258,-5.117 -10.258,-5.117 0,0 9.005,2.851 12.686,1.906z"/>
   <path class="fil28" d="M76.586 73.421c0,0 -1.312,-0.377 -1.815,0.512 -0.502,0.888 -1.524,5.303 0.025,8.608 2.278,4.858 5.895,7.715 11.925,6.712 0,0 -2.461,-0.901 -2.773,-2.927 -0.311,-2.027 0.193,-3.932 0.62,-4.43 0.426,-0.498 0.443,-1.008 0.142,-1.447 -0.301,-0.439 -2.847,-4.507 -8.124,-7.028z"/>
   <path class="fil16" d="M74.798 82.544c1.848,3.94 4.577,6.563 8.761,6.877 -1.39,-0.412 -3.956,-1.5 -4.659,-4.029 -0.978,-3.521 0.478,-6.136 0.478,-6.136 0,0 -3.47,0.439 -4.58,3.288z"/>
   <path class="fil1" d="M86.985 89.343c0,0 -2.875,-1.583 -3.073,-3.897 -0.198,-2.313 2.036,-4.209 2.036,-4.209 0,0 -3.691,-5.411 -7.061,-7.357 -3.371,-1.946 -3.956,-0.957 -4.193,-0.381 -0.236,0.577 -0.645,3.583 -0.645,3.583 0,0 1.025,-2.45 2.02,-2.44 0.995,0.01 1.739,0.465 4.746,3.458 3.008,2.992 2.706,3.3 2.706,3.3 0,0 -2.069,2.175 -1.232,4.805 0.838,2.631 4.696,3.138 4.696,3.138z"/>
   <g style="clip-path:url(#id6)">
    <polygon class="fil29" style="mask:url(#id7)" points="72.6,41.777 95.202,41.777 95.202,74.27 72.6,74.27 "/>
   </g>
   <g style="clip-path:url(#id9)">
    <g>
     <path id="_1" class="fil30" style="mask:url(#id10)" d="M70.388 51.822c-0.021,0.556 -0.036,1.103 -0.045,1.639 2.713,-1.84 6.189,-3.089 9.477,-3.964 4.452,-1.185 9.259,-1.882 14.032,-2.279 1.9,-0.158 3.97,-0.163 5.97,-0.138 -0.266,-0.414 -0.519,-0.827 -0.76,-1.238 -1.873,-0.056 -3.801,-0.141 -5.581,0.008 -4.858,0.405 -9.774,1.034 -14.29,2.236 -3.047,0.812 -6.172,2.085 -8.803,3.736z"/>
     <path class="fil30" style="mask:url(#id12)" d="M70.387 48.338c-0.039,0.555 -0.07,1.102 -0.095,1.637 2.768,-1.757 6.28,-2.9 9.593,-3.675 4.486,-1.049 9.312,-1.6 14.094,-1.852 1.904,-0.1 3.973,-0.042 5.972,0.043 -0.253,-0.422 -0.493,-0.842 -0.722,-1.26 -1.871,-0.113 -3.795,-0.256 -5.579,-0.162 -4.868,0.258 -9.8,0.737 -14.351,1.802 -3.071,0.719 -6.232,1.896 -8.912,3.467z"/>
     <path class="fil30" style="mask:url(#id14)" d="M75.976 58.559c-0.018,0.45 -0.03,0.894 -0.037,1.328 2.198,-1.491 5.015,-2.503 7.678,-3.212 3.607,-0.96 7.501,-1.524 11.368,-1.846 1.539,-0.128 3.216,-0.132 4.837,-0.112 -0.215,-0.336 -0.42,-0.67 -0.616,-1.003 -1.518,-0.045 -3.079,-0.114 -4.521,0.006 -3.936,0.329 -7.919,0.838 -11.577,1.812 -2.469,0.658 -5.001,1.689 -7.132,3.027z"/>
     <path class="fil30" style="mask:url(#id16)" d="M79.624 60.952c-0.017,0.45 -0.029,0.894 -0.036,1.328 2.198,-1.491 5.014,-2.503 7.678,-3.212 3.607,-0.96 7.501,-1.524 11.368,-1.846 1.539,-0.128 3.216,-0.132 4.836,-0.112 -0.214,-0.335 -0.42,-0.67 -0.615,-1.003 -1.518,-0.045 -3.079,-0.114 -4.522,0.007 -3.935,0.328 -7.918,0.837 -11.577,1.811 -2.469,0.658 -5,1.689 -7.132,3.027z"/>
    </g>
   </g>
   <path class="fil25" d="M93.207 41.908c-6.166,-0.575 -14.969,0.788 -20.607,3.267l6.472 19.386c0,0 4.944,2.068 5.989,3.526 1.045,1.459 3.356,6.183 3.356,6.183 0,0 -1.009,-7.98 -1.103,-9.229 -0.095,-1.25 7.65,-16.076 7.872,-16.839 0.223,-0.762 -1.979,-6.294 -1.979,-6.294z"/>
   <g>
    <path class="fil1" d="M107.881 89.666c0.527,1.219 3.253,6.832 3.922,7.756 1.506,2.468 2.156,3.309 3.938,5.457 4.24,5.107 12.48,7.939 18.972,7.399 1.331,-0.11 2.609,-0.35 3.726,-0.808 3.506,-1.44 2.821,-3.407 3.734,-5.787l2.523 -4.685c0.841,-1.435 0.323,-1.283 1.682,-1.907 0.737,-0.338 1.585,-1.211 1.812,-1.81 -1.496,0.469 -1.056,0.799 -4.188,1.457 -4.966,1.042 -10.78,0.677 -15.679,-0.428 -5.726,-1.291 -13.368,-3.462 -17.177,-6.477 -0.817,-0.533 -0.553,-0.334 -1.034,-0.808 -0.382,-0.376 -0.302,-0.163 -0.476,-0.616l2.704 -0.79c0.473,0.059 0.507,-0.005 0.943,-0.135 -1.403,-0.106 -3.331,-0.402 -4.673,-0.131 -0.701,0.141 -2.133,0.55 -2.503,1.128 -0.126,0.198 -0.217,0.587 -0.125,0.835 0.47,0.049 0.884,-0.58 1.502,-0.709l0.397 1.059zm-0.344 -1.029l0.344 1.029 -0.344 -1.029z"/>
   </g>
   <path class="fil31" d="M142.607 98.339c-6.634,0.484 -10.088,0.696 -16.901,-1.166 -2.859,-0.781 -9.422,-2.608 -12.407,-4.23 -0.481,-0.262 -1.225,-0.788 -1.619,-0.921 0.957,3.671 0.868,4.029 2.943,5.379 3.071,1.998 6.456,3.194 10.409,3.942 3.032,0.575 7.414,1.305 10.468,1.11 1.468,-0.094 3.603,-0.084 4.749,-0.728 0.755,-0.424 0.899,-0.588 1.355,-1.466 0.263,-0.506 0.879,-1.484 1.003,-1.92z"/>
   <path class="fil32" d="M116.449 100.361c1.247,2.261 1.254,2.827 3.317,4.353 2.89,2.138 7.793,4.002 11.466,4.312 1.986,0.167 5.108,-0.096 6.634,-0.794 0.013,-1.624 -1.82,-3.662 -2.91,-4.214 -0.561,-0.285 -2.617,-0.26 -3.427,-0.335 -3.541,-0.328 -6.081,-0.816 -9.555,-1.566 -1.01,-0.218 -1.932,-0.449 -2.88,-0.772 -0.677,-0.232 -2.07,-0.927 -2.645,-0.984z"/>
   <path class="fil33" d="M120.595 105.285c2.936,1.89 7.295,3.459 10.637,3.741 1.692,0.143 4.211,-0.028 5.863,-0.514 -0.257,-0.795 -0.934,-2.524 -2.133,-3.15 -1.577,-0.824 -10.173,-1.793 -11.941,-1.478 -0.968,0.173 -1.827,0.773 -2.426,1.401z"/>
   <path class="fil34" d="M107.881 89.666l-0.356 -1.067c-0.641,0.109 -1.063,0.767 -1.543,0.717 -0.092,-0.248 -0.001,-0.637 0.125,-0.835 0.37,-0.578 1.802,-0.987 2.502,-1.128 1.343,-0.271 3.271,0.025 4.674,0.131 -0.436,0.13 -0.47,0.194 -0.943,0.135l-2.704 0.79c0.159,0.414 0.011,0.154 0.278,0.436 0.144,0.152 0.051,0.035 0.198,0.18 0.02,0.019 0.047,0.045 0.066,0.064 0.02,0.02 0.047,0.051 0.065,0.069 0.018,0.019 0.049,0.057 0.063,0.073 0.014,0.016 0.044,0.048 0.062,0.075 0.258,0.157 0.467,0.363 0.778,0.527 0.014,-0.033 0.036,-0.121 0.044,-0.1 0.007,0.021 0.031,-0.076 0.044,-0.094 0.012,-0.016 0.035,-0.061 0.051,-0.079 0.114,-0.139 0.102,-0.094 0.259,-0.212 0.256,-0.193 0.32,-0.24 0.572,-0.412 1.334,-0.911 0.496,-0.516 2.389,-1.383 0.614,-0.281 0.903,-0.29 1.371,-0.57 -0.35,-0.139 -1.156,-0.264 -1.686,-0.331 -2.293,-0.288 -6.757,-1.199 -8.597,0.753 -0.079,0.084 -0.214,0.2 -0.326,0.296 -0.732,0.628 -0.947,2.491 -0.164,3.069 0.56,-0.093 1.966,-1.173 2.778,-1.104z"/>
   <path class="fil35" d="M117.58 98.632c0.094,-0.51 -0.098,-1.202 -0.03,-1.811 0.071,-0.648 0.291,-1.032 0.388,-1.582 -1.268,-0.428 -5.227,-2.405 -5.669,-2.444 -0.004,0.761 0.372,1.412 0.581,2.088 0.336,1.091 0.255,1.159 1.114,1.708 1.926,1.231 1.449,1.009 3.616,2.041z"/>
   <circle class="fil1" transform="matrix(0.998913 -0.0466163 0.0466163 0.998913 85.6461 92.8488)" r="1.751"/>
   <path class="fil26" d="M115.139 33.963c0,0 2.388,-0.641 4.11,-1.376 1.721,-0.736 2.722,-2.067 2.722,-2.067l-3.242 -1.211 0.11 -1.294c0,0 -6.985,-2.345 -7.146,-2.391 -0.16,-0.045 -7.251,-2.356 -7.251,-2.356 -2.721,3.084 -4.129,5.589 -4.83,9.214 2.734,-2.828 7.641,-4.407 11.585,-3.899 -0.516,0.755 -1.335,2.134 -1.961,2.736 3.387,-1.183 5.924,-1.485 9.462,-1.65 -0.008,0.783 -0.398,2.632 -3.559,4.294z"/>
   <path class="fil26" d="M156.512 37.36c-0.753,-2.765 -1.787,-5.756 -3.095,-7.357l3.66 -2.843c0,0 2.085,6.188 -0.565,10.2z"/>
   <path class="fil6" d="M104.652 65.718c0,0 2.67,-1.897 5.603,-2.494 2.932,-0.597 8.531,0.051 9.588,0.3 1.057,0.249 2.335,3.198 2.336,3.142 0.494,-2.083 -0.79,-4.917 -0.984,-5.075 -0.193,-0.158 -3.81,-1.194 -6.164,-1.405 -2.353,-0.211 -6.304,0.562 -7.586,1.177 -1.282,0.614 -2.74,2.617 -2.793,4.355z"/>
  </g>
  <path class="fil1" d="M79.976 76.248c0.376,0.358 0.701,0.783 0.938,1.172 0.7,1.153 0.955,2.506 0.485,3.8 -0.97,2.666 -5.017,4.017 -7.458,4.898 -2.893,1.045 -5.063,2.144 -7.492,4.046 -2.613,2.047 -7.255,4.09 -10.509,4.656 -1.303,0.227 -6.621,0.473 -7.33,1.645 -0.488,0.808 -0.93,1.69 -1.346,2.538 -0.633,1.288 -1.228,2.598 -1.782,3.922 -0.948,2.268 -2.167,5.39 -2.395,7.808 -0.149,1.581 -0.402,3.184 -0.653,4.752 -0.31,1.933 -0.646,3.861 -0.992,5.787 -0.288,1.6 -0.582,3.2 -0.885,4.798 2.638,0.39 5.525,1.318 7.272,2.958 2.137,2.007 3.082,5.906 3.437,8.709 0.523,4.132 0.185,8.553 -0.941,12.56 -1.055,3.755 -2.909,7.347 -5.307,10.42 -0.989,1.267 -3.478,4.283 -5.22,4.417l-0.32 0.025 -0.312 -0.073c-9.361,-2.194 -18.682,-5.607 -26.984,-10.5 -2.566,-1.512 -5.08,-3.189 -7.406,-5.054 -1.22,-0.978 -2.631,-2.171 -3.64,-3.374 -2.172,-2.59 -0.672,-10.125 -0.058,-13.122 1.45,-7.071 3.823,-14.29 6.633,-20.931 3.264,-7.716 9.043,-15.196 14.609,-21.43 2.519,-2.822 5.146,-5.547 7.842,-8.2 1.788,-1.759 3.611,-3.47 5.426,-5.199 4.317,-4.111 11.65,-7.945 17.187,-10.089 4.636,-1.794 9.276,-3.579 13.918,-5.359 2.759,-1.058 5.518,-2.114 8.282,-3.16 1.512,-0.572 3.089,-1.212 4.624,-1.71 2.002,-0.649 5.011,-1.617 7.029,-0.541 0.434,-0.558 1.053,-0.998 1.798,-1.288 1.546,-0.601 4.32,-0.36 5.792,0.823 0.453,-0.227 0.981,-0.311 1.538,-0.24 0.658,0.084 1.388,0.371 2.007,0.605 1.32,0.5 2.334,1.46 2.474,2.919 0.1,1.04 -0.294,2.008 -0.773,2.907 -0.745,1.396 -2.463,2.952 -3.667,3.952 -2.459,2.041 -5.257,3.801 -8.065,5.315 -2.625,1.414 -5.236,3.104 -7.756,4.838z"/>
  <path class="fil16" d="M39.639 163.07c0.693,-0.054 6.4,-5.173 8.693,-13.333 2.293,-8.16 0.693,-16.746 -1.92,-19.199 -2.613,-2.453 -8.32,-2.613 -8.32,-2.613 0,0 2.507,-12.853 2.933,-17.386 0.427,-4.533 4.427,-12.853 5.813,-15.146 1.387,-2.293 6.294,-2.186 8.747,-2.613 2.453,-0.427 6.943,-2.174 9.587,-4.246 2.645,-2.071 4.892,-3.217 8.066,-4.363 3.173,-1.146 5.686,-2.204 6.215,-3.658 0.529,-1.455 -0.926,-2.909 -1.279,-3.042 -0.352,-0.132 -1.996,0.886 -2.829,1.287 -0.832,0.4 -3.298,1.757 -4.161,2.126 -0.863,0.37 -1.602,0.34 -1.602,0.34 0,0 10.38,-7.979 17.168,-11.637 6.787,-3.659 10.181,-7.096 10.887,-8.419 0.705,-1.322 0.934,-2.33 -0.607,-2.914 -1.541,-0.584 -1.868,-0.631 -2.055,-0.257 -0.187,0.373 1.285,2.245 -2.616,5.327 -3.9,3.081 -17.322,10.772 -19.028,11.883 -1.707,1.11 -2.709,1.192 -2.98,0.867 -0.27,-0.325 -0.298,-0.732 0.19,-0.786 0.488,-0.054 18.528,-10.781 20.478,-12.541 1.95,-1.761 2.519,-4.199 2.085,-4.984 -0.433,-0.786 -2.952,-1.084 -3.927,-0.704 -0.975,0.379 -1.273,0.975 -1.138,1.706 0.136,0.731 -0.108,2.465 -2.329,4.063 -2.222,1.598 -13.598,9.101 -16.009,10.239 -2.41,1.138 -3.25,0.379 -3.44,0.081 -0.189,-0.298 1.515,-1.019 7.691,-4.486 6.176,-3.467 10.994,-6.739 11.671,-7.525 0.677,-0.785 1.305,-1.749 0.303,-2.697 -1.002,-0.948 -3.683,-0.162 -5.688,0.488 -2.004,0.65 -23.234,8.843 -26.715,10.19 -3.481,1.348 -11.791,5.166 -16.507,9.657 -4.716,4.492 -21.222,19.539 -27.398,34.136 -6.176,14.598 -8.889,29.539 -6.895,31.916 1.994,2.378 13.729,12.808 36.916,18.243z"/>
  <path class="fil17" d="M39.639 163.07c0.665,-0.051 5.828,-3.559 8.281,-11.144 -3.083,-0.43 -6.937,-1.467 -10.792,-3.021 -3.855,-1.553 -7.964,-5.147 -7.964,-5.147 0,0 6.659,-5.513 8.306,-9.308 0.794,-1.829 1.671,-4.274 2.366,-6.372 -1.034,-0.133 -1.744,-0.153 -1.744,-0.153 0,0 2.507,-12.853 2.933,-17.386 0.427,-4.533 4.427,-12.853 5.813,-15.146 1.387,-2.293 6.294,-2.186 8.747,-2.613 2.453,-0.427 6.943,-2.174 9.587,-4.246 2.645,-2.071 4.892,-3.217 8.066,-4.363 3.173,-1.146 5.686,-2.204 6.215,-3.658 0.529,-1.455 -0.926,-2.909 -1.279,-3.042 -0.352,-0.132 -1.996,0.886 -2.829,1.287 -0.832,0.4 -3.298,1.757 -4.161,2.126 -0.863,0.37 -1.602,0.34 -1.602,0.34 0,0 10.38,-7.979 17.168,-11.637 6.787,-3.659 10.181,-7.096 10.887,-8.419 0.705,-1.322 0.934,-2.33 -0.607,-2.914 -1.541,-0.584 -1.868,-0.631 -2.055,-0.257 -0.187,0.373 1.285,2.245 -2.616,5.327 -3.9,3.081 -17.101,10.846 -19.028,11.883 -1.927,1.037 -2.709,1.192 -2.98,0.867 -0.27,-0.325 -0.298,-0.732 0.19,-0.786 0.488,-0.054 18.528,-10.781 20.478,-12.541 1.95,-1.761 2.519,-4.199 2.085,-4.984 -0.433,-0.786 -2.952,-1.084 -3.927,-0.704 -0.975,0.379 -1.273,0.975 -1.138,1.706 0.136,0.731 -0.108,2.465 -2.329,4.063 -2.222,1.598 -13.598,9.101 -16.009,10.239 -2.41,1.138 -3.25,0.379 -3.44,0.081 -0.189,-0.298 1.44,-0.977 7.616,-4.444 6.175,-3.467 11.202,-6.939 11.879,-7.725 0.677,-0.785 0.79,-1.953 0.17,-2.539 -0.619,-0.586 -0.568,-0.352 -0.962,-0.407 -0.944,1.226 -3.457,3.692 -10.046,7.463 -9.881,5.657 -11.957,7.232 -13.103,9.38 -1.146,2.148 -5.299,8.306 -11.242,11.314 -5.943,3.007 -8.019,3.794 -9.38,3.222 -1.36,-0.573 -1.36,-0.573 -1.36,-0.573 0,0 0.501,3.222 0.931,4.869 0.429,1.647 0.143,3.938 -1.289,6.014 -1.432,2.077 -3.437,7.877 -6.015,19.548 -2.578,11.671 -4.368,18.76 -11.098,22.483 -6.731,3.724 -11.83,3.29 -13.1,2.804 -1.27,-0.486 -0.597,1.382 1.084,2.503 1.681,1.121 4.109,2.503 4.109,2.503 0,0 -5.402,-0.33 -9.958,-2.975 4.374,3.902 15.753,11.938 35.142,16.482z"/>
  <path class="fil22" d="M88.868 57.198c-0.264,0.137 -0.461,0.295 -0.599,0.472 0.604,-0.201 0.934,-0.308 0.934,-0.308l-0.335 -0.164zm-2.93 1.253l-0.012 -0.011c-1.002,-0.948 -3.683,-0.162 -5.688,0.488 -2.004,0.65 -23.234,8.843 -26.715,10.19 -3.481,1.348 -11.791,5.166 -16.507,9.657 -4.716,4.492 -21.222,19.539 -27.398,34.136 -6.176,14.598 -8.889,29.539 -6.895,31.916 0.42,0.501 1.272,1.358 2.57,2.45 -0.537,-1.065 -0.954,-2.338 -0.982,-3.751 -0.079,-4.137 2.467,-23.391 10.582,-36.518 8.115,-13.128 19.095,-23.232 27.926,-30.313 7.242,-5.807 33.798,-15.091 43.119,-18.244z"/>
  <path class="fil1" d="M39.551 126.044l-1.459 1.881c0,0 -1.388,4.807 -4.11,9.598 -2.723,4.791 -7.424,8.222 -7.424,8.222 0,0 6.535,-4.049 9.507,-8.377 2.973,-4.328 4.397,-10.355 4.397,-10.355l-0.911 -0.969z"/>
  <path class="fil0" d="M47.904 126.461c2.6,0.155 5.388,0.565 7.931,1.086 3.986,0.818 9.294,2.354 12.05,5.449 4.522,5.077 9.187,12.276 8.911,19.13 -0.31,7.703 -5.346,12.279 -12.423,14.675 -4.154,1.406 -10.116,1.11 -14.458,0.686 -2.841,-0.277 -5.8,-0.677 -8.604,-1.238l-4.225 -0.846 3.3 -2.77c1.305,-1.101 2.686,-2.807 3.664,-4.184 2.451,-3.453 4.146,-7.4 4.83,-11.587 0.6,-3.683 0.86,-7.781 -0.037,-11.441 -0.52,-2.126 -1.378,-3.901 -2.705,-5.633l-2.754 -3.594 4.52 0.267z"/>
  <path class="fil3" d="M47.782 128.529c0,0 14.111,1.341 20.361,4.437 5.642,2.794 9.237,10.804 8.977,16.916 -0.26,6.111 -6.397,12.583 -13.411,14.958 -7.014,2.374 -21.991,-0.622 -21.991,-0.622 0,0 7.45,-6.263 9.205,-17.023 1.756,-10.759 -0.89,-15.729 -3.141,-18.666z"/>
  <path class="fil4" d="M47.782 128.529c0,0 13.085,1.244 19.635,4.101 -0.453,-0.076 -3.36,-0.543 -8.65,-1.063 -3.76,-0.37 -7.119,-0.058 -9.005,0.205 -0.612,-1.324 -1.313,-2.373 -1.98,-3.243z"/>
  <path class="fil9" d="M76.634 152.703c-2.026,5.583 -6.597,9.994 -12.925,12.137 -6.328,2.142 -21.991,-0.622 -21.991,-0.622 0,0 5.109,-4.295 7.862,-11.881 1.636,0.468 7.456,2.153 13.783,2.245 6.327,0.092 9.747,-6.063 10.732,-5.275 0.675,0.54 0.582,0.841 2.539,3.396z"/>
  <path class="fil0" d="M47.793 165.781c5.352,-6.921 8.329,-14.882 8.829,-23.907 0.567,8.545 -2.351,17.62 -7.898,24.701l-0.931 -0.794z"/>
  <path class="fil36" d="M42.235 91.104c5.807,0.651 11.253,-2.434 17.2,-9.737 -0.628,1.854 -1.654,3.504 -2.884,5.003 -2.223,2.71 -4.925,4.777 -8.399,5.628 -2.086,0.511 -3.992,-0.298 -5.917,-0.894z"/>
  <path class="fil36" d="M68.803 86.692c-1.176,-0.539 -2.528,-0.385 -3.699,-0.944 -0.241,-0.115 -0.49,-0.212 -0.712,-0.452 2.462,0.369 4.891,0.013 7.324,-0.036 -0.971,0.477 -1.942,0.954 -2.913,1.432z"/>
  <polygon class="fil3" points="76.357,137.116 78.502,141.18 75.29,143.056 73.23,138.935 "/>
 </g>
</svg>
