<svg width="24" height="24" viewBox="0 0 24 24" fill="none" xmlns="http://www.w3.org/2000/svg">
<path d="M4.919 22C4.37196 22 3.91556 21.8075 3.54981 21.4225C3.18406 21.0375 3.00079 20.5567 3 19.98V4.02C3 3.44417 3.18327 2.96375 3.54981 2.57875C3.91635 2.19375 4.37275 2.00083 4.919 2H14.9509C15.2066 2 15.4552 2.05417 15.6966 2.1625C15.9381 2.2725 16.1447 2.41792 16.3165 2.59875L20.4312 6.93C20.6038 7.11167 20.7415 7.32917 20.8444 7.5825C20.9481 7.83667 21 8.09833 21 8.3675V19.98C21 20.5558 20.8171 21.0367 20.4514 21.4225C20.0856 21.8083 19.6288 22.0008 19.081 22H4.919ZM4.919 20.75H19.0822C19.2951 20.75 19.4701 20.6779 19.6071 20.5337C19.744 20.3896 19.8125 20.2054 19.8125 19.9812V8.25H16.022C15.7457 8.25 15.5169 8.15417 15.3356 7.9625C15.1543 7.77083 15.0633 7.53 15.0625 7.24V3.25H4.919C4.70525 3.25 4.5299 3.32208 4.39294 3.46625C4.25598 3.61042 4.1875 3.795 4.1875 4.02V19.9812C4.1875 20.2054 4.25598 20.3896 4.39294 20.5337C4.5299 20.6779 4.70525 20.75 4.919 20.75ZM16.25 17C16.4194 17 16.5607 16.9404 16.6739 16.8212C16.7871 16.7021 16.8438 16.5533 16.8438 16.375C16.8438 16.1967 16.7871 16.0479 16.6739 15.9287C16.5607 15.8096 16.4194 15.75 16.25 15.75H7.75C7.58137 15.75 7.44006 15.8096 7.32606 15.9287C7.21206 16.0479 7.15546 16.1967 7.15625 16.375C7.15704 16.5533 7.21365 16.7021 7.32606 16.8212C7.43848 16.9404 7.57979 17 7.75 17H16.25ZM10.9062 8.25C11.0757 8.25 11.217 8.19042 11.3302 8.07125C11.4434 7.95208 11.5 7.80333 11.5 7.625C11.5 7.44667 11.4434 7.29792 11.3302 7.17875C11.217 7.05958 11.0757 7 10.9062 7H7.75C7.58137 7 7.44006 7.05958 7.32606 7.17875C7.21206 7.29792 7.15546 7.44667 7.15625 7.625C7.15704 7.80333 7.21365 7.95208 7.32606 8.07125C7.43848 8.19042 7.57979 8.25 7.75 8.25H10.9062ZM16.25 12.625C16.4194 12.625 16.5607 12.5654 16.6739 12.4462C16.7871 12.3271 16.8438 12.1783 16.8438 12C16.8438 11.8217 16.7871 11.6729 16.6739 11.5537C16.5607 11.4346 16.4194 11.375 16.25 11.375H7.75C7.58137 11.375 7.44006 11.4346 7.32606 11.5537C7.21206 11.6729 7.15546 11.8217 7.15625 12C7.15704 12.1783 7.21365 12.3271 7.32606 12.4462C7.43848 12.5654 7.57979 12.625 7.75 12.625H16.25Z" fill="#9DB2CE"/>
</svg>
