<svg width="24" height="24" viewBox="0 0 24 24" fill="none" xmlns="http://www.w3.org/2000/svg">
<path fill-rule="evenodd" clip-rule="evenodd" d="M15.6195 2.56621L15.6213 8.45298C18.9661 8.43163 18.564 8.03313 18.5409 11.383H22.3444C22.8799 11.383 23.6414 12.5074 22.0259 12.6177V21.7654C23.6414 21.8757 22.8799 23 22.3444 23H1.65634C1.12082 23 0.35756 21.8757 1.97481 21.7654V9.26421C0.896644 9.70541 0.868178 8.54015 1.32542 8.25017L15.6088 1.10386C16.2974 0.668 16.9592 1.71762 16.2707 2.15348L15.6195 2.56621ZM3.21666 11.383H5.53846C5.52957 10.8066 5.49576 10.2373 5.48865 9.66271C5.48331 9.3158 5.47975 8.87105 5.7662 8.62199C6.04374 8.37826 6.54013 8.39427 6.88707 8.40139C7.62364 8.41384 8.35131 8.45476 9.08966 8.45476H14.3794V3.35254L3.21666 8.52236V11.383ZM9.70169 15.8893V21.7565H11.3794V15.8893H9.70169ZM8.45984 21.7565V15.8893H6.7821V21.7565H8.45984ZM17.299 9.69651H15.6213V11.383H17.299V9.69651ZM6.7821 11.383H8.45984V9.69651H6.7821V11.383ZM9.70169 11.383H14.3794V9.69651H9.70169V11.383ZM12.6213 21.7565H20.7841V12.6248H3.21666V21.7565H5.54024V15.2666C5.54024 14.9233 5.81779 14.644 6.16117 14.644C8.10757 14.644 10.054 14.644 12.0004 14.644C12.3437 14.644 12.6213 14.9233 12.6213 15.2666V21.7565ZM14.92 14.644H18.4854C19.1045 14.644 19.1472 15.4854 19.1561 15.9302C19.1704 16.6151 19.1063 17.3036 19.1063 17.9903C19.1063 18.3319 18.827 18.6112 18.4854 18.6112H14.92C14.299 18.6112 14.2563 17.7697 14.2474 17.3249C14.2332 16.6418 14.299 15.9515 14.299 15.2666C14.299 14.9233 14.5766 14.644 14.92 14.644ZM17.8645 15.8875H15.5409V17.3676H17.8645V15.8875Z" fill="#9DB2CE"/>
</svg>
