<svg width="24" height="24" viewBox="0 0 24 24" fill="none" xmlns="http://www.w3.org/2000/svg">
<path d="M5.5 3.75H18.5C19.7358 3.75 20.75 4.76421 20.75 6V17C20.75 18.2358 19.7358 19.25 18.5 19.25H5.18945L3.25 21.1895V6C3.25 4.76421 4.26421 3.75 5.5 3.75Z" stroke="#9DB2CE" stroke-width="1.5"/>
<path d="M11 10H13V15.5H11V10Z" fill="#9DB2CE"/>
<path d="M12 8.5C12.5523 8.5 13 8.05228 13 7.5C13 6.94772 12.5523 6.5 12 6.5C11.4477 6.5 11 6.94772 11 7.5C11 8.05228 11.4477 8.5 12 8.5Z" fill="#9DB2CE"/>
</svg>
