<?xml version="1.0" encoding="UTF-8"?>
<!DOCTYPE svg PUBLIC "-//W3C//DTD SVG 1.1//EN" "http://www.w3.org/Graphics/SVG/1.1/DTD/svg11.dtd">
<!-- Creator: CorelDRAW -->
<svg xmlns="http://www.w3.org/2000/svg" xml:space="preserve" width="500px" height="500px" version="1.1" style="shape-rendering:geometricPrecision; text-rendering:geometricPrecision; image-rendering:optimizeQuality; fill-rule:evenodd; clip-rule:evenodd"
viewBox="0 0 2064.558 2064.558"
 xmlns:xlink="http://www.w3.org/1999/xlink"
 xmlns:xodm="http://www.corel.com/coreldraw/odm/2003">
 <defs>
  <style type="text/css">
   <![CDATA[
    .fil0 {fill:none}
    .fil1 {fill:white;fill-rule:nonzero}
   ]]>
  </style>
 </defs>
 <g id="Layer_x0020_1">
  <metadata id="CorelCorpID_0Corel-Layer"/>
  <rect class="fil0" width="2064.558" height="2064.558"/>
  <path class="fil1" d="M1192.714 1055.476c19.584,24.487 -8.876,39.386 -29.35,47.756 -11.424,4.675 -20.515,6.459 -31.725,11.099 -15.322,6.34 -9.536,15.403 -11.624,21.394 -2.014,-5.578 -11.094,-15.054 -3.169,-25.145 5.35,-6.816 13.861,-6.046 21.133,-9.461 14.518,-6.817 35.899,-27.357 27.238,-45.461 -7.052,-14.739 -33.959,-19.575 -28.032,-39.072 4.685,-15.403 32.253,-24.145 25.918,-41.472 -5.673,-15.515 -28.992,-14.661 -26.177,-34.866 2.345,-16.838 26.709,-24.697 39.092,-30.645 -13.971,6.886 -33.24,26.558 -21.132,39.918 10.775,11.89 29.73,13.325 38.04,28.742 12.225,22.682 -18.353,19.917 -24.334,35.95 -7.019,18.811 14.299,28.98 24.122,41.263zm-22.338 -4.494c1.191,1.749 2.139,3.66 3.197,5.437 0.702,-4.108 -6.081,-12.373 -8.831,-15.312 -3.814,-4.08 -9.849,-4.605 -13.21,-9.245 -3.467,-4.787 -3.133,-11.792 -1.222,-16.964 2.008,-5.438 8.866,-10.735 9.049,-16.481 -2.546,4.675 -7.565,7.412 -10.645,11.624 -3.265,4.472 -5.619,11.569 -3.953,16.909 3.833,12.281 18.814,14.01 25.615,24.032zm-11.448 -26.93c0.425,1.595 1.689,3.199 2.686,4.528 -8.222,-10.918 8.318,-24.075 15.904,-29.533 9.843,-7.089 16.519,-17.468 5.721,-26.776 -2.516,-2.176 -6.167,-4.359 -9.613,-5.36 4.886,3.135 8.585,5.689 9.534,12.156 0.895,6.088 -1.848,10.841 -6.065,15.109 -7.326,7.419 -21.466,17.482 -18.167,29.876zm18.212 26.628c0.907,2.996 3.998,5.355 5.397,8.238 4.145,8.545 1.375,16.745 -5.372,22.975 -3.098,2.863 -8.089,4.661 -10.533,7.712 7.604,-2.918 16.691,-4.73 20.747,-12.639 5.264,-10.273 -3.45,-19.329 -10.239,-26.286z"/>
  <path class="fil1" d="M1115.212 1046.175c15.415,7.201 22.2,23.22 5.309,35.432 -10.998,13.554 -25.522,13.336 -34.067,46.856 -0.336,-3.995 -2.17,-15.237 -0.569,-27.87 2.229,-17.589 31.216,-17.04 15.846,-36.72 -13.425,-17.18 -39.396,-7.446 -58.111,-7.397 -7.849,0.028 -22.436,-4.402 -24.062,-14.795 -1.668,-10.679 12.312,-13.891 19.835,-16.634 14.903,-5.438 44.708,-12.57 35.129,-35.398 -8.317,-19.819 -35.072,-10.75 -50.979,-13.71 -20.122,-3.744 -30.924,-22.269 -12.676,-35.719 17.476,-12.884 49.982,-24.193 59.957,-44.327 8.427,-17.013 -4.551,-33.326 -19.808,-39.121l0 -1.057c6.07,0.399 9.496,3.828 14.504,6.606 12.887,7.139 31.984,14.292 24.357,33.313 -5.869,14.633 -26.566,20.883 -37.009,31.674 -18.045,18.643 6.891,23.073 22.452,24.585 16.368,1.596 35.838,7.489 42.059,25.334 7.511,21.548 -11.844,28.399 -23.091,42.297 -15.147,18.721 8.011,20.617 20.924,26.651zm-37.797 -43.285c0.037,2.827 0.019,5.122 -1.127,7.628 -5.367,11.694 -19.586,16.495 -30.908,20.428 -5.306,1.841 -13.803,3.737 -15.771,10.21 -1.514,4.983 2.504,6.991 6.521,8.126 -1.603,-1.148 -2.944,-3.038 -3.095,-4.585 -0.901,-9.223 21.13,-12.653 26.806,-14.437 5.942,-1.876 10.444,-4.527 13.804,-10.239 3.186,-5.409 5.364,-11.141 3.77,-17.131zm-2.095 -41.255c-6.439,-1.232 -12.811,-2.135 -19.373,-2.464 -4.25,-0.217 -8.625,0.266 -12.699,-0.182 2.534,1.469 6.969,2.408 8.903,2.918 5.929,1.575 12.049,0.855 17.903,3.087 7.655,2.911 17.263,7.81 20.869,15.662 2.584,5.627 2.773,13.283 0.509,18.938 -2.271,5.675 -7.091,9.118 -10.742,13.828 -0.279,0.357 -0.672,0.686 -1.004,1 9.656,-8.39 18.202,-16.963 18.879,-30.68 0.689,-13.947 -11.696,-19.896 -23.245,-22.107zm-42.637 2.12c-4.78,-2.169 -27.456,-9.945 -3.856,-29.673l-3.522 1.057c-4.349,1.883 -10.89,5.158 -13.65,9.147 -2.715,3.926 -4.331,12.135 -1.047,16.145 4.175,5.095 28.197,9.063 34.145,10.203 0.759,0.148 1.03,0.385 1.623,0.742 -1.247,-4.052 -10.043,-5.955 -13.693,-7.621z"/>
  <path class="fil1" d="M1060.385 1084.889c7.309,17.17 -15.929,17.372 -9.783,34.061 0.706,1.919 2.467,7.476 3.406,8.969 -5.151,-2.766 -9.817,-13.417 -11.004,-18.163 -2.277,-9.104 4.043,-11.888 4.174,-19.274 0.278,-15.799 -28.056,-14.324 -38.058,-16.585 -12.582,-2.839 -33.066,-9.676 -32.484,-26.7 0.45,-13.149 19.386,-17.457 19.61,-29.466 0.104,-5.557 -4.845,-8.147 -9.129,-8.421 16.367,-0.317 23.283,12.893 18.746,26.657 -2.164,6.575 -6.776,10.316 -0.867,18.56 4.388,6.124 12.429,9.073 18.856,11.297 13.771,4.765 29.354,2.206 36.533,19.065zm-67.817 -24.417c-3.117,-2.113 -4.02,-4.921 -4.23,-8.144 -0.404,-6.19 3.823,-12.016 1.988,-18.317 -2.936,5.6 -8.479,8.659 -6.951,16.787 0.72,3.827 3.232,7.854 6.639,10.346 3.17,2.322 6.974,2.827 10.025,5.247 -1.721,-3.037 -5.125,-3.258 -7.471,-5.919z"/>
 </g>
</svg>
