<?xml version="1.0" encoding="UTF-8"?>
<!DOCTYPE svg PUBLIC "-//W3C//DTD SVG 1.1//EN" "http://www.w3.org/Graphics/SVG/1.1/DTD/svg11.dtd">
<!-- Creator: CorelDRAW -->
<svg xmlns="http://www.w3.org/2000/svg" xml:space="preserve" width="1000px" height="1000px" version="1.1" style="shape-rendering:geometricPrecision; text-rendering:geometricPrecision; image-rendering:optimizeQuality; fill-rule:evenodd; clip-rule:evenodd"
viewBox="0 0 4129.117 4129.117"
 xmlns:xlink="http://www.w3.org/1999/xlink"
 xmlns:xodm="http://www.corel.com/coreldraw/odm/2003">
 <defs>
  <style type="text/css">
   <![CDATA[
    .fil0 {fill:none}
    .fil1 {fill:white;fill-rule:nonzero}
   ]]>
  </style>
 </defs>
 <g id="Layer_x0020_1">
  <metadata id="CorelCorpID_0Corel-Layer"/>
  <rect class="fil0" x="-0.001" y="-0.001" width="4129.117" height="4129.117"/>
  <g id="_2119668811136">
   <path class="fil1" d="M2385.428 2110.951c39.168,48.975 -17.752,78.773 -58.7,95.512 -22.849,9.351 -41.03,12.92 -63.451,22.199 -30.643,12.681 -19.07,30.806 -23.246,42.788 -4.029,-11.155 -22.19,-30.107 -6.34,-50.29 10.701,-13.632 27.724,-12.092 42.267,-18.922 29.037,-13.634 71.798,-54.715 54.476,-90.923 -14.104,-29.477 -67.918,-39.149 -56.063,-78.143 9.368,-30.807 64.505,-48.29 51.836,-82.945 -11.347,-31.03 -57.985,-29.322 -52.356,-69.731 4.69,-33.675 53.419,-49.394 78.185,-61.291 -27.942,13.773 -66.48,53.118 -42.265,79.837 21.552,23.78 59.461,26.65 76.08,57.485 24.451,45.363 -36.704,39.833 -48.668,71.9 -14.037,37.622 28.598,57.96 48.245,82.524zm-44.676 -8.988c2.382,3.5 4.278,7.32 6.394,10.875 1.404,-8.215 -12.162,-24.746 -17.662,-30.625 -7.629,-8.159 -19.698,-9.209 -26.421,-18.489 -6.933,-9.574 -6.265,-23.583 -2.442,-33.928 4.014,-10.876 17.731,-21.471 18.097,-32.962 -5.092,9.351 -15.13,14.824 -21.29,23.249 -6.529,8.943 -11.238,23.136 -7.907,33.817 7.668,24.563 37.628,28.019 51.231,48.063zm-22.895 -53.858c0.848,3.189 3.378,6.396 5.371,9.054 -16.445,-21.835 16.637,-48.149 31.808,-59.065 19.686,-14.178 33.038,-34.937 11.443,-53.551 -5.033,-4.353 -12.335,-8.719 -19.226,-10.722 9.771,6.271 17.169,11.379 19.068,24.313 1.789,12.176 -3.697,21.681 -12.131,30.219 -14.652,14.836 -42.932,34.963 -36.333,59.752zm36.423 53.256c1.813,5.991 7.996,10.708 10.793,16.475 8.29,17.091 2.752,33.489 -10.742,45.951 -6.197,5.725 -16.178,9.321 -21.068,15.423 15.209,-5.837 33.383,-9.461 41.496,-25.278 10.528,-20.545 -6.9,-38.658 -20.479,-52.571z"/>
   <path class="fil1" d="M2230.425 2092.349c30.828,14.403 44.4,46.44 10.617,70.864 -21.997,27.108 -51.044,26.673 -68.135,93.712 -0.671,-7.988 -4.339,-30.473 -1.136,-55.74 4.458,-35.178 62.431,-34.08 31.691,-73.439 -26.849,-34.361 -78.793,-14.893 -116.222,-14.794 -15.698,0.056 -44.873,-8.803 -48.123,-29.59 -3.337,-21.358 24.623,-27.782 39.669,-33.269 29.806,-10.876 89.416,-25.139 70.258,-70.795 -16.634,-39.639 -70.143,-21.5 -101.959,-27.42 -40.244,-7.488 -61.848,-44.537 -25.351,-71.438 34.952,-25.769 99.964,-48.387 119.914,-88.654 16.854,-34.026 -9.102,-66.653 -39.616,-78.242l0 -2.114c12.14,0.799 18.991,7.656 29.008,13.213 25.775,14.277 63.968,28.582 48.714,66.624 -11.737,29.267 -53.133,41.767 -74.018,63.349 -36.09,37.286 13.782,46.147 44.903,49.17 32.737,3.192 71.678,14.977 84.119,50.668 15.021,43.095 -23.688,56.799 -46.182,84.595 -30.294,37.44 16.021,41.234 41.849,53.3zm-75.596 -86.569c0.075,5.654 0.039,10.245 -2.253,15.255 -10.734,23.39 -39.171,32.991 -61.815,40.858 -10.613,3.681 -27.608,7.473 -31.543,20.419 -3.028,9.967 5.009,13.983 13.041,16.251 -3.205,-2.295 -5.887,-6.075 -6.189,-9.168 -1.802,-18.446 42.261,-25.307 53.612,-28.875 11.885,-3.752 20.889,-9.055 27.609,-20.477 6.371,-10.819 10.728,-22.282 7.538,-34.263zm-4.19 -82.511c-12.876,-2.462 -25.621,-4.268 -38.746,-4.927 -8.498,-0.433 -17.25,0.532 -25.397,-0.363 5.068,2.938 13.939,4.814 17.806,5.836 11.859,3.15 24.097,1.709 35.807,6.173 15.309,5.823 34.526,15.621 41.737,31.324 5.169,11.254 5.547,26.566 1.017,37.876 -4.541,11.351 -14.18,18.237 -21.484,27.656 -0.557,0.714 -1.343,1.372 -2.007,2.001 19.313,-16.781 36.405,-33.927 37.759,-61.362 1.376,-27.894 -23.394,-39.79 -46.492,-44.214zm-85.274 4.241c-9.56,-4.339 -54.91,-19.89 -7.712,-59.346l-7.044 2.114c-8.697,3.765 -21.778,10.316 -27.299,18.293 -5.43,7.853 -8.662,24.271 -2.094,32.291 8.351,10.19 56.394,18.126 68.29,20.407 1.517,0.295 2.06,0.769 3.246,1.484 -2.494,-8.104 -20.086,-11.911 -27.387,-15.243z"/>
   <path class="fil1" d="M2120.769 2169.779c14.619,34.34 -31.856,34.742 -19.565,68.121 1.412,3.838 4.934,14.953 6.812,17.938 -10.301,-5.532 -19.634,-26.834 -22.008,-36.327 -4.553,-18.206 8.085,-23.775 8.349,-38.546 0.554,-31.598 -56.112,-28.65 -76.117,-33.171 -25.163,-5.678 -66.133,-19.351 -64.967,-53.4 0.899,-26.298 38.77,-34.914 39.219,-58.933 0.208,-11.113 -9.69,-16.294 -18.257,-16.841 32.733,-0.635 46.564,25.786 37.491,53.314 -4.329,13.15 -13.552,20.632 -1.735,37.12 8.777,12.248 24.858,18.146 37.713,22.593 27.542,9.53 58.708,4.413 73.065,38.132zm-135.634 -48.834c-6.233,-4.227 -8.039,-9.843 -8.46,-16.29 -0.808,-12.38 7.647,-24.031 3.977,-36.633 -5.872,11.199 -16.957,17.318 -13.901,33.574 1.439,7.653 6.463,15.707 13.277,20.692 6.34,4.644 13.949,5.655 20.05,10.494 -3.442,-6.074 -10.25,-6.516 -14.943,-11.837z"/>
  </g>
 </g>
</svg>
