<svg width="50" height="50" viewBox="0 0 50 50" fill="none" xmlns="http://www.w3.org/2000/svg">
<path fill-rule="evenodd" clip-rule="evenodd" d="M15.2789 12.5024C13.7566 12.5024 12.5023 13.7567 12.5023 15.279V34.7212C12.5023 36.2492 13.7566 37.5035 15.2789 37.5035H34.7211C36.2491 37.5035 37.5034 36.2492 37.5034 34.7212V15.279C37.5034 13.7567 36.2491 12.5024 34.7211 12.5024H15.2789ZM15.2789 9.72001H34.7211C37.7771 9.72001 40.28 12.223 40.28 15.279V34.7212C40.28 37.7772 37.7771 40.2801 34.7211 40.2801H15.2789C12.2229 40.2801 9.71992 37.7772 9.71992 34.7212V15.279C9.71992 12.223 12.2229 9.72001 15.2789 9.72001Z" fill="white"/>
<path fill-rule="evenodd" clip-rule="evenodd" d="M25 19.4981C28.0389 19.4981 30.502 21.9612 30.502 25.0001C30.502 28.039 28.0389 30.5021 25 30.5021C21.9611 30.5021 19.498 28.039 19.498 25.0001C19.498 21.9612 21.9611 19.4981 25 19.4981ZM25 16.7215C29.5726 16.7215 33.2843 20.4275 33.2843 25.0001C33.2843 29.5727 29.5726 33.2787 25 33.2787C20.4274 33.2787 16.7214 29.5727 16.7214 25.0001C16.7214 20.4275 20.4274 16.7215 25 16.7215Z" fill="white"/>
<path d="M33.5865 18.7455C34.6917 18.7455 35.5877 17.8495 35.5877 16.7443C35.5877 15.639 34.6917 14.743 33.5865 14.743C32.4812 14.743 31.5852 15.639 31.5852 16.7443C31.5852 17.8495 32.4812 18.7455 33.5865 18.7455Z" fill="white"/>
</svg>
