<svg width="50" height="50" viewBox="0 0 50 50" fill="none" xmlns="http://www.w3.org/2000/svg">
<g clip-path="url(#clip0_77_1709)">
<path d="M25 13.8929C21.1538 13.8929 17.3077 15.0252 13.9827 17.2897H7.69231L10.532 20.363C9.23796 21.5313 8.33932 23.0769 7.94392 24.7664C7.53055 26.4738 7.65636 28.2531 8.28541 29.8706C8.91445 31.5061 10.0288 32.89 11.4666 33.8785C12.9044 34.867 14.6118 35.3882 16.3551 35.3882C18.5298 35.3882 20.6326 34.5794 22.2322 33.0877L25 36.1071L27.7678 33.0877C29.3674 34.5794 31.4522 35.4062 33.6449 35.3882C35.9274 35.3882 38.138 34.4896 39.7556 32.872C41.3731 31.2365 42.2897 29.0439 42.2897 26.7433C42.2897 25.5392 42.0381 24.353 41.5528 23.2566C41.0676 22.1603 40.3487 21.1718 39.468 20.363L42.2897 17.2897H36.0173C32.7822 15.0791 28.936 13.8929 25 13.8929ZM25 16.7146C27.2106 16.7146 29.4213 17.1459 31.4881 18.0266C27.8037 19.4285 25 22.7354 25 26.5816C25 22.7354 22.1963 19.4285 18.5119 18.0266C20.5607 17.1639 22.7714 16.7146 25 16.7146ZM16.3551 20.9022C17.128 20.9022 17.8828 21.046 18.5838 21.3515C19.3027 21.6391 19.9497 22.0705 20.4889 22.6096C21.028 23.1488 21.4594 23.7958 21.7649 24.5147C22.0525 25.2157 22.1963 25.9885 22.1963 26.7433C22.1963 27.5162 22.0525 28.289 21.7649 28.9899C21.4594 29.7088 21.028 30.3379 20.4889 30.895C19.9497 31.4342 19.3027 31.8656 18.5838 32.1531C17.8828 32.4587 17.128 32.6024 16.3551 32.6024C14.7915 32.6024 13.3178 31.9914 12.2214 30.895C11.1251 29.7987 10.496 28.307 10.496 26.7433C10.496 25.1977 11.1251 23.706 12.2214 22.6096C13.3178 21.5133 14.7915 20.9022 16.3551 20.9022ZM33.6449 20.9022C34.3997 20.9022 35.1725 21.046 35.8735 21.3515C36.5924 21.6391 37.2394 22.0705 37.7786 22.6096C38.3178 23.1488 38.7491 23.7958 39.0367 24.5147C39.3422 25.2157 39.486 25.9885 39.486 26.7433C39.486 27.5162 39.3422 28.271 39.0367 28.9899C38.7491 29.6909 38.3178 30.3379 37.7786 30.8771C37.2394 31.4342 36.5924 31.8656 35.8735 32.1531C35.1725 32.4407 34.4177 32.6024 33.6449 32.6024C32.0992 32.6024 30.6075 31.9914 29.5111 30.895C28.4148 29.7987 27.7858 28.307 27.7858 26.7613C27.7858 25.1977 28.4148 23.7239 29.5111 22.6096C30.6075 21.5133 32.0812 20.9022 33.6449 20.9022ZM16.3551 23.688C15.5464 23.688 14.7556 24.0115 14.1804 24.5866C13.6053 25.1618 13.2818 25.9346 13.2818 26.7433C13.2818 27.5701 13.6053 28.3429 14.1804 28.918C14.7556 29.4932 15.5464 29.8167 16.3551 29.8167C17.1639 29.8167 17.9547 29.4932 18.5298 28.918C19.105 28.3429 19.4285 27.5701 19.4285 26.7433C19.4285 25.9346 19.105 25.1618 18.5298 24.5866C17.9547 24.0115 17.1639 23.688 16.3551 23.688ZM33.6449 23.688C32.8181 23.688 32.0453 24.0115 31.4702 24.5866C30.895 25.1618 30.5715 25.9346 30.5715 26.7433C30.5715 27.5701 30.895 28.3429 31.4702 28.918C32.0453 29.4932 32.8181 29.8167 33.6449 29.8167C34.4536 29.8167 35.2265 29.4932 35.8016 28.918C36.3767 28.3429 36.7002 27.5701 36.7002 26.7433C36.7002 25.9346 36.3767 25.1618 35.8016 24.5866C35.2265 24.0115 34.4536 23.688 33.6449 23.688Z" fill="white"/>
</g>
<defs>
<clipPath id="clip0_77_1709">
<rect width="50" height="50" fill="white"/>
</clipPath>
</defs>
</svg>
