<svg width="50" height="50" viewBox="0 0 50 50" fill="none" xmlns="http://www.w3.org/2000/svg">
<g clip-path="url(#clip0_77_1703)">
<path d="M32.672 14.7003C31.5323 13.4023 30.8991 11.7244 30.8991 10.0042H25.7493V30.6669C25.7176 31.7856 25.2427 32.8514 24.4301 33.6218C23.6281 34.4027 22.5517 34.8354 21.4331 34.8354C19.0692 34.8354 17.0958 32.9042 17.0958 30.4981C17.0958 27.6382 19.8713 25.4854 22.7206 26.3719V21.106C16.9692 20.3356 11.9354 24.7995 11.9354 30.4981C11.9354 36.049 16.5365 40.0063 21.4225 40.0063C26.6463 40.0063 30.8991 35.7535 30.8991 30.4981V20.019C32.9886 21.5175 35.5002 22.3195 38.0646 22.3195V17.1697C38.0646 17.1697 34.9303 17.3174 32.672 14.7003Z" fill="white"/>
</g>
<defs>
<clipPath id="clip0_77_1703">
<rect width="50" height="50" fill="white"/>
</clipPath>
</defs>
</svg>
