<?xml version="1.0" encoding="UTF-8"?>
<!DOCTYPE svg PUBLIC "-//W3C//DTD SVG 1.1//EN" "http://www.w3.org/Graphics/SVG/1.1/DTD/svg11.dtd">
<!-- Creator: CorelDRAW -->
<svg xmlns="http://www.w3.org/2000/svg" xml:space="preserve" width="144px" height="144px" version="1.1" style="shape-rendering:geometricPrecision; text-rendering:geometricPrecision; image-rendering:optimizeQuality; fill-rule:evenodd; clip-rule:evenodd"
viewBox="0 0 7.961 7.961"
 xmlns:xlink="http://www.w3.org/1999/xlink"
 xmlns:xodm="http://www.corel.com/coreldraw/odm/2003">
 <defs>
  <style type="text/css">
   <![CDATA[
    .fil6 {fill:none}
    .fil0 {fill:#0077C0}
    .fil5 {fill:#0D5395}
    .fil2 {fill:#242F5C}
    .fil1 {fill:white}
    .fil4 {fill:white;fill-rule:nonzero}
    .fil3 {fill:black;fill-opacity:0.301961}
   ]]>
  </style>
 </defs>
 <g id="Layer_x0020_1">
  <metadata id="CorelCorpID_0Corel-Layer"/>
  <g id="_2084268565648">
   <path class="fil0" d="M0.256 1.711c-0.006,0.184 0.003,0.379 0.016,0.555 0.041,0.57 0.156,1.143 0.342,1.691 0.551,1.618 1.678,2.884 3.367,3.685 1.689,-0.801 2.816,-2.067 3.366,-3.685 0.187,-0.548 0.302,-1.121 0.342,-1.691 0.013,-0.176 0.023,-0.371 0.016,-0.555 -0.38,-0.317 -0.948,-0.566 -1.416,-0.723 -0.726,-0.243 -1.531,-0.38 -2.308,-0.38 -0.778,0 -1.583,0.137 -2.309,0.38 -0.468,0.157 -1.036,0.406 -1.416,0.723l0 0z"/>
   <path class="fil1" d="M0.451 1.773c0.363,-0.273 0.845,-0.48 1.275,-0.624 0.719,-0.241 1.496,-0.371 2.255,-0.371 0.758,0 1.535,0.13 2.254,0.371 0.43,0.144 0.912,0.351 1.275,0.624l0.027 0.02 0 0.034c0.001,0.142 -0.007,0.285 -0.017,0.427 -0.04,0.56 -0.153,1.116 -0.334,1.648 -0.548,1.612 -1.657,2.789 -3.175,3.537l-0.03 0.015 -0.03 -0.015c-1.519,-0.748 -2.628,-1.925 -3.176,-3.537 -0.181,-0.532 -0.294,-1.088 -0.334,-1.648 -0.01,-0.142 -0.018,-0.285 -0.017,-0.427l0 -0.034 0.027 -0.02 0 0z"/>
   <path class="fil2" d="M0.492 1.827c-0.001,0.141 0.007,0.282 0.017,0.422 0.04,0.554 0.151,1.105 0.33,1.631 0.543,1.597 1.64,2.758 3.142,3.498 1.501,-0.74 2.598,-1.901 3.141,-3.498 0.179,-0.526 0.291,-1.077 0.33,-1.631 0.01,-0.14 0.018,-0.281 0.017,-0.422 -0.355,-0.268 -0.846,-0.476 -1.255,-0.613 -0.71,-0.238 -1.484,-0.368 -2.233,-0.368 -0.749,0 -1.524,0.13 -2.234,0.368 -0.409,0.137 -0.899,0.345 -1.255,0.613l0 0z"/>
   <path class="fil1" d="M4.021 2.484l0.32 0.007c0.165,0.003 0.33,0.008 0.495,0.014l0.291 0.011 0.014 0.29c0.015,0.32 0.033,0.64 0.048,0.959 0.011,0.223 0.023,0.445 0.034,0.667 0.021,0.001 0.042,0.002 0.063,0.002 -0.006,-0.061 -0.011,-0.123 -0.017,-0.185 -0.029,-0.332 -0.06,-0.663 -0.088,-0.994l-0.012 -0.148 0.105 -0.104c0.115,-0.114 0.229,-0.23 0.343,-0.345l0.104 -0.106 0.148 0.012c0.351,0.03 0.701,0.064 1.051,0.102l0.237 0.026 0.041 0.234c0.068,0.389 0.136,0.777 0.203,1.166 0.068,0.388 0.135,0.777 0.203,1.165l0.07 0.401 -0.406 -0.03c-0.189,-0.015 -0.378,-0.029 -0.567,-0.041l-0.242 -0.017 -0.239 -0.012c-0.187,-0.01 -0.374,-0.019 -0.56,-0.028l-0.161 -0.007 -0.165 -0.005c-0.318,-0.01 -0.637,-0.018 -0.955,-0.023l-0.175 -0.003 -0.148 0c-0.318,0 -0.637,0.001 -0.955,0.006l-0.189 0.002 -0.135 0.004c-0.186,0.004 -0.372,0.01 -0.558,0.016l-0.361 0.013 0.034 -0.359c0.005,-0.048 0.009,-0.096 0.014,-0.144 -0.026,0.096 -0.053,0.191 -0.079,0.287l-0.061 0.22 -0.228 0.012c-0.298,0.016 -0.596,0.034 -0.893,0.053l-0.346 0.022 0.008 -0.346c0.01,-0.386 0.021,-0.773 0.037,-1.159 0.015,-0.386 0.035,-0.771 0.057,-1.156l0.015 -0.268 0.267 -0.029c0.175,-0.019 0.351,-0.038 0.526,-0.055l0.368 -0.036 0 0.003 0.034 -0.003c0.171,-0.014 0.342,-0.026 0.513,-0.037l0.02 -0.001 0 -0.002 0.118 -0.006 0.294 -0.019 -0.001 0.004c0.117,-0.005 0.234,-0.01 0.351,-0.014l0 -0.002 0.143 -0.003 0.214 -0.007 0 0.003c0.144,-0.003 0.289,-0.005 0.433,-0.006l0.325 -0.003 0 0.002 0 0z"/>
   <path class="fil1" d="M5.246 0.614l0.048 -0.247 0.273 0.023c0.181,0.015 0.362,0.031 0.542,0.048l0.233 0.022 0.04 0.231c0.056,0.322 0.111,0.645 0.166,0.968 0.055,0.322 0.109,0.644 0.165,0.967l0.07 0.407 -0.41 -0.052c-0.163,-0.021 -0.325,-0.041 -0.488,-0.059l-0.167 -0.018 -0.221 -0.02c-0.051,-0.004 -0.101,-0.009 -0.151,-0.012l-0.187 -0.013 -0.001 -0.003 -0.197 -0.011c-0.159,-0.008 -0.318,-0.016 -0.477,-0.022l-0.071 -0.002 -0.153 -0.003c-0.171,-0.004 -0.342,-0.005 -0.513,-0.005l-0.178 0 -0.26 0.007c-0.172,0.005 -0.344,0.012 -0.516,0.02l-0.095 0.004 -0.124 0.008c-0.227,0.016 -0.454,0.032 -0.681,0.054 -0.23,0.022 -0.46,0.048 -0.689,0.075l-0.405 0.048 0.067 -0.402c0.017,-0.099 0.033,-0.199 0.049,-0.299 0.016,-0.101 0.033,-0.201 0.05,-0.302l0.037 -0.229 0.206 -0.023 -0.171 -0.097 0.035 -0.21c0.021,-0.129 0.041,-0.258 0.062,-0.387 0.021,-0.129 0.042,-0.258 0.062,-0.387l0.037 -0.234 0.236 -0.022c0.201,-0.019 0.401,-0.037 0.602,-0.052 0.198,-0.015 0.397,-0.026 0.596,-0.037l0.344 -0.018 -0.007 0.108c0.015,-0.013 0.03,-0.026 0.045,-0.038l0.083 -0.071 0.11 -0.002c0.279,-0.005 0.559,-0.006 0.838,-0.003l0 -0.005 0.22 0.007 0.196 0.002 0 0.004c0.15,0.005 0.3,0.011 0.45,0.018l0.196 0.009 0.074 0.181c0.01,0.025 0.02,0.049 0.03,0.074l0 0z"/>
   <path class="fil3" d="M1.644 5.846c0.359,0.443 0.784,0.839 1.276,1.184 0.343,-0.012 0.686,-0.017 1.029,-0.017 0.363,0 0.726,0.005 1.09,0.014 0.493,-0.346 0.919,-0.744 1.278,-1.19 -0.182,-0.011 -0.364,-0.019 -0.546,-0.027 -0.593,-0.027 -1.186,-0.041 -1.78,-0.041 -0.565,0 -1.13,0.013 -1.695,0.039 -0.217,0.01 -0.435,0.021 -0.652,0.038l0 0z"/>
   <path class="fil2" d="M6.913 2.733l0.186 0.021 0.032 0.184c0.068,0.388 0.136,0.777 0.203,1.166 0.068,0.388 0.135,0.776 0.203,1.164l0.055 0.316 -0.319 -0.024c-0.189,-0.014 -0.378,-0.028 -0.567,-0.041l-0.201 -0.014 -0.001 0 -0.28 -0.015c-0.187,-0.01 -0.374,-0.019 -0.561,-0.028l-0.161 -0.007 -0.166 -0.005c-0.318,-0.01 -0.637,-0.018 -0.956,-0.023l-0.175 -0.003 -0.149 0c-0.318,0 -0.637,0.001 -0.956,0.006l-0.189 0.002 -0.136 0.004c-0.186,0.004 -0.372,0.01 -0.558,0.016l-0.284 0.01 0.027 -0.282c0.03,-0.312 0.059,-0.625 0.089,-0.937 -0.093,0.353 -0.19,0.704 -0.288,1.056l-0.048 0.172 -0.179 0.01c-0.298,0.016 -0.596,0.034 -0.894,0.053l-0.271 0.017 0.006 -0.271c0.01,-0.387 0.021,-0.773 0.036,-1.158 0.016,-0.386 0.036,-0.771 0.058,-1.155l0.012 -0.211 0.209 -0.023c0.175,-0.019 0.351,-0.038 0.526,-0.055l0.288 -0.028 0 0.002 0.113 -0.009c0.17,-0.014 0.341,-0.026 0.511,-0.037l0.077 -0.005 0 -0.001 0.061 -0.003 0.202 -0.014 -0.001 0.003c0.149,-0.007 0.298,-0.013 0.448,-0.018l0.057 -0.002 0 -0.001 0.079 -0.002 0.139 -0.005 0 0.002 0.014 0c1.218,-0.027 1.971,-0.016 3.709,0.173l0 0z"/>
   <path class="fil4" d="M6.547 4.056c-0.017,-0.114 -0.033,-0.228 -0.05,-0.341 -0.016,-0.114 -0.032,-0.228 -0.049,-0.342 -0.146,-0.013 -0.292,-0.026 -0.437,-0.037 0.013,0.115 0.026,0.229 0.04,0.343 0.013,0.114 0.028,0.229 0.041,0.343 0.151,0.01 0.303,0.022 0.455,0.034l0 0zm-4.91 -1.165c0.169,-0.014 0.339,-0.026 0.508,-0.037 -0.098,0.397 -0.198,0.794 -0.302,1.191 -0.103,0.396 -0.212,0.792 -0.322,1.187 -0.298,0.016 -0.597,0.034 -0.897,0.053 0.009,-0.384 0.021,-0.77 0.036,-1.154 0.015,-0.383 0.035,-0.767 0.057,-1.15 0.175,-0.019 0.349,-0.038 0.523,-0.055 -0.016,0.297 -0.032,0.595 -0.046,0.893 -0.014,0.298 -0.024,0.596 -0.035,0.894 0.082,-0.303 0.164,-0.607 0.243,-0.91 0.08,-0.304 0.158,-0.608 0.235,-0.912l0 0zm1.132 2.296c-0.187,0.005 -0.375,0.01 -0.561,0.016 0.037,-0.394 0.075,-0.788 0.112,-1.182 0.037,-0.395 0.075,-0.789 0.112,-1.184 0.164,-0.008 0.328,-0.015 0.491,-0.02 -0.026,0.395 -0.051,0.79 -0.077,1.185 -0.026,0.395 -0.051,0.79 -0.077,1.185zm0.328 -0.006c0.019,-0.395 0.038,-0.791 0.057,-1.186 0.018,-0.395 0.037,-0.791 0.056,-1.186 0.162,-0.004 0.326,-0.006 0.489,-0.007 -0.006,0.321 -0.012,0.641 -0.017,0.962 -0.005,0.32 -0.013,0.641 -0.018,0.961 0.13,-0.001 0.26,0 0.391,0 0.001,0.15 0.001,0.3 0.002,0.45 -0.321,0 -0.641,0.002 -0.96,0.006l0 0zm1.287 -0.003c-0.009,-0.395 -0.017,-0.79 -0.025,-1.185 -0.007,-0.395 -0.016,-0.79 -0.025,-1.186 0.163,0.004 0.327,0.009 0.49,0.015 0.016,0.319 0.033,0.639 0.049,0.959 0.016,0.319 0.032,0.639 0.048,0.959 0.129,0.003 0.26,0.008 0.391,0.013 0.011,0.149 0.022,0.299 0.032,0.448 -0.32,-0.01 -0.641,-0.018 -0.96,-0.023l0 0zm1.853 0.063c-0.188,-0.01 -0.376,-0.019 -0.563,-0.027 -0.029,-0.331 -0.06,-0.662 -0.089,-0.993 -0.029,-0.331 -0.06,-0.662 -0.088,-0.993 0.117,-0.117 0.232,-0.233 0.345,-0.348 0.347,0.029 0.693,0.063 1.044,0.101 0.068,0.388 0.136,0.777 0.203,1.165 0.068,0.389 0.134,0.777 0.203,1.166 -0.19,-0.015 -0.38,-0.029 -0.569,-0.042 -0.019,-0.128 -0.037,-0.256 -0.055,-0.384 -0.019,-0.128 -0.038,-0.257 -0.057,-0.385 -0.155,-0.012 -0.311,-0.023 -0.466,-0.032 0.015,0.128 0.031,0.257 0.046,0.386 0.016,0.129 0.03,0.258 0.046,0.386l0 0z"/>
   <path class="fil2" d="M2.028 6.855l0.238 0.169 -1.281 0.082 -0.283 -1.265 0.649 -0.067 0.006 -0.124 0.165 -0.013c0.224,-0.018 0.45,-0.03 0.675,-0.04 0.564,-0.026 1.13,-0.039 1.695,-0.039 0.593,0 1.187,0.014 1.78,0.041 0.252,0.011 0.506,0.023 0.759,0.041l0.164 0.012 0.006 0.106 0.658 0.067 -0.282 1.266 -1.281 -0.083 0.223 -0.159c-0.09,-0.003 -0.179,-0.007 -0.269,-0.01 -0.6,-0.023 -1.2,-0.037 -1.801,-0.037 -0.555,0 -1.112,0.015 -1.667,0.044 -0.051,0.003 -0.102,0.006 -0.154,0.009l0 0z"/>
   <g id="_2001953846944">
    <polygon class="fil0" points="6.382,5.924 7.03,5.99 6.829,6.893 6.234,6.855 6.467,6.689 "/>
    <polygon class="fil5" points="6.382,5.924 6.965,5.983 6.536,6.875 6.234,6.855 6.467,6.689 "/>
    <polygon class="fil0" points="1.579,5.939 0.931,6.006 1.133,6.909 1.727,6.871 1.494,6.705 "/>
    <polygon class="fil5" points="1.579,5.939 0.996,5.999 1.425,6.89 1.727,6.871 1.494,6.705 "/>
    <path class="fil0" d="M1.494 6.705c0,0 1.015,-0.091 2.356,-0.091 1.34,0 2.617,0.075 2.617,0.075l-0.049 -0.862c0,0 -1.16,-0.082 -2.526,-0.082 -1.366,0 -2.356,0.078 -2.356,0.078l-0.042 0.882z"/>
    <path class="fil4" d="M2.33 6.196l0.204 0.248 -0.158 0.007 -0.141 -0.158 0.008 0.164 -0.134 0.006 -0.022 -0.486 0.133 -0.006 0.008 0.163 0.126 -0.169 0.164 -0.008 -0.188 0.239 0 0zm0.431 0.256c-0.036,0.001 -0.07,-0.005 -0.102,-0.017 -0.032,-0.012 -0.06,-0.03 -0.084,-0.052 -0.024,-0.023 -0.043,-0.049 -0.058,-0.08 -0.015,-0.031 -0.022,-0.064 -0.024,-0.1 -0.001,-0.035 0.005,-0.069 0.017,-0.101 0.013,-0.032 0.031,-0.06 0.053,-0.083 0.023,-0.024 0.05,-0.044 0.081,-0.058 0.03,-0.015 0.064,-0.023 0.1,-0.024 0.035,-0.001 0.069,0.005 0.101,0.017 0.032,0.013 0.06,0.03 0.084,0.053 0.025,0.022 0.044,0.049 0.059,0.08 0.014,0.03 0.022,0.064 0.023,0.099 0.001,0.036 -0.004,0.069 -0.017,0.101 -0.012,0.032 -0.03,0.06 -0.053,0.084 -0.022,0.024 -0.049,0.043 -0.08,0.057 -0.031,0.015 -0.065,0.023 -0.1,0.024l0 0zm-0.013 -0.391c-0.019,0.001 -0.035,0.005 -0.051,0.013 -0.015,0.008 -0.028,0.018 -0.039,0.03 -0.011,0.013 -0.02,0.027 -0.026,0.043 -0.006,0.017 -0.008,0.034 -0.008,0.052 0.001,0.017 0.005,0.034 0.012,0.05 0.007,0.016 0.016,0.03 0.028,0.042 0.011,0.012 0.025,0.021 0.041,0.028 0.016,0.007 0.033,0.01 0.052,0.009 0.018,0 0.035,-0.005 0.05,-0.012 0.016,-0.008 0.029,-0.018 0.04,-0.031 0.011,-0.012 0.019,-0.027 0.025,-0.043 0.006,-0.017 0.009,-0.034 0.008,-0.052 0,-0.017 -0.004,-0.034 -0.011,-0.05 -0.007,-0.016 -0.017,-0.03 -0.028,-0.042 -0.012,-0.011 -0.026,-0.021 -0.042,-0.028 -0.016,-0.006 -0.033,-0.009 -0.051,-0.009l0 0zm0.655 -0.006l-0.133 0.002 0.007 0.367 -0.132 0.002 -0.008 -0.366 -0.133 0.003 -0.009 -0.009 -0.003 -0.111 0.417 -0.009 0.003 0.112 -0.009 0.009 0 0zm0.305 0.364l-0.025 -0.067 -0.15 0.001 -0.025 0.068 -0.137 0.001 0.176 -0.489 0.114 -0.001 0.185 0.486 -0.138 0.001 0 0zm-0.102 -0.309l-0.038 0.129 0.077 0 -0.039 -0.129zm0.774 0.312l-0.276 -0.003 0.006 -0.487 0.255 0.003c0.009,0 0.018,0.001 0.028,0.004 0.01,0.002 0.019,0.006 0.029,0.01 0.009,0.005 0.018,0.01 0.026,0.016 0.008,0.006 0.015,0.012 0.021,0.019 0.01,0.013 0.018,0.027 0.023,0.043 0.006,0.015 0.008,0.031 0.008,0.048 0,0.018 -0.004,0.036 -0.012,0.054 -0.007,0.017 -0.018,0.032 -0.033,0.045 0.009,0.006 0.018,0.013 0.025,0.021 0.008,0.009 0.014,0.018 0.02,0.028 0.005,0.01 0.009,0.021 0.012,0.032 0.003,0.011 0.005,0.022 0.004,0.032 0,0.019 -0.003,0.036 -0.011,0.053 -0.007,0.016 -0.016,0.03 -0.029,0.043 -0.012,0.012 -0.027,0.021 -0.043,0.029 -0.017,0.007 -0.034,0.01 -0.053,0.01l0 0zm-0.056 -0.39l-0.087 -0.001 -0.001 0.099 0.087 0.001c0.013,0.001 0.025,-0.004 0.035,-0.014 0.01,-0.01 0.015,-0.021 0.015,-0.035 0,-0.013 -0.005,-0.025 -0.015,-0.035 -0.009,-0.009 -0.021,-0.015 -0.034,-0.015zm0.002 0.188l-0.092 -0.001 -0.001 0.098 0.092 0.001c0.014,0 0.025,-0.004 0.035,-0.014 0.01,-0.009 0.015,-0.021 0.015,-0.035 0,-0.013 -0.005,-0.025 -0.014,-0.034 -0.01,-0.01 -0.021,-0.015 -0.035,-0.015l0 0zm0.534 0.211l-0.024 -0.068 -0.15 -0.003 -0.026 0.067 -0.138 -0.003 0.191 -0.483 0.114 0.003 0.17 0.49 -0.137 -0.003 0 0zm-0.093 -0.311l-0.042 0.128 0.077 0.001 -0.035 -0.129zm0.622 -0.038l-0.133 -0.005 -0.013 0.366 -0.132 -0.004 0.013 -0.366 -0.134 -0.005 -0.008 -0.009 0.003 -0.112 0.417 0.015 -0.003 0.111 -0.01 0.009 0 0zm0.448 0.208c-0.001,0.022 -0.005,0.043 -0.013,0.062 -0.009,0.019 -0.02,0.037 -0.034,0.052 -0.013,0.015 -0.03,0.028 -0.048,0.039 -0.019,0.01 -0.038,0.018 -0.06,0.024 -0.009,0.002 -0.018,0.004 -0.028,0.005 -0.01,0.002 -0.019,0.002 -0.029,0.002 -0.01,-0.001 -0.019,-0.002 -0.028,-0.004 -0.01,-0.002 -0.019,-0.005 -0.028,-0.008 -0.021,-0.008 -0.04,-0.017 -0.057,-0.03 -0.017,-0.012 -0.032,-0.026 -0.045,-0.043 -0.012,-0.016 -0.022,-0.034 -0.028,-0.054 -0.007,-0.02 -0.009,-0.041 -0.008,-0.064l0.014 -0.308 0.135 0.006 -0.014 0.3c0,0.01 0.002,0.018 0.005,0.026 0.003,0.008 0.008,0.015 0.014,0.021 0.006,0.006 0.013,0.01 0.021,0.014 0.008,0.003 0.016,0.005 0.025,0.006 0.009,0 0.018,-0.001 0.026,-0.004 0.009,-0.003 0.016,-0.007 0.023,-0.012 0.006,-0.005 0.011,-0.012 0.016,-0.019 0.004,-0.008 0.006,-0.016 0.006,-0.025l0.014 -0.301 0.135 0.007 -0.014 0.308 0 0z"/>
   </g>
   <path class="fil2" d="M4.152 0.392l0 -0.003 0.146 0.005 0.133 0.001 0 0.003c0.17,0.005 0.341,0.012 0.512,0.02l0.152 0.006 0.058 0.142c0.038,0.094 0.076,0.188 0.115,0.282 0.014,-0.067 0.027,-0.133 0.04,-0.199l0.041 -0.209 0.212 0.017c0.181,0.016 0.361,0.032 0.542,0.049l0.181 0.017 0.031 0.179c0.056,0.323 0.111,0.646 0.166,0.968 0.055,0.323 0.109,0.645 0.165,0.967l0.054 0.317 -0.318 -0.04c-0.163,-0.021 -0.327,-0.042 -0.49,-0.059l-0.18 -0.02 0 0.001 -0.209 -0.019c-0.051,-0.005 -0.102,-0.009 -0.152,-0.013l-0.146 -0.01 -0.001 -0.003 -0.239 -0.013c-0.16,-0.009 -0.319,-0.016 -0.479,-0.023l-0.071 -0.002 -0.153 -0.003c-0.172,-0.004 -0.344,-0.005 -0.515,-0.005l-0.214 0 -0.001 0.001 -0.225 0.006c-0.172,0.005 -0.344,0.012 -0.517,0.02l-0.096 0.004 -0.125 0.009c-0.227,0.015 -0.455,0.031 -0.682,0.053 -0.231,0.022 -0.461,0.049 -0.691,0.076l-0.315 0.037 0.052 -0.313c0.017,-0.099 0.033,-0.199 0.049,-0.299 0.016,-0.101 0.033,-0.201 0.05,-0.302l0.028 -0.178 0.18 -0.021c0.062,-0.006 0.124,-0.013 0.186,-0.02 -0.057,-0.032 -0.113,-0.064 -0.17,-0.095l-0.144 -0.082 0.027 -0.164c0.021,-0.128 0.041,-0.257 0.062,-0.386 0.021,-0.129 0.042,-0.258 0.062,-0.387l0.029 -0.182 0.184 -0.017c0.2,-0.019 0.4,-0.038 0.6,-0.053 0.198,-0.014 0.396,-0.025 0.595,-0.036l0.267 -0.014 -0.012 0.191c0.056,-0.047 0.111,-0.094 0.167,-0.141l0.065 -0.056 0.085 -0.001c0.303,-0.005 0.606,-0.006 0.909,-0.003l0 0zm-1.545 1.065c-0.001,0.001 -0.001,0.001 -0.001,0.001 0,0 0,0 0.001,0 0,0 0,0 0,-0.001z"/>
   <path class="fil4" d="M2.553 2.547c-0.229,0.016 -0.459,0.032 -0.689,0.054 -0.231,0.022 -0.463,0.049 -0.696,0.077 0.017,-0.101 0.033,-0.201 0.049,-0.302 0.016,-0.1 0.033,-0.201 0.049,-0.301 0.171,-0.019 0.342,-0.038 0.512,-0.055 -0.011,0.078 -0.021,0.156 -0.031,0.234 0.107,-0.011 0.214,-0.02 0.321,-0.029 0.011,-0.101 0.022,-0.202 0.033,-0.304 -0.124,-0.068 -0.247,-0.136 -0.369,-0.204 -0.121,-0.068 -0.241,-0.135 -0.359,-0.201 0.021,-0.129 0.042,-0.259 0.063,-0.388 0.021,-0.129 0.042,-0.258 0.062,-0.387 0.2,-0.019 0.398,-0.037 0.595,-0.051 0.197,-0.015 0.394,-0.026 0.59,-0.036 -0.006,0.094 -0.014,0.188 -0.021,0.282 -0.007,0.093 -0.014,0.188 -0.021,0.281 -0.145,0.008 -0.29,0.017 -0.436,0.028 0.008,-0.068 0.015,-0.135 0.022,-0.203 -0.103,0.008 -0.207,0.016 -0.31,0.024 -0.011,0.084 -0.022,0.167 -0.032,0.25 0.119,0.069 0.238,0.139 0.359,0.208 0.123,0.071 0.246,0.142 0.371,0.213 -0.011,0.135 -0.021,0.27 -0.031,0.405 -0.011,0.135 -0.02,0.27 -0.031,0.405l0 0zm0.747 -0.033c-0.173,0.005 -0.347,0.012 -0.52,0.02 0.016,-0.265 0.032,-0.53 0.048,-0.795 0.016,-0.265 0.032,-0.53 0.049,-0.795 0.125,-0.104 0.249,-0.208 0.37,-0.311 0.318,-0.005 0.636,-0.006 0.954,-0.002 0.011,0.313 0.022,0.627 0.032,0.94 0.011,0.314 0.022,0.628 0.033,0.941 -0.173,-0.004 -0.347,-0.005 -0.519,-0.005 0,-0.103 -0.001,-0.206 -0.001,-0.309 0,-0.102 0,-0.206 0,-0.309 -0.144,0.002 -0.286,0.003 -0.429,0.007 -0.003,0.103 -0.005,0.206 -0.008,0.309 -0.002,0.103 -0.006,0.206 -0.009,0.309zm0.446 -0.982c0,-0.091 -0.001,-0.183 -0.001,-0.274 0,-0.091 0,-0.183 0,-0.274 -0.135,0.001 -0.269,0.002 -0.403,0.005 -0.002,0.091 -0.005,0.183 -0.008,0.274 -0.002,0.092 -0.004,0.183 -0.006,0.275 0.138,-0.003 0.278,-0.005 0.418,-0.006l0 0zm1.796 -0.837c0.179,0.015 0.358,0.031 0.539,0.048 0.055,0.322 0.11,0.645 0.165,0.967 0.055,0.323 0.11,0.645 0.165,0.968 -0.165,-0.021 -0.329,-0.042 -0.494,-0.06 -0.028,-0.198 -0.056,-0.397 -0.083,-0.595 -0.028,-0.199 -0.056,-0.398 -0.083,-0.596 -0.034,0.192 -0.069,0.385 -0.107,0.577 -0.037,0.192 -0.078,0.384 -0.12,0.576 -0.052,-0.005 -0.105,-0.01 -0.157,-0.013 -0.085,-0.202 -0.168,-0.403 -0.249,-0.604 -0.081,-0.2 -0.158,-0.4 -0.234,-0.599 0.015,0.196 0.031,0.392 0.047,0.588 0.016,0.196 0.031,0.392 0.047,0.588 -0.161,-0.009 -0.322,-0.016 -0.483,-0.022 -0.015,-0.314 -0.03,-0.628 -0.046,-0.941 -0.015,-0.314 -0.031,-0.628 -0.047,-0.942 0.176,0.005 0.353,0.012 0.53,0.02 0.065,0.16 0.131,0.32 0.199,0.481 0.068,0.16 0.138,0.322 0.21,0.483 0.036,-0.153 0.072,-0.307 0.105,-0.461 0.033,-0.154 0.065,-0.309 0.096,-0.463z"/>
  </g>
  <rect class="fil6" width="7.961" height="7.961"/>
 </g>
</svg>
