<?xml version="1.0" encoding="UTF-8"?>
<!DOCTYPE svg PUBLIC "-//W3C//DTD SVG 1.1//EN" "http://www.w3.org/Graphics/SVG/1.1/DTD/svg11.dtd">
<!-- Creator: CorelDRAW -->
<svg xmlns="http://www.w3.org/2000/svg" xml:space="preserve" width="250px" height="246px" version="1.1" style="shape-rendering:geometricPrecision; text-rendering:geometricPrecision; image-rendering:optimizeQuality; fill-rule:evenodd; clip-rule:evenodd"
viewBox="0 0 250 245.64"
 xmlns:xlink="http://www.w3.org/1999/xlink"
 xmlns:xodm="http://www.corel.com/coreldraw/odm/2003">
 <defs>
  <style type="text/css">
   <![CDATA[
    .fil0 {fill:#0077C0}
    .fil6 {fill:#0D5395}
    .fil5 {fill:#242F5C}
    .fil2 {fill:#242F5C}
    .fil1 {fill:white}
    .fil4 {fill:white;fill-rule:nonzero}
    .fil3 {fill:black;fill-opacity:0.301961}
   ]]>
  </style>
 </defs>
 <g id="Layer_x0020_1">
  <metadata id="CorelCorpID_0Corel-Layer"/>
  <path class="fil0" d="M0.074 46.675c-0.224,6.181 0.094,12.718 0.517,18.622 1.373,19.13 5.228,38.359 11.477,56.726 18.47,54.275 56.277,96.735 112.932,123.617 56.655,-26.882 94.462,-69.342 112.932,-123.617 6.249,-18.367 10.104,-37.596 11.476,-56.726 0.424,-5.904 0.742,-12.441 0.518,-18.622 -12.749,-10.636 -31.793,-18.985 -47.481,-24.236 -24.352,-8.152 -51.358,-12.755 -77.445,-12.755 -26.088,0 -53.093,4.603 -77.445,12.755 -15.689,5.251 -34.732,13.6 -47.481,24.236z"/>
  <path class="fil1" d="M6.605 48.771c12.172,-9.171 28.358,-16.107 42.759,-20.927 24.123,-8.075 50.188,-12.461 75.636,-12.461 25.448,0 51.513,4.386 75.636,12.461 14.401,4.82 30.587,11.756 42.759,20.927l0.903 0.68 0.005 1.132c0.017,4.774 -0.238,9.546 -0.579,14.307 -1.348,18.792 -5.118,37.46 -11.188,55.297 -18.404,54.083 -55.598,93.535 -106.528,118.635l-1.008 0.496 -1.008 -0.496c-50.93,-25.1 -88.124,-64.552 -106.528,-118.635 -6.07,-17.837 -9.84,-36.505 -11.188,-55.297 -0.341,-4.761 -0.596,-9.533 -0.579,-14.307l0.005 -1.132 0.903 -0.68z"/>
  <path class="fil2" d="M7.977 50.591c-0.018,4.714 0.237,9.453 0.573,14.136 1.333,18.585 5.068,37.084 11.072,54.725 18.222,53.548 55.022,92.507 105.378,117.325 50.356,-24.818 87.156,-63.777 105.378,-117.325 6.003,-17.641 9.739,-36.14 11.072,-54.725 0.336,-4.683 0.591,-9.422 0.573,-14.136 -11.933,-8.991 -28.388,-15.992 -42.11,-20.585 -23.804,-7.968 -49.789,-12.343 -74.913,-12.343 -25.124,0 -51.109,4.375 -74.913,12.343 -13.722,4.593 -30.177,11.594 -42.11,20.585z"/>
  <path class="fil1" d="M126.362 72.604l10.72 0.232c5.539,0.119 11.076,0.28 16.612,0.484l9.754 0.36 0.472 9.748c0.52,10.724 1.096,21.444 1.627,32.167 0.37,7.458 0.75,14.915 1.123,22.372 0.703,0.025 1.405,0.05 2.108,0.075 -0.186,-2.078 -0.371,-4.156 -0.554,-6.234 -0.98,-11.113 -2.009,-22.223 -2.953,-33.34l-0.42 -4.95 3.527 -3.498c3.862,-3.829 7.683,-7.7 11.499,-11.575l3.494 -3.548 4.963 0.415c11.768,0.983 23.524,2.125 35.264,3.402l7.938 0.864 1.381 7.865c2.291,13.036 4.554,26.078 6.823,39.118 2.264,13.021 4.505,26.046 6.793,39.063l2.368 13.468 -13.635 -1.027c-6.336,-0.478 -12.672,-0.947 -19.011,-1.375l-8.137 -0.551 -7.994 -0.425c-6.268,-0.334 -12.538,-0.636 -18.808,-0.914l-5.374 -0.238 -5.541 -0.178c-10.677,-0.342 -21.357,-0.595 -32.039,-0.762l-5.867 -0.092 -4.956 -0.008c-10.685,-0.017 -21.37,0.042 -32.054,0.184l-6.335 0.085 -4.534 0.115c-6.236,0.159 -12.472,0.334 -18.707,0.553l-12.094 0.424 1.14 -12.048c0.151,-1.604 0.303,-3.207 0.455,-4.81 -0.885,3.207 -1.773,6.414 -2.662,9.621l-2.043 7.368 -7.637 0.405c-9.993,0.53 -19.982,1.134 -29.967,1.778l-11.587 0.748 0.275 -11.608c0.308,-12.962 0.699,-25.923 1.21,-38.878 0.509,-12.934 1.182,-25.86 1.919,-38.782l0.513 -8.983 8.944 -0.979c5.886,-0.644 11.773,-1.279 17.666,-1.85l12.333 -1.193 -0.006 0.083 1.16 -0.093c5.727,-0.458 11.458,-0.864 17.191,-1.24l0.658 -0.043 0.006 -0.059 3.967 -0.201 9.855 -0.645 -0.039 0.16c3.926,-0.18 7.853,-0.337 11.781,-0.475l0.002 -0.066 4.816 -0.104 7.154 -0.252 -0.007 0.098c4.85,-0.095 9.7,-0.15 14.55,-0.187l10.901 -0.083 -0.001 0.039z"/>
  <path class="fil1" d="M167.433 9.893l1.632 -8.287 9.146 0.764c6.067,0.506 12.13,1.055 18.191,1.627l7.814 0.737 1.332 7.734c1.864,10.823 3.711,21.649 5.56,32.475 1.847,10.808 3.674,21.618 5.538,32.423l2.356 13.663 -13.754 -1.742c-5.455,-0.691 -10.91,-1.379 -16.377,-1.966l-5.595 -0.602 -7.419 -0.668c-1.688,-0.151 -3.377,-0.304 -5.068,-0.425l-6.279 -0.446 -0.028 -0.068 -6.607 -0.37c-5.331,-0.299 -10.665,-0.537 -16,-0.742l-2.367 -0.091 -5.133 -0.103c-5.74,-0.115 -11.482,-0.156 -17.224,-0.156l-5.971 0 -8.718 0.237c-5.764,0.157 -11.524,0.402 -17.284,0.661l-3.199 0.143 -4.163 0.284c-7.618,0.518 -15.235,1.064 -22.837,1.787 -7.72,0.735 -15.424,1.626 -23.126,2.536l-13.575 1.602 2.254 -13.482c0.558,-3.339 1.108,-6.68 1.641,-10.023 0.538,-3.382 1.11,-6.759 1.657,-10.14l1.243 -7.691 6.937 -0.777 -5.737 -3.252 1.146 -7.048c0.703,-4.321 1.396,-8.643 2.09,-12.965 0.694,-4.323 1.405,-8.642 2.09,-12.966l1.245 -7.857 7.919 -0.75c6.719,-0.637 13.44,-1.252 20.171,-1.752 6.661,-0.495 13.331,-0.869 20,-1.225l11.554 -0.616 -0.242 3.621c0.5,-0.423 0.999,-0.847 1.498,-1.271l2.802 -2.383 3.677 -0.059c9.372,-0.151 18.746,-0.186 28.118,-0.115l-0.007 -0.149 7.367 0.223 6.589 0.072 0.005 0.131c5.03,0.167 10.059,0.37 15.087,0.597l6.566 0.297 2.475 6.089c0.336,0.828 0.673,1.656 1.01,2.484z"/>
  <path class="fil3" d="M46.627 185.379c12.02,14.868 26.288,28.156 42.78,39.716 11.507,-0.379 23.022,-0.569 34.527,-0.569 12.183,0 24.372,0.171 36.557,0.477 16.544,-11.613 30.845,-24.967 42.881,-39.912 -6.104,-0.364 -12.221,-0.654 -18.319,-0.923 -19.878,-0.879 -39.794,-1.366 -59.691,-1.366 -18.954,0 -37.928,0.425 -56.862,1.307 -7.277,0.338 -14.605,0.709 -21.873,1.27z"/>
  <path class="fil2" d="M223.351 80.98l6.236 0.68 1.085 6.178c2.289,13.035 4.554,26.074 6.822,39.113 2.265,13.022 4.505,26.049 6.794,39.068l1.86 10.579 -10.711 -0.806c-6.341,-0.478 -12.683,-0.948 -19.028,-1.377l-6.747 -0.456 -0.003 -0.02 -9.414 -0.502c-6.275,-0.334 -12.551,-0.636 -18.828,-0.914l-5.389 -0.239 -5.554 -0.178c-10.69,-0.343 -21.382,-0.595 -32.076,-0.763l-5.883 -0.093 -4.972 -0.007c-10.697,-0.017 -21.393,0.041 -32.089,0.184l-6.348 0.085 -4.547 0.116c-6.244,0.158 -12.487,0.334 -18.729,0.553l-9.501 0.333 0.895 -9.465c0.991,-10.473 1.982,-20.947 2.972,-31.421 -3.124,11.827 -6.375,23.62 -9.644,35.408l-1.606 5.789 -5.999 0.318c-10.001,0.53 -19.998,1.135 -29.993,1.779l-9.102 0.588 0.216 -9.119c0.308,-12.95 0.698,-25.899 1.208,-38.843 0.509,-12.92 1.183,-25.832 1.918,-38.741l0.402 -7.057 7.027 -0.769c5.877,-0.643 11.754,-1.277 17.638,-1.847l9.67 -0.936 -0.002 0.039 3.781 -0.302c5.716,-0.457 11.436,-0.864 17.158,-1.239l2.561 -0.167 0.003 -0.031 2.05 -0.104 6.768 -0.443 -0.026 0.104c5.005,-0.245 10.012,-0.449 15.02,-0.626l1.916 -0.067 0.001 -0.037 2.669 -0.058 4.648 -0.163 -0.005 0.063 0.489 -0.011c40.834,-0.883 66.094,-0.523 124.389,5.824z"/>
  <path class="fil4" d="M211.096 125.35c-0.566,-3.815 -1.121,-7.636 -1.675,-11.453 -0.555,-3.821 -1.086,-7.638 -1.652,-11.47 -4.909,-0.438 -9.794,-0.858 -14.679,-1.229 0.448,3.84 0.897,7.68 1.345,11.512 0.448,3.831 0.944,7.663 1.393,11.503 5.073,0.337 10.147,0.733 15.268,1.137zm-164.721 -39.092c5.687,-0.454 11.375,-0.858 17.039,-1.229 -3.281,13.314 -6.633,26.649 -10.101,39.934 -3.47,13.292 -7.127,26.569 -10.808,39.841 -10.006,0.531 -20.036,1.137 -30.089,1.785 0.307,-12.909 0.696,-25.828 1.204,-38.712 0.507,-12.877 1.18,-25.753 1.911,-38.595 5.853,-0.64 11.705,-1.272 17.534,-1.836 -0.542,9.971 -1.062,19.966 -1.534,29.946 -0.472,9.986 -0.826,19.992 -1.18,29.988 2.738,-10.173 5.487,-20.359 8.166,-30.535 2.678,-10.178 5.286,-20.38 7.858,-30.587zm37.971 77.022c-6.277,0.16 -12.555,0.337 -18.809,0.556 1.251,-13.222 2.502,-26.454 3.753,-39.673 1.25,-13.224 2.525,-26.46 3.776,-39.69 5.498,-0.278 10.973,-0.505 16.472,-0.699 -0.873,13.255 -1.723,26.519 -2.596,39.766 -0.873,13.246 -1.723,26.501 -2.596,39.74zm10.997 -0.202c0.637,-13.255 1.275,-26.519 1.912,-39.774 0.637,-13.255 1.274,-26.527 1.887,-39.799 5.452,-0.118 10.927,-0.185 16.402,-0.228 -0.189,10.763 -0.39,21.517 -0.567,32.262 -0.176,10.754 -0.424,21.5 -0.613,32.246 4.389,-0.026 8.731,0 13.144,0.008 0.024,5.036 0.024,10.072 0.048,15.099 -10.761,-0.016 -21.499,0.042 -32.213,0.186zm43.186 -0.085c-0.307,-13.246 -0.566,-26.502 -0.826,-39.757 -0.259,-13.246 -0.543,-26.51 -0.849,-39.773 5.475,0.118 10.973,0.277 16.448,0.48 0.519,10.728 1.098,21.457 1.629,32.178 0.53,10.719 1.085,21.44 1.604,32.16 4.342,0.118 8.732,0.27 13.121,0.43 0.378,5.019 0.732,10.038 1.086,15.049 -10.761,-0.346 -21.499,-0.598 -32.213,-0.767zm62.16 2.106c-6.324,-0.337 -12.625,-0.64 -18.903,-0.918 -0.967,-11.099 -1.994,-22.198 -2.973,-33.306 -0.979,-11.099 -2.006,-22.199 -2.95,-33.307 3.941,-3.907 7.788,-7.806 11.587,-11.663 11.611,0.968 23.245,2.097 34.997,3.377 2.289,13.036 4.556,26.08 6.82,39.1 2.266,13.028 4.508,26.064 6.797,39.083 -6.372,-0.48 -12.744,-0.952 -19.092,-1.381 -0.613,-4.295 -1.227,-8.601 -1.84,-12.901 -0.614,-4.299 -1.275,-8.607 -1.888,-12.919 -5.216,-0.379 -10.455,-0.766 -15.646,-1.078 0.519,4.32 1.05,8.648 1.557,12.961 0.508,4.319 0.991,8.64 1.534,12.952z"/>
  <path class="fil5" d="M59.508 219.23l7.969 5.669 -42.971 2.766 -9.474 -42.455 21.766 -2.228 0.202 -4.179 5.516 -0.436c7.522,-0.595 15.115,-0.98 22.651,-1.331 18.934,-0.882 37.908,-1.306 56.862,-1.306 19.897,0 39.814,0.486 59.691,1.365 8.482,0.375 17.003,0.789 25.473,1.387l5.515 0.389 0.205 3.557 22.055 2.258 -9.474 42.454 -42.97 -2.766 7.483 -5.324c-3.002,-0.127 -6.004,-0.245 -9.003,-0.36 -20.117,-0.768 -40.27,-1.237 -60.403,-1.237 -18.641,0 -37.307,0.499 -55.922,1.492 -1.721,0.092 -3.445,0.186 -5.171,0.285z"/>
  <g id="_2001953846944">
   <polygon class="fil0" points="205.55,187.992 227.294,190.218 220.531,220.523 200.585,219.239 208.417,213.666 "/>
   <polygon class="fil6" points="205.55,187.992 225.111,189.995 210.717,219.891 200.585,219.239 208.417,213.666 "/>
   <polygon class="fil0" points="44.45,188.517 22.706,190.743 29.469,221.047 49.415,219.763 41.583,214.191 "/>
   <polygon class="fil6" points="44.45,188.517 24.889,190.519 39.283,220.415 49.415,219.763 41.583,214.191 "/>
   <path class="fil0" d="M41.583 214.191c0,0 34.04,-3.023 79.018,-3.023 44.979,0 87.816,2.498 87.816,2.498l-1.666 -28.914c0,0 -38.91,-2.737 -84.722,-2.737 -45.811,0 -79.018,2.618 -79.018,2.618l-1.428 29.558z"/>
   <path class="fil4" d="M69.626 197.14l6.843 8.302 -5.296 0.241 -4.726 -5.282 0.249 5.485 -4.476 0.204 -0.741 -16.309 4.476 -0.204 0.249 5.486 4.228 -5.689 5.506 -0.25 -6.312 8.016zm14.451 8.568c-1.206,0.039 -2.342,-0.148 -3.408,-0.563 -1.066,-0.414 -2.004,-0.997 -2.814,-1.749 -0.811,-0.753 -1.461,-1.647 -1.951,-2.683 -0.49,-1.037 -0.754,-2.151 -0.793,-3.343 -0.039,-1.191 0.152,-2.32 0.573,-3.386 0.421,-1.067 1.012,-2.002 1.771,-2.805 0.76,-0.804 1.658,-1.451 2.695,-1.941 1.036,-0.49 2.157,-0.754 3.363,-0.794 1.191,-0.039 2.324,0.152 3.397,0.573 1.073,0.421 2.015,1.008 2.825,1.761 0.811,0.752 1.461,1.646 1.951,2.683 0.49,1.036 0.754,2.15 0.793,3.342 0.039,1.191 -0.152,2.32 -0.573,3.386 -0.421,1.067 -1.012,2.002 -1.771,2.805 -0.76,0.804 -1.662,1.447 -2.705,1.93 -1.044,0.484 -2.162,0.745 -3.353,0.784zm-0.429 -13.1c-0.616,0.02 -1.183,0.161 -1.701,0.424 -0.518,0.262 -0.959,0.603 -1.324,1.022 -0.366,0.419 -0.648,0.901 -0.848,1.448 -0.199,0.547 -0.289,1.122 -0.27,1.725 0.02,0.589 0.147,1.153 0.382,1.692 0.235,0.54 0.549,1.007 0.941,1.401 0.391,0.394 0.854,0.705 1.388,0.933 0.533,0.229 1.109,0.333 1.725,0.312 0.617,-0.02 1.184,-0.161 1.702,-0.424 0.518,-0.262 0.959,-0.603 1.324,-1.022 0.366,-0.419 0.648,-0.905 0.847,-1.459 0.2,-0.554 0.29,-1.125 0.271,-1.714 -0.02,-0.602 -0.147,-1.17 -0.382,-1.703 -0.235,-0.532 -0.549,-0.996 -0.94,-1.39 -0.392,-0.394 -0.855,-0.705 -1.389,-0.933 -0.533,-0.228 -1.109,-0.332 -1.726,-0.312zm21.983 -0.22l-4.481 0.095 0.262 12.284 -4.438 0.094 -0.262 -12.283 -4.48 0.095 -0.301 -0.288 -0.079 -3.744 13.987 -0.298 0.08 3.744 -0.288 0.301zm10.233 12.217l-0.86 -2.244 -5.028 0.043 -0.823 2.258 -4.607 0.04 5.897 -16.377 3.85 -0.033 6.179 16.273 -4.608 0.04zm-3.434 -10.343l-1.267 4.324 2.587 -0.023 -1.32 -4.301zm25.966 10.445l-9.256 -0.112 0.197 -16.325 8.542 0.104c0.308,0.003 0.627,0.046 0.955,0.127 0.329,0.081 0.65,0.197 0.964,0.348 0.314,0.151 0.606,0.326 0.877,0.526 0.272,0.2 0.504,0.42 0.697,0.661 0.346,0.425 0.61,0.898 0.793,1.419 0.183,0.522 0.271,1.056 0.265,1.602 -0.008,0.632 -0.142,1.237 -0.401,1.816 -0.259,0.579 -0.63,1.083 -1.112,1.512 0.306,0.2 0.587,0.441 0.843,0.725 0.256,0.284 0.473,0.595 0.651,0.934 0.179,0.339 0.318,0.695 0.419,1.068 0.1,0.372 0.149,0.734 0.144,1.085 -0.007,0.617 -0.13,1.201 -0.368,1.752 -0.238,0.551 -0.567,1.031 -0.985,1.44 -0.419,0.409 -0.903,0.733 -1.453,0.971 -0.55,0.239 -1.141,0.355 -1.772,0.347zm-1.883 -13.068l-2.924 -0.035 -0.04 3.324 2.924 0.035c0.449,0.006 0.84,-0.155 1.174,-0.48 0.333,-0.326 0.503,-0.713 0.508,-1.162 0.006,-0.448 -0.154,-0.84 -0.48,-1.173 -0.325,-0.334 -0.713,-0.503 -1.162,-0.509zm0.072 6.292l-3.072 -0.037 -0.04 3.303 3.072 0.037c0.462,0.006 0.857,-0.151 1.184,-0.47 0.326,-0.318 0.492,-0.709 0.498,-1.172 0.005,-0.449 -0.151,-0.836 -0.47,-1.163 -0.319,-0.326 -0.71,-0.492 -1.172,-0.498zm17.902 7.084l-0.793 -2.268 -5.027 -0.107 -0.889 2.232 -4.607 -0.098 6.384 -16.194 3.849 0.083 5.69 16.45 -4.607 -0.098zm-3.123 -10.441l-1.396 4.285 2.587 0.055 -1.191 -4.34zm20.892 -1.274l-4.479 -0.154 -0.42 12.279 -4.437 -0.152 0.421 -12.279 -4.479 -0.153 -0.284 -0.305 0.128 -3.743 13.983 0.48 -0.129 3.742 -0.304 0.285zm15.025 6.979c-0.034,0.743 -0.188,1.438 -0.463,2.085 -0.275,0.648 -0.646,1.228 -1.111,1.74 -0.465,0.513 -1.008,0.948 -1.628,1.306 -0.62,0.358 -1.285,0.626 -1.995,0.805 -0.313,0.084 -0.632,0.147 -0.956,0.188 -0.325,0.042 -0.649,0.055 -0.971,0.041 -0.322,-0.015 -0.64,-0.057 -0.953,-0.128 -0.312,-0.07 -0.621,-0.161 -0.924,-0.273 -0.691,-0.242 -1.33,-0.57 -1.914,-0.982 -0.585,-0.413 -1.087,-0.895 -1.504,-1.448 -0.417,-0.552 -0.733,-1.163 -0.949,-1.833 -0.215,-0.669 -0.306,-1.376 -0.273,-2.118l0.469 -10.341 4.539 0.206 -0.455 10.067c-0.014,0.308 0.036,0.595 0.15,0.86 0.114,0.265 0.273,0.497 0.474,0.695 0.202,0.199 0.437,0.357 0.705,0.475 0.269,0.117 0.55,0.183 0.844,0.196 0.309,0.014 0.602,-0.026 0.88,-0.118 0.278,-0.093 0.526,-0.229 0.745,-0.409 0.218,-0.18 0.397,-0.396 0.534,-0.65 0.138,-0.253 0.214,-0.534 0.228,-0.842l0.456 -10.068 4.54 0.206 -0.468 10.34z"/>
  </g>
  <path class="fil5" d="M130.74 2.449l-0.005 -0.096 4.919 0.149 4.436 0.049 0.003 0.086c5.73,0.177 11.459,0.405 17.186,0.663l5.107 0.231 1.925 4.737c1.284,3.159 2.572,6.317 3.877,9.467 0.455,-2.226 0.901,-4.454 1.34,-6.684l1.379 -7.004 7.114 0.594c6.059,0.506 12.114,1.054 18.167,1.625l6.077 0.574 1.036 6.015c1.864,10.822 3.711,21.647 5.56,32.472 1.847,10.809 3.675,21.621 5.538,32.427l1.833 10.627 -10.698 -1.355c-5.468,-0.693 -10.938,-1.382 -16.419,-1.972l-6.028 -0.648 -0.002 0.007 -7.024 -0.632c-1.702,-0.153 -3.405,-0.307 -5.11,-0.428l-4.883 -0.348 -0.038 -0.089 -8.027 -0.45c-5.345,-0.3 -10.692,-0.539 -16.041,-0.744l-2.388 -0.091 -5.153 -0.104c-5.756,-0.116 -11.513,-0.157 -17.27,-0.157l-7.183 0 -0.001 0.032 -7.567 0.206c-5.777,0.157 -11.551,0.403 -17.324,0.663l-3.225 0.144 -4.19 0.286c-7.638,0.519 -15.276,1.067 -22.898,1.792 -7.737,0.736 -15.459,1.629 -23.177,2.541l-10.559 1.246 1.753 -10.486c0.56,-3.345 1.11,-6.692 1.644,-10.041 0.538,-3.38 1.11,-6.755 1.656,-10.134l0.967 -5.982 6.022 -0.675c2.075,-0.232 4.151,-0.462 6.227,-0.688 -1.898,-1.062 -3.794,-2.127 -5.686,-3.2l-4.832 -2.739 0.891 -5.483c0.703,-4.322 1.397,-8.645 2.091,-12.969 0.694,-4.324 1.405,-8.645 2.09,-12.97l0.969 -6.111 6.159 -0.584c6.704,-0.635 13.41,-1.249 20.125,-1.747 6.645,-0.494 13.299,-0.867 19.953,-1.222l8.986 -0.48 -0.428 6.412c1.873,-1.574 3.742,-3.153 5.607,-4.739l2.179 -1.853 2.86 -0.046c10.159,-0.164 20.32,-0.191 30.48,-0.094zm-51.823 35.735c-0.013,0.001 -0.027,0.002 -0.04,0.003 0.013,0.007 0.026,0.014 0.038,0.022 0.001,-0.008 0.001,-0.017 0.002,-0.025z"/>
  <path class="fil4" d="M77.119 74.74c-7.686,0.523 -15.394,1.076 -23.111,1.81 -7.761,0.738 -15.549,1.638 -23.358,2.56 0.563,-3.365 1.116,-6.729 1.653,-10.102 0.536,-3.364 1.109,-6.744 1.654,-10.116 5.716,-0.64 11.45,-1.266 17.149,-1.824 -0.352,2.615 -0.686,5.223 -1.02,7.831 3.588,-0.357 7.158,-0.674 10.746,-0.984 0.387,-3.385 0.756,-6.778 1.126,-10.171 -4.169,-2.305 -8.306,-4.589 -12.383,-6.867 -4.049,-2.264 -8.073,-4.501 -12.03,-6.744 0.703,-4.329 1.398,-8.659 2.093,-12.986 0.695,-4.33 1.407,-8.657 2.093,-12.985 6.684,-0.634 13.33,-1.242 19.963,-1.735 6.611,-0.491 13.209,-0.86 19.787,-1.211 -0.211,3.159 -0.466,6.317 -0.703,9.462 -0.238,3.145 -0.475,6.304 -0.721,9.449 -4.855,0.275 -9.727,0.578 -14.617,0.922 0.264,-2.264 0.511,-4.528 0.739,-6.792 -3.465,0.261 -6.93,0.516 -10.412,0.805 -0.352,2.801 -0.722,5.595 -1.056,8.389 3.975,2.312 7.992,4.634 12.048,6.971 4.105,2.363 8.232,4.741 12.418,7.129 -0.352,4.542 -0.686,9.07 -1.038,13.598 -0.352,4.535 -0.668,9.063 -1.02,13.591zm25.064 -1.108c-5.822,0.158 -11.644,0.406 -17.465,0.668 0.545,-8.884 1.082,-17.783 1.618,-26.673 0.536,-8.892 1.09,-17.782 1.636,-26.68 4.203,-3.489 8.354,-6.971 12.417,-10.426 10.659,-0.172 21.335,-0.193 31.994,-0.075 0.369,10.521 0.73,21.051 1.09,31.558 0.361,10.516 0.721,21.037 1.108,31.546 -5.821,-0.117 -11.643,-0.159 -17.43,-0.159 0,-3.447 -0.017,-6.902 -0.017,-10.357 0,-3.447 -0.018,-6.915 -0.018,-10.37 -4.802,0.048 -9.568,0.096 -14.37,0.213 -0.106,3.462 -0.176,6.93 -0.264,10.385 -0.088,3.455 -0.211,6.916 -0.299,10.37zm14.933 -32.942c0,-3.069 -0.018,-6.132 -0.018,-9.201 0,-3.062 0,-6.131 -0.017,-9.2 -4.521,0.034 -9.006,0.075 -13.491,0.165 -0.088,3.076 -0.167,6.145 -0.264,9.214 -0.096,3.076 -0.14,6.145 -0.228,9.215 4.643,-0.103 9.322,-0.152 14.018,-0.193zm60.241 -28.097c6.015,0.502 12.031,1.046 18.081,1.617 1.865,10.824 3.711,21.649 5.558,32.46 1.847,10.811 3.676,21.629 5.541,32.44 -5.541,-0.702 -11.064,-1.397 -16.569,-1.989 -0.95,-6.654 -1.882,-13.32 -2.814,-19.984 -0.932,-6.659 -1.865,-13.33 -2.779,-19.991 -1.143,6.462 -2.305,12.917 -3.571,19.365 -1.266,6.455 -2.638,12.896 -4.027,19.323 -1.759,-0.158 -3.518,-0.316 -5.259,-0.44 -2.85,-6.758 -5.652,-13.506 -8.373,-20.246 -2.713,-6.721 -5.294,-13.426 -7.844,-20.108 0.51,6.579 1.055,13.156 1.583,19.737 0.527,6.57 1.037,13.15 1.565,19.722 -5.399,-0.303 -10.799,-0.543 -16.181,-0.75 -0.528,-10.522 -1.038,-21.051 -1.548,-31.572 -0.51,-10.522 -1.055,-21.058 -1.583,-31.587 5.91,0.179 11.837,0.413 17.782,0.681 2.181,5.368 4.379,10.742 6.666,16.124 2.287,5.381 4.643,10.79 7.035,16.206 1.214,-5.141 2.419,-10.303 3.536,-15.47 1.116,-5.162 2.181,-10.357 3.201,-15.538z"/>
 </g>
</svg>
