<?xml version="1.0" encoding="UTF-8"?>
<!DOCTYPE svg PUBLIC "-//W3C//DTD SVG 1.1//EN" "http://www.w3.org/Graphics/SVG/1.1/DTD/svg11.dtd">
<!-- Creator: CorelDRAW -->
<svg xmlns="http://www.w3.org/2000/svg" xml:space="preserve" width="31px" height="31px" version="1.1" style="shape-rendering:geometricPrecision; text-rendering:geometricPrecision; image-rendering:optimizeQuality; fill-rule:evenodd; clip-rule:evenodd"
viewBox="0 0 0.887 0.887"
 xmlns:xlink="http://www.w3.org/1999/xlink"
 xmlns:xodm="http://www.corel.com/coreldraw/odm/2003">
 <defs>
  <style type="text/css">
   <![CDATA[
    .fil0 {fill:white}
   ]]>
  </style>
 </defs>
 <g id="Layer_x0020_1">
  <metadata id="CorelCorpID_0Corel-Layer"/>
  <path class="fil0" d="M0.446 0c0.244,0 0.441,0.197 0.441,0.44 0,0.243 -0.197,0.44 -0.441,0.44 -0.077,0 -0.148,-0.019 -0.211,-0.053l-0.235 0.06 0.062 -0.229c-0.037,-0.064 -0.058,-0.139 -0.058,-0.218 0,-0.243 0.198,-0.44 0.442,-0.44zm-0.171 0.24c-0.018,0.01 -0.021,0.017 -0.033,0.033 -0.029,0.042 -0.026,0.081 -0.009,0.125 0.009,0.025 0.029,0.054 0.046,0.074 0.036,0.044 0.073,0.087 0.121,0.119 0.029,0.019 0.069,0.036 0.102,0.048 0.04,0.012 0.061,0.018 0.107,0.003 0.008,-0.003 0.025,-0.014 0.033,-0.02 0.017,-0.013 0.034,-0.055 0.029,-0.075 -0.003,-0.01 -0.078,-0.042 -0.082,-0.043 -0.005,-0.002 -0.016,-0.008 -0.021,-0.009 -0.01,-0.001 -0.009,-0.003 -0.017,0.002 -0.003,0.002 -0.034,0.042 -0.037,0.046 -0.004,0.005 -0.007,0.008 -0.015,0.008 -0.024,0 -0.086,-0.045 -0.103,-0.061 -0.022,-0.019 -0.033,-0.035 -0.048,-0.058 -0.008,-0.012 -0.018,-0.022 -0.006,-0.036 0.007,-0.008 0.014,-0.015 0.02,-0.024 0.002,-0.003 0.002,-0.003 0.003,-0.005 0.015,-0.022 0.006,-0.021 0.001,-0.038 -0.006,-0.014 -0.028,-0.073 -0.036,-0.083 -0.01,-0.013 -0.042,-0.012 -0.055,-0.006zm0.011 0.525c0.048,0.024 0.102,0.037 0.16,0.037 0.2,0 0.363,-0.162 0.363,-0.362 0,-0.2 -0.163,-0.362 -0.363,-0.362 -0.201,0 -0.364,0.162 -0.364,0.362 0,0.06 0.015,0.117 0.042,0.168l0.022 0.037 -0.038 0.135 0.143 -0.035 0.035 0.02z"/>
 </g>
</svg>
